<svg xmlns="http://www.w3.org/2000/svg" width="1200" height="630" viewBox="0 0 1200 630">
<rect width="1200" height="630" fill="#FAFAF9"/>
<line x1="0" y1="80" x2="1200" y2="80" stroke="#E8E8E6" stroke-width="0.8" opacity="0.6"/>
<line x1="0" y1="160" x2="1200" y2="160" stroke="#E8E8E6" stroke-width="0.8" opacity="0.6"/>
<line x1="0" y1="240" x2="1200" y2="240" stroke="#E8E8E6" stroke-width="0.8" opacity="0.6"/>
<line x1="0" y1="320" x2="1200" y2="320" stroke="#E8E8E6" stroke-width="0.8" opacity="0.6"/>
<line x1="0" y1="400" x2="1200" y2="400" stroke="#E8E8E6" stroke-width="0.8" opacity="0.6"/>
<line x1="0" y1="480" x2="1200" y2="480" stroke="#E8E8E6" stroke-width="0.8" opacity="0.6"/>
<line x1="0" y1="560" x2="1200" y2="560" stroke="#E8E8E6" stroke-width="0.8" opacity="0.6"/>
<path d="M150,64.10289886619498 C210,60.56103520224826 240,347.01257595379434 300,328.75649845320885" stroke="#D1CFC9" stroke-width="0.8" fill="none" opacity="0.44"/>
<path d="M150,64.10289886619498 C210,75.5508271280096 240,580.5111418674958 300,558.8556458109188" stroke="#D1CFC9" stroke-width="0.8" fill="none" opacity="0.28"/>
<path d="M150,168.37323154546863 C210,158.09957750126478 240,230.38510943329547 300,245.50912052311682" stroke="#D1CFC9" stroke-width="0.8" fill="none" opacity="0.26"/>
<path d="M150,168.37323154546863 C210,133.9725403429993 240,337.11597600308386 300,328.75649845320885" stroke="#D1CFC9" stroke-width="0.8" fill="none" opacity="0.40"/>
<path d="M150,168.37323154546863 C210,168.26121714187582 240,526.9504846518278 300,558.8556458109188" stroke="#D1CFC9" stroke-width="0.8" fill="none" opacity="0.25"/>
<path d="M150,240.17493209095554 C210,265.11381149166584 240,36.5841471783547 300,69.48940923344097" stroke="#D1CFC9" stroke-width="0.8" fill="none" opacity="0.32"/>
<path d="M150,240.17493209095554 C210,233.89224267643695 240,165.90678889133426 300,160.6321198184467" stroke="#D1CFC9" stroke-width="0.8" fill="none" opacity="0.34"/>
<path d="M150,240.17493209095554 C210,227.06052941190092 240,296.5121633028058 300,328.75649845320885" stroke="#D1CFC9" stroke-width="0.8" fill="none" opacity="0.44"/>
<path d="M150,240.17493209095554 C210,234.81563915599037 240,360.3974660020083 300,378.59802617181515" stroke="#D1CFC9" stroke-width="0.8" fill="none" opacity="0.38"/>
<path d="M150,240.17493209095554 C210,270.2467793039388 240,479.14738309450854 300,478.80691081158744" stroke="#D1CFC9" stroke-width="0.8" fill="none" opacity="0.41"/>
<path d="M150,325.8088492209927 C210,290.751122309943 240,105.486316623163 300,69.48940923344097" stroke="#D1CFC9" stroke-width="0.8" fill="none" opacity="0.38"/>
<path d="M150,325.8088492209927 C210,364.1530446870958 240,171.44541040020886 300,160.6321198184467" stroke="#D1CFC9" stroke-width="0.8" fill="none" opacity="0.28"/>
<path d="M150,325.8088492209927 C210,313.6147340804722 240,347.9684128303706 300,378.59802617181515" stroke="#D1CFC9" stroke-width="0.8" fill="none" opacity="0.40"/>
<path d="M150,397.02748738206634 C210,374.67707530052337 240,244.71768787962333 300,245.50912052311682" stroke="#D1CFC9" stroke-width="0.8" fill="none" opacity="0.40"/>
<path d="M150,397.02748738206634 C210,405.0481068452467 240,309.23527602676427 300,328.75649845320885" stroke="#D1CFC9" stroke-width="0.8" fill="none" opacity="0.29"/>
<path d="M150,397.02748738206634 C210,362.23390815878145 240,515.2336926551031 300,478.80691081158744" stroke="#D1CFC9" stroke-width="0.8" fill="none" opacity="0.42"/>
<path d="M150,486.1217901893826 C210,513.4077647336893 240,294.39422162474233 300,328.75649845320885" stroke="#D1CFC9" stroke-width="0.8" fill="none" opacity="0.43"/>
<path d="M150,486.1217901893826 C210,524.1764614764662 240,389.17734671120473 300,378.59802617181515" stroke="#D1CFC9" stroke-width="0.8" fill="none" opacity="0.26"/>
<path d="M150,486.1217901893826 C210,518.9959292135309 240,483.9232764857992 300,478.80691081158744" stroke="#D1CFC9" stroke-width="0.8" fill="none" opacity="0.39"/>
<path d="M150,486.1217901893826 C210,518.2740544547615 240,585.3894508465634 300,558.8556458109188" stroke="#D1CFC9" stroke-width="0.8" fill="none" opacity="0.25"/>
<path d="M150,553.0103880994744 C210,550.0693455321177 240,89.48105532116746 300,69.48940923344097" stroke="#D1CFC9" stroke-width="0.8" fill="none" opacity="0.28"/>
<path d="M150,553.0103880994744 C210,565.1535095106003 240,233.54120450665738 300,245.50912052311682" stroke="#D1CFC9" stroke-width="0.8" fill="none" opacity="0.36"/>
<path d="M150,553.0103880994744 C210,576.7973911248374 240,478.87842013375564 300,478.80691081158744" stroke="#D1CFC9" stroke-width="0.8" fill="none" opacity="0.37"/>
<path d="M150,553.0103880994744 C210,539.8101279284596 240,574.6695388105394 300,558.8556458109188" stroke="#D1CFC9" stroke-width="0.8" fill="none" opacity="0.35"/>
<path d="M300,69.48940923344097 C420,89.67702917199978 480,83.41442887797356 600,66.47408729150754" stroke="#D1CFC9" stroke-width="0.8" fill="none" opacity="0.25"/>
<path d="M300,69.48940923344097 C420,84.19988303694404 480,112.27859539783759 600,142.00658477476253" stroke="#D1CFC9" stroke-width="0.8" fill="none" opacity="0.34"/>
<path d="M300,69.48940923344097 C420,79.6180904577761 480,247.74426077544788 600,225.76331397058985" stroke="#D1CFC9" stroke-width="0.8" fill="none" opacity="0.39"/>
<path d="M300,160.6321198184467 C420,146.59902667006222 480,50.97664688084663 600,66.47408729150754" stroke="#D1CFC9" stroke-width="0.8" fill="none" opacity="0.30"/>
<path d="M300,160.6321198184467 C420,168.03088294220643 480,310.4481664507646 600,305.3925219839771" stroke="#D1CFC9" stroke-width="0.8" fill="none" opacity="0.31"/>
<path d="M300,160.6321198184467 C420,173.74443320568986 480,577.7482633677423 600,545.4425084248517" stroke="#D1CFC9" stroke-width="0.8" fill="none" opacity="0.34"/>
<path d="M300,245.50912052311682 C420,270.6272968793352 480,77.83362274054289 600,66.47408729150754" stroke="#D1CFC9" stroke-width="0.8" fill="none" opacity="0.37"/>
<path d="M300,245.50912052311682 C420,240.9891376532589 480,220.14855118809467 600,225.76331397058985" stroke="#D1CFC9" stroke-width="0.8" fill="none" opacity="0.41"/>
<path d="M300,245.50912052311682 C420,254.92502733271687 480,296.5410580847624 600,305.3925219839771" stroke="#D1CFC9" stroke-width="0.8" fill="none" opacity="0.29"/>
<path d="M300,245.50912052311682 C420,228.0151807374822 480,436.22669905033587 600,397.471666947117" stroke="#D1CFC9" stroke-width="0.8" fill="none" opacity="0.40"/>
<path d="M300,328.75649845320885 C420,353.04552420701265 480,171.4599575041118 600,142.00658477476253" stroke="#D1CFC9" stroke-width="0.8" fill="none" opacity="0.29"/>
<path d="M300,328.75649845320885 C420,337.6599319961178 480,232.34780971585954 600,225.76331397058985" stroke="#D1CFC9" stroke-width="0.8" fill="none" opacity="0.34"/>
<path d="M300,328.75649845320885 C420,339.93957936186104 480,282.0075979597768 600,305.3925219839771" stroke="#D1CFC9" stroke-width="0.8" fill="none" opacity="0.42"/>
<path d="M300,328.75649845320885 C420,301.3019505740497 480,435.04368545069445 600,397.471666947117" stroke="#D1CFC9" stroke-width="0.8" fill="none" opacity="0.31"/>
<path d="M300,328.75649845320885 C420,332.42067259914955 480,553.7812961035597 600,545.4425084248517" stroke="#D1CFC9" stroke-width="0.8" fill="none" opacity="0.30"/>
<path d="M300,378.59802617181515 C420,365.9915727669121 480,164.02760992904138 600,142.00658477476253" stroke="#D1CFC9" stroke-width="0.8" fill="none" opacity="0.36"/>
<path d="M300,378.59802617181515 C420,381.76553587924354 480,243.72777939732833 600,225.76331397058985" stroke="#D1CFC9" stroke-width="0.8" fill="none" opacity="0.35"/>
<path d="M300,378.59802617181515 C420,370.3235568408444 480,303.20253038824364 600,305.3925219839771" stroke="#D1CFC9" stroke-width="0.8" fill="none" opacity="0.36"/>
<path d="M300,478.80691081158744 C420,440.6994057997245 480,70.57892049489985 600,66.47408729150754" stroke="#D1CFC9" stroke-width="0.8" fill="none" opacity="0.29"/>
<path d="M300,478.80691081158744 C420,449.0637306321444 480,297.2857973715374 600,305.3925219839771" stroke="#D1CFC9" stroke-width="0.8" fill="none" opacity="0.38"/>
<path d="M300,478.80691081158744 C420,448.626884893602 480,440.9458208317393 600,469.70532354175936" stroke="#D1CFC9" stroke-width="0.8" fill="none" opacity="0.32"/>
<path d="M300,478.80691081158744 C420,446.7456595605462 480,530.08623014148 600,545.4425084248517" stroke="#D1CFC9" stroke-width="0.8" fill="none" opacity="0.32"/>
<path d="M300,558.8556458109188 C420,580.9106764953841 480,110.81803265797627 600,142.00658477476253" stroke="#D1CFC9" stroke-width="0.8" fill="none" opacity="0.29"/>
<path d="M600,66.47408729150754 C720,57.82727467357817 780,74.00830174889609 900,90.9078738142056" stroke="#D1CFC9" stroke-width="0.8" fill="none" opacity="0.40"/>
<path d="M600,66.47408729150754 C720,81.10215212290692 780,222.52829581767514 900,224.05054417742662" stroke="#D1CFC9" stroke-width="0.8" fill="none" opacity="0.45"/>
<path d="M600,66.47408729150754 C720,61.95028618535733 780,457.186511962718 900,418.3510376916619" stroke="#D1CFC9" stroke-width="0.8" fill="none" opacity="0.34"/>
<path d="M600,142.00658477476253 C720,177.88158699407512 780,200.9756777598466 900,224.05054417742662" stroke="#D1CFC9" stroke-width="0.8" fill="none" opacity="0.27"/>
<path d="M600,142.00658477476253 C720,131.3376926476107 780,357.01627206732894 900,335.8101489319955" stroke="#D1CFC9" stroke-width="0.8" fill="none" opacity="0.30"/>
<path d="M600,142.00658477476253 C720,111.4141345381886 780,493.58095020325413 900,532.9291914987679" stroke="#D1CFC9" stroke-width="0.8" fill="none" opacity="0.27"/>
<path d="M600,225.76331397058985 C720,252.44449521576624 780,82.9795964371831 900,90.9078738142056" stroke="#D1CFC9" stroke-width="0.8" fill="none" opacity="0.36"/>
<path d="M600,225.76331397058985 C720,236.9831758997131 780,223.59370552296605 900,224.05054417742662" stroke="#D1CFC9" stroke-width="0.8" fill="none" opacity="0.35"/>
<path d="M600,225.76331397058985 C720,195.04524091015224 780,314.13106465389274 900,335.8101489319955" stroke="#D1CFC9" stroke-width="0.8" fill="none" opacity="0.35"/>
<path d="M600,225.76331397058985 C720,187.63877778829513 780,508.2250683629478 900,532.9291914987679" stroke="#D1CFC9" stroke-width="0.8" fill="none" opacity="0.42"/>
<path d="M600,305.3925219839771 C720,330.2590757117162 780,70.11183747093003 900,90.9078738142056" stroke="#D1CFC9" stroke-width="0.8" fill="none" opacity="0.39"/>
<path d="M600,305.3925219839771 C720,271.63274458851265 780,361.22398293419366 900,335.8101489319955" stroke="#D1CFC9" stroke-width="0.8" fill="none" opacity="0.30"/>
<path d="M600,305.3925219839771 C720,294.60839778030254 780,392.8850315017358 900,418.3510376916619" stroke="#D1CFC9" stroke-width="0.8" fill="none" opacity="0.39"/>
<path d="M600,305.3925219839771 C720,281.8293572172009 780,514.9748410733823 900,532.9291914987679" stroke="#D1CFC9" stroke-width="0.8" fill="none" opacity="0.33"/>
<path d="M600,397.471666947117 C720,434.39509640945937 780,81.18930525406945 900,90.9078738142056" stroke="#D1CFC9" stroke-width="0.8" fill="none" opacity="0.40"/>
<path d="M600,397.471666947117 C720,428.492421986417 780,185.19024859512928 900,224.05054417742662" stroke="#D1CFC9" stroke-width="0.8" fill="none" opacity="0.36"/>
<path d="M600,397.471666947117 C720,360.1213201291676 780,328.6574126595299 900,335.8101489319955" stroke="#D1CFC9" stroke-width="0.8" fill="none" opacity="0.43"/>
<path d="M600,397.471666947117 C720,366.7718219742579 780,532.3575767433172 900,532.9291914987679" stroke="#D1CFC9" stroke-width="0.8" fill="none" opacity="0.33"/>
<path d="M600,469.70532354175936 C720,442.93794336314033 780,96.29636747443497 900,90.9078738142056" stroke="#D1CFC9" stroke-width="0.8" fill="none" opacity="0.40"/>
<path d="M600,469.70532354175936 C720,464.16948924852056 780,188.3456720545296 900,224.05054417742662" stroke="#D1CFC9" stroke-width="0.8" fill="none" opacity="0.27"/>
<path d="M600,469.70532354175936 C720,434.1800852337457 780,347.39920605425704 900,335.8101489319955" stroke="#D1CFC9" stroke-width="0.8" fill="none" opacity="0.29"/>
<path d="M600,469.70532354175936 C720,438.263482101614 780,386.11000083878406 900,418.3510376916619" stroke="#D1CFC9" stroke-width="0.8" fill="none" opacity="0.37"/>
<path d="M600,545.4425084248517 C720,521.9318635830264 780,495.7028996231274 900,532.9291914987679" stroke="#D1CFC9" stroke-width="0.8" fill="none" opacity="0.36"/>
<path d="M900,90.9078738142056 C960,119.83186809574994 990,87.60949552166497 1050,77.16928173652134" stroke="#D1CFC9" stroke-width="0.8" fill="none" opacity="0.39"/>
<path d="M900,90.9078738142056 C960,71.48649339598754 990,149.03498810396647 1050,143.39815997999352" stroke="#D1CFC9" stroke-width="0.8" fill="none" opacity="0.40"/>
<path d="M900,90.9078738142056 C960,66.03368562553861 990,223.1090776074233 1050,232.324242734775" stroke="#D1CFC9" stroke-width="0.8" fill="none" opacity="0.42"/>
<path d="M900,90.9078738142056 C960,113.98104747850005 990,286.74159911193226 1050,313.4870457125914" stroke="#D1CFC9" stroke-width="0.8" fill="none" opacity="0.44"/>
<path d="M900,90.9078738142056 C960,55.10622034433907 990,475.67401741489863 1050,484.0321362396428" stroke="#D1CFC9" stroke-width="0.8" fill="none" opacity="0.25"/>
<path d="M900,90.9078738142056 C960,128.9946271895884 990,523.9650443872588 1050,551.9477102063707" stroke="#D1CFC9" stroke-width="0.8" fill="none" opacity="0.38"/>
<path d="M900,224.05054417742662 C960,218.38872086428773 990,244.7460702495291 1050,232.324242734775" stroke="#D1CFC9" stroke-width="0.8" fill="none" opacity="0.30"/>
<path d="M900,224.05054417742662 C960,250.89452424084175 990,498.80672459887734 1050,484.0321362396428" stroke="#D1CFC9" stroke-width="0.8" fill="none" opacity="0.28"/>
<path d="M900,224.05054417742662 C960,255.76995060890212 990,555.7957047974448 1050,551.9477102063707" stroke="#D1CFC9" stroke-width="0.8" fill="none" opacity="0.31"/>
<path d="M900,335.8101489319955 C960,347.9583333665408 990,92.73042088601049 1050,77.16928173652134" stroke="#D1CFC9" stroke-width="0.8" fill="none" opacity="0.36"/>
<path d="M900,335.8101489319955 C960,354.1774828792963 990,257.7256909662917 1050,232.324242734775" stroke="#D1CFC9" stroke-width="0.8" fill="none" opacity="0.36"/>
<path d="M900,335.8101489319955 C960,335.1106672750578 990,347.6522382556932 1050,313.4870457125914" stroke="#D1CFC9" stroke-width="0.8" fill="none" opacity="0.44"/>
<path d="M900,335.8101489319955 C960,339.3801346447738 990,437.1463619589681 1050,407.80924749323384" stroke="#D1CFC9" stroke-width="0.8" fill="none" opacity="0.30"/>
<path d="M900,335.8101489319955 C960,325.35588391063635 990,477.4214457244779 1050,484.0321362396428" stroke="#D1CFC9" stroke-width="0.8" fill="none" opacity="0.45"/>
<path d="M900,335.8101489319955 C960,351.1945961469772 990,527.8122009835932 1050,551.9477102063707" stroke="#D1CFC9" stroke-width="0.8" fill="none" opacity="0.40"/>
<path d="M900,418.3510376916619 C960,413.9320760334218 990,219.04170902458526 1050,232.324242734775" stroke="#D1CFC9" stroke-width="0.8" fill="none" opacity="0.42"/>
<path d="M900,418.3510376916619 C960,392.25377768912676 990,310.661375721081 1050,313.4870457125914" stroke="#D1CFC9" stroke-width="0.8" fill="none" opacity="0.30"/>
<path d="M900,418.3510376916619 C960,430.2546466666401 990,585.5421083308854 1050,551.9477102063707" stroke="#D1CFC9" stroke-width="0.8" fill="none" opacity="0.39"/>
<path d="M900,532.9291914987679 C960,536.2084402642698 990,153.81822197490098 1050,143.39815997999352" stroke="#D1CFC9" stroke-width="0.8" fill="none" opacity="0.33"/>
<path d="M900,532.9291914987679 C960,564.715565182901 990,346.0012440960275 1050,313.4870457125914" stroke="#D1CFC9" stroke-width="0.8" fill="none" opacity="0.34"/>
<path d="M900,532.9291914987679 C960,552.1957458160342 990,407.9966641939238 1050,407.80924749323384" stroke="#D1CFC9" stroke-width="0.8" fill="none" opacity="0.30"/>
<path d="M900,532.9291914987679 C960,496.3318829458048 990,487.89713456438557 1050,484.0321362396428" stroke="#D1CFC9" stroke-width="0.8" fill="none" opacity="0.26"/>
<circle cx="150.0" cy="64.1" r="6.1" fill="#D1CFC9" opacity="0.8"/>
<circle cx="150.0" cy="168.4" r="6.2" fill="#D1CFC9" opacity="0.8"/>
<circle cx="150.0" cy="240.2" r="4.7" fill="#D1CFC9" opacity="0.8"/>
<circle cx="150.0" cy="325.8" r="5.9" fill="#D1CFC9" opacity="0.8"/>
<circle cx="150.0" cy="397.0" r="6.8" fill="#D1CFC9" opacity="0.8"/>
<circle cx="150.0" cy="486.1" r="4.7" fill="#D1CFC9" opacity="0.8"/>
<circle cx="150.0" cy="553.0" r="4.8" fill="#D1CFC9" opacity="0.8"/>
<circle cx="300.0" cy="69.5" r="4.0" fill="#D1CFC9" opacity="0.8"/>
<circle cx="300.0" cy="160.6" r="5.2" fill="#D1CFC9" opacity="0.8"/>
<circle cx="300.0" cy="245.5" r="6.3" fill="#D1CFC9" opacity="0.8"/>
<circle cx="300.0" cy="328.8" r="5.5" fill="#D1CFC9" opacity="0.8"/>
<circle cx="300.0" cy="378.6" r="4.5" fill="#D1CFC9" opacity="0.8"/>
<circle cx="300.0" cy="478.8" r="6.8" fill="#D1CFC9" opacity="0.8"/>
<circle cx="300.0" cy="558.9" r="6.3" fill="#D1CFC9" opacity="0.8"/>
<circle cx="600.0" cy="66.5" r="4.5" fill="#D1CFC9" opacity="0.8"/>
<circle cx="600.0" cy="142.0" r="6.1" fill="#D1CFC9" opacity="0.8"/>
<circle cx="600.0" cy="225.8" r="5.8" fill="#D1CFC9" opacity="0.8"/>
<circle cx="600.0" cy="305.4" r="6.3" fill="#D1CFC9" opacity="0.8"/>
<circle cx="600.0" cy="397.5" r="4.9" fill="#D1CFC9" opacity="0.8"/>
<circle cx="600.0" cy="469.7" r="4.8" fill="#D1CFC9" opacity="0.8"/>
<circle cx="600.0" cy="545.4" r="6.7" fill="#D1CFC9" opacity="0.8"/>
<circle cx="900.0" cy="90.9" r="6.9" fill="#D1CFC9" opacity="0.8"/>
<circle cx="900.0" cy="224.1" r="5.6" fill="#D1CFC9" opacity="0.8"/>
<circle cx="900.0" cy="335.8" r="4.4" fill="#D1CFC9" opacity="0.8"/>
<circle cx="900.0" cy="418.4" r="6.4" fill="#D1CFC9" opacity="0.8"/>
<circle cx="900.0" cy="532.9" r="6.6" fill="#D1CFC9" opacity="0.8"/>
<circle cx="1050.0" cy="77.2" r="5.0" fill="#D1CFC9" opacity="0.8"/>
<circle cx="1050.0" cy="143.4" r="5.2" fill="#D1CFC9" opacity="0.8"/>
<circle cx="1050.0" cy="232.3" r="5.9" fill="#D1CFC9" opacity="0.8"/>
<circle cx="1050.0" cy="313.5" r="4.3" fill="#D1CFC9" opacity="0.8"/>
<circle cx="1050.0" cy="407.8" r="5.2" fill="#D1CFC9" opacity="0.8"/>
<circle cx="1050.0" cy="484.0" r="5.8" fill="#D1CFC9" opacity="0.8"/>
<circle cx="1050.0" cy="551.9" r="4.5" fill="#D1CFC9" opacity="0.8"/>
<circle cx="1039.3" cy="519.0" r="14.9" fill="none" stroke="#1A1A1A" stroke-width="1" opacity="0.15"/>
<circle cx="1044.5" cy="172.7" r="11.6" fill="none" stroke="#1A1A1A" stroke-width="1" opacity="0.15"/>
<circle cx="1050.4" cy="545.6" r="11.4" fill="none" stroke="#1A1A1A" stroke-width="1" opacity="0.15"/>
<circle cx="580.8" cy="285.5" r="12.5" fill="none" stroke="#1A1A1A" stroke-width="1" opacity="0.15"/>
</svg>