<svg xmlns="http://www.w3.org/2000/svg" width="1200" height="630" viewBox="0 0 1200 630">
<rect width="1200" height="630" fill="#FAFAF9"/>
<line x1="0" y1="80" x2="1200" y2="80" stroke="#E8E8E6" stroke-width="0.8" opacity="0.6"/>
<line x1="0" y1="160" x2="1200" y2="160" stroke="#E8E8E6" stroke-width="0.8" opacity="0.6"/>
<line x1="0" y1="240" x2="1200" y2="240" stroke="#E8E8E6" stroke-width="0.8" opacity="0.6"/>
<line x1="0" y1="320" x2="1200" y2="320" stroke="#E8E8E6" stroke-width="0.8" opacity="0.6"/>
<line x1="0" y1="400" x2="1200" y2="400" stroke="#E8E8E6" stroke-width="0.8" opacity="0.6"/>
<line x1="0" y1="480" x2="1200" y2="480" stroke="#E8E8E6" stroke-width="0.8" opacity="0.6"/>
<line x1="0" y1="560" x2="1200" y2="560" stroke="#E8E8E6" stroke-width="0.8" opacity="0.6"/>
<path d="M150,141.79424434141123 C210,168.5119128679186 240,155.02226745494926 300,148.95860152894366" stroke="#D1CFC9" stroke-width="0.8" fill="none" opacity="0.41"/>
<path d="M150,141.79424434141123 C210,118.1126175596641 240,461.1039392077024 300,462.04371322756487" stroke="#D1CFC9" stroke-width="0.8" fill="none" opacity="0.30"/>
<path d="M150,141.79424434141123 C210,124.13849523052073 240,540.2997146130772 300,557.2117413483122" stroke="#D1CFC9" stroke-width="0.8" fill="none" opacity="0.37"/>
<path d="M150,262.30292777984937 C210,246.52887806383168 240,187.7310962098374 300,148.95860152894366" stroke="#D1CFC9" stroke-width="0.8" fill="none" opacity="0.26"/>
<path d="M150,262.30292777984937 C210,237.0861401395607 240,213.64689658341157 300,248.2141394988201" stroke="#D1CFC9" stroke-width="0.8" fill="none" opacity="0.30"/>
<path d="M150,262.30292777984937 C210,249.18056313097026 240,456.90155904499153 300,462.04371322756487" stroke="#D1CFC9" stroke-width="0.8" fill="none" opacity="0.29"/>
<path d="M150,262.30292777984937 C210,270.4884318699335 240,592.2740520428108 300,557.2117413483122" stroke="#D1CFC9" stroke-width="0.8" fill="none" opacity="0.43"/>
<path d="M150,395.05174661368403 C210,411.98121014758505 240,95.24723760381976 300,81.09509632191507" stroke="#D1CFC9" stroke-width="0.8" fill="none" opacity="0.28"/>
<path d="M150,395.05174661368403 C210,368.1340424219458 240,176.26921626087727 300,148.95860152894366" stroke="#D1CFC9" stroke-width="0.8" fill="none" opacity="0.40"/>
<path d="M150,395.05174661368403 C210,384.44349306701764 240,243.8534215809436 300,248.2141394988201" stroke="#D1CFC9" stroke-width="0.8" fill="none" opacity="0.29"/>
<path d="M150,395.05174661368403 C210,356.4880352501962 240,384.6652156266303 300,387.43764397407364" stroke="#D1CFC9" stroke-width="0.8" fill="none" opacity="0.26"/>
<path d="M150,395.05174661368403 C210,394.14644248144384 240,554.721310826885 300,557.2117413483122" stroke="#D1CFC9" stroke-width="0.8" fill="none" opacity="0.34"/>
<path d="M150,529.0350245469797 C210,515.5275226604025 240,45.3925119556702 300,81.09509632191507" stroke="#D1CFC9" stroke-width="0.8" fill="none" opacity="0.39"/>
<path d="M150,529.0350245469797 C210,567.4404733223469 240,117.43647125390974 300,148.95860152894366" stroke="#D1CFC9" stroke-width="0.8" fill="none" opacity="0.36"/>
<path d="M150,529.0350245469797 C210,518.5064240771593 240,268.3911279245259 300,248.2141394988201" stroke="#D1CFC9" stroke-width="0.8" fill="none" opacity="0.35"/>
<path d="M300,81.09509632191507 C420,112.65402296561608 480,384.55854800300636 600,383.3292365607175" stroke="#D1CFC9" stroke-width="0.8" fill="none" opacity="0.35"/>
<path d="M300,148.95860152894366 C420,110.77687547228459 480,130.4457810660931 600,149.1255083397789" stroke="#D1CFC9" stroke-width="0.8" fill="none" opacity="0.41"/>
<path d="M300,148.95860152894366 C420,127.66118287188262 480,396.41728163743795 600,383.3292365607175" stroke="#D1CFC9" stroke-width="0.8" fill="none" opacity="0.44"/>
<path d="M300,248.2141394988201 C420,238.28733641241848 480,116.09189857861307 600,149.1255083397789" stroke="#D1CFC9" stroke-width="0.8" fill="none" opacity="0.42"/>
<path d="M300,248.2141394988201 C420,211.39404193390953 480,349.3142092588623 600,383.3292365607175" stroke="#D1CFC9" stroke-width="0.8" fill="none" opacity="0.44"/>
<path d="M300,301.39527315684717 C420,289.8436142984064 480,377.24230310480164 600,383.3292365607175" stroke="#D1CFC9" stroke-width="0.8" fill="none" opacity="0.36"/>
<path d="M300,387.43764397407364 C420,410.78049857432035 480,227.4735261568505 600,243.55916131417248" stroke="#D1CFC9" stroke-width="0.8" fill="none" opacity="0.44"/>
<path d="M300,462.04371322756487 C420,437.87448204369855 480,118.46848582105444 600,149.1255083397789" stroke="#D1CFC9" stroke-width="0.8" fill="none" opacity="0.35"/>
<path d="M300,462.04371322756487 C420,466.64353772983736 480,225.30695949385571 600,243.55916131417248" stroke="#D1CFC9" stroke-width="0.8" fill="none" opacity="0.28"/>
<path d="M300,462.04371322756487 C420,502.03845157166677 480,544.4012434761975 600,523.7045916196203" stroke="#D1CFC9" stroke-width="0.8" fill="none" opacity="0.43"/>
<path d="M300,557.2117413483122 C420,543.5891897754253 480,224.7775169524312 600,243.55916131417248" stroke="#D1CFC9" stroke-width="0.8" fill="none" opacity="0.31"/>
<path d="M300,557.2117413483122 C420,566.974169222632 480,367.45289104363246 600,383.3292365607175" stroke="#D1CFC9" stroke-width="0.8" fill="none" opacity="0.36"/>
<path d="M300,557.2117413483122 C420,592.7265891325023 480,534.5687426398902 600,523.7045916196203" stroke="#D1CFC9" stroke-width="0.8" fill="none" opacity="0.32"/>
<path d="M600,149.1255083397789 C720,116.58393549876847 780,90.99135810811802 900,93.64199367716023" stroke="#D1CFC9" stroke-width="0.8" fill="none" opacity="0.27"/>
<path d="M600,149.1255083397789 C720,149.85617514687038 780,194.28514973802612 900,202.24842321855212" stroke="#D1CFC9" stroke-width="0.8" fill="none" opacity="0.33"/>
<path d="M600,149.1255083397789 C720,111.88980284181653 780,323.65499962020084 900,307.46462887606225" stroke="#D1CFC9" stroke-width="0.8" fill="none" opacity="0.39"/>
<path d="M600,149.1255083397789 C720,183.4723438027018 780,393.8161187090017 900,408.66057244773503" stroke="#D1CFC9" stroke-width="0.8" fill="none" opacity="0.39"/>
<path d="M600,149.1255083397789 C720,111.13381582329373 780,486.3174758749822 900,509.41881882478924" stroke="#D1CFC9" stroke-width="0.8" fill="none" opacity="0.29"/>
<path d="M600,243.55916131417248 C720,277.6220872438564 780,172.88826494521652 900,202.24842321855212" stroke="#D1CFC9" stroke-width="0.8" fill="none" opacity="0.40"/>
<path d="M600,243.55916131417248 C720,229.3488448931251 780,339.3993279550689 900,307.46462887606225" stroke="#D1CFC9" stroke-width="0.8" fill="none" opacity="0.26"/>
<path d="M600,383.3292365607175 C720,403.633781347711 780,203.52206030686435 900,202.24842321855212" stroke="#D1CFC9" stroke-width="0.8" fill="none" opacity="0.40"/>
<path d="M600,383.3292365607175 C720,387.60984216658625 780,301.37901435917684 900,307.46462887606225" stroke="#D1CFC9" stroke-width="0.8" fill="none" opacity="0.25"/>
<path d="M600,383.3292365607175 C720,364.21591745918056 780,490.8186761757403 900,509.41881882478924" stroke="#D1CFC9" stroke-width="0.8" fill="none" opacity="0.39"/>
<path d="M600,523.7045916196203 C720,524.5881076092338 780,421.9827773703688 900,408.66057244773503" stroke="#D1CFC9" stroke-width="0.8" fill="none" opacity="0.26"/>
<path d="M900,93.64199367716023 C960,91.61615552697707 990,72.96657346397791 1050,112.34278625071579" stroke="#D1CFC9" stroke-width="0.8" fill="none" opacity="0.27"/>
<path d="M900,202.24842321855212 C960,234.91152590697433 990,500.56198215395256 1050,490.70225908474583" stroke="#D1CFC9" stroke-width="0.8" fill="none" opacity="0.39"/>
<path d="M900,307.46462887606225 C960,281.73169231827643 990,134.99884640588397 1050,112.34278625071579" stroke="#D1CFC9" stroke-width="0.8" fill="none" opacity="0.34"/>
<path d="M900,307.46462887606225 C960,290.2949829311797 990,265.92238965125813 1050,271.9622054305771" stroke="#D1CFC9" stroke-width="0.8" fill="none" opacity="0.44"/>
<path d="M900,307.46462887606225 C960,298.4063523193836 990,332.57064631147557 1050,361.48270554521184" stroke="#D1CFC9" stroke-width="0.8" fill="none" opacity="0.28"/>
<path d="M900,408.66057244773503 C960,405.7138989178263 990,368.5964120257172 1050,361.48270554521184" stroke="#D1CFC9" stroke-width="0.8" fill="none" opacity="0.35"/>
<path d="M900,408.66057244773503 C960,437.5587867332061 990,469.6945189641077 1050,490.70225908474583" stroke="#D1CFC9" stroke-width="0.8" fill="none" opacity="0.43"/>
<path d="M900,509.41881882478924 C960,549.14571740179 990,525.4106806491061 1050,490.70225908474583" stroke="#D1CFC9" stroke-width="0.8" fill="none" opacity="0.39"/>
<circle cx="150.0" cy="141.8" r="4.1" fill="#D1CFC9" opacity="0.8"/>
<circle cx="150.0" cy="262.3" r="4.6" fill="#D1CFC9" opacity="0.8"/>
<circle cx="150.0" cy="395.1" r="6.0" fill="#D1CFC9" opacity="0.8"/>
<circle cx="150.0" cy="529.0" r="6.1" fill="#D1CFC9" opacity="0.8"/>
<circle cx="300.0" cy="81.1" r="5.4" fill="#D1CFC9" opacity="0.8"/>
<circle cx="300.0" cy="149.0" r="5.8" fill="#D1CFC9" opacity="0.8"/>
<circle cx="300.0" cy="248.2" r="5.7" fill="#D1CFC9" opacity="0.8"/>
<circle cx="300.0" cy="301.4" r="6.7" fill="#D1CFC9" opacity="0.8"/>
<circle cx="300.0" cy="387.4" r="6.5" fill="#D1CFC9" opacity="0.8"/>
<circle cx="300.0" cy="462.0" r="6.9" fill="#D1CFC9" opacity="0.8"/>
<circle cx="300.0" cy="557.2" r="5.4" fill="#D1CFC9" opacity="0.8"/>
<circle cx="600.0" cy="149.1" r="5.4" fill="#D1CFC9" opacity="0.8"/>
<circle cx="600.0" cy="243.6" r="4.5" fill="#D1CFC9" opacity="0.8"/>
<circle cx="600.0" cy="383.3" r="5.9" fill="#D1CFC9" opacity="0.8"/>
<circle cx="600.0" cy="523.7" r="4.9" fill="#D1CFC9" opacity="0.8"/>
<circle cx="900.0" cy="93.6" r="5.1" fill="#D1CFC9" opacity="0.8"/>
<circle cx="900.0" cy="202.2" r="6.3" fill="#D1CFC9" opacity="0.8"/>
<circle cx="900.0" cy="307.5" r="4.9" fill="#D1CFC9" opacity="0.8"/>
<circle cx="900.0" cy="408.7" r="6.0" fill="#D1CFC9" opacity="0.8"/>
<circle cx="900.0" cy="509.4" r="5.2" fill="#D1CFC9" opacity="0.8"/>
<circle cx="1050.0" cy="112.3" r="5.9" fill="#D1CFC9" opacity="0.8"/>
<circle cx="1050.0" cy="272.0" r="4.9" fill="#D1CFC9" opacity="0.8"/>
<circle cx="1050.0" cy="361.5" r="6.4" fill="#D1CFC9" opacity="0.8"/>
<circle cx="1050.0" cy="490.7" r="6.1" fill="#D1CFC9" opacity="0.8"/>
<circle cx="165.9" cy="291.7" r="13.5" fill="none" stroke="#1A1A1A" stroke-width="1" opacity="0.15"/>
<circle cx="1060.4" cy="94.1" r="14.0" fill="none" stroke="#1A1A1A" stroke-width="1" opacity="0.15"/>
<circle cx="305.6" cy="387.6" r="17.7" fill="none" stroke="#1A1A1A" stroke-width="1" opacity="0.15"/>
<circle cx="283.3" cy="210.6" r="10.1" fill="none" stroke="#1A1A1A" stroke-width="1" opacity="0.15"/>
</svg>