<svg xmlns="http://www.w3.org/2000/svg" width="1200" height="630" viewBox="0 0 1200 630">
<rect width="1200" height="630" fill="#FAFAF9"/>
<line x1="0" y1="80" x2="1200" y2="80" stroke="#E8E8E6" stroke-width="0.8" opacity="0.6"/>
<line x1="0" y1="160" x2="1200" y2="160" stroke="#E8E8E6" stroke-width="0.8" opacity="0.6"/>
<line x1="0" y1="240" x2="1200" y2="240" stroke="#E8E8E6" stroke-width="0.8" opacity="0.6"/>
<line x1="0" y1="320" x2="1200" y2="320" stroke="#E8E8E6" stroke-width="0.8" opacity="0.6"/>
<line x1="0" y1="400" x2="1200" y2="400" stroke="#E8E8E6" stroke-width="0.8" opacity="0.6"/>
<line x1="0" y1="480" x2="1200" y2="480" stroke="#E8E8E6" stroke-width="0.8" opacity="0.6"/>
<line x1="0" y1="560" x2="1200" y2="560" stroke="#E8E8E6" stroke-width="0.8" opacity="0.6"/>
<path d="M150,86.76347935042891 C210,110.81716776856155 240,152.59773636576668 300,168.0229304521398" stroke="#D1CFC9" stroke-width="0.8" fill="none" opacity="0.34"/>
<path d="M150,86.76347935042891 C210,73.21449441921769 240,395.4131841131982 300,360.6806217736287" stroke="#D1CFC9" stroke-width="0.8" fill="none" opacity="0.44"/>
<path d="M150,86.76347935042891 C210,101.4422472454473 240,428.8978033468355 300,433.90310090638303" stroke="#D1CFC9" stroke-width="0.8" fill="none" opacity="0.39"/>
<path d="M150,86.76347935042891 C210,82.17062590938775 240,526.0384292444303 300,546.5406625775016" stroke="#D1CFC9" stroke-width="0.8" fill="none" opacity="0.40"/>
<path d="M150,159.18960151587137 C210,187.81669269375658 240,49.29005482636626 300,81.48834421520316" stroke="#D1CFC9" stroke-width="0.8" fill="none" opacity="0.25"/>
<path d="M150,159.18960151587137 C210,152.69791530618627 240,132.90720596790948 300,168.0229304521398" stroke="#D1CFC9" stroke-width="0.8" fill="none" opacity="0.29"/>
<path d="M150,159.18960151587137 C210,165.1914390409229 240,260.43172048973656 300,272.9577244066069" stroke="#D1CFC9" stroke-width="0.8" fill="none" opacity="0.38"/>
<path d="M150,159.18960151587137 C210,194.14776209017674 240,391.7669550538452 300,360.6806217736287" stroke="#D1CFC9" stroke-width="0.8" fill="none" opacity="0.34"/>
<path d="M150,159.18960151587137 C210,178.20253365509038 240,546.2722633183636 300,546.5406625775016" stroke="#D1CFC9" stroke-width="0.8" fill="none" opacity="0.30"/>
<path d="M150,233.54858637893307 C210,195.95208072265427 240,183.32991932642878 300,168.0229304521398" stroke="#D1CFC9" stroke-width="0.8" fill="none" opacity="0.36"/>
<path d="M150,233.54858637893307 C210,243.98673117509733 240,372.5133475266661 300,360.6806217736287" stroke="#D1CFC9" stroke-width="0.8" fill="none" opacity="0.27"/>
<path d="M150,233.54858637893307 C210,262.874010883708 240,394.98548202844927 300,433.90310090638303" stroke="#D1CFC9" stroke-width="0.8" fill="none" opacity="0.42"/>
<path d="M150,233.54858637893307 C210,269.23828915698414 240,567.9134021526932 300,546.5406625775016" stroke="#D1CFC9" stroke-width="0.8" fill="none" opacity="0.45"/>
<path d="M150,301.6492748532675 C210,340.58933122917995 240,269.15168442603937 300,272.9577244066069" stroke="#D1CFC9" stroke-width="0.8" fill="none" opacity="0.28"/>
<path d="M150,301.6492748532675 C210,309.169176724837 240,324.2104172572052 300,360.6806217736287" stroke="#D1CFC9" stroke-width="0.8" fill="none" opacity="0.28"/>
<path d="M150,393.85858746184005 C210,413.3358173763463 240,203.00876127206925 300,168.0229304521398" stroke="#D1CFC9" stroke-width="0.8" fill="none" opacity="0.37"/>
<path d="M150,393.85858746184005 C210,423.46979349548224 240,244.53933255945782 300,272.9577244066069" stroke="#D1CFC9" stroke-width="0.8" fill="none" opacity="0.39"/>
<path d="M150,393.85858746184005 C210,423.27144868363894 240,342.3643732909962 300,360.6806217736287" stroke="#D1CFC9" stroke-width="0.8" fill="none" opacity="0.36"/>
<path d="M150,393.85858746184005 C210,354.1063117602855 240,548.7138743108869 300,546.5406625775016" stroke="#D1CFC9" stroke-width="0.8" fill="none" opacity="0.41"/>
<path d="M150,475.8121442393312 C210,437.93107140569043 240,194.14913122918205 300,168.0229304521398" stroke="#D1CFC9" stroke-width="0.8" fill="none" opacity="0.28"/>
<path d="M150,475.8121442393312 C210,441.2748140080424 240,443.183185755085 300,433.90310090638303" stroke="#D1CFC9" stroke-width="0.8" fill="none" opacity="0.33"/>
<path d="M150,548.5295401384424 C210,509.3254473678128 240,154.38902762168763 300,168.0229304521398" stroke="#D1CFC9" stroke-width="0.8" fill="none" opacity="0.27"/>
<path d="M150,548.5295401384424 C210,516.577691238508 240,441.49525634792985 300,433.90310090638303" stroke="#D1CFC9" stroke-width="0.8" fill="none" opacity="0.33"/>
<path d="M300,81.48834421520316 C420,68.83948238492931 480,95.21922654221282 600,103.08242527700087" stroke="#D1CFC9" stroke-width="0.8" fill="none" opacity="0.37"/>
<path d="M300,81.48834421520316 C420,69.15746956997492 480,343.01506556826996 600,333.2591994947892" stroke="#D1CFC9" stroke-width="0.8" fill="none" opacity="0.40"/>
<path d="M300,81.48834421520316 C420,80.4956734945289 480,438.4990083588052 600,424.86001821604094" stroke="#D1CFC9" stroke-width="0.8" fill="none" opacity="0.30"/>
<path d="M300,168.0229304521398 C420,149.20748221017595 480,245.70700264319476 600,210.81472980692394" stroke="#D1CFC9" stroke-width="0.8" fill="none" opacity="0.45"/>
<path d="M300,168.0229304521398 C420,193.3164181875336 480,314.79208904849185 600,333.2591994947892" stroke="#D1CFC9" stroke-width="0.8" fill="none" opacity="0.38"/>
<path d="M300,168.0229304521398 C420,201.93170968069035 480,454.4622156595491 600,424.86001821604094" stroke="#D1CFC9" stroke-width="0.8" fill="none" opacity="0.39"/>
<path d="M300,168.0229304521398 C420,162.19944814783508 480,506.06151682978066 600,539.0718970031179" stroke="#D1CFC9" stroke-width="0.8" fill="none" opacity="0.29"/>
<path d="M300,272.9577244066069 C420,270.74938819621445 480,361.29938752141305 600,333.2591994947892" stroke="#D1CFC9" stroke-width="0.8" fill="none" opacity="0.38"/>
<path d="M300,272.9577244066069 C420,248.34847113405087 480,560.6478687475081 600,539.0718970031179" stroke="#D1CFC9" stroke-width="0.8" fill="none" opacity="0.36"/>
<path d="M300,360.6806217736287 C420,371.29449743528255 480,171.0662665674617 600,210.81472980692394" stroke="#D1CFC9" stroke-width="0.8" fill="none" opacity="0.42"/>
<path d="M300,360.6806217736287 C420,400.1527446178144 480,367.3910559423713 600,333.2591994947892" stroke="#D1CFC9" stroke-width="0.8" fill="none" opacity="0.32"/>
<path d="M300,360.6806217736287 C420,386.6701755311038 480,385.68804290534183 600,424.86001821604094" stroke="#D1CFC9" stroke-width="0.8" fill="none" opacity="0.37"/>
<path d="M300,433.90310090638303 C420,451.0825363181258 480,351.8512084195044 600,333.2591994947892" stroke="#D1CFC9" stroke-width="0.8" fill="none" opacity="0.36"/>
<path d="M300,433.90310090638303 C420,418.0032374081209 480,517.65855005003 600,539.0718970031179" stroke="#D1CFC9" stroke-width="0.8" fill="none" opacity="0.37"/>
<path d="M300,546.5406625775016 C420,532.7812701954463 480,69.3529527642189 600,103.08242527700087" stroke="#D1CFC9" stroke-width="0.8" fill="none" opacity="0.32"/>
<path d="M300,546.5406625775016 C420,516.1569951554194 480,389.7259878415442 600,424.86001821604094" stroke="#D1CFC9" stroke-width="0.8" fill="none" opacity="0.32"/>
<path d="M600,103.08242527700087 C720,65.41621025638102 780,86.40431712344389 900,104.07698100807075" stroke="#D1CFC9" stroke-width="0.8" fill="none" opacity="0.32"/>
<path d="M600,103.08242527700087 C720,136.6237462103888 780,197.56706113008948 900,211.48347688244738" stroke="#D1CFC9" stroke-width="0.8" fill="none" opacity="0.44"/>
<path d="M600,103.08242527700087 C720,77.91028570661096 780,291.39110252107287 900,328.12981452563076" stroke="#D1CFC9" stroke-width="0.8" fill="none" opacity="0.34"/>
<path d="M600,210.81472980692394 C720,177.020292329141 780,518.6852295665734 900,505.84490334937465" stroke="#D1CFC9" stroke-width="0.8" fill="none" opacity="0.41"/>
<path d="M600,333.2591994947892 C720,328.1141553251339 780,175.70891107868147 900,211.48347688244738" stroke="#D1CFC9" stroke-width="0.8" fill="none" opacity="0.45"/>
<path d="M600,333.2591994947892 C720,296.24363889085214 780,478.71491626527046 900,505.84490334937465" stroke="#D1CFC9" stroke-width="0.8" fill="none" opacity="0.44"/>
<path d="M600,424.86001821604094 C720,392.8621629494853 780,92.92175405773375 900,104.07698100807075" stroke="#D1CFC9" stroke-width="0.8" fill="none" opacity="0.41"/>
<path d="M600,424.86001821604094 C720,420.13774889780626 780,423.59362399405654 900,420.05879274687237" stroke="#D1CFC9" stroke-width="0.8" fill="none" opacity="0.33"/>
<path d="M600,424.86001821604094 C720,429.1894757328996 780,534.9864104210833 900,505.84490334937465" stroke="#D1CFC9" stroke-width="0.8" fill="none" opacity="0.31"/>
<path d="M600,539.0718970031179 C720,550.692487087262 780,193.0587189076605 900,211.48347688244738" stroke="#D1CFC9" stroke-width="0.8" fill="none" opacity="0.42"/>
<path d="M900,104.07698100807075 C960,66.51433727203737 990,76.6179694064469 1050,97.29819714727304" stroke="#D1CFC9" stroke-width="0.8" fill="none" opacity="0.31"/>
<path d="M900,104.07698100807075 C960,83.11243652252304 990,235.65686719507372 1050,225.18861288907672" stroke="#D1CFC9" stroke-width="0.8" fill="none" opacity="0.27"/>
<path d="M900,104.07698100807075 C960,95.07548283018997 990,544.8568493330052 1050,544.7379620295804" stroke="#D1CFC9" stroke-width="0.8" fill="none" opacity="0.32"/>
<path d="M900,211.48347688244738 C960,230.01091300347144 990,343.44628747353477 1050,303.9741845037728" stroke="#D1CFC9" stroke-width="0.8" fill="none" opacity="0.35"/>
<path d="M900,328.12981452563076 C960,359.3980761760376 990,119.37965820761855 1050,97.29819714727304" stroke="#D1CFC9" stroke-width="0.8" fill="none" opacity="0.26"/>
<path d="M900,328.12981452563076 C960,301.8785452851743 990,190.13625156952446 1050,225.18861288907672" stroke="#D1CFC9" stroke-width="0.8" fill="none" opacity="0.37"/>
<path d="M900,328.12981452563076 C960,305.7726994919993 990,265.95142936193184 1050,303.9741845037728" stroke="#D1CFC9" stroke-width="0.8" fill="none" opacity="0.43"/>
<path d="M900,420.05879274687237 C960,417.9327999062214 990,67.93587228235228 1050,97.29819714727304" stroke="#D1CFC9" stroke-width="0.8" fill="none" opacity="0.39"/>
<path d="M900,420.05879274687237 C960,398.4214987380946 990,266.0425449893909 1050,303.9741845037728" stroke="#D1CFC9" stroke-width="0.8" fill="none" opacity="0.39"/>
<path d="M900,505.84490334937465 C960,470.3214009707611 990,246.27555409708887 1050,225.18861288907672" stroke="#D1CFC9" stroke-width="0.8" fill="none" opacity="0.35"/>
<path d="M900,505.84490334937465 C960,539.5433586853425 990,324.1991621563675 1050,303.9741845037728" stroke="#D1CFC9" stroke-width="0.8" fill="none" opacity="0.45"/>
<path d="M900,505.84490334937465 C960,522.3882470071288 990,572.703409687314 1050,544.7379620295804" stroke="#D1CFC9" stroke-width="0.8" fill="none" opacity="0.36"/>
<circle cx="150.0" cy="86.8" r="5.6" fill="#D1CFC9" opacity="0.8"/>
<circle cx="150.0" cy="159.2" r="6.3" fill="#D1CFC9" opacity="0.8"/>
<circle cx="150.0" cy="233.5" r="5.4" fill="#D1CFC9" opacity="0.8"/>
<circle cx="150.0" cy="301.6" r="6.6" fill="#D1CFC9" opacity="0.8"/>
<circle cx="150.0" cy="393.9" r="6.2" fill="#D1CFC9" opacity="0.8"/>
<circle cx="150.0" cy="475.8" r="4.8" fill="#D1CFC9" opacity="0.8"/>
<circle cx="150.0" cy="548.5" r="4.1" fill="#D1CFC9" opacity="0.8"/>
<circle cx="300.0" cy="81.5" r="6.9" fill="#D1CFC9" opacity="0.8"/>
<circle cx="300.0" cy="168.0" r="4.9" fill="#D1CFC9" opacity="0.8"/>
<circle cx="300.0" cy="273.0" r="5.4" fill="#D1CFC9" opacity="0.8"/>
<circle cx="300.0" cy="360.7" r="5.5" fill="#D1CFC9" opacity="0.8"/>
<circle cx="300.0" cy="433.9" r="5.6" fill="#D1CFC9" opacity="0.8"/>
<circle cx="300.0" cy="546.5" r="4.2" fill="#D1CFC9" opacity="0.8"/>
<circle cx="600.0" cy="103.1" r="4.8" fill="#D1CFC9" opacity="0.8"/>
<circle cx="600.0" cy="210.8" r="6.2" fill="#D1CFC9" opacity="0.8"/>
<circle cx="600.0" cy="333.3" r="4.2" fill="#D1CFC9" opacity="0.8"/>
<circle cx="600.0" cy="424.9" r="6.3" fill="#D1CFC9" opacity="0.8"/>
<circle cx="600.0" cy="539.1" r="6.4" fill="#D1CFC9" opacity="0.8"/>
<circle cx="900.0" cy="104.1" r="4.2" fill="#D1CFC9" opacity="0.8"/>
<circle cx="900.0" cy="211.5" r="4.7" fill="#D1CFC9" opacity="0.8"/>
<circle cx="900.0" cy="328.1" r="5.8" fill="#D1CFC9" opacity="0.8"/>
<circle cx="900.0" cy="420.1" r="6.4" fill="#D1CFC9" opacity="0.8"/>
<circle cx="900.0" cy="505.8" r="5.8" fill="#D1CFC9" opacity="0.8"/>
<circle cx="1050.0" cy="97.3" r="5.1" fill="#D1CFC9" opacity="0.8"/>
<circle cx="1050.0" cy="225.2" r="6.9" fill="#D1CFC9" opacity="0.8"/>
<circle cx="1050.0" cy="304.0" r="5.8" fill="#D1CFC9" opacity="0.8"/>
<circle cx="1050.0" cy="402.5" r="4.5" fill="#D1CFC9" opacity="0.8"/>
<circle cx="1050.0" cy="544.7" r="6.2" fill="#D1CFC9" opacity="0.8"/>
<circle cx="909.7" cy="353.4" r="17.4" fill="none" stroke="#1A1A1A" stroke-width="1" opacity="0.15"/>
<circle cx="145.0" cy="199.4" r="16.8" fill="none" stroke="#1A1A1A" stroke-width="1" opacity="0.15"/>
<circle cx="599.6" cy="328.9" r="13.4" fill="none" stroke="#1A1A1A" stroke-width="1" opacity="0.15"/>
<circle cx="142.2" cy="480.8" r="12.4" fill="none" stroke="#1A1A1A" stroke-width="1" opacity="0.15"/>
</svg>