<svg xmlns="http://www.w3.org/2000/svg" width="1200" height="630" viewBox="0 0 1200 630">
<rect width="1200" height="630" fill="#FAFAF9"/>
<path d="M0,77.7 C257.0,103.8 882.3,38.7 1200,68.3" stroke="#D1CFC9" stroke-width="1.00" fill="none" opacity="0.54"/>
<path d="M0,116.2 C347.6,68.5 982.8,150.6 1200,96.0" stroke="#D1CFC9" stroke-width="0.97" fill="none" opacity="0.41"/>
<path d="M0,152.8 C312.1,168.9 965.3,180.5 1200,100.3" stroke="#D1CFC9" stroke-width="1.74" fill="none" opacity="0.67"/>
<path d="M0,192.2 C326.3,186.6 924.7,236.6 1200,189.5" stroke="#E8E8E6" stroke-width="1.57" fill="none" opacity="0.54"/>
<path d="M0,182.6 C292.5,189.5 873.3,124.1 1200,226.6" stroke="#E8E8E6" stroke-width="0.91" fill="none" opacity="0.48"/>
<path d="M0,223.6 C256.8,227.8 833.6,288.0 1200,256.2" stroke="#D1CFC9" stroke-width="0.96" fill="none" opacity="0.48"/>
<path d="M0,283.8 C232.7,228.8 884.1,326.7 1200,278.2" stroke="#D1CFC9" stroke-width="1.65" fill="none" opacity="0.50"/>
<path d="M0,312.6 C273.2,245.6 919.6,287.8 1200,285.7" stroke="#D1CFC9" stroke-width="1.15" fill="none" opacity="0.47"/>
<path d="M0,339.3 C242.1,306.3 980.0,389.5 1200,351.2" stroke="#D1CFC9" stroke-width="1.20" fill="none" opacity="0.75"/>
<path d="M0,397.1 C299.2,308.0 912.0,324.7 1200,395.0" stroke="#E8E8E6" stroke-width="0.91" fill="none" opacity="0.61"/>
<path d="M0,402.0 C325.3,479.0 945.1,353.5 1200,430.6" stroke="#D1CFC9" stroke-width="1.53" fill="none" opacity="0.75"/>
<path d="M0,468.7 C363.4,530.6 998.3,487.7 1200,462.2" stroke="#E8E8E6" stroke-width="1.44" fill="none" opacity="0.68"/>
<path d="M0,527.6 C392.4,581.7 878.8,459.0 1200,497.0" stroke="#D1CFC9" stroke-width="1.05" fill="none" opacity="0.57"/>
<path d="M0,529.9 C280.1,457.9 823.1,487.0 1200,522.9" stroke="#E8E8E6" stroke-width="1.11" fill="none" opacity="0.44"/>
<path d="M0,573.4 C267.1,549.9 943.4,582.2 1200,590.6" stroke="#D1CFC9" stroke-width="0.91" fill="none" opacity="0.75"/>
<line x1="0" y1="610" x2="0" y2="605.1" stroke="#D1CFC9" stroke-width="0.8" opacity="0.5"/>
<line x1="100" y1="610" x2="100" y2="603.2" stroke="#D1CFC9" stroke-width="0.8" opacity="0.5"/>
<line x1="200" y1="610" x2="200" y2="604.9" stroke="#D1CFC9" stroke-width="0.8" opacity="0.5"/>
<line x1="300" y1="610" x2="300" y2="601.7" stroke="#D1CFC9" stroke-width="0.8" opacity="0.5"/>
<line x1="400" y1="610" x2="400" y2="604.4" stroke="#D1CFC9" stroke-width="0.8" opacity="0.5"/>
<line x1="500" y1="610" x2="500" y2="604.9" stroke="#D1CFC9" stroke-width="0.8" opacity="0.5"/>
<line x1="600" y1="610" x2="600" y2="605.2" stroke="#D1CFC9" stroke-width="0.8" opacity="0.5"/>
<line x1="700" y1="610" x2="700" y2="601.2" stroke="#D1CFC9" stroke-width="0.8" opacity="0.5"/>
<line x1="800" y1="610" x2="800" y2="604.6" stroke="#D1CFC9" stroke-width="0.8" opacity="0.5"/>
<line x1="900" y1="610" x2="900" y2="599.1" stroke="#D1CFC9" stroke-width="0.8" opacity="0.5"/>
<line x1="1000" y1="610" x2="1000" y2="605.5" stroke="#D1CFC9" stroke-width="0.8" opacity="0.5"/>
<line x1="1100" y1="610" x2="1100" y2="603.5" stroke="#D1CFC9" stroke-width="0.8" opacity="0.5"/>
<line x1="1200" y1="610" x2="1200" y2="604.2" stroke="#D1CFC9" stroke-width="0.8" opacity="0.5"/>
<line x1="270.1" y1="154.3" x2="708.5" y2="421.3" stroke="#D1CFC9" stroke-width="1" opacity="0.3"/>
</svg>