<svg xmlns="http://www.w3.org/2000/svg" width="1200" height="630" viewBox="0 0 1200 630">
<rect width="1200" height="630" fill="#FAFAF9"/>
<path d="M0,58.7 C254.7,103.9 823.6,31.8 1200,28.4" stroke="#D1CFC9" stroke-width="1.55" fill="none" opacity="0.70"/>
<path d="M0,115.7 C247.1,169.7 962.1,27.4 1200,103.5" stroke="#D1CFC9" stroke-width="0.90" fill="none" opacity="0.69"/>
<path d="M0,153.7 C200.9,42.5 979.7,118.3 1200,103.4" stroke="#E8E8E6" stroke-width="1.31" fill="none" opacity="0.41"/>
<path d="M0,150.1 C292.4,104.1 865.9,95.8 1200,141.7" stroke="#D1CFC9" stroke-width="1.17" fill="none" opacity="0.51"/>
<path d="M0,172.4 C211.3,189.5 835.1,200.0 1200,177.7" stroke="#D1CFC9" stroke-width="1.29" fill="none" opacity="0.66"/>
<path d="M0,252.5 C202.5,299.2 824.0,187.7 1200,230.8" stroke="#E8E8E6" stroke-width="1.65" fill="none" opacity="0.44"/>
<path d="M0,276.4 C373.1,191.4 818.8,317.9 1200,274.7" stroke="#E8E8E6" stroke-width="1.29" fill="none" opacity="0.71"/>
<path d="M0,325.0 C329.7,304.8 918.1,362.2 1200,313.1" stroke="#E8E8E6" stroke-width="1.59" fill="none" opacity="0.51"/>
<path d="M0,356.7 C222.6,288.7 918.6,369.3 1200,349.8" stroke="#D1CFC9" stroke-width="0.98" fill="none" opacity="0.56"/>
<path d="M0,380.9 C329.0,445.3 890.0,390.3 1200,398.5" stroke="#E8E8E6" stroke-width="1.08" fill="none" opacity="0.65"/>
<path d="M0,416.0 C264.2,359.6 855.6,383.7 1200,429.7" stroke="#D1CFC9" stroke-width="1.22" fill="none" opacity="0.45"/>
<path d="M0,468.8 C233.3,420.6 923.4,438.9 1200,488.2" stroke="#D1CFC9" stroke-width="1.68" fill="none" opacity="0.58"/>
<path d="M0,524.3 C207.6,559.4 866.5,525.8 1200,493.5" stroke="#E8E8E6" stroke-width="1.14" fill="none" opacity="0.69"/>
<path d="M0,539.2 C388.1,583.4 905.0,580.5 1200,540.3" stroke="#D1CFC9" stroke-width="1.42" fill="none" opacity="0.71"/>
<path d="M0,575.5 C396.2,644.2 875.8,525.5 1200,590.5" stroke="#E8E8E6" stroke-width="1.45" fill="none" opacity="0.47"/>
<line x1="0" y1="610" x2="0" y2="602.2" stroke="#D1CFC9" stroke-width="0.8" opacity="0.5"/>
<line x1="100" y1="610" x2="100" y2="604.6" stroke="#D1CFC9" stroke-width="0.8" opacity="0.5"/>
<line x1="200" y1="610" x2="200" y2="605.5" stroke="#D1CFC9" stroke-width="0.8" opacity="0.5"/>
<line x1="300" y1="610" x2="300" y2="604.2" stroke="#D1CFC9" stroke-width="0.8" opacity="0.5"/>
<line x1="400" y1="610" x2="400" y2="603.5" stroke="#D1CFC9" stroke-width="0.8" opacity="0.5"/>
<line x1="500" y1="610" x2="500" y2="602.9" stroke="#D1CFC9" stroke-width="0.8" opacity="0.5"/>
<line x1="600" y1="610" x2="600" y2="599.9" stroke="#D1CFC9" stroke-width="0.8" opacity="0.5"/>
<line x1="700" y1="610" x2="700" y2="603.8" stroke="#D1CFC9" stroke-width="0.8" opacity="0.5"/>
<line x1="800" y1="610" x2="800" y2="599.7" stroke="#D1CFC9" stroke-width="0.8" opacity="0.5"/>
<line x1="900" y1="610" x2="900" y2="602.6" stroke="#D1CFC9" stroke-width="0.8" opacity="0.5"/>
<line x1="1000" y1="610" x2="1000" y2="604.6" stroke="#D1CFC9" stroke-width="0.8" opacity="0.5"/>
<line x1="1100" y1="610" x2="1100" y2="603.0" stroke="#D1CFC9" stroke-width="0.8" opacity="0.5"/>
<line x1="1200" y1="610" x2="1200" y2="601.1" stroke="#D1CFC9" stroke-width="0.8" opacity="0.5"/>
<line x1="222.4" y1="178.9" x2="662.5" y2="461.5" stroke="#D1CFC9" stroke-width="1" opacity="0.3"/>
</svg>