<svg xmlns="http://www.w3.org/2000/svg" width="1200" height="630" viewBox="0 0 1200 630">
<rect width="1200" height="630" fill="#FAFAF9"/>
<path d="M0,66.4 C261.2,-38.8 880.8,81.3 1200,60.0" stroke="#E8E8E6" stroke-width="0.81" fill="none" opacity="0.60"/>
<path d="M0,117.5 C283.9,75.1 939.5,13.8 1200,104.2" stroke="#D1CFC9" stroke-width="1.08" fill="none" opacity="0.64"/>
<path d="M0,151.2 C211.2,160.4 804.7,196.8 1200,141.2" stroke="#E8E8E6" stroke-width="0.88" fill="none" opacity="0.55"/>
<path d="M0,147.2 C284.1,116.7 929.7,162.4 1200,176.1" stroke="#D1CFC9" stroke-width="0.94" fill="none" opacity="0.43"/>
<path d="M0,215.8 C315.5,265.2 912.8,231.9 1200,208.1" stroke="#E8E8E6" stroke-width="1.38" fill="none" opacity="0.67"/>
<path d="M0,258.0 C205.5,287.5 981.6,185.6 1200,216.2" stroke="#D1CFC9" stroke-width="1.44" fill="none" opacity="0.40"/>
<path d="M0,286.4 C326.9,274.5 956.2,347.5 1200,263.3" stroke="#D1CFC9" stroke-width="1.05" fill="none" opacity="0.43"/>
<path d="M0,289.6 C283.7,397.2 863.4,244.4 1200,307.3" stroke="#D1CFC9" stroke-width="1.43" fill="none" opacity="0.59"/>
<path d="M0,330.7 C349.5,374.1 867.5,302.6 1200,343.8" stroke="#E8E8E6" stroke-width="1.67" fill="none" opacity="0.67"/>
<path d="M0,410.2 C362.7,303.4 886.8,397.3 1200,411.5" stroke="#D1CFC9" stroke-width="1.28" fill="none" opacity="0.71"/>
<path d="M0,423.6 C336.0,414.6 810.4,398.8 1200,440.8" stroke="#E8E8E6" stroke-width="1.50" fill="none" opacity="0.40"/>
<path d="M0,479.2 C356.5,502.1 851.7,512.1 1200,491.7" stroke="#D1CFC9" stroke-width="0.81" fill="none" opacity="0.66"/>
<path d="M0,486.6 C374.2,519.1 808.4,446.8 1200,522.3" stroke="#D1CFC9" stroke-width="1.69" fill="none" opacity="0.41"/>
<path d="M0,563.1 C215.4,627.6 896.5,458.2 1200,565.2" stroke="#D1CFC9" stroke-width="1.58" fill="none" opacity="0.54"/>
<path d="M0,580.0 C265.4,530.2 826.0,574.0 1200,599.1" stroke="#D1CFC9" stroke-width="0.96" fill="none" opacity="0.50"/>
<line x1="0" y1="610" x2="0" y2="598.9" stroke="#D1CFC9" stroke-width="0.8" opacity="0.5"/>
<line x1="100" y1="610" x2="100" y2="604.0" stroke="#D1CFC9" stroke-width="0.8" opacity="0.5"/>
<line x1="200" y1="610" x2="200" y2="604.4" stroke="#D1CFC9" stroke-width="0.8" opacity="0.5"/>
<line x1="300" y1="610" x2="300" y2="601.0" stroke="#D1CFC9" stroke-width="0.8" opacity="0.5"/>
<line x1="400" y1="610" x2="400" y2="604.7" stroke="#D1CFC9" stroke-width="0.8" opacity="0.5"/>
<line x1="500" y1="610" x2="500" y2="599.1" stroke="#D1CFC9" stroke-width="0.8" opacity="0.5"/>
<line x1="600" y1="610" x2="600" y2="600.3" stroke="#D1CFC9" stroke-width="0.8" opacity="0.5"/>
<line x1="700" y1="610" x2="700" y2="601.5" stroke="#D1CFC9" stroke-width="0.8" opacity="0.5"/>
<line x1="800" y1="610" x2="800" y2="599.4" stroke="#D1CFC9" stroke-width="0.8" opacity="0.5"/>
<line x1="900" y1="610" x2="900" y2="604.4" stroke="#D1CFC9" stroke-width="0.8" opacity="0.5"/>
<line x1="1000" y1="610" x2="1000" y2="601.2" stroke="#D1CFC9" stroke-width="0.8" opacity="0.5"/>
<line x1="1100" y1="610" x2="1100" y2="604.5" stroke="#D1CFC9" stroke-width="0.8" opacity="0.5"/>
<line x1="1200" y1="610" x2="1200" y2="602.0" stroke="#D1CFC9" stroke-width="0.8" opacity="0.5"/>
<line x1="360.2" y1="186.4" x2="687.9" y2="477.5" stroke="#D1CFC9" stroke-width="1" opacity="0.3"/>
</svg>