<svg xmlns="http://www.w3.org/2000/svg" width="1200" height="630" viewBox="0 0 1200 630">
<rect width="1200" height="630" fill="#FAFAF9"/>
<line x1="0" y1="80" x2="1200" y2="80" stroke="#E8E8E6" stroke-width="0.8" opacity="0.6"/>
<line x1="0" y1="160" x2="1200" y2="160" stroke="#E8E8E6" stroke-width="0.8" opacity="0.6"/>
<line x1="0" y1="240" x2="1200" y2="240" stroke="#E8E8E6" stroke-width="0.8" opacity="0.6"/>
<line x1="0" y1="320" x2="1200" y2="320" stroke="#E8E8E6" stroke-width="0.8" opacity="0.6"/>
<line x1="0" y1="400" x2="1200" y2="400" stroke="#E8E8E6" stroke-width="0.8" opacity="0.6"/>
<line x1="0" y1="480" x2="1200" y2="480" stroke="#E8E8E6" stroke-width="0.8" opacity="0.6"/>
<line x1="0" y1="560" x2="1200" y2="560" stroke="#E8E8E6" stroke-width="0.8" opacity="0.6"/>
<path d="M150,92.95237306434484 C210,129.98830579081277 240,85.91304876560183 300,111.1359423429556" stroke="#D1CFC9" stroke-width="0.8" fill="none" opacity="0.25"/>
<path d="M150,92.95237306434484 C210,54.253933596949544 240,393.3422033862076 300,414.4117361263865" stroke="#D1CFC9" stroke-width="0.8" fill="none" opacity="0.29"/>
<path d="M150,92.95237306434484 C210,71.47557581203887 240,517.5280033553782 300,524.5961388253132" stroke="#D1CFC9" stroke-width="0.8" fill="none" opacity="0.28"/>
<path d="M150,183.85471325504005 C210,173.99393842462308 240,252.32985968453107 300,219.6807021546831" stroke="#D1CFC9" stroke-width="0.8" fill="none" opacity="0.34"/>
<path d="M150,183.85471325504005 C210,171.80664979708536 240,332.5569725019292 300,296.5097195274452" stroke="#D1CFC9" stroke-width="0.8" fill="none" opacity="0.28"/>
<path d="M150,183.85471325504005 C210,179.5567774869401 240,411.7489409676634 300,414.4117361263865" stroke="#D1CFC9" stroke-width="0.8" fill="none" opacity="0.27"/>
<path d="M150,263.67164518769636 C210,274.5180699914969 240,115.24822057626402 300,111.1359423429556" stroke="#D1CFC9" stroke-width="0.8" fill="none" opacity="0.27"/>
<path d="M150,263.67164518769636 C210,234.78667719633938 240,247.21601889101228 300,219.6807021546831" stroke="#D1CFC9" stroke-width="0.8" fill="none" opacity="0.25"/>
<path d="M150,263.67164518769636 C210,300.97030026860773 240,417.11577071438444 300,414.4117361263865" stroke="#D1CFC9" stroke-width="0.8" fill="none" opacity="0.33"/>
<path d="M150,263.67164518769636 C210,234.81435973542145 240,550.4098103960067 300,524.5961388253132" stroke="#D1CFC9" stroke-width="0.8" fill="none" opacity="0.35"/>
<path d="M150,347.60528690498444 C210,318.8565827870873 240,486.75537346507315 300,524.5961388253132" stroke="#D1CFC9" stroke-width="0.8" fill="none" opacity="0.35"/>
<path d="M150,459.5351446428185 C210,448.42322342852674 240,139.35096547039015 300,111.1359423429556" stroke="#D1CFC9" stroke-width="0.8" fill="none" opacity="0.33"/>
<path d="M150,459.5351446428185 C210,471.85640697736676 240,442.46431063149686 300,414.4117361263865" stroke="#D1CFC9" stroke-width="0.8" fill="none" opacity="0.33"/>
<path d="M150,459.5351446428185 C210,440.0458185058194 240,552.8854392121746 300,524.5961388253132" stroke="#D1CFC9" stroke-width="0.8" fill="none" opacity="0.42"/>
<path d="M150,553.1660086249854 C210,524.6943267049953 240,329.0428181339621 300,296.5097195274452" stroke="#D1CFC9" stroke-width="0.8" fill="none" opacity="0.39"/>
<path d="M150,553.1660086249854 C210,581.5946930394496 240,449.1956403051027 300,414.4117361263865" stroke="#D1CFC9" stroke-width="0.8" fill="none" opacity="0.29"/>
<path d="M300,111.1359423429556 C420,81.24232380260767 480,67.03124576225673 600,83.55059732113746" stroke="#D1CFC9" stroke-width="0.8" fill="none" opacity="0.41"/>
<path d="M300,111.1359423429556 C420,132.78941549239434 480,127.88576474509568 600,161.63015136445875" stroke="#D1CFC9" stroke-width="0.8" fill="none" opacity="0.26"/>
<path d="M300,111.1359423429556 C420,91.40479906308576 480,235.988856943438 600,238.37919969923774" stroke="#D1CFC9" stroke-width="0.8" fill="none" opacity="0.43"/>
<path d="M300,111.1359423429556 C420,116.86729428797665 480,378.03877606220516 600,380.5747753776551" stroke="#D1CFC9" stroke-width="0.8" fill="none" opacity="0.31"/>
<path d="M300,111.1359423429556 C420,124.73921810899377 480,452.5648116380477 600,481.10568320712906" stroke="#D1CFC9" stroke-width="0.8" fill="none" opacity="0.31"/>
<path d="M300,111.1359423429556 C420,138.83424473945848 480,533.2961652695193 600,557.6404251202803" stroke="#D1CFC9" stroke-width="0.8" fill="none" opacity="0.32"/>
<path d="M300,219.6807021546831 C420,222.37221714094565 480,116.40199862616183 600,83.55059732113746" stroke="#D1CFC9" stroke-width="0.8" fill="none" opacity="0.34"/>
<path d="M300,219.6807021546831 C420,244.36532594761002 480,350.6505792167505 600,318.3712883636172" stroke="#D1CFC9" stroke-width="0.8" fill="none" opacity="0.41"/>
<path d="M300,219.6807021546831 C420,259.2648859406507 480,382.9457078436263 600,380.5747753776551" stroke="#D1CFC9" stroke-width="0.8" fill="none" opacity="0.39"/>
<path d="M300,296.5097195274452 C420,268.708066402168 480,193.842509721893 600,161.63015136445875" stroke="#D1CFC9" stroke-width="0.8" fill="none" opacity="0.29"/>
<path d="M300,296.5097195274452 C420,317.0845635181955 480,239.43486532101753 600,238.37919969923774" stroke="#D1CFC9" stroke-width="0.8" fill="none" opacity="0.35"/>
<path d="M300,296.5097195274452 C420,291.28462633846436 480,319.00286075373947 600,318.3712883636172" stroke="#D1CFC9" stroke-width="0.8" fill="none" opacity="0.37"/>
<path d="M300,296.5097195274452 C420,269.8623511031881 480,388.5286517947746 600,380.5747753776551" stroke="#D1CFC9" stroke-width="0.8" fill="none" opacity="0.36"/>
<path d="M300,414.4117361263865 C420,411.8482169180289 480,178.69078924295977 600,161.63015136445875" stroke="#D1CFC9" stroke-width="0.8" fill="none" opacity="0.44"/>
<path d="M300,414.4117361263865 C420,440.9887516982827 480,204.08364600515543 600,238.37919969923774" stroke="#D1CFC9" stroke-width="0.8" fill="none" opacity="0.28"/>
<path d="M300,414.4117361263865 C420,421.19009728268486 480,351.04577173014303 600,380.5747753776551" stroke="#D1CFC9" stroke-width="0.8" fill="none" opacity="0.39"/>
<path d="M300,414.4117361263865 C420,385.2297210861532 480,466.4020842219824 600,481.10568320712906" stroke="#D1CFC9" stroke-width="0.8" fill="none" opacity="0.33"/>
<path d="M300,524.5961388253132 C420,485.0430389547355 480,98.8737886005253 600,83.55059732113746" stroke="#D1CFC9" stroke-width="0.8" fill="none" opacity="0.38"/>
<path d="M300,524.5961388253132 C420,544.3839317752011 480,176.55233041681402 600,161.63015136445875" stroke="#D1CFC9" stroke-width="0.8" fill="none" opacity="0.45"/>
<path d="M300,524.5961388253132 C420,539.148625507287 480,355.129896491738 600,318.3712883636172" stroke="#D1CFC9" stroke-width="0.8" fill="none" opacity="0.25"/>
<path d="M300,524.5961388253132 C420,537.4044798303871 480,363.25121790921577 600,380.5747753776551" stroke="#D1CFC9" stroke-width="0.8" fill="none" opacity="0.26"/>
<path d="M300,524.5961388253132 C420,499.89701441440195 480,509.92511909528986 600,481.10568320712906" stroke="#D1CFC9" stroke-width="0.8" fill="none" opacity="0.28"/>
<path d="M600,83.55059732113746 C720,64.05017048959857 780,124.50726079393814 900,93.60153487734533" stroke="#D1CFC9" stroke-width="0.8" fill="none" opacity="0.38"/>
<path d="M600,83.55059732113746 C720,57.301177463797195 780,191.07576641279175 900,187.78369694896594" stroke="#D1CFC9" stroke-width="0.8" fill="none" opacity="0.33"/>
<path d="M600,83.55059732113746 C720,83.66855965360733 780,244.02913637366822 900,273.9077919502528" stroke="#D1CFC9" stroke-width="0.8" fill="none" opacity="0.37"/>
<path d="M600,161.63015136445875 C720,173.24166015942853 780,79.14391759297436 900,93.60153487734533" stroke="#D1CFC9" stroke-width="0.8" fill="none" opacity="0.33"/>
<path d="M600,161.63015136445875 C720,147.94071816471188 780,202.8621294099982 900,187.78369694896594" stroke="#D1CFC9" stroke-width="0.8" fill="none" opacity="0.27"/>
<path d="M600,161.63015136445875 C720,129.98602319653983 780,429.62589328028866 900,453.18239901614896" stroke="#D1CFC9" stroke-width="0.8" fill="none" opacity="0.42"/>
<path d="M600,161.63015136445875 C720,138.92739709820071 780,518.8542206531516 900,522.0205295691314" stroke="#D1CFC9" stroke-width="0.8" fill="none" opacity="0.40"/>
<path d="M600,238.37919969923774 C720,247.97840669855438 780,72.49828792468139 900,93.60153487734533" stroke="#D1CFC9" stroke-width="0.8" fill="none" opacity="0.39"/>
<path d="M600,238.37919969923774 C720,215.22259961155302 780,344.4206002946991 900,345.3026435652987" stroke="#D1CFC9" stroke-width="0.8" fill="none" opacity="0.34"/>
<path d="M600,238.37919969923774 C720,227.15999561912844 780,466.3852388575639 900,453.18239901614896" stroke="#D1CFC9" stroke-width="0.8" fill="none" opacity="0.34"/>
<path d="M600,318.3712883636172 C720,288.60879868207473 780,104.3458356159613 900,93.60153487734533" stroke="#D1CFC9" stroke-width="0.8" fill="none" opacity="0.39"/>
<path d="M600,318.3712883636172 C720,348.838754216579 780,311.3648211172234 900,273.9077919502528" stroke="#D1CFC9" stroke-width="0.8" fill="none" opacity="0.40"/>
<path d="M600,318.3712883636172 C720,348.2241958326134 780,314.96584066771106 900,345.3026435652987" stroke="#D1CFC9" stroke-width="0.8" fill="none" opacity="0.28"/>
<path d="M600,318.3712883636172 C720,282.2918411695962 780,519.0638200699035 900,522.0205295691314" stroke="#D1CFC9" stroke-width="0.8" fill="none" opacity="0.40"/>
<path d="M600,380.5747753776551 C720,358.72953463991394 780,83.14094816873339 900,93.60153487734533" stroke="#D1CFC9" stroke-width="0.8" fill="none" opacity="0.43"/>
<path d="M600,380.5747753776551 C720,388.3212005666739 780,251.1624770805152 900,273.9077919502528" stroke="#D1CFC9" stroke-width="0.8" fill="none" opacity="0.43"/>
<path d="M600,481.10568320712906 C720,474.01844364760177 780,199.22855717344873 900,187.78369694896594" stroke="#D1CFC9" stroke-width="0.8" fill="none" opacity="0.44"/>
<path d="M600,481.10568320712906 C720,445.55224605342426 780,487.08784310405326 900,453.18239901614896" stroke="#D1CFC9" stroke-width="0.8" fill="none" opacity="0.35"/>
<path d="M600,557.6404251202803 C720,557.546411617437 780,104.64568695161626 900,93.60153487734533" stroke="#D1CFC9" stroke-width="0.8" fill="none" opacity="0.37"/>
<path d="M600,557.6404251202803 C720,519.2414828438176 780,207.27578527696332 900,187.78369694896594" stroke="#D1CFC9" stroke-width="0.8" fill="none" opacity="0.27"/>
<path d="M600,557.6404251202803 C720,541.8150466781378 780,234.732453633736 900,273.9077919502528" stroke="#D1CFC9" stroke-width="0.8" fill="none" opacity="0.37"/>
<path d="M600,557.6404251202803 C720,562.0736865102252 780,358.5859593815603 900,345.3026435652987" stroke="#D1CFC9" stroke-width="0.8" fill="none" opacity="0.43"/>
<path d="M600,557.6404251202803 C720,597.3382069400601 780,422.32051881643025 900,453.18239901614896" stroke="#D1CFC9" stroke-width="0.8" fill="none" opacity="0.27"/>
<path d="M600,557.6404251202803 C720,528.4758602897581 780,513.6272431657713 900,522.0205295691314" stroke="#D1CFC9" stroke-width="0.8" fill="none" opacity="0.31"/>
<path d="M900,93.60153487734533 C960,129.28430803801965 990,89.79005816620543 1050,82.93867994168276" stroke="#D1CFC9" stroke-width="0.8" fill="none" opacity="0.32"/>
<path d="M900,93.60153487734533 C960,82.71065815880678 990,131.31123389893006 1050,169.00700276508158" stroke="#D1CFC9" stroke-width="0.8" fill="none" opacity="0.32"/>
<path d="M900,93.60153487734533 C960,119.57222544112528 990,280.0904133236246 1050,277.5198667648993" stroke="#D1CFC9" stroke-width="0.8" fill="none" opacity="0.44"/>
<path d="M900,93.60153487734533 C960,116.80681884680104 990,403.1149908614147 1050,368.9547901328082" stroke="#D1CFC9" stroke-width="0.8" fill="none" opacity="0.27"/>
<path d="M900,93.60153487734533 C960,90.9192029365616 990,470.2557580597363 1050,459.9585158126332" stroke="#D1CFC9" stroke-width="0.8" fill="none" opacity="0.44"/>
<path d="M900,93.60153487734533 C960,67.10707440206481 990,505.91540974562884 1050,538.857822332731" stroke="#D1CFC9" stroke-width="0.8" fill="none" opacity="0.32"/>
<path d="M900,187.78369694896594 C960,150.45982569466807 990,65.0235204643159 1050,82.93867994168276" stroke="#D1CFC9" stroke-width="0.8" fill="none" opacity="0.42"/>
<path d="M900,187.78369694896594 C960,150.38712330171538 990,176.1412419095033 1050,169.00700276508158" stroke="#D1CFC9" stroke-width="0.8" fill="none" opacity="0.40"/>
<path d="M900,187.78369694896594 C960,213.4784214160122 990,379.05827800116 1050,368.9547901328082" stroke="#D1CFC9" stroke-width="0.8" fill="none" opacity="0.37"/>
<path d="M900,187.78369694896594 C960,213.00295052654178 990,555.7791987270534 1050,538.857822332731" stroke="#D1CFC9" stroke-width="0.8" fill="none" opacity="0.33"/>
<path d="M900,273.9077919502528 C960,280.536571599668 990,197.32031240577817 1050,169.00700276508158" stroke="#D1CFC9" stroke-width="0.8" fill="none" opacity="0.33"/>
<path d="M900,273.9077919502528 C960,272.81221252512466 990,459.4862648312669 1050,459.9585158126332" stroke="#D1CFC9" stroke-width="0.8" fill="none" opacity="0.41"/>
<path d="M900,273.9077919502528 C960,237.83054757626505 990,522.550127985084 1050,538.857822332731" stroke="#D1CFC9" stroke-width="0.8" fill="none" opacity="0.38"/>
<path d="M900,345.3026435652987 C960,345.31164961292217 990,338.616142825367 1050,368.9547901328082" stroke="#D1CFC9" stroke-width="0.8" fill="none" opacity="0.40"/>
<path d="M900,345.3026435652987 C960,375.455866410736 990,472.0735671054743 1050,459.9585158126332" stroke="#D1CFC9" stroke-width="0.8" fill="none" opacity="0.31"/>
<path d="M900,453.18239901614896 C960,480.7428454991297 990,113.98001806670334 1050,82.93867994168276" stroke="#D1CFC9" stroke-width="0.8" fill="none" opacity="0.31"/>
<path d="M900,453.18239901614896 C960,440.15728178530867 990,194.6233219971469 1050,169.00700276508158" stroke="#D1CFC9" stroke-width="0.8" fill="none" opacity="0.31"/>
<path d="M900,453.18239901614896 C960,435.8954013976956 990,388.1205694428926 1050,368.9547901328082" stroke="#D1CFC9" stroke-width="0.8" fill="none" opacity="0.39"/>
<path d="M900,453.18239901614896 C960,436.152004534414 990,481.4603418934765 1050,459.9585158126332" stroke="#D1CFC9" stroke-width="0.8" fill="none" opacity="0.41"/>
<path d="M900,453.18239901614896 C960,490.0154003719835 990,569.2953038456141 1050,538.857822332731" stroke="#D1CFC9" stroke-width="0.8" fill="none" opacity="0.27"/>
<path d="M900,522.0205295691314 C960,483.6349109796888 990,120.04090018571375 1050,82.93867994168276" stroke="#D1CFC9" stroke-width="0.8" fill="none" opacity="0.33"/>
<path d="M900,522.0205295691314 C960,520.3310747766707 990,208.13917251074201 1050,169.00700276508158" stroke="#D1CFC9" stroke-width="0.8" fill="none" opacity="0.38"/>
<path d="M900,522.0205295691314 C960,556.461343731373 990,292.5698598941252 1050,277.5198667648993" stroke="#D1CFC9" stroke-width="0.8" fill="none" opacity="0.32"/>
<path d="M900,522.0205295691314 C960,561.1701003134181 990,387.0526871134184 1050,368.9547901328082" stroke="#D1CFC9" stroke-width="0.8" fill="none" opacity="0.40"/>
<circle cx="150.0" cy="93.0" r="4.1" fill="#D1CFC9" opacity="0.8"/>
<circle cx="150.0" cy="183.9" r="5.1" fill="#D1CFC9" opacity="0.8"/>
<circle cx="150.0" cy="263.7" r="6.5" fill="#D1CFC9" opacity="0.8"/>
<circle cx="150.0" cy="347.6" r="6.4" fill="#D1CFC9" opacity="0.8"/>
<circle cx="150.0" cy="459.5" r="5.1" fill="#D1CFC9" opacity="0.8"/>
<circle cx="150.0" cy="553.2" r="6.7" fill="#D1CFC9" opacity="0.8"/>
<circle cx="300.0" cy="111.1" r="5.9" fill="#D1CFC9" opacity="0.8"/>
<circle cx="300.0" cy="219.7" r="6.8" fill="#D1CFC9" opacity="0.8"/>
<circle cx="300.0" cy="296.5" r="4.9" fill="#D1CFC9" opacity="0.8"/>
<circle cx="300.0" cy="414.4" r="4.6" fill="#D1CFC9" opacity="0.8"/>
<circle cx="300.0" cy="524.6" r="4.3" fill="#D1CFC9" opacity="0.8"/>
<circle cx="600.0" cy="83.6" r="4.6" fill="#D1CFC9" opacity="0.8"/>
<circle cx="600.0" cy="161.6" r="5.4" fill="#D1CFC9" opacity="0.8"/>
<circle cx="600.0" cy="238.4" r="4.1" fill="#D1CFC9" opacity="0.8"/>
<circle cx="600.0" cy="318.4" r="5.7" fill="#D1CFC9" opacity="0.8"/>
<circle cx="600.0" cy="380.6" r="6.0" fill="#D1CFC9" opacity="0.8"/>
<circle cx="600.0" cy="481.1" r="6.4" fill="#D1CFC9" opacity="0.8"/>
<circle cx="600.0" cy="557.6" r="7.0" fill="#D1CFC9" opacity="0.8"/>
<circle cx="900.0" cy="93.6" r="4.6" fill="#D1CFC9" opacity="0.8"/>
<circle cx="900.0" cy="187.8" r="4.1" fill="#D1CFC9" opacity="0.8"/>
<circle cx="900.0" cy="273.9" r="5.7" fill="#D1CFC9" opacity="0.8"/>
<circle cx="900.0" cy="345.3" r="6.8" fill="#D1CFC9" opacity="0.8"/>
<circle cx="900.0" cy="453.2" r="6.1" fill="#D1CFC9" opacity="0.8"/>
<circle cx="900.0" cy="522.0" r="5.4" fill="#D1CFC9" opacity="0.8"/>
<circle cx="1050.0" cy="82.9" r="6.6" fill="#D1CFC9" opacity="0.8"/>
<circle cx="1050.0" cy="169.0" r="6.0" fill="#D1CFC9" opacity="0.8"/>
<circle cx="1050.0" cy="277.5" r="5.1" fill="#D1CFC9" opacity="0.8"/>
<circle cx="1050.0" cy="369.0" r="5.9" fill="#D1CFC9" opacity="0.8"/>
<circle cx="1050.0" cy="460.0" r="6.1" fill="#D1CFC9" opacity="0.8"/>
<circle cx="1050.0" cy="538.9" r="4.3" fill="#D1CFC9" opacity="0.8"/>
<circle cx="139.3" cy="392.2" r="10.5" fill="none" stroke="#1A1A1A" stroke-width="1" opacity="0.15"/>
<circle cx="148.4" cy="218.4" r="16.6" fill="none" stroke="#1A1A1A" stroke-width="1" opacity="0.15"/>
<circle cx="890.1" cy="506.5" r="13.0" fill="none" stroke="#1A1A1A" stroke-width="1" opacity="0.15"/>
<circle cx="602.5" cy="496.3" r="12.6" fill="none" stroke="#1A1A1A" stroke-width="1" opacity="0.15"/>
</svg>