<svg xmlns="http://www.w3.org/2000/svg" width="1200" height="630" viewBox="0 0 1200 630">
<rect width="1200" height="630" fill="#FAFAF9"/>
<path d="M0,41.3 C333.1,112.5 834.3,26.7 1200,39.9" stroke="#D1CFC9" stroke-width="1.05" fill="none" opacity="0.42"/>
<path d="M0,95.6 C217.9,120.9 865.3,169.7 1200,60.0" stroke="#E8E8E6" stroke-width="1.60" fill="none" opacity="0.51"/>
<path d="M0,136.8 C370.7,181.9 992.4,141.8 1200,130.4" stroke="#E8E8E6" stroke-width="1.47" fill="none" opacity="0.41"/>
<path d="M0,181.9 C258.0,203.3 809.1,220.9 1200,151.6" stroke="#E8E8E6" stroke-width="1.60" fill="none" opacity="0.68"/>
<path d="M0,206.4 C385.4,273.5 855.8,287.1 1200,214.3" stroke="#D1CFC9" stroke-width="1.35" fill="none" opacity="0.48"/>
<path d="M0,261.7 C305.2,268.0 899.2,274.4 1200,247.7" stroke="#E8E8E6" stroke-width="0.86" fill="none" opacity="0.67"/>
<path d="M0,247.5 C346.9,285.3 989.0,248.3 1200,253.9" stroke="#D1CFC9" stroke-width="1.53" fill="none" opacity="0.40"/>
<path d="M0,308.0 C303.7,242.9 810.5,364.2 1200,286.9" stroke="#D1CFC9" stroke-width="1.23" fill="none" opacity="0.67"/>
<path d="M0,358.1 C361.8,343.0 875.9,289.0 1200,379.0" stroke="#D1CFC9" stroke-width="1.38" fill="none" opacity="0.61"/>
<path d="M0,406.9 C318.4,309.8 960.6,413.2 1200,381.8" stroke="#D1CFC9" stroke-width="0.86" fill="none" opacity="0.63"/>
<path d="M0,426.0 C215.7,384.0 829.2,363.9 1200,415.9" stroke="#D1CFC9" stroke-width="1.32" fill="none" opacity="0.66"/>
<path d="M0,454.6 C395.4,526.0 817.2,413.3 1200,477.8" stroke="#D1CFC9" stroke-width="1.76" fill="none" opacity="0.50"/>
<path d="M0,532.9 C257.3,447.4 964.2,523.9 1200,526.2" stroke="#D1CFC9" stroke-width="1.18" fill="none" opacity="0.60"/>
<path d="M0,544.4 C292.5,544.8 909.7,530.7 1200,524.7" stroke="#D1CFC9" stroke-width="1.00" fill="none" opacity="0.49"/>
<path d="M0,597.5 C292.3,643.5 978.2,660.7 1200,603.9" stroke="#D1CFC9" stroke-width="1.63" fill="none" opacity="0.73"/>
<line x1="0" y1="610" x2="0" y2="604.7" stroke="#D1CFC9" stroke-width="0.8" opacity="0.5"/>
<line x1="100" y1="610" x2="100" y2="605.0" stroke="#D1CFC9" stroke-width="0.8" opacity="0.5"/>
<line x1="200" y1="610" x2="200" y2="604.8" stroke="#D1CFC9" stroke-width="0.8" opacity="0.5"/>
<line x1="300" y1="610" x2="300" y2="604.0" stroke="#D1CFC9" stroke-width="0.8" opacity="0.5"/>
<line x1="400" y1="610" x2="400" y2="603.8" stroke="#D1CFC9" stroke-width="0.8" opacity="0.5"/>
<line x1="500" y1="610" x2="500" y2="598.8" stroke="#D1CFC9" stroke-width="0.8" opacity="0.5"/>
<line x1="600" y1="610" x2="600" y2="604.7" stroke="#D1CFC9" stroke-width="0.8" opacity="0.5"/>
<line x1="700" y1="610" x2="700" y2="602.2" stroke="#D1CFC9" stroke-width="0.8" opacity="0.5"/>
<line x1="800" y1="610" x2="800" y2="604.6" stroke="#D1CFC9" stroke-width="0.8" opacity="0.5"/>
<line x1="900" y1="610" x2="900" y2="600.6" stroke="#D1CFC9" stroke-width="0.8" opacity="0.5"/>
<line x1="1000" y1="610" x2="1000" y2="603.7" stroke="#D1CFC9" stroke-width="0.8" opacity="0.5"/>
<line x1="1100" y1="610" x2="1100" y2="603.1" stroke="#D1CFC9" stroke-width="0.8" opacity="0.5"/>
<line x1="1200" y1="610" x2="1200" y2="600.1" stroke="#D1CFC9" stroke-width="0.8" opacity="0.5"/>
<line x1="262.4" y1="114.4" x2="602.9" y2="352.8" stroke="#D1CFC9" stroke-width="1" opacity="0.3"/>
</svg>