<svg xmlns="http://www.w3.org/2000/svg" width="1200" height="630" viewBox="0 0 1200 630">
<rect width="1200" height="630" fill="#FAFAF9"/>
<path d="M0,31.0 C277.9,52.3 945.6,-18.6 1200,63.5" stroke="#D1CFC9" stroke-width="0.81" fill="none" opacity="0.46"/>
<path d="M0,79.8 C371.1,162.6 825.4,83.8 1200,96.9" stroke="#E8E8E6" stroke-width="1.80" fill="none" opacity="0.53"/>
<path d="M0,144.0 C274.3,102.1 875.1,208.8 1200,114.1" stroke="#E8E8E6" stroke-width="1.68" fill="none" opacity="0.51"/>
<path d="M0,163.8 C300.4,251.7 887.3,150.9 1200,173.6" stroke="#D1CFC9" stroke-width="1.25" fill="none" opacity="0.65"/>
<path d="M0,225.6 C327.5,137.0 899.2,192.4 1200,182.5" stroke="#D1CFC9" stroke-width="1.51" fill="none" opacity="0.50"/>
<path d="M0,255.3 C217.5,153.2 866.8,306.3 1200,262.3" stroke="#D1CFC9" stroke-width="1.05" fill="none" opacity="0.46"/>
<path d="M0,285.3 C348.3,336.3 833.9,200.3 1200,299.1" stroke="#D1CFC9" stroke-width="1.65" fill="none" opacity="0.53"/>
<path d="M0,313.6 C268.8,357.7 971.3,283.3 1200,331.8" stroke="#D1CFC9" stroke-width="1.54" fill="none" opacity="0.49"/>
<path d="M0,348.7 C381.0,317.3 912.7,332.1 1200,360.7" stroke="#E8E8E6" stroke-width="1.44" fill="none" opacity="0.59"/>
<path d="M0,362.0 C323.8,321.5 966.8,328.8 1200,396.3" stroke="#D1CFC9" stroke-width="1.28" fill="none" opacity="0.72"/>
<path d="M0,400.6 C393.9,515.8 879.2,428.5 1200,448.3" stroke="#D1CFC9" stroke-width="1.44" fill="none" opacity="0.72"/>
<path d="M0,455.7 C369.1,444.4 827.7,401.3 1200,460.4" stroke="#D1CFC9" stroke-width="1.70" fill="none" opacity="0.75"/>
<path d="M0,491.3 C351.5,564.5 972.4,552.1 1200,476.8" stroke="#E8E8E6" stroke-width="1.78" fill="none" opacity="0.56"/>
<path d="M0,550.1 C337.3,609.6 886.7,549.1 1200,571.3" stroke="#D1CFC9" stroke-width="1.34" fill="none" opacity="0.73"/>
<path d="M0,600.4 C377.8,648.6 942.5,506.0 1200,550.2" stroke="#D1CFC9" stroke-width="1.08" fill="none" opacity="0.45"/>
<line x1="0" y1="610" x2="0" y2="600.8" stroke="#D1CFC9" stroke-width="0.8" opacity="0.5"/>
<line x1="100" y1="610" x2="100" y2="601.5" stroke="#D1CFC9" stroke-width="0.8" opacity="0.5"/>
<line x1="200" y1="610" x2="200" y2="603.1" stroke="#D1CFC9" stroke-width="0.8" opacity="0.5"/>
<line x1="300" y1="610" x2="300" y2="605.3" stroke="#D1CFC9" stroke-width="0.8" opacity="0.5"/>
<line x1="400" y1="610" x2="400" y2="599.3" stroke="#D1CFC9" stroke-width="0.8" opacity="0.5"/>
<line x1="500" y1="610" x2="500" y2="599.4" stroke="#D1CFC9" stroke-width="0.8" opacity="0.5"/>
<line x1="600" y1="610" x2="600" y2="598.9" stroke="#D1CFC9" stroke-width="0.8" opacity="0.5"/>
<line x1="700" y1="610" x2="700" y2="600.2" stroke="#D1CFC9" stroke-width="0.8" opacity="0.5"/>
<line x1="800" y1="610" x2="800" y2="600.9" stroke="#D1CFC9" stroke-width="0.8" opacity="0.5"/>
<line x1="900" y1="610" x2="900" y2="598.9" stroke="#D1CFC9" stroke-width="0.8" opacity="0.5"/>
<line x1="1000" y1="610" x2="1000" y2="602.6" stroke="#D1CFC9" stroke-width="0.8" opacity="0.5"/>
<line x1="1100" y1="610" x2="1100" y2="598.2" stroke="#D1CFC9" stroke-width="0.8" opacity="0.5"/>
<line x1="1200" y1="610" x2="1200" y2="599.4" stroke="#D1CFC9" stroke-width="0.8" opacity="0.5"/>
<line x1="296.7" y1="193.6" x2="634.1" y2="469.3" stroke="#D1CFC9" stroke-width="1" opacity="0.3"/>
</svg>