<svg xmlns="http://www.w3.org/2000/svg" width="1200" height="630" viewBox="0 0 1200 630">
<rect width="1200" height="630" fill="#FAFAF9"/>
<path d="M0,31.8 C388.5,-24.6 952.8,85.3 1200,47.0" stroke="#D1CFC9" stroke-width="1.69" fill="none" opacity="0.54"/>
<path d="M0,77.0 C236.6,103.8 888.7,26.6 1200,88.5" stroke="#D1CFC9" stroke-width="1.55" fill="none" opacity="0.49"/>
<path d="M0,141.1 C253.2,129.8 804.9,75.2 1200,101.9" stroke="#D1CFC9" stroke-width="1.54" fill="none" opacity="0.46"/>
<path d="M0,134.1 C235.0,169.1 847.5,213.2 1200,189.0" stroke="#D1CFC9" stroke-width="1.12" fill="none" opacity="0.51"/>
<path d="M0,226.2 C245.1,241.0 992.2,273.1 1200,197.7" stroke="#E8E8E6" stroke-width="0.95" fill="none" opacity="0.68"/>
<path d="M0,219.6 C303.9,319.7 931.4,281.0 1200,261.3" stroke="#D1CFC9" stroke-width="1.59" fill="none" opacity="0.72"/>
<path d="M0,292.0 C237.9,366.2 927.5,341.7 1200,294.5" stroke="#E8E8E6" stroke-width="1.53" fill="none" opacity="0.73"/>
<path d="M0,314.5 C213.4,256.6 991.4,272.1 1200,286.3" stroke="#E8E8E6" stroke-width="1.78" fill="none" opacity="0.72"/>
<path d="M0,331.9 C285.1,433.4 930.9,347.2 1200,357.5" stroke="#D1CFC9" stroke-width="1.05" fill="none" opacity="0.64"/>
<path d="M0,374.6 C240.6,335.2 849.4,366.7 1200,411.0" stroke="#D1CFC9" stroke-width="1.35" fill="none" opacity="0.52"/>
<path d="M0,432.1 C345.1,361.2 814.2,350.9 1200,420.5" stroke="#E8E8E6" stroke-width="1.67" fill="none" opacity="0.70"/>
<path d="M0,493.3 C281.1,542.6 987.5,406.6 1200,449.8" stroke="#E8E8E6" stroke-width="1.00" fill="none" opacity="0.42"/>
<path d="M0,531.2 C332.9,465.5 915.8,509.4 1200,507.2" stroke="#E8E8E6" stroke-width="1.50" fill="none" opacity="0.41"/>
<path d="M0,535.9 C216.3,583.7 929.2,629.0 1200,553.5" stroke="#D1CFC9" stroke-width="1.11" fill="none" opacity="0.73"/>
<path d="M0,591.4 C234.3,599.9 961.6,658.2 1200,563.9" stroke="#D1CFC9" stroke-width="1.72" fill="none" opacity="0.63"/>
<line x1="0" y1="610" x2="0" y2="599.0" stroke="#D1CFC9" stroke-width="0.8" opacity="0.5"/>
<line x1="100" y1="610" x2="100" y2="603.1" stroke="#D1CFC9" stroke-width="0.8" opacity="0.5"/>
<line x1="200" y1="610" x2="200" y2="604.4" stroke="#D1CFC9" stroke-width="0.8" opacity="0.5"/>
<line x1="300" y1="610" x2="300" y2="599.3" stroke="#D1CFC9" stroke-width="0.8" opacity="0.5"/>
<line x1="400" y1="610" x2="400" y2="599.5" stroke="#D1CFC9" stroke-width="0.8" opacity="0.5"/>
<line x1="500" y1="610" x2="500" y2="601.7" stroke="#D1CFC9" stroke-width="0.8" opacity="0.5"/>
<line x1="600" y1="610" x2="600" y2="604.2" stroke="#D1CFC9" stroke-width="0.8" opacity="0.5"/>
<line x1="700" y1="610" x2="700" y2="598.4" stroke="#D1CFC9" stroke-width="0.8" opacity="0.5"/>
<line x1="800" y1="610" x2="800" y2="604.9" stroke="#D1CFC9" stroke-width="0.8" opacity="0.5"/>
<line x1="900" y1="610" x2="900" y2="603.7" stroke="#D1CFC9" stroke-width="0.8" opacity="0.5"/>
<line x1="1000" y1="610" x2="1000" y2="602.4" stroke="#D1CFC9" stroke-width="0.8" opacity="0.5"/>
<line x1="1100" y1="610" x2="1100" y2="603.9" stroke="#D1CFC9" stroke-width="0.8" opacity="0.5"/>
<line x1="1200" y1="610" x2="1200" y2="598.6" stroke="#D1CFC9" stroke-width="0.8" opacity="0.5"/>
<line x1="262.1" y1="180.4" x2="640.4" y2="426.4" stroke="#D1CFC9" stroke-width="1" opacity="0.3"/>
</svg>