<svg xmlns="http://www.w3.org/2000/svg" width="1200" height="630" viewBox="0 0 1200 630">
<rect width="1200" height="630" fill="#FAFAF9"/>
<path d="M0,39.0 C315.1,4.4 845.9,101.1 1200,45.8" stroke="#D1CFC9" stroke-width="1.08" fill="none" opacity="0.45"/>
<path d="M0,116.2 C224.2,71.8 807.0,123.5 1200,68.1" stroke="#D1CFC9" stroke-width="1.44" fill="none" opacity="0.53"/>
<path d="M0,140.1 C202.7,161.3 909.1,81.0 1200,129.0" stroke="#E8E8E6" stroke-width="0.96" fill="none" opacity="0.56"/>
<path d="M0,169.4 C209.8,230.9 883.8,235.6 1200,162.0" stroke="#E8E8E6" stroke-width="1.53" fill="none" opacity="0.67"/>
<path d="M0,219.4 C395.5,263.1 924.7,179.9 1200,229.5" stroke="#E8E8E6" stroke-width="1.47" fill="none" opacity="0.52"/>
<path d="M0,237.2 C227.3,315.5 935.9,199.1 1200,261.2" stroke="#D1CFC9" stroke-width="1.04" fill="none" opacity="0.68"/>
<path d="M0,301.4 C392.8,323.5 971.5,245.6 1200,305.7" stroke="#E8E8E6" stroke-width="1.54" fill="none" opacity="0.71"/>
<path d="M0,344.7 C286.8,266.5 892.4,357.3 1200,293.2" stroke="#D1CFC9" stroke-width="1.74" fill="none" opacity="0.63"/>
<path d="M0,331.1 C304.6,306.0 923.8,418.5 1200,374.5" stroke="#D1CFC9" stroke-width="1.50" fill="none" opacity="0.68"/>
<path d="M0,365.0 C383.2,426.3 961.9,395.0 1200,405.3" stroke="#D1CFC9" stroke-width="1.10" fill="none" opacity="0.67"/>
<path d="M0,404.0 C389.8,403.3 859.3,416.3 1200,437.1" stroke="#D1CFC9" stroke-width="1.21" fill="none" opacity="0.52"/>
<path d="M0,479.5 C395.6,453.9 932.1,472.6 1200,477.9" stroke="#D1CFC9" stroke-width="1.24" fill="none" opacity="0.48"/>
<path d="M0,502.2 C276.6,422.0 882.9,544.9 1200,486.7" stroke="#D1CFC9" stroke-width="1.29" fill="none" opacity="0.75"/>
<path d="M0,519.9 C288.5,486.0 816.6,520.5 1200,534.8" stroke="#D1CFC9" stroke-width="1.38" fill="none" opacity="0.75"/>
<path d="M0,577.8 C221.6,545.4 862.8,663.5 1200,572.4" stroke="#D1CFC9" stroke-width="1.49" fill="none" opacity="0.72"/>
<line x1="0" y1="610" x2="0" y2="604.3" stroke="#D1CFC9" stroke-width="0.8" opacity="0.5"/>
<line x1="100" y1="610" x2="100" y2="598.2" stroke="#D1CFC9" stroke-width="0.8" opacity="0.5"/>
<line x1="200" y1="610" x2="200" y2="599.5" stroke="#D1CFC9" stroke-width="0.8" opacity="0.5"/>
<line x1="300" y1="610" x2="300" y2="599.9" stroke="#D1CFC9" stroke-width="0.8" opacity="0.5"/>
<line x1="400" y1="610" x2="400" y2="604.8" stroke="#D1CFC9" stroke-width="0.8" opacity="0.5"/>
<line x1="500" y1="610" x2="500" y2="605.7" stroke="#D1CFC9" stroke-width="0.8" opacity="0.5"/>
<line x1="600" y1="610" x2="600" y2="604.6" stroke="#D1CFC9" stroke-width="0.8" opacity="0.5"/>
<line x1="700" y1="610" x2="700" y2="600.4" stroke="#D1CFC9" stroke-width="0.8" opacity="0.5"/>
<line x1="800" y1="610" x2="800" y2="598.7" stroke="#D1CFC9" stroke-width="0.8" opacity="0.5"/>
<line x1="900" y1="610" x2="900" y2="604.9" stroke="#D1CFC9" stroke-width="0.8" opacity="0.5"/>
<line x1="1000" y1="610" x2="1000" y2="598.1" stroke="#D1CFC9" stroke-width="0.8" opacity="0.5"/>
<line x1="1100" y1="610" x2="1100" y2="605.8" stroke="#D1CFC9" stroke-width="0.8" opacity="0.5"/>
<line x1="1200" y1="610" x2="1200" y2="601.4" stroke="#D1CFC9" stroke-width="0.8" opacity="0.5"/>
<line x1="244.8" y1="177.8" x2="549.8" y2="393.8" stroke="#D1CFC9" stroke-width="1" opacity="0.3"/>
</svg>