<svg xmlns="http://www.w3.org/2000/svg" width="1200" height="630" viewBox="0 0 1200 630">
<rect width="1200" height="630" fill="#FAFAF9"/>
<path d="M0,71.8 C324.1,-14.5 827.1,28.8 1200,70.4" stroke="#D1CFC9" stroke-width="0.81" fill="none" opacity="0.52"/>
<path d="M0,97.7 C331.1,39.1 870.0,177.6 1200,101.9" stroke="#D1CFC9" stroke-width="1.22" fill="none" opacity="0.56"/>
<path d="M0,141.3 C385.5,83.1 892.1,182.6 1200,117.7" stroke="#D1CFC9" stroke-width="1.71" fill="none" opacity="0.69"/>
<path d="M0,187.4 C226.2,155.5 943.7,142.0 1200,145.8" stroke="#D1CFC9" stroke-width="1.05" fill="none" opacity="0.68"/>
<path d="M0,230.4 C247.5,138.4 871.5,152.4 1200,222.8" stroke="#E8E8E6" stroke-width="1.80" fill="none" opacity="0.43"/>
<path d="M0,266.7 C216.7,286.7 965.9,195.6 1200,265.6" stroke="#D1CFC9" stroke-width="1.07" fill="none" opacity="0.53"/>
<path d="M0,249.4 C202.3,307.3 876.4,271.3 1200,293.3" stroke="#D1CFC9" stroke-width="1.07" fill="none" opacity="0.48"/>
<path d="M0,338.9 C238.8,263.6 827.3,384.0 1200,339.9" stroke="#D1CFC9" stroke-width="1.01" fill="none" opacity="0.52"/>
<path d="M0,377.9 C371.4,266.6 864.0,424.4 1200,335.1" stroke="#D1CFC9" stroke-width="0.86" fill="none" opacity="0.41"/>
<path d="M0,367.5 C257.3,334.8 958.9,338.1 1200,393.7" stroke="#D1CFC9" stroke-width="0.87" fill="none" opacity="0.69"/>
<path d="M0,444.1 C296.1,476.7 910.2,461.7 1200,441.4" stroke="#D1CFC9" stroke-width="1.56" fill="none" opacity="0.49"/>
<path d="M0,455.5 C301.0,423.7 854.3,554.7 1200,481.6" stroke="#D1CFC9" stroke-width="1.58" fill="none" opacity="0.62"/>
<path d="M0,501.9 C321.7,457.7 833.3,548.6 1200,497.1" stroke="#D1CFC9" stroke-width="1.73" fill="none" opacity="0.67"/>
<path d="M0,544.2 C264.4,529.9 857.7,588.0 1200,550.0" stroke="#D1CFC9" stroke-width="1.49" fill="none" opacity="0.64"/>
<path d="M0,575.9 C307.8,594.5 899.2,522.8 1200,575.3" stroke="#E8E8E6" stroke-width="1.25" fill="none" opacity="0.66"/>
<line x1="0" y1="610" x2="0" y2="600.5" stroke="#D1CFC9" stroke-width="0.8" opacity="0.5"/>
<line x1="100" y1="610" x2="100" y2="598.5" stroke="#D1CFC9" stroke-width="0.8" opacity="0.5"/>
<line x1="200" y1="610" x2="200" y2="601.4" stroke="#D1CFC9" stroke-width="0.8" opacity="0.5"/>
<line x1="300" y1="610" x2="300" y2="600.4" stroke="#D1CFC9" stroke-width="0.8" opacity="0.5"/>
<line x1="400" y1="610" x2="400" y2="598.2" stroke="#D1CFC9" stroke-width="0.8" opacity="0.5"/>
<line x1="500" y1="610" x2="500" y2="605.9" stroke="#D1CFC9" stroke-width="0.8" opacity="0.5"/>
<line x1="600" y1="610" x2="600" y2="598.2" stroke="#D1CFC9" stroke-width="0.8" opacity="0.5"/>
<line x1="700" y1="610" x2="700" y2="605.9" stroke="#D1CFC9" stroke-width="0.8" opacity="0.5"/>
<line x1="800" y1="610" x2="800" y2="605.5" stroke="#D1CFC9" stroke-width="0.8" opacity="0.5"/>
<line x1="900" y1="610" x2="900" y2="604.9" stroke="#D1CFC9" stroke-width="0.8" opacity="0.5"/>
<line x1="1000" y1="610" x2="1000" y2="603.5" stroke="#D1CFC9" stroke-width="0.8" opacity="0.5"/>
<line x1="1100" y1="610" x2="1100" y2="601.5" stroke="#D1CFC9" stroke-width="0.8" opacity="0.5"/>
<line x1="1200" y1="610" x2="1200" y2="599.1" stroke="#D1CFC9" stroke-width="0.8" opacity="0.5"/>
<line x1="226.1" y1="182.8" x2="550.2" y2="406.9" stroke="#D1CFC9" stroke-width="1" opacity="0.3"/>
</svg>