<svg xmlns="http://www.w3.org/2000/svg" width="1200" height="630" viewBox="0 0 1200 630">
<rect width="1200" height="630" fill="#FAFAF9"/>
<path d="M0,48.7 C323.7,88.3 981.3,73.8 1200,49.1" stroke="#D1CFC9" stroke-width="0.95" fill="none" opacity="0.52"/>
<path d="M0,81.0 C319.2,80.6 982.2,0.9 1200,63.3" stroke="#E8E8E6" stroke-width="0.95" fill="none" opacity="0.73"/>
<path d="M0,102.8 C345.9,202.2 921.7,119.0 1200,154.3" stroke="#D1CFC9" stroke-width="1.08" fill="none" opacity="0.46"/>
<path d="M0,144.3 C208.7,241.1 987.3,126.9 1200,139.8" stroke="#D1CFC9" stroke-width="1.41" fill="none" opacity="0.63"/>
<path d="M0,217.0 C323.0,161.2 853.6,234.9 1200,206.7" stroke="#D1CFC9" stroke-width="1.45" fill="none" opacity="0.71"/>
<path d="M0,238.0 C200.1,181.9 848.0,302.9 1200,253.4" stroke="#D1CFC9" stroke-width="0.92" fill="none" opacity="0.65"/>
<path d="M0,306.4 C299.2,358.2 976.9,260.0 1200,276.1" stroke="#E8E8E6" stroke-width="1.16" fill="none" opacity="0.58"/>
<path d="M0,324.4 C254.7,321.8 846.0,334.3 1200,338.7" stroke="#D1CFC9" stroke-width="1.67" fill="none" opacity="0.58"/>
<path d="M0,347.5 C334.7,303.2 960.3,291.0 1200,376.4" stroke="#D1CFC9" stroke-width="1.78" fill="none" opacity="0.60"/>
<path d="M0,381.3 C250.9,420.3 890.5,319.8 1200,417.5" stroke="#D1CFC9" stroke-width="1.78" fill="none" opacity="0.54"/>
<path d="M0,440.7 C218.9,448.8 953.8,422.4 1200,444.4" stroke="#D1CFC9" stroke-width="1.62" fill="none" opacity="0.46"/>
<path d="M0,494.6 C217.8,389.7 905.2,526.5 1200,443.3" stroke="#D1CFC9" stroke-width="1.15" fill="none" opacity="0.70"/>
<path d="M0,486.7 C381.9,530.2 866.0,521.8 1200,519.3" stroke="#D1CFC9" stroke-width="1.26" fill="none" opacity="0.59"/>
<path d="M0,530.5 C298.0,630.1 869.8,510.5 1200,557.8" stroke="#E8E8E6" stroke-width="1.58" fill="none" opacity="0.44"/>
<path d="M0,555.5 C367.9,540.1 893.6,574.1 1200,596.3" stroke="#E8E8E6" stroke-width="1.59" fill="none" opacity="0.64"/>
<line x1="0" y1="610" x2="0" y2="602.9" stroke="#D1CFC9" stroke-width="0.8" opacity="0.5"/>
<line x1="100" y1="610" x2="100" y2="600.7" stroke="#D1CFC9" stroke-width="0.8" opacity="0.5"/>
<line x1="200" y1="610" x2="200" y2="601.3" stroke="#D1CFC9" stroke-width="0.8" opacity="0.5"/>
<line x1="300" y1="610" x2="300" y2="600.0" stroke="#D1CFC9" stroke-width="0.8" opacity="0.5"/>
<line x1="400" y1="610" x2="400" y2="603.1" stroke="#D1CFC9" stroke-width="0.8" opacity="0.5"/>
<line x1="500" y1="610" x2="500" y2="602.6" stroke="#D1CFC9" stroke-width="0.8" opacity="0.5"/>
<line x1="600" y1="610" x2="600" y2="603.3" stroke="#D1CFC9" stroke-width="0.8" opacity="0.5"/>
<line x1="700" y1="610" x2="700" y2="603.9" stroke="#D1CFC9" stroke-width="0.8" opacity="0.5"/>
<line x1="800" y1="610" x2="800" y2="604.7" stroke="#D1CFC9" stroke-width="0.8" opacity="0.5"/>
<line x1="900" y1="610" x2="900" y2="599.3" stroke="#D1CFC9" stroke-width="0.8" opacity="0.5"/>
<line x1="1000" y1="610" x2="1000" y2="602.7" stroke="#D1CFC9" stroke-width="0.8" opacity="0.5"/>
<line x1="1100" y1="610" x2="1100" y2="605.1" stroke="#D1CFC9" stroke-width="0.8" opacity="0.5"/>
<line x1="1200" y1="610" x2="1200" y2="604.1" stroke="#D1CFC9" stroke-width="0.8" opacity="0.5"/>
<line x1="343.3" y1="140.0" x2="806.4" y2="340.6" stroke="#D1CFC9" stroke-width="1" opacity="0.3"/>
</svg>