<svg xmlns="http://www.w3.org/2000/svg" width="1200" height="630" viewBox="0 0 1200 630">
<rect width="1200" height="630" fill="#FAFAF9"/>
<path d="M0,31.2 C247.0,-12.7 895.4,22.6 1200,55.1" stroke="#D1CFC9" stroke-width="1.58" fill="none" opacity="0.72"/>
<path d="M0,80.8 C389.0,15.5 895.6,139.3 1200,95.6" stroke="#D1CFC9" stroke-width="1.63" fill="none" opacity="0.72"/>
<path d="M0,128.0 C335.7,85.6 925.4,81.2 1200,150.8" stroke="#D1CFC9" stroke-width="0.81" fill="none" opacity="0.51"/>
<path d="M0,146.9 C257.2,249.3 919.8,196.4 1200,139.6" stroke="#D1CFC9" stroke-width="1.10" fill="none" opacity="0.51"/>
<path d="M0,189.5 C344.9,203.9 800.4,170.7 1200,217.5" stroke="#D1CFC9" stroke-width="1.00" fill="none" opacity="0.56"/>
<path d="M0,254.5 C311.7,293.3 925.9,305.0 1200,215.1" stroke="#D1CFC9" stroke-width="1.39" fill="none" opacity="0.66"/>
<path d="M0,248.3 C238.7,225.9 836.9,346.2 1200,292.2" stroke="#E8E8E6" stroke-width="1.09" fill="none" opacity="0.70"/>
<path d="M0,317.1 C349.1,335.2 886.7,333.1 1200,305.5" stroke="#D1CFC9" stroke-width="0.92" fill="none" opacity="0.54"/>
<path d="M0,324.3 C378.7,299.4 899.7,385.8 1200,339.5" stroke="#D1CFC9" stroke-width="1.24" fill="none" opacity="0.46"/>
<path d="M0,367.8 C281.0,407.9 894.6,332.8 1200,406.4" stroke="#D1CFC9" stroke-width="1.57" fill="none" opacity="0.65"/>
<path d="M0,428.1 C375.9,510.0 819.2,347.3 1200,450.3" stroke="#D1CFC9" stroke-width="1.16" fill="none" opacity="0.64"/>
<path d="M0,471.6 C315.9,438.5 821.3,380.4 1200,454.4" stroke="#D1CFC9" stroke-width="1.65" fill="none" opacity="0.70"/>
<path d="M0,480.2 C383.9,576.0 846.9,591.5 1200,482.6" stroke="#D1CFC9" stroke-width="1.13" fill="none" opacity="0.56"/>
<path d="M0,567.0 C230.4,481.4 890.1,586.1 1200,546.0" stroke="#E8E8E6" stroke-width="1.04" fill="none" opacity="0.51"/>
<path d="M0,607.7 C315.0,634.5 980.7,504.7 1200,600.6" stroke="#D1CFC9" stroke-width="1.33" fill="none" opacity="0.51"/>
<line x1="0" y1="610" x2="0" y2="600.1" stroke="#D1CFC9" stroke-width="0.8" opacity="0.5"/>
<line x1="100" y1="610" x2="100" y2="601.6" stroke="#D1CFC9" stroke-width="0.8" opacity="0.5"/>
<line x1="200" y1="610" x2="200" y2="605.6" stroke="#D1CFC9" stroke-width="0.8" opacity="0.5"/>
<line x1="300" y1="610" x2="300" y2="603.0" stroke="#D1CFC9" stroke-width="0.8" opacity="0.5"/>
<line x1="400" y1="610" x2="400" y2="601.0" stroke="#D1CFC9" stroke-width="0.8" opacity="0.5"/>
<line x1="500" y1="610" x2="500" y2="601.5" stroke="#D1CFC9" stroke-width="0.8" opacity="0.5"/>
<line x1="600" y1="610" x2="600" y2="603.3" stroke="#D1CFC9" stroke-width="0.8" opacity="0.5"/>
<line x1="700" y1="610" x2="700" y2="605.4" stroke="#D1CFC9" stroke-width="0.8" opacity="0.5"/>
<line x1="800" y1="610" x2="800" y2="598.3" stroke="#D1CFC9" stroke-width="0.8" opacity="0.5"/>
<line x1="900" y1="610" x2="900" y2="605.4" stroke="#D1CFC9" stroke-width="0.8" opacity="0.5"/>
<line x1="1000" y1="610" x2="1000" y2="602.1" stroke="#D1CFC9" stroke-width="0.8" opacity="0.5"/>
<line x1="1100" y1="610" x2="1100" y2="599.0" stroke="#D1CFC9" stroke-width="0.8" opacity="0.5"/>
<line x1="1200" y1="610" x2="1200" y2="605.1" stroke="#D1CFC9" stroke-width="0.8" opacity="0.5"/>
<line x1="376.7" y1="117.9" x2="767.7" y2="391.9" stroke="#D1CFC9" stroke-width="1" opacity="0.3"/>
</svg>