<svg xmlns="http://www.w3.org/2000/svg" width="1200" height="630" viewBox="0 0 1200 630">
<rect width="1200" height="630" fill="#FAFAF9"/>
<path d="M0,26.5 C220.5,100.9 909.0,122.0 1200,47.5" stroke="#D1CFC9" stroke-width="1.75" fill="none" opacity="0.52"/>
<path d="M0,75.2 C287.6,97.1 854.5,72.4 1200,111.7" stroke="#D1CFC9" stroke-width="1.17" fill="none" opacity="0.63"/>
<path d="M0,154.4 C293.5,49.0 896.4,126.2 1200,111.2" stroke="#D1CFC9" stroke-width="0.93" fill="none" opacity="0.71"/>
<path d="M0,135.0 C246.3,166.3 951.6,104.0 1200,152.5" stroke="#D1CFC9" stroke-width="1.36" fill="none" opacity="0.62"/>
<path d="M0,172.5 C294.9,150.4 921.6,263.5 1200,212.6" stroke="#D1CFC9" stroke-width="1.51" fill="none" opacity="0.48"/>
<path d="M0,244.8 C359.0,285.1 991.9,195.7 1200,235.7" stroke="#E8E8E6" stroke-width="1.58" fill="none" opacity="0.72"/>
<path d="M0,267.0 C241.3,329.9 845.1,268.2 1200,299.0" stroke="#D1CFC9" stroke-width="0.83" fill="none" opacity="0.50"/>
<path d="M0,322.2 C350.6,251.9 804.0,260.7 1200,332.8" stroke="#D1CFC9" stroke-width="1.19" fill="none" opacity="0.54"/>
<path d="M0,323.8 C290.0,345.9 878.8,294.6 1200,352.5" stroke="#D1CFC9" stroke-width="1.00" fill="none" opacity="0.50"/>
<path d="M0,417.6 C215.9,440.6 930.4,356.3 1200,389.0" stroke="#D1CFC9" stroke-width="1.52" fill="none" opacity="0.57"/>
<path d="M0,405.5 C310.0,409.3 872.9,378.3 1200,426.7" stroke="#D1CFC9" stroke-width="0.88" fill="none" opacity="0.65"/>
<path d="M0,438.0 C301.6,430.5 913.8,488.1 1200,445.9" stroke="#D1CFC9" stroke-width="1.34" fill="none" opacity="0.62"/>
<path d="M0,519.4 C257.2,435.5 916.8,560.1 1200,526.6" stroke="#E8E8E6" stroke-width="1.49" fill="none" opacity="0.44"/>
<path d="M0,560.2 C367.6,595.3 935.0,523.6 1200,548.3" stroke="#E8E8E6" stroke-width="0.89" fill="none" opacity="0.51"/>
<path d="M0,590.5 C343.0,524.2 912.1,568.5 1200,571.5" stroke="#D1CFC9" stroke-width="1.73" fill="none" opacity="0.50"/>
<line x1="0" y1="610" x2="0" y2="600.8" stroke="#D1CFC9" stroke-width="0.8" opacity="0.5"/>
<line x1="100" y1="610" x2="100" y2="604.0" stroke="#D1CFC9" stroke-width="0.8" opacity="0.5"/>
<line x1="200" y1="610" x2="200" y2="601.2" stroke="#D1CFC9" stroke-width="0.8" opacity="0.5"/>
<line x1="300" y1="610" x2="300" y2="601.2" stroke="#D1CFC9" stroke-width="0.8" opacity="0.5"/>
<line x1="400" y1="610" x2="400" y2="601.6" stroke="#D1CFC9" stroke-width="0.8" opacity="0.5"/>
<line x1="500" y1="610" x2="500" y2="601.4" stroke="#D1CFC9" stroke-width="0.8" opacity="0.5"/>
<line x1="600" y1="610" x2="600" y2="606.0" stroke="#D1CFC9" stroke-width="0.8" opacity="0.5"/>
<line x1="700" y1="610" x2="700" y2="601.6" stroke="#D1CFC9" stroke-width="0.8" opacity="0.5"/>
<line x1="800" y1="610" x2="800" y2="603.8" stroke="#D1CFC9" stroke-width="0.8" opacity="0.5"/>
<line x1="900" y1="610" x2="900" y2="605.8" stroke="#D1CFC9" stroke-width="0.8" opacity="0.5"/>
<line x1="1000" y1="610" x2="1000" y2="603.0" stroke="#D1CFC9" stroke-width="0.8" opacity="0.5"/>
<line x1="1100" y1="610" x2="1100" y2="605.7" stroke="#D1CFC9" stroke-width="0.8" opacity="0.5"/>
<line x1="1200" y1="610" x2="1200" y2="603.6" stroke="#D1CFC9" stroke-width="0.8" opacity="0.5"/>
<line x1="371.5" y1="136.5" x2="721.0" y2="416.0" stroke="#D1CFC9" stroke-width="1" opacity="0.3"/>
</svg>