<svg xmlns="http://www.w3.org/2000/svg" width="1200" height="630" viewBox="0 0 1200 630">
<rect width="1200" height="630" fill="#FAFAF9"/>
<line x1="0" y1="80" x2="1200" y2="80" stroke="#E8E8E6" stroke-width="0.8" opacity="0.6"/>
<line x1="0" y1="160" x2="1200" y2="160" stroke="#E8E8E6" stroke-width="0.8" opacity="0.6"/>
<line x1="0" y1="240" x2="1200" y2="240" stroke="#E8E8E6" stroke-width="0.8" opacity="0.6"/>
<line x1="0" y1="320" x2="1200" y2="320" stroke="#E8E8E6" stroke-width="0.8" opacity="0.6"/>
<line x1="0" y1="400" x2="1200" y2="400" stroke="#E8E8E6" stroke-width="0.8" opacity="0.6"/>
<line x1="0" y1="480" x2="1200" y2="480" stroke="#E8E8E6" stroke-width="0.8" opacity="0.6"/>
<line x1="0" y1="560" x2="1200" y2="560" stroke="#E8E8E6" stroke-width="0.8" opacity="0.6"/>
<path d="M150,74.55894825108325 C210,83.40898338970938 240,99.68877477005327 300,96.08314723057745" stroke="#D1CFC9" stroke-width="0.8" fill="none" opacity="0.34"/>
<path d="M150,74.55894825108325 C210,109.51223147043777 240,180.538688925686 300,187.9316033250493" stroke="#D1CFC9" stroke-width="0.8" fill="none" opacity="0.37"/>
<path d="M150,74.55894825108325 C210,55.77560264239452 240,311.72070242644304 300,281.1927897709405" stroke="#D1CFC9" stroke-width="0.8" fill="none" opacity="0.38"/>
<path d="M150,74.55894825108325 C210,103.76095357159176 240,407.28651147784814 300,440.5217736429818" stroke="#D1CFC9" stroke-width="0.8" fill="none" opacity="0.29"/>
<path d="M150,179.08106946225303 C210,143.97216626395755 240,159.71900280977576 300,187.9316033250493" stroke="#D1CFC9" stroke-width="0.8" fill="none" opacity="0.35"/>
<path d="M150,179.08106946225303 C210,162.43040250065513 240,288.64492477491615 300,281.1927897709405" stroke="#D1CFC9" stroke-width="0.8" fill="none" opacity="0.26"/>
<path d="M150,179.08106946225303 C210,206.71940947433922 240,379.3406640983514 300,372.5728219325125" stroke="#D1CFC9" stroke-width="0.8" fill="none" opacity="0.30"/>
<path d="M150,179.08106946225303 C210,157.19374419450614 240,459.30889548531474 300,440.5217736429818" stroke="#D1CFC9" stroke-width="0.8" fill="none" opacity="0.28"/>
<path d="M150,271.9735128534896 C210,263.9651038488292 240,77.95770426140113 300,96.08314723057745" stroke="#D1CFC9" stroke-width="0.8" fill="none" opacity="0.36"/>
<path d="M150,271.9735128534896 C210,298.3405909012864 240,227.37882953262397 300,187.9316033250493" stroke="#D1CFC9" stroke-width="0.8" fill="none" opacity="0.43"/>
<path d="M150,271.9735128534896 C210,235.0304559541471 240,298.29166486726416 300,281.1927897709405" stroke="#D1CFC9" stroke-width="0.8" fill="none" opacity="0.36"/>
<path d="M150,271.9735128534896 C210,294.81703624753675 240,407.21138098584754 300,372.5728219325125" stroke="#D1CFC9" stroke-width="0.8" fill="none" opacity="0.27"/>
<path d="M150,271.9735128534896 C210,256.6812162819973 240,449.4469727532582 300,440.5217736429818" stroke="#D1CFC9" stroke-width="0.8" fill="none" opacity="0.34"/>
<path d="M150,271.9735128534896 C210,287.6901233242103 240,513.3362827737202 300,523.4286616587613" stroke="#D1CFC9" stroke-width="0.8" fill="none" opacity="0.25"/>
<path d="M150,364.364391339562 C210,327.8538260408337 240,86.26336698473044 300,96.08314723057745" stroke="#D1CFC9" stroke-width="0.8" fill="none" opacity="0.42"/>
<path d="M150,364.364391339562 C210,328.42996351291197 240,465.9274811479094 300,440.5217736429818" stroke="#D1CFC9" stroke-width="0.8" fill="none" opacity="0.29"/>
<path d="M150,364.364391339562 C210,353.36246103499144 240,514.2626458882035 300,523.4286616587613" stroke="#D1CFC9" stroke-width="0.8" fill="none" opacity="0.34"/>
<path d="M150,464.6575946977031 C210,439.19097424465957 240,405.04302506592194 300,372.5728219325125" stroke="#D1CFC9" stroke-width="0.8" fill="none" opacity="0.26"/>
<path d="M150,464.6575946977031 C210,480.4527807236772 240,504.31236055547197 300,523.4286616587613" stroke="#D1CFC9" stroke-width="0.8" fill="none" opacity="0.29"/>
<path d="M150,557.4599822506914 C210,543.3875416175899 240,105.71372352114733 300,96.08314723057745" stroke="#D1CFC9" stroke-width="0.8" fill="none" opacity="0.43"/>
<path d="M150,557.4599822506914 C210,568.4488912686819 240,160.58045100853323 300,187.9316033250493" stroke="#D1CFC9" stroke-width="0.8" fill="none" opacity="0.31"/>
<path d="M150,557.4599822506914 C210,530.4197508023167 240,278.82159904921934 300,281.1927897709405" stroke="#D1CFC9" stroke-width="0.8" fill="none" opacity="0.33"/>
<path d="M150,557.4599822506914 C210,549.8170376913196 240,510.0088711176088 300,523.4286616587613" stroke="#D1CFC9" stroke-width="0.8" fill="none" opacity="0.26"/>
<path d="M300,96.08314723057745 C420,98.24509476643173 480,382.4024803346029 600,387.8112646080114" stroke="#D1CFC9" stroke-width="0.8" fill="none" opacity="0.36"/>
<path d="M300,281.1927897709405 C420,293.34014996638064 480,316.07593085240245 600,312.48138793283874" stroke="#D1CFC9" stroke-width="0.8" fill="none" opacity="0.41"/>
<path d="M300,281.1927897709405 C420,269.9398591290088 480,422.30880009622985 600,387.8112646080114" stroke="#D1CFC9" stroke-width="0.8" fill="none" opacity="0.42"/>
<path d="M300,372.5728219325125 C420,394.4749694039288 480,61.886458557305495 600,91.00515182083592" stroke="#D1CFC9" stroke-width="0.8" fill="none" opacity="0.41"/>
<path d="M300,372.5728219325125 C420,411.3803770899261 480,161.91123895281024 600,157.30794929726002" stroke="#D1CFC9" stroke-width="0.8" fill="none" opacity="0.32"/>
<path d="M300,372.5728219325125 C420,395.64321641848494 480,225.74499265785445 600,238.502234619577" stroke="#D1CFC9" stroke-width="0.8" fill="none" opacity="0.33"/>
<path d="M300,372.5728219325125 C420,369.32733398287724 480,295.5232148531995 600,312.48138793283874" stroke="#D1CFC9" stroke-width="0.8" fill="none" opacity="0.34"/>
<path d="M300,440.5217736429818 C420,405.45303468067505 480,117.16744479354644 600,91.00515182083592" stroke="#D1CFC9" stroke-width="0.8" fill="none" opacity="0.27"/>
<path d="M300,440.5217736429818 C420,458.01734579494627 480,153.40735317875104 600,157.30794929726002" stroke="#D1CFC9" stroke-width="0.8" fill="none" opacity="0.40"/>
<path d="M300,440.5217736429818 C420,443.36153994672037 480,313.3569534824013 600,312.48138793283874" stroke="#D1CFC9" stroke-width="0.8" fill="none" opacity="0.30"/>
<path d="M300,440.5217736429818 C420,448.41998923114033 480,383.9800189221231 600,387.8112646080114" stroke="#D1CFC9" stroke-width="0.8" fill="none" opacity="0.39"/>
<path d="M300,440.5217736429818 C420,479.0013631831392 480,497.2892378637425 600,479.65488452927787" stroke="#D1CFC9" stroke-width="0.8" fill="none" opacity="0.25"/>
<path d="M300,440.5217736429818 C420,431.34522858153684 480,541.5322395511978 600,551.3271491443336" stroke="#D1CFC9" stroke-width="0.8" fill="none" opacity="0.32"/>
<path d="M300,523.4286616587613 C420,552.3681208496839 480,83.17364254737589 600,91.00515182083592" stroke="#D1CFC9" stroke-width="0.8" fill="none" opacity="0.44"/>
<path d="M300,523.4286616587613 C420,538.4119684222183 480,184.86252144447354 600,157.30794929726002" stroke="#D1CFC9" stroke-width="0.8" fill="none" opacity="0.38"/>
<path d="M300,523.4286616587613 C420,550.9520225229096 480,219.60390010268983 600,238.502234619577" stroke="#D1CFC9" stroke-width="0.8" fill="none" opacity="0.32"/>
<path d="M300,523.4286616587613 C420,487.3765315714703 480,339.5317478494909 600,312.48138793283874" stroke="#D1CFC9" stroke-width="0.8" fill="none" opacity="0.40"/>
<path d="M300,523.4286616587613 C420,546.4442348285681 480,495.44637331638864 600,479.65488452927787" stroke="#D1CFC9" stroke-width="0.8" fill="none" opacity="0.32"/>
<path d="M300,523.4286616587613 C420,483.61540858019504 480,575.1319141675792 600,551.3271491443336" stroke="#D1CFC9" stroke-width="0.8" fill="none" opacity="0.26"/>
<path d="M600,91.00515182083592 C720,112.7143371151095 780,157.65786197773596 900,177.14438895023065" stroke="#D1CFC9" stroke-width="0.8" fill="none" opacity="0.27"/>
<path d="M600,91.00515182083592 C720,81.07139100974224 780,354.7012916991257 900,369.04159180611407" stroke="#D1CFC9" stroke-width="0.8" fill="none" opacity="0.33"/>
<path d="M600,91.00515182083592 C720,69.71092897856397 780,499.7160613643275 900,527.1144057328613" stroke="#D1CFC9" stroke-width="0.8" fill="none" opacity="0.32"/>
<path d="M600,157.30794929726002 C720,160.85706615729887 780,93.04363142350772 900,80.43361496469788" stroke="#D1CFC9" stroke-width="0.8" fill="none" opacity="0.42"/>
<path d="M600,238.502234619577 C720,269.67055453573596 780,254.967668317018 900,268.40136739714103" stroke="#D1CFC9" stroke-width="0.8" fill="none" opacity="0.38"/>
<path d="M600,238.502234619577 C720,267.48172781033946 780,358.80365036912343 900,369.04159180611407" stroke="#D1CFC9" stroke-width="0.8" fill="none" opacity="0.32"/>
<path d="M600,238.502234619577 C720,260.13813067591707 780,515.8591358507655 900,527.1144057328613" stroke="#D1CFC9" stroke-width="0.8" fill="none" opacity="0.30"/>
<path d="M600,312.48138793283874 C720,346.2347339871304 780,204.34226334056405 900,177.14438895023065" stroke="#D1CFC9" stroke-width="0.8" fill="none" opacity="0.25"/>
<path d="M600,312.48138793283874 C720,346.29719555705026 780,264.44388836818837 900,268.40136739714103" stroke="#D1CFC9" stroke-width="0.8" fill="none" opacity="0.29"/>
<path d="M600,312.48138793283874 C720,341.58640392342033 780,334.6419706560303 900,369.04159180611407" stroke="#D1CFC9" stroke-width="0.8" fill="none" opacity="0.42"/>
<path d="M600,312.48138793283874 C720,343.10564354314835 780,436.1417357959183 900,458.21391797769206" stroke="#D1CFC9" stroke-width="0.8" fill="none" opacity="0.35"/>
<path d="M600,387.8112646080114 C720,360.7431192241477 780,94.61896523521722 900,80.43361496469788" stroke="#D1CFC9" stroke-width="0.8" fill="none" opacity="0.27"/>
<path d="M600,387.8112646080114 C720,355.6564915272539 780,263.62151686279606 900,268.40136739714103" stroke="#D1CFC9" stroke-width="0.8" fill="none" opacity="0.35"/>
<path d="M600,387.8112646080114 C720,375.41669755694846 780,450.367986689873 900,458.21391797769206" stroke="#D1CFC9" stroke-width="0.8" fill="none" opacity="0.43"/>
<path d="M600,387.8112646080114 C720,388.2126391660917 780,563.9704745518906 900,527.1144057328613" stroke="#D1CFC9" stroke-width="0.8" fill="none" opacity="0.42"/>
<path d="M600,479.65488452927787 C720,440.7054282214854 780,172.2686914276026 900,177.14438895023065" stroke="#D1CFC9" stroke-width="0.8" fill="none" opacity="0.30"/>
<path d="M600,479.65488452927787 C720,456.5013142201936 780,270.6615478579564 900,268.40136739714103" stroke="#D1CFC9" stroke-width="0.8" fill="none" opacity="0.31"/>
<path d="M600,479.65488452927787 C720,444.976804560336 780,426.0369902975012 900,458.21391797769206" stroke="#D1CFC9" stroke-width="0.8" fill="none" opacity="0.35"/>
<path d="M600,551.3271491443336 C720,568.4966550369273 780,147.8035402348739 900,177.14438895023065" stroke="#D1CFC9" stroke-width="0.8" fill="none" opacity="0.36"/>
<path d="M600,551.3271491443336 C720,558.1983979369277 780,292.6651329073741 900,268.40136739714103" stroke="#D1CFC9" stroke-width="0.8" fill="none" opacity="0.31"/>
<path d="M600,551.3271491443336 C720,577.6344340662785 780,401.3360324463192 900,369.04159180611407" stroke="#D1CFC9" stroke-width="0.8" fill="none" opacity="0.26"/>
<path d="M600,551.3271491443336 C720,519.222613894316 780,475.5592604595142 900,458.21391797769206" stroke="#D1CFC9" stroke-width="0.8" fill="none" opacity="0.39"/>
<path d="M600,551.3271491443336 C720,571.8080950883003 780,552.5237852564369 900,527.1144057328613" stroke="#D1CFC9" stroke-width="0.8" fill="none" opacity="0.37"/>
<path d="M900,177.14438895023065 C960,154.34138348985962 990,106.88556207597385 1050,100.67071306627959" stroke="#D1CFC9" stroke-width="0.8" fill="none" opacity="0.33"/>
<path d="M900,177.14438895023065 C960,207.2230376119779 990,224.96104872155956 1050,263.4390751857867" stroke="#D1CFC9" stroke-width="0.8" fill="none" opacity="0.30"/>
<path d="M900,177.14438895023065 C960,143.18945188475527 990,341.854777865078 1050,364.5905932072994" stroke="#D1CFC9" stroke-width="0.8" fill="none" opacity="0.36"/>
<path d="M900,177.14438895023065 C960,161.96591901498985 990,565.7211828706137 1050,529.514321360624" stroke="#D1CFC9" stroke-width="0.8" fill="none" opacity="0.26"/>
<path d="M900,268.40136739714103 C960,267.2715284329074 990,114.33914574290141 1050,100.67071306627959" stroke="#D1CFC9" stroke-width="0.8" fill="none" opacity="0.42"/>
<path d="M900,268.40136739714103 C960,247.64719808279705 990,288.63909583460514 1050,263.4390751857867" stroke="#D1CFC9" stroke-width="0.8" fill="none" opacity="0.36"/>
<path d="M900,268.40136739714103 C960,265.7589295715464 990,379.6399050740618 1050,364.5905932072994" stroke="#D1CFC9" stroke-width="0.8" fill="none" opacity="0.29"/>
<path d="M900,268.40136739714103 C960,291.14607195256883 990,475.7332253278543 1050,447.52198085550265" stroke="#D1CFC9" stroke-width="0.8" fill="none" opacity="0.40"/>
<path d="M900,268.40136739714103 C960,270.8693437499156 990,556.7219026653845 1050,529.514321360624" stroke="#D1CFC9" stroke-width="0.8" fill="none" opacity="0.45"/>
<path d="M900,369.04159180611407 C960,333.27452434116844 990,61.582421801421425 1050,100.67071306627959" stroke="#D1CFC9" stroke-width="0.8" fill="none" opacity="0.40"/>
<path d="M900,369.04159180611407 C960,380.11142711204275 990,401.06883975003586 1050,364.5905932072994" stroke="#D1CFC9" stroke-width="0.8" fill="none" opacity="0.38"/>
<path d="M900,369.04159180611407 C960,333.5149489518988 990,441.20877237273584 1050,447.52198085550265" stroke="#D1CFC9" stroke-width="0.8" fill="none" opacity="0.36"/>
<path d="M900,369.04159180611407 C960,397.11272593101313 990,532.9026257085852 1050,529.514321360624" stroke="#D1CFC9" stroke-width="0.8" fill="none" opacity="0.39"/>
<path d="M900,458.21391797769206 C960,482.9461208802988 990,193.6948640271311 1050,164.79805182917" stroke="#D1CFC9" stroke-width="0.8" fill="none" opacity="0.26"/>
<path d="M900,458.21391797769206 C960,418.8235832673552 990,245.4405533227698 1050,263.4390751857867" stroke="#D1CFC9" stroke-width="0.8" fill="none" opacity="0.32"/>
<path d="M900,458.21391797769206 C960,427.4153994711617 990,359.45538259331494 1050,364.5905932072994" stroke="#D1CFC9" stroke-width="0.8" fill="none" opacity="0.38"/>
<path d="M900,458.21391797769206 C960,490.14694153288076 990,504.40508180819563 1050,529.514321360624" stroke="#D1CFC9" stroke-width="0.8" fill="none" opacity="0.40"/>
<path d="M900,527.1144057328613 C960,565.1408906353499 990,138.43556522029348 1050,164.79805182917" stroke="#D1CFC9" stroke-width="0.8" fill="none" opacity="0.25"/>
<path d="M900,527.1144057328613 C960,493.5380326862302 990,289.97657993761277 1050,263.4390751857867" stroke="#D1CFC9" stroke-width="0.8" fill="none" opacity="0.45"/>
<path d="M900,527.1144057328613 C960,488.174165774643 990,340.55916691910454 1050,364.5905932072994" stroke="#D1CFC9" stroke-width="0.8" fill="none" opacity="0.32"/>
<path d="M900,527.1144057328613 C960,556.8277055823309 990,436.8123393796413 1050,447.52198085550265" stroke="#D1CFC9" stroke-width="0.8" fill="none" opacity="0.43"/>
<path d="M900,527.1144057328613 C960,488.00857408764034 990,553.9801512733055 1050,529.514321360624" stroke="#D1CFC9" stroke-width="0.8" fill="none" opacity="0.36"/>
<circle cx="150.0" cy="74.6" r="6.5" fill="#D1CFC9" opacity="0.8"/>
<circle cx="150.0" cy="179.1" r="5.0" fill="#D1CFC9" opacity="0.8"/>
<circle cx="150.0" cy="272.0" r="6.0" fill="#D1CFC9" opacity="0.8"/>
<circle cx="150.0" cy="364.4" r="4.7" fill="#D1CFC9" opacity="0.8"/>
<circle cx="150.0" cy="464.7" r="4.3" fill="#D1CFC9" opacity="0.8"/>
<circle cx="150.0" cy="557.5" r="5.6" fill="#D1CFC9" opacity="0.8"/>
<circle cx="300.0" cy="96.1" r="4.1" fill="#D1CFC9" opacity="0.8"/>
<circle cx="300.0" cy="187.9" r="6.2" fill="#D1CFC9" opacity="0.8"/>
<circle cx="300.0" cy="281.2" r="5.7" fill="#D1CFC9" opacity="0.8"/>
<circle cx="300.0" cy="372.6" r="6.6" fill="#D1CFC9" opacity="0.8"/>
<circle cx="300.0" cy="440.5" r="6.5" fill="#D1CFC9" opacity="0.8"/>
<circle cx="300.0" cy="523.4" r="7.0" fill="#D1CFC9" opacity="0.8"/>
<circle cx="600.0" cy="91.0" r="4.7" fill="#D1CFC9" opacity="0.8"/>
<circle cx="600.0" cy="157.3" r="5.1" fill="#D1CFC9" opacity="0.8"/>
<circle cx="600.0" cy="238.5" r="5.4" fill="#D1CFC9" opacity="0.8"/>
<circle cx="600.0" cy="312.5" r="4.2" fill="#D1CFC9" opacity="0.8"/>
<circle cx="600.0" cy="387.8" r="6.1" fill="#D1CFC9" opacity="0.8"/>
<circle cx="600.0" cy="479.7" r="5.8" fill="#D1CFC9" opacity="0.8"/>
<circle cx="600.0" cy="551.3" r="5.4" fill="#D1CFC9" opacity="0.8"/>
<circle cx="900.0" cy="80.4" r="6.0" fill="#D1CFC9" opacity="0.8"/>
<circle cx="900.0" cy="177.1" r="5.2" fill="#D1CFC9" opacity="0.8"/>
<circle cx="900.0" cy="268.4" r="4.2" fill="#D1CFC9" opacity="0.8"/>
<circle cx="900.0" cy="369.0" r="4.2" fill="#D1CFC9" opacity="0.8"/>
<circle cx="900.0" cy="458.2" r="4.2" fill="#D1CFC9" opacity="0.8"/>
<circle cx="900.0" cy="527.1" r="4.1" fill="#D1CFC9" opacity="0.8"/>
<circle cx="1050.0" cy="100.7" r="5.3" fill="#D1CFC9" opacity="0.8"/>
<circle cx="1050.0" cy="164.8" r="4.6" fill="#D1CFC9" opacity="0.8"/>
<circle cx="1050.0" cy="263.4" r="5.6" fill="#D1CFC9" opacity="0.8"/>
<circle cx="1050.0" cy="364.6" r="4.3" fill="#D1CFC9" opacity="0.8"/>
<circle cx="1050.0" cy="447.5" r="4.1" fill="#D1CFC9" opacity="0.8"/>
<circle cx="1050.0" cy="529.5" r="5.4" fill="#D1CFC9" opacity="0.8"/>
<circle cx="593.8" cy="406.7" r="14.9" fill="none" stroke="#1A1A1A" stroke-width="1" opacity="0.15"/>
<circle cx="603.4" cy="119.7" r="15.1" fill="none" stroke="#1A1A1A" stroke-width="1" opacity="0.15"/>
<circle cx="880.8" cy="285.9" r="14.0" fill="none" stroke="#1A1A1A" stroke-width="1" opacity="0.15"/>
<circle cx="306.1" cy="224.9" r="16.4" fill="none" stroke="#1A1A1A" stroke-width="1" opacity="0.15"/>
</svg>