<svg xmlns="http://www.w3.org/2000/svg" width="1200" height="630" viewBox="0 0 1200 630">
<rect width="1200" height="630" fill="#FAFAF9"/>
<line x1="0" y1="80" x2="1200" y2="80" stroke="#E8E8E6" stroke-width="0.8" opacity="0.6"/>
<line x1="0" y1="160" x2="1200" y2="160" stroke="#E8E8E6" stroke-width="0.8" opacity="0.6"/>
<line x1="0" y1="240" x2="1200" y2="240" stroke="#E8E8E6" stroke-width="0.8" opacity="0.6"/>
<line x1="0" y1="320" x2="1200" y2="320" stroke="#E8E8E6" stroke-width="0.8" opacity="0.6"/>
<line x1="0" y1="400" x2="1200" y2="400" stroke="#E8E8E6" stroke-width="0.8" opacity="0.6"/>
<line x1="0" y1="480" x2="1200" y2="480" stroke="#E8E8E6" stroke-width="0.8" opacity="0.6"/>
<line x1="0" y1="560" x2="1200" y2="560" stroke="#E8E8E6" stroke-width="0.8" opacity="0.6"/>
<path d="M150,81.89193127720895 C210,49.687634336223745 240,48.046027847576426 300,86.52930466144562" stroke="#D1CFC9" stroke-width="0.8" fill="none" opacity="0.26"/>
<path d="M150,81.89193127720895 C210,57.14353731301231 240,287.0906074566512 300,268.67433483634943" stroke="#D1CFC9" stroke-width="0.8" fill="none" opacity="0.26"/>
<path d="M150,81.89193127720895 C210,104.13297325003265 240,343.0349868920248 300,353.7838563825432" stroke="#D1CFC9" stroke-width="0.8" fill="none" opacity="0.39"/>
<path d="M150,81.89193127720895 C210,116.49950062774576 240,526.4513516967304 300,543.2216259206696" stroke="#D1CFC9" stroke-width="0.8" fill="none" opacity="0.45"/>
<path d="M150,176.67373543946857 C210,202.0194114185915 240,238.84359735223546 300,268.67433483634943" stroke="#D1CFC9" stroke-width="0.8" fill="none" opacity="0.38"/>
<path d="M150,176.67373543946857 C210,151.4145017111242 240,576.0796785266324 300,543.2216259206696" stroke="#D1CFC9" stroke-width="0.8" fill="none" opacity="0.42"/>
<path d="M150,275.0992654299129 C210,262.8403371299711 240,175.77126854699367 300,169.52504246018944" stroke="#D1CFC9" stroke-width="0.8" fill="none" opacity="0.30"/>
<path d="M150,275.0992654299129 C210,277.6906034857246 240,274.52061621530925 300,268.67433483634943" stroke="#D1CFC9" stroke-width="0.8" fill="none" opacity="0.40"/>
<path d="M150,275.0992654299129 C210,306.3155855066878 240,317.81748786098734 300,353.7838563825432" stroke="#D1CFC9" stroke-width="0.8" fill="none" opacity="0.30"/>
<path d="M150,275.0992654299129 C210,285.5003516901053 240,446.64243678623865 300,439.66928534108894" stroke="#D1CFC9" stroke-width="0.8" fill="none" opacity="0.26"/>
<path d="M150,349.18108315933057 C210,315.05260851165576 240,86.14954604444782 300,86.52930466144562" stroke="#D1CFC9" stroke-width="0.8" fill="none" opacity="0.30"/>
<path d="M150,349.18108315933057 C210,384.6007124117112 240,166.76257006282978 300,169.52504246018944" stroke="#D1CFC9" stroke-width="0.8" fill="none" opacity="0.29"/>
<path d="M150,349.18108315933057 C210,325.8691219631278 240,305.3431957665233 300,268.67433483634943" stroke="#D1CFC9" stroke-width="0.8" fill="none" opacity="0.39"/>
<path d="M150,349.18108315933057 C210,314.90674544053775 240,360.67570163465007 300,353.7838563825432" stroke="#D1CFC9" stroke-width="0.8" fill="none" opacity="0.32"/>
<path d="M150,349.18108315933057 C210,318.2925814018335 240,415.16329415402447 300,439.66928534108894" stroke="#D1CFC9" stroke-width="0.8" fill="none" opacity="0.31"/>
<path d="M150,465.3379290349171 C210,430.32420976048434 240,94.3375348007161 300,86.52930466144562" stroke="#D1CFC9" stroke-width="0.8" fill="none" opacity="0.28"/>
<path d="M150,465.3379290349171 C210,489.9260129541918 240,247.9204720202648 300,268.67433483634943" stroke="#D1CFC9" stroke-width="0.8" fill="none" opacity="0.29"/>
<path d="M150,465.3379290349171 C210,441.8332215793974 240,359.48550241568256 300,353.7838563825432" stroke="#D1CFC9" stroke-width="0.8" fill="none" opacity="0.33"/>
<path d="M150,465.3379290349171 C210,431.8415273166824 240,564.0344986016943 300,543.2216259206696" stroke="#D1CFC9" stroke-width="0.8" fill="none" opacity="0.26"/>
<path d="M150,552.4481352973842 C210,521.6563769634013 240,53.87030102169847 300,86.52930466144562" stroke="#D1CFC9" stroke-width="0.8" fill="none" opacity="0.28"/>
<path d="M150,552.4481352973842 C210,583.0057073358926 240,375.2393476379196 300,353.7838563825432" stroke="#D1CFC9" stroke-width="0.8" fill="none" opacity="0.40"/>
<path d="M150,552.4481352973842 C210,591.399254649272 240,450.4633266400693 300,439.66928534108894" stroke="#D1CFC9" stroke-width="0.8" fill="none" opacity="0.38"/>
<path d="M150,552.4481352973842 C210,517.0362122922754 240,530.9652070694057 300,543.2216259206696" stroke="#D1CFC9" stroke-width="0.8" fill="none" opacity="0.41"/>
<path d="M300,86.52930466144562 C420,104.37885700826972 480,101.84842537014009 600,96.86530988404185" stroke="#D1CFC9" stroke-width="0.8" fill="none" opacity="0.30"/>
<path d="M300,86.52930466144562 C420,93.93849885881377 480,213.63108542110564 600,205.79264690279788" stroke="#D1CFC9" stroke-width="0.8" fill="none" opacity="0.39"/>
<path d="M300,86.52930466144562 C420,122.49600899929554 480,381.22158287331035 600,403.82762649860877" stroke="#D1CFC9" stroke-width="0.8" fill="none" opacity="0.39"/>
<path d="M300,169.52504246018944 C420,191.49655368213928 480,85.44344654712906 600,96.86530988404185" stroke="#D1CFC9" stroke-width="0.8" fill="none" opacity="0.25"/>
<path d="M300,169.52504246018944 C420,155.6196162583352 480,513.5018083698819 600,504.17512496378623" stroke="#D1CFC9" stroke-width="0.8" fill="none" opacity="0.44"/>
<path d="M300,268.67433483634943 C420,275.52264461375836 480,98.56483311172687 600,96.86530988404185" stroke="#D1CFC9" stroke-width="0.8" fill="none" opacity="0.44"/>
<path d="M300,268.67433483634943 C420,236.7342026635851 480,196.17009060344893 600,205.79264690279788" stroke="#D1CFC9" stroke-width="0.8" fill="none" opacity="0.33"/>
<path d="M300,268.67433483634943 C420,241.2998726333724 480,310.45092765438625 600,328.26879322209135" stroke="#D1CFC9" stroke-width="0.8" fill="none" opacity="0.29"/>
<path d="M300,439.66928534108894 C420,436.8025188596925 480,302.6623935440235 600,328.26879322209135" stroke="#D1CFC9" stroke-width="0.8" fill="none" opacity="0.37"/>
<path d="M300,439.66928534108894 C420,417.2376808182424 480,376.18786450596247 600,403.82762649860877" stroke="#D1CFC9" stroke-width="0.8" fill="none" opacity="0.31"/>
<path d="M300,543.2216259206696 C420,583.2055423709577 480,213.176502625499 600,205.79264690279788" stroke="#D1CFC9" stroke-width="0.8" fill="none" opacity="0.33"/>
<path d="M300,543.2216259206696 C420,522.6052819724673 480,503.1426692044229 600,504.17512496378623" stroke="#D1CFC9" stroke-width="0.8" fill="none" opacity="0.43"/>
<path d="M600,96.86530988404185 C720,133.39229689570897 780,126.14412323109435 900,104.23274842049757" stroke="#D1CFC9" stroke-width="0.8" fill="none" opacity="0.28"/>
<path d="M600,96.86530988404185 C720,89.2107417483839 780,203.22397689433396 900,204.37708065038944" stroke="#D1CFC9" stroke-width="0.8" fill="none" opacity="0.37"/>
<path d="M600,96.86530988404185 C720,68.59788954271886 780,354.07572590142394 900,323.03847570508685" stroke="#D1CFC9" stroke-width="0.8" fill="none" opacity="0.29"/>
<path d="M600,96.86530988404185 C720,126.89683787033353 780,540.5692466829365 900,532.5895675640994" stroke="#D1CFC9" stroke-width="0.8" fill="none" opacity="0.34"/>
<path d="M600,205.79264690279788 C720,174.55605036894698 780,107.26928180113185 900,104.23274842049757" stroke="#D1CFC9" stroke-width="0.8" fill="none" opacity="0.36"/>
<path d="M600,205.79264690279788 C720,185.3955377602008 780,165.15933990621923 900,204.37708065038944" stroke="#D1CFC9" stroke-width="0.8" fill="none" opacity="0.32"/>
<path d="M600,205.79264690279788 C720,188.08488590342105 780,378.1455651449844 900,410.1462544447617" stroke="#D1CFC9" stroke-width="0.8" fill="none" opacity="0.33"/>
<path d="M600,205.79264690279788 C720,229.34325418163633 780,566.0311847534102 900,532.5895675640994" stroke="#D1CFC9" stroke-width="0.8" fill="none" opacity="0.42"/>
<path d="M600,328.26879322209135 C720,354.56377097698015 780,130.93994979395995 900,104.23274842049757" stroke="#D1CFC9" stroke-width="0.8" fill="none" opacity="0.41"/>
<path d="M600,328.26879322209135 C720,325.6707410383203 780,299.09822680966425 900,323.03847570508685" stroke="#D1CFC9" stroke-width="0.8" fill="none" opacity="0.34"/>
<path d="M600,328.26879322209135 C720,321.4867769785893 780,393.4311033413818 900,410.1462544447617" stroke="#D1CFC9" stroke-width="0.8" fill="none" opacity="0.43"/>
<path d="M600,403.82762649860877 C720,399.4480623184815 780,69.03745516274066 900,104.23274842049757" stroke="#D1CFC9" stroke-width="0.8" fill="none" opacity="0.38"/>
<path d="M600,403.82762649860877 C720,398.1612956028342 780,439.5840969603937 900,410.1462544447617" stroke="#D1CFC9" stroke-width="0.8" fill="none" opacity="0.26"/>
<path d="M600,403.82762649860877 C720,365.8794376428424 780,522.4190657093234 900,532.5895675640994" stroke="#D1CFC9" stroke-width="0.8" fill="none" opacity="0.36"/>
<path d="M600,504.17512496378623 C720,466.6800694676768 780,105.86755391207232 900,104.23274842049757" stroke="#D1CFC9" stroke-width="0.8" fill="none" opacity="0.33"/>
<path d="M600,504.17512496378623 C720,497.41879610564064 780,224.9570300397363 900,204.37708065038944" stroke="#D1CFC9" stroke-width="0.8" fill="none" opacity="0.40"/>
<path d="M600,504.17512496378623 C720,537.0032248946379 780,544.4841816952647 900,532.5895675640994" stroke="#D1CFC9" stroke-width="0.8" fill="none" opacity="0.40"/>
<path d="M900,104.23274842049757 C960,93.44889664730263 990,133.71754308736826 1050,105.71620533096515" stroke="#D1CFC9" stroke-width="0.8" fill="none" opacity="0.31"/>
<path d="M900,104.23274842049757 C960,99.49918811989463 990,352.39573753680935 1050,342.98332840227135" stroke="#D1CFC9" stroke-width="0.8" fill="none" opacity="0.37"/>
<path d="M900,204.37708065038944 C960,240.42142247814252 990,112.65301269494299 1050,105.71620533096515" stroke="#D1CFC9" stroke-width="0.8" fill="none" opacity="0.42"/>
<path d="M900,204.37708065038944 C960,199.9050524367264 990,254.25527467631161 1050,278.1459532571365" stroke="#D1CFC9" stroke-width="0.8" fill="none" opacity="0.42"/>
<path d="M900,204.37708065038944 C960,240.73602709959636 990,337.17753925248456 1050,342.98332840227135" stroke="#D1CFC9" stroke-width="0.8" fill="none" opacity="0.29"/>
<path d="M900,204.37708065038944 C960,182.33527342400868 990,441.2351702286944 1050,441.53018355777726" stroke="#D1CFC9" stroke-width="0.8" fill="none" opacity="0.35"/>
<path d="M900,204.37708065038944 C960,191.6763822996701 990,573.3157428752901 1050,544.363116049758" stroke="#D1CFC9" stroke-width="0.8" fill="none" opacity="0.33"/>
<path d="M900,323.03847570508685 C960,320.1099768234673 990,124.98634825762974 1050,105.71620533096515" stroke="#D1CFC9" stroke-width="0.8" fill="none" opacity="0.28"/>
<path d="M900,323.03847570508685 C960,311.6917649590624 990,200.6435523775042 1050,185.47374551172223" stroke="#D1CFC9" stroke-width="0.8" fill="none" opacity="0.30"/>
<path d="M900,323.03847570508685 C960,315.07766767756027 990,293.0369555971206 1050,278.1459532571365" stroke="#D1CFC9" stroke-width="0.8" fill="none" opacity="0.31"/>
<path d="M900,323.03847570508685 C960,307.0081215275005 990,316.5720298175169 1050,342.98332840227135" stroke="#D1CFC9" stroke-width="0.8" fill="none" opacity="0.33"/>
<path d="M900,323.03847570508685 C960,288.5524815201183 990,460.94274969700325 1050,441.53018355777726" stroke="#D1CFC9" stroke-width="0.8" fill="none" opacity="0.35"/>
<path d="M900,323.03847570508685 C960,283.3951539414458 990,543.0897910476406 1050,544.363116049758" stroke="#D1CFC9" stroke-width="0.8" fill="none" opacity="0.29"/>
<path d="M900,410.1462544447617 C960,425.1826329045423 990,72.43607992316504 1050,105.71620533096515" stroke="#D1CFC9" stroke-width="0.8" fill="none" opacity="0.40"/>
<path d="M900,410.1462544447617 C960,389.8030105970807 990,299.05821180321703 1050,278.1459532571365" stroke="#D1CFC9" stroke-width="0.8" fill="none" opacity="0.44"/>
<path d="M900,410.1462544447617 C960,427.9038603498842 990,439.3624613190448 1050,441.53018355777726" stroke="#D1CFC9" stroke-width="0.8" fill="none" opacity="0.43"/>
<path d="M900,410.1462544447617 C960,397.02370306570634 990,548.403915312701 1050,544.363116049758" stroke="#D1CFC9" stroke-width="0.8" fill="none" opacity="0.43"/>
<path d="M900,532.5895675640994 C960,541.7131485156046 990,152.9234496427056 1050,185.47374551172223" stroke="#D1CFC9" stroke-width="0.8" fill="none" opacity="0.44"/>
<path d="M900,532.5895675640994 C960,557.2047095892962 990,256.28583991254817 1050,278.1459532571365" stroke="#D1CFC9" stroke-width="0.8" fill="none" opacity="0.43"/>
<circle cx="150.0" cy="81.9" r="5.6" fill="#D1CFC9" opacity="0.8"/>
<circle cx="150.0" cy="176.7" r="6.7" fill="#D1CFC9" opacity="0.8"/>
<circle cx="150.0" cy="275.1" r="5.4" fill="#D1CFC9" opacity="0.8"/>
<circle cx="150.0" cy="349.2" r="5.7" fill="#D1CFC9" opacity="0.8"/>
<circle cx="150.0" cy="465.3" r="5.7" fill="#D1CFC9" opacity="0.8"/>
<circle cx="150.0" cy="552.4" r="6.2" fill="#D1CFC9" opacity="0.8"/>
<circle cx="300.0" cy="86.5" r="6.6" fill="#D1CFC9" opacity="0.8"/>
<circle cx="300.0" cy="169.5" r="4.5" fill="#D1CFC9" opacity="0.8"/>
<circle cx="300.0" cy="268.7" r="4.6" fill="#D1CFC9" opacity="0.8"/>
<circle cx="300.0" cy="353.8" r="4.3" fill="#D1CFC9" opacity="0.8"/>
<circle cx="300.0" cy="439.7" r="5.5" fill="#D1CFC9" opacity="0.8"/>
<circle cx="300.0" cy="543.2" r="5.3" fill="#D1CFC9" opacity="0.8"/>
<circle cx="600.0" cy="96.9" r="5.1" fill="#D1CFC9" opacity="0.8"/>
<circle cx="600.0" cy="205.8" r="6.5" fill="#D1CFC9" opacity="0.8"/>
<circle cx="600.0" cy="328.3" r="5.6" fill="#D1CFC9" opacity="0.8"/>
<circle cx="600.0" cy="403.8" r="5.6" fill="#D1CFC9" opacity="0.8"/>
<circle cx="600.0" cy="504.2" r="6.1" fill="#D1CFC9" opacity="0.8"/>
<circle cx="900.0" cy="104.2" r="5.1" fill="#D1CFC9" opacity="0.8"/>
<circle cx="900.0" cy="204.4" r="6.2" fill="#D1CFC9" opacity="0.8"/>
<circle cx="900.0" cy="323.0" r="6.9" fill="#D1CFC9" opacity="0.8"/>
<circle cx="900.0" cy="410.1" r="5.6" fill="#D1CFC9" opacity="0.8"/>
<circle cx="900.0" cy="532.6" r="4.1" fill="#D1CFC9" opacity="0.8"/>
<circle cx="1050.0" cy="105.7" r="6.6" fill="#D1CFC9" opacity="0.8"/>
<circle cx="1050.0" cy="185.5" r="4.7" fill="#D1CFC9" opacity="0.8"/>
<circle cx="1050.0" cy="278.1" r="5.8" fill="#D1CFC9" opacity="0.8"/>
<circle cx="1050.0" cy="343.0" r="4.6" fill="#D1CFC9" opacity="0.8"/>
<circle cx="1050.0" cy="441.5" r="5.4" fill="#D1CFC9" opacity="0.8"/>
<circle cx="1050.0" cy="544.4" r="4.9" fill="#D1CFC9" opacity="0.8"/>
<circle cx="310.5" cy="115.0" r="16.4" fill="none" stroke="#1A1A1A" stroke-width="1" opacity="0.15"/>
<circle cx="586.5" cy="489.3" r="10.9" fill="none" stroke="#1A1A1A" stroke-width="1" opacity="0.15"/>
<circle cx="1057.3" cy="369.8" r="12.7" fill="none" stroke="#1A1A1A" stroke-width="1" opacity="0.15"/>
<circle cx="300.4" cy="275.0" r="16.2" fill="none" stroke="#1A1A1A" stroke-width="1" opacity="0.15"/>
</svg>