<svg xmlns="http://www.w3.org/2000/svg" width="1200" height="630" viewBox="0 0 1200 630">
<rect width="1200" height="630" fill="#FAFAF9"/>
<line x1="0" y1="80" x2="1200" y2="80" stroke="#E8E8E6" stroke-width="0.8" opacity="0.6"/>
<line x1="0" y1="160" x2="1200" y2="160" stroke="#E8E8E6" stroke-width="0.8" opacity="0.6"/>
<line x1="0" y1="240" x2="1200" y2="240" stroke="#E8E8E6" stroke-width="0.8" opacity="0.6"/>
<line x1="0" y1="320" x2="1200" y2="320" stroke="#E8E8E6" stroke-width="0.8" opacity="0.6"/>
<line x1="0" y1="400" x2="1200" y2="400" stroke="#E8E8E6" stroke-width="0.8" opacity="0.6"/>
<line x1="0" y1="480" x2="1200" y2="480" stroke="#E8E8E6" stroke-width="0.8" opacity="0.6"/>
<line x1="0" y1="560" x2="1200" y2="560" stroke="#E8E8E6" stroke-width="0.8" opacity="0.6"/>
<path d="M150,84.78350026621099 C210,88.89966611934352 240,164.306561280579 300,124.47153533307639" stroke="#D1CFC9" stroke-width="0.8" fill="none" opacity="0.39"/>
<path d="M150,84.78350026621099 C210,101.98368859965906 240,203.9815354992127 300,201.63253309080204" stroke="#D1CFC9" stroke-width="0.8" fill="none" opacity="0.33"/>
<path d="M150,84.78350026621099 C210,105.8114717306596 240,545.8604536419409 300,542.7968060338862" stroke="#D1CFC9" stroke-width="0.8" fill="none" opacity="0.39"/>
<path d="M150,161.62424937097222 C210,131.36415260346004 240,95.78125524096686 300,124.47153533307639" stroke="#D1CFC9" stroke-width="0.8" fill="none" opacity="0.38"/>
<path d="M150,161.62424937097222 C210,139.1390719512452 240,200.56661191246627 300,201.63253309080204" stroke="#D1CFC9" stroke-width="0.8" fill="none" opacity="0.37"/>
<path d="M150,161.62424937097222 C210,146.20801600475284 240,345.17248235577074 300,312.1404783251091" stroke="#D1CFC9" stroke-width="0.8" fill="none" opacity="0.29"/>
<path d="M150,161.62424937097222 C210,199.93367474693426 240,399.8550621454732 300,424.72605012350857" stroke="#D1CFC9" stroke-width="0.8" fill="none" opacity="0.44"/>
<path d="M150,248.51827102899978 C210,245.09060381087258 240,445.8210610739936 300,424.72605012350857" stroke="#D1CFC9" stroke-width="0.8" fill="none" opacity="0.33"/>
<path d="M150,317.36098100177736 C210,352.23799260891695 240,308.74227144772703 300,312.1404783251091" stroke="#D1CFC9" stroke-width="0.8" fill="none" opacity="0.40"/>
<path d="M150,317.36098100177736 C210,326.40608141155826 240,399.3520709346868 300,424.72605012350857" stroke="#D1CFC9" stroke-width="0.8" fill="none" opacity="0.34"/>
<path d="M150,400.25512517249564 C210,410.49512516765276 240,159.32944145363976 300,124.47153533307639" stroke="#D1CFC9" stroke-width="0.8" fill="none" opacity="0.44"/>
<path d="M150,400.25512517249564 C210,400.4948343691637 240,182.45295981305023 300,201.63253309080204" stroke="#D1CFC9" stroke-width="0.8" fill="none" opacity="0.40"/>
<path d="M150,400.25512517249564 C210,421.3782502928232 240,413.4287128477424 300,424.72605012350857" stroke="#D1CFC9" stroke-width="0.8" fill="none" opacity="0.45"/>
<path d="M150,400.25512517249564 C210,366.5252196133428 240,530.6289650491972 300,542.7968060338862" stroke="#D1CFC9" stroke-width="0.8" fill="none" opacity="0.41"/>
<path d="M150,477.6934339008162 C210,480.16349215070096 240,284.7178462186637 300,312.1404783251091" stroke="#D1CFC9" stroke-width="0.8" fill="none" opacity="0.26"/>
<path d="M150,477.6934339008162 C210,470.4250961147889 240,433.64551562085876 300,424.72605012350857" stroke="#D1CFC9" stroke-width="0.8" fill="none" opacity="0.28"/>
<path d="M150,477.6934339008162 C210,446.6020521816919 240,579.5227658482089 300,542.7968060338862" stroke="#D1CFC9" stroke-width="0.8" fill="none" opacity="0.39"/>
<path d="M150,548.3031889565297 C210,571.7675897023332 240,104.9837860928345 300,124.47153533307639" stroke="#D1CFC9" stroke-width="0.8" fill="none" opacity="0.38"/>
<path d="M150,548.3031889565297 C210,537.2549472771946 240,336.5334006372218 300,312.1404783251091" stroke="#D1CFC9" stroke-width="0.8" fill="none" opacity="0.37"/>
<path d="M150,548.3031889565297 C210,530.6058692194302 240,412.4674490903196 300,424.72605012350857" stroke="#D1CFC9" stroke-width="0.8" fill="none" opacity="0.33"/>
<path d="M300,124.47153533307639 C420,87.24629512551388 480,325.8520692539989 600,329.92419977298107" stroke="#D1CFC9" stroke-width="0.8" fill="none" opacity="0.39"/>
<path d="M300,124.47153533307639 C420,133.39460044805767 480,385.18963326937273 600,421.36264148316405" stroke="#D1CFC9" stroke-width="0.8" fill="none" opacity="0.41"/>
<path d="M300,124.47153533307639 C420,123.09839076760653 480,522.7010551781163 600,537.2884259813671" stroke="#D1CFC9" stroke-width="0.8" fill="none" opacity="0.39"/>
<path d="M300,201.63253309080204 C420,226.9202568707802 480,317.20920334831095 600,329.92419977298107" stroke="#D1CFC9" stroke-width="0.8" fill="none" opacity="0.32"/>
<path d="M300,201.63253309080204 C420,178.38684560996174 480,452.2875404630991 600,421.36264148316405" stroke="#D1CFC9" stroke-width="0.8" fill="none" opacity="0.37"/>
<path d="M300,312.1404783251091 C420,333.0588692019365 480,210.71370578876548 600,207.27762591519337" stroke="#D1CFC9" stroke-width="0.8" fill="none" opacity="0.40"/>
<path d="M300,312.1404783251091 C420,312.86603900717245 480,302.6881658185013 600,329.92419977298107" stroke="#D1CFC9" stroke-width="0.8" fill="none" opacity="0.35"/>
<path d="M300,312.1404783251091 C420,322.30989347545193 480,405.98176045133306 600,421.36264148316405" stroke="#D1CFC9" stroke-width="0.8" fill="none" opacity="0.34"/>
<path d="M300,424.72605012350857 C420,441.4281083216025 480,57.35359043473228 600,85.06794534927884" stroke="#D1CFC9" stroke-width="0.8" fill="none" opacity="0.31"/>
<path d="M300,424.72605012350857 C420,409.48897498298646 480,213.65518925354237 600,207.27762591519337" stroke="#D1CFC9" stroke-width="0.8" fill="none" opacity="0.43"/>
<path d="M300,424.72605012350857 C420,408.894914636364 480,308.00353151792746 600,329.92419977298107" stroke="#D1CFC9" stroke-width="0.8" fill="none" opacity="0.45"/>
<path d="M300,424.72605012350857 C420,430.65058502500193 480,456.68718938755035 600,421.36264148316405" stroke="#D1CFC9" stroke-width="0.8" fill="none" opacity="0.28"/>
<path d="M300,424.72605012350857 C420,413.1217888994426 480,573.2488705835419 600,537.2884259813671" stroke="#D1CFC9" stroke-width="0.8" fill="none" opacity="0.44"/>
<path d="M300,542.7968060338862 C420,508.7829877749977 480,53.11368681982012 600,85.06794534927884" stroke="#D1CFC9" stroke-width="0.8" fill="none" opacity="0.34"/>
<path d="M300,542.7968060338862 C420,558.8141610903699 480,234.06674748404572 600,207.27762591519337" stroke="#D1CFC9" stroke-width="0.8" fill="none" opacity="0.30"/>
<path d="M300,542.7968060338862 C420,507.8583494140437 480,334.30253257702634 600,329.92419977298107" stroke="#D1CFC9" stroke-width="0.8" fill="none" opacity="0.41"/>
<path d="M300,542.7968060338862 C420,578.7747637659253 480,410.3125561390334 600,421.36264148316405" stroke="#D1CFC9" stroke-width="0.8" fill="none" opacity="0.34"/>
<path d="M600,85.06794534927884 C720,113.07653553808959 780,240.92783249815176 900,263.4847213649854" stroke="#D1CFC9" stroke-width="0.8" fill="none" opacity="0.33"/>
<path d="M600,207.27762591519337 C720,232.58047543549455 780,91.57788279344743 900,127.11997392361982" stroke="#D1CFC9" stroke-width="0.8" fill="none" opacity="0.45"/>
<path d="M600,207.27762591519337 C720,215.95607727462334 780,261.600348915998 900,263.4847213649854" stroke="#D1CFC9" stroke-width="0.8" fill="none" opacity="0.33"/>
<path d="M600,207.27762591519337 C720,192.78725243261718 780,406.43135120161605 900,376.4768848126002" stroke="#D1CFC9" stroke-width="0.8" fill="none" opacity="0.29"/>
<path d="M600,329.92419977298107 C720,331.46717143838 780,140.90065980425584 900,127.11997392361982" stroke="#D1CFC9" stroke-width="0.8" fill="none" opacity="0.34"/>
<path d="M600,329.92419977298107 C720,314.0482669063025 780,235.2059017284787 900,263.4847213649854" stroke="#D1CFC9" stroke-width="0.8" fill="none" opacity="0.39"/>
<path d="M600,421.36264148316405 C720,450.00036344747065 780,110.13144848247325 900,127.11997392361982" stroke="#D1CFC9" stroke-width="0.8" fill="none" opacity="0.43"/>
<path d="M600,421.36264148316405 C720,460.68007373383267 780,251.25646373398052 900,263.4847213649854" stroke="#D1CFC9" stroke-width="0.8" fill="none" opacity="0.40"/>
<path d="M600,421.36264148316405 C720,412.0674414739635 780,490.1340476801931 900,484.0558240833822" stroke="#D1CFC9" stroke-width="0.8" fill="none" opacity="0.39"/>
<path d="M600,537.2884259813671 C720,499.08896970355164 780,365.40079399920086 900,376.4768848126002" stroke="#D1CFC9" stroke-width="0.8" fill="none" opacity="0.32"/>
<path d="M900,127.11997392361982 C960,140.43783538128199 990,132.75100105180198 1050,120.54341157352167" stroke="#D1CFC9" stroke-width="0.8" fill="none" opacity="0.39"/>
<path d="M900,127.11997392361982 C960,159.28239319996965 990,374.7216213531144 1050,404.9181840768825" stroke="#D1CFC9" stroke-width="0.8" fill="none" opacity="0.26"/>
<path d="M900,127.11997392361982 C960,129.26529478106303 990,511.1991520754991 1050,512.129812079512" stroke="#D1CFC9" stroke-width="0.8" fill="none" opacity="0.43"/>
<path d="M900,263.4847213649854 C960,270.0064200406909 990,239.13118940641434 1050,209.77560243680506" stroke="#D1CFC9" stroke-width="0.8" fill="none" opacity="0.37"/>
<path d="M900,263.4847213649854 C960,290.9256871151099 990,437.2927110451955 1050,404.9181840768825" stroke="#D1CFC9" stroke-width="0.8" fill="none" opacity="0.32"/>
<path d="M900,263.4847213649854 C960,235.9536778160263 990,500.74708641896655 1050,512.129812079512" stroke="#D1CFC9" stroke-width="0.8" fill="none" opacity="0.32"/>
<path d="M900,376.4768848126002 C960,371.8424426031863 990,154.49651883228137 1050,120.54341157352167" stroke="#D1CFC9" stroke-width="0.8" fill="none" opacity="0.29"/>
<path d="M900,376.4768848126002 C960,372.98586271856584 990,215.09581858527284 1050,209.77560243680506" stroke="#D1CFC9" stroke-width="0.8" fill="none" opacity="0.28"/>
<path d="M900,376.4768848126002 C960,343.3141572533441 990,394.71040139806234 1050,404.9181840768825" stroke="#D1CFC9" stroke-width="0.8" fill="none" opacity="0.42"/>
<path d="M900,484.0558240833822 C960,468.1424378185865 990,150.14710542889014 1050,120.54341157352167" stroke="#D1CFC9" stroke-width="0.8" fill="none" opacity="0.42"/>
<path d="M900,484.0558240833822 C960,485.6870004157738 990,242.42958015702422 1050,209.77560243680506" stroke="#D1CFC9" stroke-width="0.8" fill="none" opacity="0.40"/>
<path d="M900,484.0558240833822 C960,486.0983711850127 990,265.90229543855 1050,296.31880980690914" stroke="#D1CFC9" stroke-width="0.8" fill="none" opacity="0.38"/>
<path d="M900,484.0558240833822 C960,449.7808508114379 990,393.91592004218046 1050,404.9181840768825" stroke="#D1CFC9" stroke-width="0.8" fill="none" opacity="0.34"/>
<path d="M900,484.0558240833822 C960,450.33362525578906 990,528.0093174250818 1050,512.129812079512" stroke="#D1CFC9" stroke-width="0.8" fill="none" opacity="0.38"/>
<circle cx="150.0" cy="84.8" r="5.0" fill="#D1CFC9" opacity="0.8"/>
<circle cx="150.0" cy="161.6" r="5.7" fill="#D1CFC9" opacity="0.8"/>
<circle cx="150.0" cy="248.5" r="5.5" fill="#D1CFC9" opacity="0.8"/>
<circle cx="150.0" cy="317.4" r="6.5" fill="#D1CFC9" opacity="0.8"/>
<circle cx="150.0" cy="400.3" r="6.9" fill="#D1CFC9" opacity="0.8"/>
<circle cx="150.0" cy="477.7" r="5.5" fill="#D1CFC9" opacity="0.8"/>
<circle cx="150.0" cy="548.3" r="4.5" fill="#D1CFC9" opacity="0.8"/>
<circle cx="300.0" cy="124.5" r="6.4" fill="#D1CFC9" opacity="0.8"/>
<circle cx="300.0" cy="201.6" r="4.2" fill="#D1CFC9" opacity="0.8"/>
<circle cx="300.0" cy="312.1" r="5.4" fill="#D1CFC9" opacity="0.8"/>
<circle cx="300.0" cy="424.7" r="5.2" fill="#D1CFC9" opacity="0.8"/>
<circle cx="300.0" cy="542.8" r="6.1" fill="#D1CFC9" opacity="0.8"/>
<circle cx="600.0" cy="85.1" r="5.7" fill="#D1CFC9" opacity="0.8"/>
<circle cx="600.0" cy="207.3" r="6.5" fill="#D1CFC9" opacity="0.8"/>
<circle cx="600.0" cy="329.9" r="6.6" fill="#D1CFC9" opacity="0.8"/>
<circle cx="600.0" cy="421.4" r="5.0" fill="#D1CFC9" opacity="0.8"/>
<circle cx="600.0" cy="537.3" r="4.2" fill="#D1CFC9" opacity="0.8"/>
<circle cx="900.0" cy="127.1" r="5.0" fill="#D1CFC9" opacity="0.8"/>
<circle cx="900.0" cy="263.5" r="5.4" fill="#D1CFC9" opacity="0.8"/>
<circle cx="900.0" cy="376.5" r="6.7" fill="#D1CFC9" opacity="0.8"/>
<circle cx="900.0" cy="484.1" r="5.8" fill="#D1CFC9" opacity="0.8"/>
<circle cx="1050.0" cy="120.5" r="4.6" fill="#D1CFC9" opacity="0.8"/>
<circle cx="1050.0" cy="209.8" r="5.5" fill="#D1CFC9" opacity="0.8"/>
<circle cx="1050.0" cy="296.3" r="4.8" fill="#D1CFC9" opacity="0.8"/>
<circle cx="1050.0" cy="404.9" r="4.1" fill="#D1CFC9" opacity="0.8"/>
<circle cx="1050.0" cy="512.1" r="4.8" fill="#D1CFC9" opacity="0.8"/>
<circle cx="291.6" cy="170.8" r="13.2" fill="none" stroke="#1A1A1A" stroke-width="1" opacity="0.15"/>
<circle cx="585.9" cy="511.4" r="16.7" fill="none" stroke="#1A1A1A" stroke-width="1" opacity="0.15"/>
<circle cx="602.3" cy="219.1" r="14.5" fill="none" stroke="#1A1A1A" stroke-width="1" opacity="0.15"/>
<circle cx="601.8" cy="167.9" r="17.6" fill="none" stroke="#1A1A1A" stroke-width="1" opacity="0.15"/>
</svg>