<svg xmlns="http://www.w3.org/2000/svg" width="1200" height="630" viewBox="0 0 1200 630">
<rect width="1200" height="630" fill="#FAFAF9"/>
<line x1="0" y1="80" x2="1200" y2="80" stroke="#E8E8E6" stroke-width="0.8" opacity="0.6"/>
<line x1="0" y1="160" x2="1200" y2="160" stroke="#E8E8E6" stroke-width="0.8" opacity="0.6"/>
<line x1="0" y1="240" x2="1200" y2="240" stroke="#E8E8E6" stroke-width="0.8" opacity="0.6"/>
<line x1="0" y1="320" x2="1200" y2="320" stroke="#E8E8E6" stroke-width="0.8" opacity="0.6"/>
<line x1="0" y1="400" x2="1200" y2="400" stroke="#E8E8E6" stroke-width="0.8" opacity="0.6"/>
<line x1="0" y1="480" x2="1200" y2="480" stroke="#E8E8E6" stroke-width="0.8" opacity="0.6"/>
<line x1="0" y1="560" x2="1200" y2="560" stroke="#E8E8E6" stroke-width="0.8" opacity="0.6"/>
<path d="M150,103.77205000533071 C210,126.38000820632558 240,256.0585822821731 300,245.5728973242391" stroke="#D1CFC9" stroke-width="0.8" fill="none" opacity="0.41"/>
<path d="M150,103.77205000533071 C210,102.02526660869486 240,478.0044289922352 300,503.7671015808748" stroke="#D1CFC9" stroke-width="0.8" fill="none" opacity="0.27"/>
<path d="M150,188.96849953172926 C210,207.9616467845537 240,135.16062947901912 300,107.86704699785147" stroke="#D1CFC9" stroke-width="0.8" fill="none" opacity="0.32"/>
<path d="M150,188.96849953172926 C210,184.35203788297997 240,466.81294201258873 300,503.7671015808748" stroke="#D1CFC9" stroke-width="0.8" fill="none" opacity="0.39"/>
<path d="M150,266.45067144614893 C210,261.6759593723519 240,236.83004646162271 300,245.5728973242391" stroke="#D1CFC9" stroke-width="0.8" fill="none" opacity="0.26"/>
<path d="M150,266.45067144614893 C210,289.0098707193997 240,473.79860224681875 300,503.7671015808748" stroke="#D1CFC9" stroke-width="0.8" fill="none" opacity="0.31"/>
<path d="M150,351.04583971692387 C210,370.91966209954575 240,373.9997875229455 300,360.9361202244032" stroke="#D1CFC9" stroke-width="0.8" fill="none" opacity="0.40"/>
<path d="M150,351.04583971692387 C210,349.7172520076198 240,495.18072283872885 300,503.7671015808748" stroke="#D1CFC9" stroke-width="0.8" fill="none" opacity="0.39"/>
<path d="M150,451.2072253095003 C210,490.0357526778327 240,278.94555844016037 300,245.5728973242391" stroke="#D1CFC9" stroke-width="0.8" fill="none" opacity="0.27"/>
<path d="M150,451.2072253095003 C210,481.9563038120876 240,349.6886581968722 300,360.9361202244032" stroke="#D1CFC9" stroke-width="0.8" fill="none" opacity="0.39"/>
<path d="M150,535.9768028804046 C210,562.5664647884123 240,221.4199545437982 300,245.5728973242391" stroke="#D1CFC9" stroke-width="0.8" fill="none" opacity="0.25"/>
<path d="M150,535.9768028804046 C210,537.4255741358328 240,518.6104173924333 300,503.7671015808748" stroke="#D1CFC9" stroke-width="0.8" fill="none" opacity="0.27"/>
<path d="M300,107.86704699785147 C420,112.66358385250521 480,284.7765603170326 600,310.40049096910525" stroke="#D1CFC9" stroke-width="0.8" fill="none" opacity="0.41"/>
<path d="M300,245.5728973242391 C420,278.4736320712775 480,256.008470733652 600,221.6464716628302" stroke="#D1CFC9" stroke-width="0.8" fill="none" opacity="0.41"/>
<path d="M300,360.9361202244032 C420,378.6371408138976 480,56.527313194244 600,86.36750939531892" stroke="#D1CFC9" stroke-width="0.8" fill="none" opacity="0.42"/>
<path d="M300,360.9361202244032 C420,343.4124328595149 480,117.7901440908993 600,154.6244577174947" stroke="#D1CFC9" stroke-width="0.8" fill="none" opacity="0.31"/>
<path d="M300,360.9361202244032 C420,362.0954018528795 480,213.76859761256927 600,221.6464716628302" stroke="#D1CFC9" stroke-width="0.8" fill="none" opacity="0.30"/>
<path d="M300,360.9361202244032 C420,377.16539119490545 480,276.52631223685484 600,310.40049096910525" stroke="#D1CFC9" stroke-width="0.8" fill="none" opacity="0.35"/>
<path d="M300,360.9361202244032 C420,382.82934439620686 480,391.0289935421964 600,393.20297115801435" stroke="#D1CFC9" stroke-width="0.8" fill="none" opacity="0.40"/>
<path d="M300,360.9361202244032 C420,377.15559412845306 480,441.4608461247317 600,462.7970577384222" stroke="#D1CFC9" stroke-width="0.8" fill="none" opacity="0.35"/>
<path d="M300,503.7671015808748 C420,481.08147187807634 480,107.46518638705956 600,86.36750939531892" stroke="#D1CFC9" stroke-width="0.8" fill="none" opacity="0.42"/>
<path d="M300,503.7671015808748 C420,486.34982040923785 480,193.55892457470972 600,154.6244577174947" stroke="#D1CFC9" stroke-width="0.8" fill="none" opacity="0.28"/>
<path d="M300,503.7671015808748 C420,515.7692187983937 480,224.67324657101958 600,221.6464716628302" stroke="#D1CFC9" stroke-width="0.8" fill="none" opacity="0.35"/>
<path d="M300,503.7671015808748 C420,531.1530406023267 480,349.4094953717802 600,310.40049096910525" stroke="#D1CFC9" stroke-width="0.8" fill="none" opacity="0.25"/>
<path d="M300,503.7671015808748 C420,469.95606098714194 480,439.3358138408712 600,462.7970577384222" stroke="#D1CFC9" stroke-width="0.8" fill="none" opacity="0.43"/>
<path d="M300,503.7671015808748 C420,540.5190481076295 480,540.6496077668037 600,548.001469075913" stroke="#D1CFC9" stroke-width="0.8" fill="none" opacity="0.40"/>
<path d="M600,86.36750939531892 C720,100.4730106573489 780,109.4006359533874 900,91.04798637401498" stroke="#D1CFC9" stroke-width="0.8" fill="none" opacity="0.31"/>
<path d="M600,86.36750939531892 C720,52.982249142714366 780,149.43062982043034 900,170.8697221430181" stroke="#D1CFC9" stroke-width="0.8" fill="none" opacity="0.43"/>
<path d="M600,86.36750939531892 C720,102.0010554849871 780,428.02481514309176 900,460.85603329093567" stroke="#D1CFC9" stroke-width="0.8" fill="none" opacity="0.44"/>
<path d="M600,86.36750939531892 C720,55.57454980422615 780,517.8495589373283 900,550.0310530038623" stroke="#D1CFC9" stroke-width="0.8" fill="none" opacity="0.34"/>
<path d="M600,154.6244577174947 C720,145.85297930277954 780,84.81306779124147 900,91.04798637401498" stroke="#D1CFC9" stroke-width="0.8" fill="none" opacity="0.35"/>
<path d="M600,154.6244577174947 C720,132.1230187536853 780,142.05714354572285 900,170.8697221430181" stroke="#D1CFC9" stroke-width="0.8" fill="none" opacity="0.25"/>
<path d="M600,154.6244577174947 C720,149.44298512609512 780,429.062777766274 900,460.85603329093567" stroke="#D1CFC9" stroke-width="0.8" fill="none" opacity="0.33"/>
<path d="M600,154.6244577174947 C720,148.59460695934123 780,531.5701102599432 900,550.0310530038623" stroke="#D1CFC9" stroke-width="0.8" fill="none" opacity="0.45"/>
<path d="M600,221.6464716628302 C720,232.46619334362126 780,127.14444763938533 900,91.04798637401498" stroke="#D1CFC9" stroke-width="0.8" fill="none" opacity="0.25"/>
<path d="M600,221.6464716628302 C720,182.05256462703753 780,376.1244923402845 900,365.34796471133546" stroke="#D1CFC9" stroke-width="0.8" fill="none" opacity="0.30"/>
<path d="M600,221.6464716628302 C720,231.77585640823838 780,453.8653938988841 900,460.85603329093567" stroke="#D1CFC9" stroke-width="0.8" fill="none" opacity="0.36"/>
<path d="M600,221.6464716628302 C720,238.0643530381062 780,542.8908072199885 900,550.0310530038623" stroke="#D1CFC9" stroke-width="0.8" fill="none" opacity="0.40"/>
<path d="M600,310.40049096910525 C720,308.55017894245685 780,139.114218058324 900,170.8697221430181" stroke="#D1CFC9" stroke-width="0.8" fill="none" opacity="0.42"/>
<path d="M600,310.40049096910525 C720,285.2977383205545 780,279.43875129600957 900,259.9114158171954" stroke="#D1CFC9" stroke-width="0.8" fill="none" opacity="0.34"/>
<path d="M600,310.40049096910525 C720,327.10432201422617 780,424.08987530322975 900,460.85603329093567" stroke="#D1CFC9" stroke-width="0.8" fill="none" opacity="0.32"/>
<path d="M600,310.40049096910525 C720,309.6186912744 780,523.764462482595 900,550.0310530038623" stroke="#D1CFC9" stroke-width="0.8" fill="none" opacity="0.31"/>
<path d="M600,393.20297115801435 C720,422.9675637845573 780,267.31151257625584 900,259.9114158171954" stroke="#D1CFC9" stroke-width="0.8" fill="none" opacity="0.31"/>
<path d="M600,393.20297115801435 C720,427.42804301155917 780,487.4397267064638 900,460.85603329093567" stroke="#D1CFC9" stroke-width="0.8" fill="none" opacity="0.25"/>
<path d="M600,462.7970577384222 C720,501.01520804450035 780,56.541335342577966 900,91.04798637401498" stroke="#D1CFC9" stroke-width="0.8" fill="none" opacity="0.44"/>
<path d="M600,462.7970577384222 C720,497.26276522176636 780,181.47501408389653 900,170.8697221430181" stroke="#D1CFC9" stroke-width="0.8" fill="none" opacity="0.33"/>
<path d="M600,462.7970577384222 C720,463.724256575218 780,264.42480974747446 900,259.9114158171954" stroke="#D1CFC9" stroke-width="0.8" fill="none" opacity="0.44"/>
<path d="M600,462.7970577384222 C720,449.6836825130586 780,363.3259841923895 900,365.34796471133546" stroke="#D1CFC9" stroke-width="0.8" fill="none" opacity="0.30"/>
<path d="M600,462.7970577384222 C720,446.21856149634544 780,438.2750512767292 900,460.85603329093567" stroke="#D1CFC9" stroke-width="0.8" fill="none" opacity="0.27"/>
<path d="M600,462.7970577384222 C720,485.95090662471506 780,569.2094720376678 900,550.0310530038623" stroke="#D1CFC9" stroke-width="0.8" fill="none" opacity="0.39"/>
<path d="M600,548.001469075913 C720,564.3627217359289 780,143.8172299819573 900,170.8697221430181" stroke="#D1CFC9" stroke-width="0.8" fill="none" opacity="0.32"/>
<path d="M600,548.001469075913 C720,517.5059638010584 780,227.87554299455962 900,259.9114158171954" stroke="#D1CFC9" stroke-width="0.8" fill="none" opacity="0.32"/>
<path d="M900,91.04798637401498 C960,105.47063843753902 990,150.50488608277053 1050,146.7145025287556" stroke="#D1CFC9" stroke-width="0.8" fill="none" opacity="0.37"/>
<path d="M900,91.04798637401498 C960,66.36493199001181 990,252.60518690296573 1050,274.8242180725616" stroke="#D1CFC9" stroke-width="0.8" fill="none" opacity="0.27"/>
<path d="M900,91.04798637401498 C960,66.39659494589935 990,357.02989036297186 1050,395.4672851045307" stroke="#D1CFC9" stroke-width="0.8" fill="none" opacity="0.39"/>
<path d="M900,91.04798637401498 C960,52.33894653719359 990,529.0431589945786 1050,514.6926065906632" stroke="#D1CFC9" stroke-width="0.8" fill="none" opacity="0.33"/>
<path d="M900,170.8697221430181 C960,139.40184891442811 990,143.9108149910138 1050,146.7145025287556" stroke="#D1CFC9" stroke-width="0.8" fill="none" opacity="0.38"/>
<path d="M900,170.8697221430181 C960,197.71136561122523 990,240.27766873498396 1050,274.8242180725616" stroke="#D1CFC9" stroke-width="0.8" fill="none" opacity="0.41"/>
<path d="M900,170.8697221430181 C960,185.94126268661145 990,529.580026058196 1050,514.6926065906632" stroke="#D1CFC9" stroke-width="0.8" fill="none" opacity="0.40"/>
<path d="M900,365.34796471133546 C960,355.0774224207451 990,111.1821737080771 1050,146.7145025287556" stroke="#D1CFC9" stroke-width="0.8" fill="none" opacity="0.27"/>
<path d="M900,365.34796471133546 C960,330.2356960671571 990,244.7428106843361 1050,274.8242180725616" stroke="#D1CFC9" stroke-width="0.8" fill="none" opacity="0.26"/>
<path d="M900,365.34796471133546 C960,336.37657970804173 990,419.7258412991943 1050,395.4672851045307" stroke="#D1CFC9" stroke-width="0.8" fill="none" opacity="0.43"/>
<path d="M900,460.85603329093567 C960,454.90222327013083 990,139.96186552642888 1050,146.7145025287556" stroke="#D1CFC9" stroke-width="0.8" fill="none" opacity="0.36"/>
<path d="M900,460.85603329093567 C960,484.9131838821138 990,382.9156782173821 1050,395.4672851045307" stroke="#D1CFC9" stroke-width="0.8" fill="none" opacity="0.44"/>
<path d="M900,460.85603329093567 C960,490.13128450562505 990,481.0793275028186 1050,514.6926065906632" stroke="#D1CFC9" stroke-width="0.8" fill="none" opacity="0.44"/>
<path d="M900,550.0310530038623 C960,551.3076148734679 990,154.72994875580304 1050,146.7145025287556" stroke="#D1CFC9" stroke-width="0.8" fill="none" opacity="0.37"/>
<path d="M900,550.0310530038623 C960,577.6113807278713 990,278.68827089999996 1050,274.8242180725616" stroke="#D1CFC9" stroke-width="0.8" fill="none" opacity="0.33"/>
<path d="M900,550.0310530038623 C960,529.5424549597182 990,509.9110537290366 1050,514.6926065906632" stroke="#D1CFC9" stroke-width="0.8" fill="none" opacity="0.26"/>
<circle cx="150.0" cy="103.8" r="5.0" fill="#D1CFC9" opacity="0.8"/>
<circle cx="150.0" cy="189.0" r="5.5" fill="#D1CFC9" opacity="0.8"/>
<circle cx="150.0" cy="266.5" r="4.4" fill="#D1CFC9" opacity="0.8"/>
<circle cx="150.0" cy="351.0" r="6.9" fill="#D1CFC9" opacity="0.8"/>
<circle cx="150.0" cy="451.2" r="6.9" fill="#D1CFC9" opacity="0.8"/>
<circle cx="150.0" cy="536.0" r="6.9" fill="#D1CFC9" opacity="0.8"/>
<circle cx="300.0" cy="107.9" r="5.7" fill="#D1CFC9" opacity="0.8"/>
<circle cx="300.0" cy="245.6" r="5.1" fill="#D1CFC9" opacity="0.8"/>
<circle cx="300.0" cy="360.9" r="4.3" fill="#D1CFC9" opacity="0.8"/>
<circle cx="300.0" cy="503.8" r="6.9" fill="#D1CFC9" opacity="0.8"/>
<circle cx="600.0" cy="86.4" r="6.0" fill="#D1CFC9" opacity="0.8"/>
<circle cx="600.0" cy="154.6" r="4.4" fill="#D1CFC9" opacity="0.8"/>
<circle cx="600.0" cy="221.6" r="4.5" fill="#D1CFC9" opacity="0.8"/>
<circle cx="600.0" cy="310.4" r="4.6" fill="#D1CFC9" opacity="0.8"/>
<circle cx="600.0" cy="393.2" r="5.8" fill="#D1CFC9" opacity="0.8"/>
<circle cx="600.0" cy="462.8" r="4.7" fill="#D1CFC9" opacity="0.8"/>
<circle cx="600.0" cy="548.0" r="6.0" fill="#D1CFC9" opacity="0.8"/>
<circle cx="900.0" cy="91.0" r="4.8" fill="#D1CFC9" opacity="0.8"/>
<circle cx="900.0" cy="170.9" r="6.6" fill="#D1CFC9" opacity="0.8"/>
<circle cx="900.0" cy="259.9" r="6.5" fill="#D1CFC9" opacity="0.8"/>
<circle cx="900.0" cy="365.3" r="5.6" fill="#D1CFC9" opacity="0.8"/>
<circle cx="900.0" cy="460.9" r="4.1" fill="#D1CFC9" opacity="0.8"/>
<circle cx="900.0" cy="550.0" r="5.7" fill="#D1CFC9" opacity="0.8"/>
<circle cx="1050.0" cy="146.7" r="6.7" fill="#D1CFC9" opacity="0.8"/>
<circle cx="1050.0" cy="274.8" r="6.9" fill="#D1CFC9" opacity="0.8"/>
<circle cx="1050.0" cy="395.5" r="5.1" fill="#D1CFC9" opacity="0.8"/>
<circle cx="1050.0" cy="514.7" r="6.6" fill="#D1CFC9" opacity="0.8"/>
<circle cx="150.8" cy="224.9" r="10.4" fill="none" stroke="#1A1A1A" stroke-width="1" opacity="0.15"/>
<circle cx="310.4" cy="332.6" r="17.7" fill="none" stroke="#1A1A1A" stroke-width="1" opacity="0.15"/>
<circle cx="602.4" cy="162.8" r="15.9" fill="none" stroke="#1A1A1A" stroke-width="1" opacity="0.15"/>
<circle cx="1060.8" cy="234.4" r="17.9" fill="none" stroke="#1A1A1A" stroke-width="1" opacity="0.15"/>
</svg>