<svg xmlns="http://www.w3.org/2000/svg" width="1200" height="630" viewBox="0 0 1200 630">
<rect width="1200" height="630" fill="#FAFAF9"/>
<circle cx="0.0" cy="-21.0" r="4.09" fill="#1A1A1A" opacity="0.64"/>
<circle cx="48.0" cy="-21.0" r="2.28" fill="#1A1A1A" opacity="0.21"/>
<circle cx="96.0" cy="-21.0" r="4.11" fill="#1A1A1A" opacity="0.21"/>
<circle cx="144.0" cy="-21.0" r="3.83" fill="#1A1A1A" opacity="0.58"/>
<circle cx="192.0" cy="-21.0" r="2.74" fill="#1A1A1A" opacity="0.68"/>
<circle cx="240.0" cy="-21.0" r="3.13" fill="#1A1A1A" opacity="0.51"/>
<circle cx="288.0" cy="-21.0" r="3.56" fill="#1A1A1A" opacity="0.35"/>
<circle cx="336.0" cy="-21.0" r="2.19" fill="#1A1A1A" opacity="0.56"/>
<circle cx="384.0" cy="-21.0" r="3.26" fill="#1A1A1A" opacity="0.48"/>
<circle cx="432.0" cy="-21.0" r="3.51" fill="#1A1A1A" opacity="0.24"/>
<circle cx="480.0" cy="-21.0" r="2.26" fill="#1A1A1A" opacity="0.61"/>
<circle cx="528.0" cy="-21.0" r="4.25" fill="#1A1A1A" opacity="0.69"/>
<circle cx="576.0" cy="-21.0" r="3.79" fill="#1A1A1A" opacity="0.47"/>
<circle cx="624.0" cy="-21.0" r="3.89" fill="#1A1A1A" opacity="0.29"/>
<circle cx="672.0" cy="-21.0" r="4.26" fill="#1A1A1A" opacity="0.45"/>
<circle cx="720.0" cy="-21.0" r="4.03" fill="#1A1A1A" opacity="0.26"/>
<circle cx="768.0" cy="-21.0" r="1.89" fill="#1A1A1A" opacity="0.66"/>
<circle cx="816.0" cy="-21.0" r="4.21" fill="#1A1A1A" opacity="0.58"/>
<circle cx="864.0" cy="-21.0" r="3.74" fill="#1A1A1A" opacity="0.58"/>
<circle cx="912.0" cy="-21.0" r="3.92" fill="#1A1A1A" opacity="0.24"/>
<circle cx="960.0" cy="-21.0" r="2.85" fill="#1A1A1A" opacity="0.21"/>
<circle cx="1008.0" cy="-21.0" r="3.96" fill="#1A1A1A" opacity="0.31"/>
<circle cx="1056.0" cy="-21.0" r="2.85" fill="#1A1A1A" opacity="0.53"/>
<circle cx="1104.0" cy="-21.0" r="4.06" fill="#1A1A1A" opacity="0.63"/>
<circle cx="1152.0" cy="-21.0" r="3.49" fill="#1A1A1A" opacity="0.23"/>
<circle cx="1200.0" cy="-21.0" r="3.26" fill="#1A1A1A" opacity="0.27"/>
<circle cx="0.0" cy="27.0" r="1.89" fill="#1A1A1A" opacity="0.49"/>
<circle cx="48.0" cy="27.0" r="1.58" fill="#1A1A1A" opacity="0.44"/>
<circle cx="96.0" cy="27.0" r="2.33" fill="#1A1A1A" opacity="0.39"/>
<circle cx="144.0" cy="27.0" r="1.85" fill="#1A1A1A" opacity="0.67"/>
<circle cx="192.0" cy="27.0" r="4.03" fill="#1A1A1A" opacity="0.44"/>
<circle cx="240.0" cy="27.0" r="2.84" fill="#1A1A1A" opacity="0.67"/>
<circle cx="288.0" cy="27.0" r="3.21" fill="#1A1A1A" opacity="0.29"/>
<circle cx="336.0" cy="27.0" r="2.02" fill="#1A1A1A" opacity="0.50"/>
<circle cx="384.0" cy="27.0" r="4.36" fill="#1A1A1A" opacity="0.53"/>
<circle cx="432.0" cy="27.0" r="3.58" fill="#1A1A1A" opacity="0.25"/>
<circle cx="480.0" cy="27.0" r="3.43" fill="#1A1A1A" opacity="0.65"/>
<circle cx="528.0" cy="27.0" r="3.52" fill="#1A1A1A" opacity="0.42"/>
<circle cx="576.0" cy="27.0" r="2.52" fill="#1A1A1A" opacity="0.26"/>
<circle cx="624.0" cy="27.0" r="3.00" fill="#1A1A1A" opacity="0.64"/>
<circle cx="672.0" cy="27.0" r="2.21" fill="#1A1A1A" opacity="0.25"/>
<circle cx="720.0" cy="27.0" r="2.29" fill="#1A1A1A" opacity="0.67"/>
<circle cx="768.0" cy="27.0" r="2.58" fill="#1A1A1A" opacity="0.47"/>
<circle cx="816.0" cy="27.0" r="3.81" fill="#1A1A1A" opacity="0.37"/>
<circle cx="864.0" cy="27.0" r="2.64" fill="#1A1A1A" opacity="0.64"/>
<circle cx="912.0" cy="27.0" r="2.33" fill="#1A1A1A" opacity="0.56"/>
<circle cx="960.0" cy="27.0" r="3.56" fill="#1A1A1A" opacity="0.54"/>
<circle cx="1008.0" cy="27.0" r="4.19" fill="#1A1A1A" opacity="0.61"/>
<circle cx="1056.0" cy="27.0" r="4.12" fill="#1A1A1A" opacity="0.67"/>
<circle cx="1104.0" cy="27.0" r="4.25" fill="#1A1A1A" opacity="0.40"/>
<circle cx="1152.0" cy="27.0" r="4.20" fill="#1A1A1A" opacity="0.45"/>
<circle cx="1200.0" cy="27.0" r="2.67" fill="#1A1A1A" opacity="0.32"/>
<circle cx="0.0" cy="75.0" r="3.12" fill="#1A1A1A" opacity="0.26"/>
<circle cx="48.0" cy="75.0" r="3.99" fill="#1A1A1A" opacity="0.58"/>
<circle cx="96.0" cy="75.0" r="4.31" fill="#1A1A1A" opacity="0.58"/>
<circle cx="144.0" cy="75.0" r="4.02" fill="#1A1A1A" opacity="0.41"/>
<circle cx="192.0" cy="75.0" r="2.50" fill="#1A1A1A" opacity="0.48"/>
<circle cx="240.0" cy="75.0" r="4.37" fill="#1A1A1A" opacity="0.57"/>
<circle cx="288.0" cy="75.0" r="2.50" fill="#1A1A1A" opacity="0.28"/>
<circle cx="336.0" cy="75.0" r="1.96" fill="#1A1A1A" opacity="0.43"/>
<circle cx="384.0" cy="75.0" r="2.19" fill="#1A1A1A" opacity="0.42"/>
<circle cx="432.0" cy="75.0" r="3.86" fill="#1A1A1A" opacity="0.51"/>
<circle cx="480.0" cy="75.0" r="2.65" fill="#1A1A1A" opacity="0.24"/>
<circle cx="528.0" cy="75.0" r="2.26" fill="#1A1A1A" opacity="0.27"/>
<circle cx="576.0" cy="75.0" r="4.71" fill="#1A1A1A" opacity="0.30"/>
<circle cx="624.0" cy="75.0" r="2.42" fill="#1A1A1A" opacity="0.35"/>
<circle cx="672.0" cy="75.0" r="2.85" fill="#1A1A1A" opacity="0.68"/>
<circle cx="720.0" cy="75.0" r="2.83" fill="#1A1A1A" opacity="0.41"/>
<circle cx="768.0" cy="75.0" r="2.67" fill="#1A1A1A" opacity="0.38"/>
<circle cx="816.0" cy="75.0" r="4.09" fill="#1A1A1A" opacity="0.43"/>
<circle cx="864.0" cy="75.0" r="3.86" fill="#1A1A1A" opacity="0.21"/>
<circle cx="912.0" cy="75.0" r="3.34" fill="#1A1A1A" opacity="0.24"/>
<circle cx="960.0" cy="75.0" r="2.10" fill="#1A1A1A" opacity="0.69"/>
<circle cx="1008.0" cy="75.0" r="2.22" fill="#1A1A1A" opacity="0.22"/>
<circle cx="1056.0" cy="75.0" r="4.15" fill="#1A1A1A" opacity="0.61"/>
<circle cx="1104.0" cy="75.0" r="3.74" fill="#1A1A1A" opacity="0.34"/>
<circle cx="1152.0" cy="75.0" r="3.49" fill="#1A1A1A" opacity="0.48"/>
<circle cx="1200.0" cy="75.0" r="3.09" fill="#1A1A1A" opacity="0.48"/>
<circle cx="0.0" cy="123.0" r="2.55" fill="#1A1A1A" opacity="0.27"/>
<circle cx="48.0" cy="123.0" r="2.24" fill="#1A1A1A" opacity="0.33"/>
<circle cx="96.0" cy="123.0" r="3.92" fill="#1A1A1A" opacity="0.47"/>
<circle cx="144.0" cy="123.0" r="3.93" fill="#1A1A1A" opacity="0.53"/>
<circle cx="192.0" cy="123.0" r="4.26" fill="#1A1A1A" opacity="0.51"/>
<circle cx="240.0" cy="123.0" r="4.39" fill="#1A1A1A" opacity="0.25"/>
<circle cx="288.0" cy="123.0" r="1.94" fill="#1A1A1A" opacity="0.43"/>
<circle cx="336.0" cy="123.0" r="1.99" fill="#1A1A1A" opacity="0.46"/>
<circle cx="384.0" cy="123.0" r="3.02" fill="#1A1A1A" opacity="0.59"/>
<circle cx="432.0" cy="123.0" r="4.35" fill="#1A1A1A" opacity="0.46"/>
<circle cx="480.0" cy="123.0" r="3.08" fill="#1A1A1A" opacity="0.46"/>
<circle cx="528.0" cy="123.0" r="2.14" fill="#1A1A1A" opacity="0.50"/>
<circle cx="576.0" cy="123.0" r="3.09" fill="#1A1A1A" opacity="0.60"/>
<circle cx="624.0" cy="123.0" r="4.20" fill="#1A1A1A" opacity="0.59"/>
<circle cx="672.0" cy="123.0" r="2.27" fill="#1A1A1A" opacity="0.62"/>
<circle cx="720.0" cy="123.0" r="4.23" fill="#1A1A1A" opacity="0.29"/>
<circle cx="768.0" cy="123.0" r="3.48" fill="#1A1A1A" opacity="0.52"/>
<circle cx="816.0" cy="123.0" r="2.37" fill="#1A1A1A" opacity="0.50"/>
<circle cx="864.0" cy="123.0" r="3.96" fill="#1A1A1A" opacity="0.30"/>
<circle cx="912.0" cy="123.0" r="2.35" fill="#1A1A1A" opacity="0.28"/>
<circle cx="960.0" cy="123.0" r="1.76" fill="#1A1A1A" opacity="0.67"/>
<circle cx="1008.0" cy="123.0" r="3.44" fill="#1A1A1A" opacity="0.31"/>
<circle cx="1056.0" cy="123.0" r="2.89" fill="#1A1A1A" opacity="0.38"/>
<circle cx="1104.0" cy="123.0" r="4.31" fill="#1A1A1A" opacity="0.58"/>
<circle cx="1152.0" cy="123.0" r="1.99" fill="#1A1A1A" opacity="0.34"/>
<circle cx="1200.0" cy="123.0" r="4.03" fill="#1A1A1A" opacity="0.37"/>
<circle cx="0.0" cy="171.0" r="2.08" fill="#1A1A1A" opacity="0.20"/>
<circle cx="48.0" cy="171.0" r="3.21" fill="#1A1A1A" opacity="0.44"/>
<circle cx="96.0" cy="171.0" r="2.59" fill="#1A1A1A" opacity="0.33"/>
<circle cx="144.0" cy="171.0" r="3.82" fill="#1A1A1A" opacity="0.39"/>
<circle cx="192.0" cy="171.0" r="2.19" fill="#1A1A1A" opacity="0.26"/>
<circle cx="240.0" cy="171.0" r="3.58" fill="#1A1A1A" opacity="0.66"/>
<circle cx="288.0" cy="171.0" r="4.09" fill="#1A1A1A" opacity="0.59"/>
<circle cx="336.0" cy="171.0" r="3.20" fill="#1A1A1A" opacity="0.49"/>
<circle cx="384.0" cy="171.0" r="3.62" fill="#1A1A1A" opacity="0.24"/>
<circle cx="432.0" cy="171.0" r="5.77" fill="#1A1A1A" opacity="0.56"/>
<circle cx="480.0" cy="171.0" r="3.03" fill="#1A1A1A" opacity="0.33"/>
<circle cx="528.0" cy="171.0" r="5.73" fill="#1A1A1A" opacity="0.34"/>
<circle cx="576.0" cy="171.0" r="5.12" fill="#1A1A1A" opacity="0.30"/>
<circle cx="624.0" cy="171.0" r="2.85" fill="#1A1A1A" opacity="0.57"/>
<circle cx="672.0" cy="171.0" r="3.45" fill="#1A1A1A" opacity="0.28"/>
<circle cx="720.0" cy="171.0" r="2.03" fill="#1A1A1A" opacity="0.33"/>
<circle cx="768.0" cy="171.0" r="3.95" fill="#1A1A1A" opacity="0.64"/>
<circle cx="816.0" cy="171.0" r="2.76" fill="#1A1A1A" opacity="0.20"/>
<circle cx="864.0" cy="171.0" r="2.22" fill="#1A1A1A" opacity="0.31"/>
<circle cx="912.0" cy="171.0" r="2.25" fill="#1A1A1A" opacity="0.25"/>
<circle cx="960.0" cy="171.0" r="3.24" fill="#1A1A1A" opacity="0.34"/>
<circle cx="1008.0" cy="171.0" r="3.27" fill="#1A1A1A" opacity="0.67"/>
<circle cx="1056.0" cy="171.0" r="3.28" fill="#1A1A1A" opacity="0.26"/>
<circle cx="1104.0" cy="171.0" r="1.70" fill="#1A1A1A" opacity="0.49"/>
<circle cx="1152.0" cy="171.0" r="2.76" fill="#1A1A1A" opacity="0.54"/>
<circle cx="1200.0" cy="171.0" r="1.65" fill="#1A1A1A" opacity="0.48"/>
<circle cx="0.0" cy="219.0" r="4.04" fill="#1A1A1A" opacity="0.61"/>
<circle cx="48.0" cy="219.0" r="1.99" fill="#1A1A1A" opacity="0.32"/>
<circle cx="96.0" cy="219.0" r="4.27" fill="#1A1A1A" opacity="0.29"/>
<circle cx="144.0" cy="219.0" r="4.38" fill="#1A1A1A" opacity="0.58"/>
<circle cx="192.0" cy="219.0" r="4.08" fill="#1A1A1A" opacity="0.43"/>
<circle cx="240.0" cy="219.0" r="3.62" fill="#1A1A1A" opacity="0.66"/>
<circle cx="288.0" cy="219.0" r="2.06" fill="#1A1A1A" opacity="0.31"/>
<circle cx="336.0" cy="219.0" r="3.34" fill="#1A1A1A" opacity="0.56"/>
<circle cx="384.0" cy="219.0" r="4.35" fill="#1A1A1A" opacity="0.53"/>
<circle cx="432.0" cy="219.0" r="2.37" fill="#1A1A1A" opacity="0.40"/>
<circle cx="480.0" cy="219.0" r="7.29" fill="#1A1A1A" opacity="0.41"/>
<circle cx="528.0" cy="219.0" r="3.23" fill="#1A1A1A" opacity="0.30"/>
<circle cx="576.0" cy="219.0" r="4.21" fill="#1A1A1A" opacity="0.53"/>
<circle cx="624.0" cy="219.0" r="3.67" fill="#1A1A1A" opacity="0.23"/>
<circle cx="672.0" cy="219.0" r="3.85" fill="#1A1A1A" opacity="0.29"/>
<circle cx="720.0" cy="219.0" r="3.40" fill="#1A1A1A" opacity="0.24"/>
<circle cx="768.0" cy="219.0" r="2.25" fill="#1A1A1A" opacity="0.60"/>
<circle cx="816.0" cy="219.0" r="2.33" fill="#1A1A1A" opacity="0.51"/>
<circle cx="864.0" cy="219.0" r="4.18" fill="#1A1A1A" opacity="0.57"/>
<circle cx="912.0" cy="219.0" r="3.86" fill="#1A1A1A" opacity="0.66"/>
<circle cx="960.0" cy="219.0" r="2.79" fill="#1A1A1A" opacity="0.48"/>
<circle cx="1008.0" cy="219.0" r="3.21" fill="#1A1A1A" opacity="0.23"/>
<circle cx="1056.0" cy="219.0" r="3.18" fill="#1A1A1A" opacity="0.59"/>
<circle cx="1104.0" cy="219.0" r="4.39" fill="#1A1A1A" opacity="0.44"/>
<circle cx="1152.0" cy="219.0" r="3.11" fill="#1A1A1A" opacity="0.39"/>
<circle cx="1200.0" cy="219.0" r="3.21" fill="#1A1A1A" opacity="0.37"/>
<circle cx="0.0" cy="267.0" r="3.69" fill="#1A1A1A" opacity="0.56"/>
<circle cx="48.0" cy="267.0" r="3.65" fill="#1A1A1A" opacity="0.42"/>
<circle cx="96.0" cy="267.0" r="4.18" fill="#1A1A1A" opacity="0.58"/>
<circle cx="144.0" cy="267.0" r="4.32" fill="#1A1A1A" opacity="0.44"/>
<circle cx="192.0" cy="267.0" r="1.88" fill="#1A1A1A" opacity="0.39"/>
<circle cx="240.0" cy="267.0" r="3.77" fill="#1A1A1A" opacity="0.23"/>
<circle cx="288.0" cy="267.0" r="4.38" fill="#1A1A1A" opacity="0.28"/>
<circle cx="336.0" cy="267.0" r="2.08" fill="#1A1A1A" opacity="0.43"/>
<circle cx="384.0" cy="267.0" r="2.30" fill="#1A1A1A" opacity="0.38"/>
<circle cx="432.0" cy="267.0" r="3.38" fill="#1A1A1A" opacity="0.24"/>
<circle cx="480.0" cy="267.0" r="5.04" fill="#1A1A1A" opacity="0.35"/>
<circle cx="528.0" cy="267.0" r="7.42" fill="#1A1A1A" opacity="0.38"/>
<circle cx="576.0" cy="267.0" r="4.06" fill="#1A1A1A" opacity="0.67"/>
<circle cx="624.0" cy="267.0" r="3.75" fill="#1A1A1A" opacity="0.40"/>
<circle cx="672.0" cy="267.0" r="3.89" fill="#1A1A1A" opacity="0.25"/>
<circle cx="720.0" cy="267.0" r="4.29" fill="#1A1A1A" opacity="0.41"/>
<circle cx="768.0" cy="267.0" r="4.40" fill="#1A1A1A" opacity="0.47"/>
<circle cx="816.0" cy="267.0" r="3.02" fill="#1A1A1A" opacity="0.26"/>
<circle cx="864.0" cy="267.0" r="2.95" fill="#1A1A1A" opacity="0.29"/>
<circle cx="912.0" cy="267.0" r="1.94" fill="#1A1A1A" opacity="0.35"/>
<circle cx="960.0" cy="267.0" r="2.34" fill="#1A1A1A" opacity="0.55"/>
<circle cx="1008.0" cy="267.0" r="4.15" fill="#1A1A1A" opacity="0.43"/>
<circle cx="1056.0" cy="267.0" r="1.56" fill="#1A1A1A" opacity="0.63"/>
<circle cx="1104.0" cy="267.0" r="2.23" fill="#1A1A1A" opacity="0.33"/>
<circle cx="1152.0" cy="267.0" r="3.46" fill="#1A1A1A" opacity="0.56"/>
<circle cx="1200.0" cy="267.0" r="3.65" fill="#1A1A1A" opacity="0.61"/>
<circle cx="0.0" cy="315.0" r="2.44" fill="#1A1A1A" opacity="0.64"/>
<circle cx="48.0" cy="315.0" r="2.17" fill="#1A1A1A" opacity="0.47"/>
<circle cx="96.0" cy="315.0" r="2.53" fill="#1A1A1A" opacity="0.55"/>
<circle cx="144.0" cy="315.0" r="3.79" fill="#1A1A1A" opacity="0.61"/>
<circle cx="192.0" cy="315.0" r="4.10" fill="#1A1A1A" opacity="0.42"/>
<circle cx="240.0" cy="315.0" r="3.68" fill="#1A1A1A" opacity="0.54"/>
<circle cx="288.0" cy="315.0" r="2.83" fill="#1A1A1A" opacity="0.38"/>
<circle cx="336.0" cy="315.0" r="3.41" fill="#1A1A1A" opacity="0.45"/>
<circle cx="384.0" cy="315.0" r="4.27" fill="#1A1A1A" opacity="0.22"/>
<circle cx="432.0" cy="315.0" r="4.69" fill="#1A1A1A" opacity="0.21"/>
<circle cx="480.0" cy="315.0" r="4.90" fill="#1A1A1A" opacity="0.34"/>
<circle cx="528.0" cy="315.0" r="5.94" fill="#1A1A1A" opacity="0.48"/>
<circle cx="576.0" cy="315.0" r="5.98" fill="#1A1A1A" opacity="0.55"/>
<circle cx="624.0" cy="315.0" r="5.13" fill="#1A1A1A" opacity="0.25"/>
<circle cx="672.0" cy="315.0" r="3.29" fill="#1A1A1A" opacity="0.51"/>
<circle cx="720.0" cy="315.0" r="2.63" fill="#1A1A1A" opacity="0.48"/>
<circle cx="768.0" cy="315.0" r="1.52" fill="#1A1A1A" opacity="0.64"/>
<circle cx="816.0" cy="315.0" r="3.53" fill="#1A1A1A" opacity="0.39"/>
<circle cx="864.0" cy="315.0" r="2.33" fill="#1A1A1A" opacity="0.56"/>
<circle cx="912.0" cy="315.0" r="1.99" fill="#1A1A1A" opacity="0.40"/>
<circle cx="960.0" cy="315.0" r="3.71" fill="#1A1A1A" opacity="0.66"/>
<circle cx="1008.0" cy="315.0" r="2.00" fill="#1A1A1A" opacity="0.56"/>
<circle cx="1056.0" cy="315.0" r="3.39" fill="#1A1A1A" opacity="0.61"/>
<circle cx="1104.0" cy="315.0" r="3.51" fill="#1A1A1A" opacity="0.50"/>
<circle cx="1152.0" cy="315.0" r="3.72" fill="#1A1A1A" opacity="0.65"/>
<circle cx="1200.0" cy="315.0" r="1.52" fill="#1A1A1A" opacity="0.26"/>
<circle cx="0.0" cy="363.0" r="3.77" fill="#1A1A1A" opacity="0.59"/>
<circle cx="48.0" cy="363.0" r="3.49" fill="#1A1A1A" opacity="0.62"/>
<circle cx="96.0" cy="363.0" r="3.25" fill="#1A1A1A" opacity="0.38"/>
<circle cx="144.0" cy="363.0" r="3.47" fill="#1A1A1A" opacity="0.48"/>
<circle cx="192.0" cy="363.0" r="2.01" fill="#1A1A1A" opacity="0.22"/>
<circle cx="240.0" cy="363.0" r="2.21" fill="#1A1A1A" opacity="0.42"/>
<circle cx="288.0" cy="363.0" r="3.62" fill="#1A1A1A" opacity="0.35"/>
<circle cx="336.0" cy="363.0" r="3.85" fill="#1A1A1A" opacity="0.51"/>
<circle cx="384.0" cy="363.0" r="2.60" fill="#1A1A1A" opacity="0.34"/>
<circle cx="432.0" cy="363.0" r="2.52" fill="#1A1A1A" opacity="0.22"/>
<circle cx="480.0" cy="363.0" r="2.60" fill="#1A1A1A" opacity="0.64"/>
<circle cx="528.0" cy="363.0" r="2.08" fill="#1A1A1A" opacity="0.48"/>
<circle cx="576.0" cy="363.0" r="4.59" fill="#1A1A1A" opacity="0.54"/>
<circle cx="624.0" cy="363.0" r="3.70" fill="#1A1A1A" opacity="0.30"/>
<circle cx="672.0" cy="363.0" r="1.96" fill="#1A1A1A" opacity="0.54"/>
<circle cx="720.0" cy="363.0" r="1.67" fill="#1A1A1A" opacity="0.28"/>
<circle cx="768.0" cy="363.0" r="3.63" fill="#1A1A1A" opacity="0.51"/>
<circle cx="816.0" cy="363.0" r="4.15" fill="#1A1A1A" opacity="0.25"/>
<circle cx="864.0" cy="363.0" r="2.79" fill="#1A1A1A" opacity="0.42"/>
<circle cx="912.0" cy="363.0" r="4.48" fill="#1A1A1A" opacity="0.54"/>
<circle cx="960.0" cy="363.0" r="4.40" fill="#1A1A1A" opacity="0.22"/>
<circle cx="1008.0" cy="363.0" r="1.95" fill="#1A1A1A" opacity="0.38"/>
<circle cx="1056.0" cy="363.0" r="2.95" fill="#1A1A1A" opacity="0.45"/>
<circle cx="1104.0" cy="363.0" r="1.71" fill="#1A1A1A" opacity="0.22"/>
<circle cx="1152.0" cy="363.0" r="3.17" fill="#1A1A1A" opacity="0.38"/>
<circle cx="1200.0" cy="363.0" r="3.43" fill="#1A1A1A" opacity="0.66"/>
<circle cx="0.0" cy="411.0" r="2.96" fill="#1A1A1A" opacity="0.53"/>
<circle cx="48.0" cy="411.0" r="3.47" fill="#1A1A1A" opacity="0.62"/>
<circle cx="96.0" cy="411.0" r="3.20" fill="#1A1A1A" opacity="0.63"/>
<circle cx="144.0" cy="411.0" r="3.77" fill="#1A1A1A" opacity="0.62"/>
<circle cx="192.0" cy="411.0" r="1.94" fill="#1A1A1A" opacity="0.55"/>
<circle cx="240.0" cy="411.0" r="3.23" fill="#1A1A1A" opacity="0.51"/>
<circle cx="288.0" cy="411.0" r="3.20" fill="#1A1A1A" opacity="0.59"/>
<circle cx="336.0" cy="411.0" r="2.25" fill="#1A1A1A" opacity="0.40"/>
<circle cx="384.0" cy="411.0" r="2.40" fill="#1A1A1A" opacity="0.40"/>
<circle cx="432.0" cy="411.0" r="4.11" fill="#1A1A1A" opacity="0.25"/>
<circle cx="480.0" cy="411.0" r="4.71" fill="#1A1A1A" opacity="0.63"/>
<circle cx="528.0" cy="411.0" r="4.42" fill="#1A1A1A" opacity="0.21"/>
<circle cx="576.0" cy="411.0" r="2.85" fill="#1A1A1A" opacity="0.31"/>
<circle cx="624.0" cy="411.0" r="1.95" fill="#1A1A1A" opacity="0.41"/>
<circle cx="672.0" cy="411.0" r="3.43" fill="#1A1A1A" opacity="0.45"/>
<circle cx="720.0" cy="411.0" r="3.83" fill="#1A1A1A" opacity="0.42"/>
<circle cx="768.0" cy="411.0" r="3.19" fill="#1A1A1A" opacity="0.39"/>
<circle cx="816.0" cy="411.0" r="1.51" fill="#1A1A1A" opacity="0.52"/>
<circle cx="864.0" cy="411.0" r="3.85" fill="#1A1A1A" opacity="0.40"/>
<circle cx="912.0" cy="411.0" r="3.18" fill="#1A1A1A" opacity="0.62"/>
<circle cx="960.0" cy="411.0" r="4.49" fill="#1A1A1A" opacity="0.53"/>
<circle cx="1008.0" cy="411.0" r="2.90" fill="#1A1A1A" opacity="0.25"/>
<circle cx="1056.0" cy="411.0" r="3.44" fill="#1A1A1A" opacity="0.66"/>
<circle cx="1104.0" cy="411.0" r="4.12" fill="#1A1A1A" opacity="0.23"/>
<circle cx="1152.0" cy="411.0" r="2.99" fill="#1A1A1A" opacity="0.52"/>
<circle cx="1200.0" cy="411.0" r="2.74" fill="#1A1A1A" opacity="0.65"/>
<circle cx="0.0" cy="459.0" r="3.20" fill="#1A1A1A" opacity="0.64"/>
<circle cx="48.0" cy="459.0" r="3.43" fill="#1A1A1A" opacity="0.63"/>
<circle cx="96.0" cy="459.0" r="2.49" fill="#1A1A1A" opacity="0.53"/>
<circle cx="144.0" cy="459.0" r="3.55" fill="#1A1A1A" opacity="0.49"/>
<circle cx="192.0" cy="459.0" r="2.09" fill="#1A1A1A" opacity="0.66"/>
<circle cx="240.0" cy="459.0" r="1.78" fill="#1A1A1A" opacity="0.37"/>
<circle cx="288.0" cy="459.0" r="3.49" fill="#1A1A1A" opacity="0.28"/>
<circle cx="336.0" cy="459.0" r="3.24" fill="#1A1A1A" opacity="0.50"/>
<circle cx="384.0" cy="459.0" r="3.46" fill="#1A1A1A" opacity="0.44"/>
<circle cx="432.0" cy="459.0" r="1.95" fill="#1A1A1A" opacity="0.34"/>
<circle cx="480.0" cy="459.0" r="4.20" fill="#1A1A1A" opacity="0.53"/>
<circle cx="528.0" cy="459.0" r="3.57" fill="#1A1A1A" opacity="0.26"/>
<circle cx="576.0" cy="459.0" r="2.95" fill="#1A1A1A" opacity="0.36"/>
<circle cx="624.0" cy="459.0" r="2.06" fill="#1A1A1A" opacity="0.52"/>
<circle cx="672.0" cy="459.0" r="3.83" fill="#1A1A1A" opacity="0.40"/>
<circle cx="720.0" cy="459.0" r="1.57" fill="#1A1A1A" opacity="0.58"/>
<circle cx="768.0" cy="459.0" r="2.84" fill="#1A1A1A" opacity="0.49"/>
<circle cx="816.0" cy="459.0" r="1.67" fill="#1A1A1A" opacity="0.24"/>
<circle cx="864.0" cy="459.0" r="2.42" fill="#1A1A1A" opacity="0.37"/>
<circle cx="912.0" cy="459.0" r="2.85" fill="#1A1A1A" opacity="0.37"/>
<circle cx="960.0" cy="459.0" r="1.78" fill="#1A1A1A" opacity="0.44"/>
<circle cx="1008.0" cy="459.0" r="2.81" fill="#1A1A1A" opacity="0.48"/>
<circle cx="1056.0" cy="459.0" r="3.05" fill="#1A1A1A" opacity="0.65"/>
<circle cx="1104.0" cy="459.0" r="2.93" fill="#1A1A1A" opacity="0.62"/>
<circle cx="1152.0" cy="459.0" r="1.98" fill="#1A1A1A" opacity="0.42"/>
<circle cx="1200.0" cy="459.0" r="3.05" fill="#1A1A1A" opacity="0.70"/>
<circle cx="0.0" cy="507.0" r="1.55" fill="#1A1A1A" opacity="0.30"/>
<circle cx="48.0" cy="507.0" r="2.41" fill="#1A1A1A" opacity="0.34"/>
<circle cx="96.0" cy="507.0" r="3.91" fill="#1A1A1A" opacity="0.65"/>
<circle cx="144.0" cy="507.0" r="4.36" fill="#1A1A1A" opacity="0.20"/>
<circle cx="192.0" cy="507.0" r="2.54" fill="#1A1A1A" opacity="0.61"/>
<circle cx="240.0" cy="507.0" r="2.15" fill="#1A1A1A" opacity="0.59"/>
<circle cx="288.0" cy="507.0" r="3.31" fill="#1A1A1A" opacity="0.52"/>
<circle cx="336.0" cy="507.0" r="2.03" fill="#1A1A1A" opacity="0.53"/>
<circle cx="384.0" cy="507.0" r="2.04" fill="#1A1A1A" opacity="0.29"/>
<circle cx="432.0" cy="507.0" r="2.35" fill="#1A1A1A" opacity="0.46"/>
<circle cx="480.0" cy="507.0" r="2.74" fill="#1A1A1A" opacity="0.55"/>
<circle cx="528.0" cy="507.0" r="4.46" fill="#1A1A1A" opacity="0.36"/>
<circle cx="576.0" cy="507.0" r="2.43" fill="#1A1A1A" opacity="0.44"/>
<circle cx="624.0" cy="507.0" r="2.59" fill="#1A1A1A" opacity="0.21"/>
<circle cx="672.0" cy="507.0" r="1.52" fill="#1A1A1A" opacity="0.58"/>
<circle cx="720.0" cy="507.0" r="2.94" fill="#1A1A1A" opacity="0.50"/>
<circle cx="768.0" cy="507.0" r="2.86" fill="#1A1A1A" opacity="0.28"/>
<circle cx="816.0" cy="507.0" r="2.79" fill="#1A1A1A" opacity="0.29"/>
<circle cx="864.0" cy="507.0" r="3.12" fill="#1A1A1A" opacity="0.32"/>
<circle cx="912.0" cy="507.0" r="2.27" fill="#1A1A1A" opacity="0.34"/>
<circle cx="960.0" cy="507.0" r="4.10" fill="#1A1A1A" opacity="0.67"/>
<circle cx="1008.0" cy="507.0" r="2.11" fill="#1A1A1A" opacity="0.52"/>
<circle cx="1056.0" cy="507.0" r="3.99" fill="#1A1A1A" opacity="0.63"/>
<circle cx="1104.0" cy="507.0" r="4.47" fill="#1A1A1A" opacity="0.37"/>
<circle cx="1152.0" cy="507.0" r="3.87" fill="#1A1A1A" opacity="0.46"/>
<circle cx="1200.0" cy="507.0" r="1.80" fill="#1A1A1A" opacity="0.21"/>
<circle cx="0.0" cy="555.0" r="2.83" fill="#1A1A1A" opacity="0.55"/>
<circle cx="48.0" cy="555.0" r="2.24" fill="#1A1A1A" opacity="0.27"/>
<circle cx="96.0" cy="555.0" r="3.55" fill="#1A1A1A" opacity="0.51"/>
<circle cx="144.0" cy="555.0" r="2.97" fill="#1A1A1A" opacity="0.36"/>
<circle cx="192.0" cy="555.0" r="3.26" fill="#1A1A1A" opacity="0.22"/>
<circle cx="240.0" cy="555.0" r="3.57" fill="#1A1A1A" opacity="0.43"/>
<circle cx="288.0" cy="555.0" r="2.33" fill="#1A1A1A" opacity="0.59"/>
<circle cx="336.0" cy="555.0" r="2.33" fill="#1A1A1A" opacity="0.42"/>
<circle cx="384.0" cy="555.0" r="3.99" fill="#1A1A1A" opacity="0.48"/>
<circle cx="432.0" cy="555.0" r="3.07" fill="#1A1A1A" opacity="0.61"/>
<circle cx="480.0" cy="555.0" r="2.87" fill="#1A1A1A" opacity="0.56"/>
<circle cx="528.0" cy="555.0" r="3.81" fill="#1A1A1A" opacity="0.46"/>
<circle cx="576.0" cy="555.0" r="3.39" fill="#1A1A1A" opacity="0.27"/>
<circle cx="624.0" cy="555.0" r="2.43" fill="#1A1A1A" opacity="0.52"/>
<circle cx="672.0" cy="555.0" r="4.28" fill="#1A1A1A" opacity="0.24"/>
<circle cx="720.0" cy="555.0" r="4.18" fill="#1A1A1A" opacity="0.53"/>
<circle cx="768.0" cy="555.0" r="3.51" fill="#1A1A1A" opacity="0.33"/>
<circle cx="816.0" cy="555.0" r="1.65" fill="#1A1A1A" opacity="0.59"/>
<circle cx="864.0" cy="555.0" r="3.67" fill="#1A1A1A" opacity="0.67"/>
<circle cx="912.0" cy="555.0" r="3.55" fill="#1A1A1A" opacity="0.42"/>
<circle cx="960.0" cy="555.0" r="1.50" fill="#1A1A1A" opacity="0.23"/>
<circle cx="1008.0" cy="555.0" r="3.37" fill="#1A1A1A" opacity="0.57"/>
<circle cx="1056.0" cy="555.0" r="3.02" fill="#1A1A1A" opacity="0.59"/>
<circle cx="1104.0" cy="555.0" r="1.89" fill="#1A1A1A" opacity="0.53"/>
<circle cx="1152.0" cy="555.0" r="1.54" fill="#1A1A1A" opacity="0.55"/>
<circle cx="1200.0" cy="555.0" r="3.00" fill="#1A1A1A" opacity="0.33"/>
<circle cx="0.0" cy="603.0" r="3.54" fill="#1A1A1A" opacity="0.68"/>
<circle cx="48.0" cy="603.0" r="2.36" fill="#1A1A1A" opacity="0.26"/>
<circle cx="96.0" cy="603.0" r="2.12" fill="#1A1A1A" opacity="0.48"/>
<circle cx="144.0" cy="603.0" r="3.83" fill="#1A1A1A" opacity="0.62"/>
<circle cx="192.0" cy="603.0" r="2.50" fill="#1A1A1A" opacity="0.68"/>
<circle cx="240.0" cy="603.0" r="3.71" fill="#1A1A1A" opacity="0.37"/>
<circle cx="288.0" cy="603.0" r="3.86" fill="#1A1A1A" opacity="0.61"/>
<circle cx="336.0" cy="603.0" r="3.17" fill="#1A1A1A" opacity="0.33"/>
<circle cx="384.0" cy="603.0" r="4.44" fill="#1A1A1A" opacity="0.69"/>
<circle cx="432.0" cy="603.0" r="2.55" fill="#1A1A1A" opacity="0.47"/>
<circle cx="480.0" cy="603.0" r="1.67" fill="#1A1A1A" opacity="0.54"/>
<circle cx="528.0" cy="603.0" r="3.27" fill="#1A1A1A" opacity="0.36"/>
<circle cx="576.0" cy="603.0" r="1.82" fill="#1A1A1A" opacity="0.27"/>
<circle cx="624.0" cy="603.0" r="2.54" fill="#1A1A1A" opacity="0.45"/>
<circle cx="672.0" cy="603.0" r="3.39" fill="#1A1A1A" opacity="0.28"/>
<circle cx="720.0" cy="603.0" r="2.26" fill="#1A1A1A" opacity="0.48"/>
<circle cx="768.0" cy="603.0" r="3.18" fill="#1A1A1A" opacity="0.38"/>
<circle cx="816.0" cy="603.0" r="3.57" fill="#1A1A1A" opacity="0.51"/>
<circle cx="864.0" cy="603.0" r="2.89" fill="#1A1A1A" opacity="0.38"/>
<circle cx="912.0" cy="603.0" r="4.09" fill="#1A1A1A" opacity="0.68"/>
<circle cx="960.0" cy="603.0" r="3.62" fill="#1A1A1A" opacity="0.54"/>
<circle cx="1008.0" cy="603.0" r="3.84" fill="#1A1A1A" opacity="0.68"/>
<circle cx="1056.0" cy="603.0" r="3.56" fill="#1A1A1A" opacity="0.41"/>
<circle cx="1104.0" cy="603.0" r="2.27" fill="#1A1A1A" opacity="0.63"/>
<circle cx="1152.0" cy="603.0" r="2.84" fill="#1A1A1A" opacity="0.27"/>
<circle cx="1200.0" cy="603.0" r="2.91" fill="#1A1A1A" opacity="0.38"/>
<circle cx="0.0" cy="651.0" r="2.28" fill="#1A1A1A" opacity="0.67"/>
<circle cx="48.0" cy="651.0" r="3.65" fill="#1A1A1A" opacity="0.65"/>
<circle cx="96.0" cy="651.0" r="1.52" fill="#1A1A1A" opacity="0.38"/>
<circle cx="144.0" cy="651.0" r="2.61" fill="#1A1A1A" opacity="0.51"/>
<circle cx="192.0" cy="651.0" r="2.79" fill="#1A1A1A" opacity="0.22"/>
<circle cx="240.0" cy="651.0" r="2.09" fill="#1A1A1A" opacity="0.62"/>
<circle cx="288.0" cy="651.0" r="3.21" fill="#1A1A1A" opacity="0.48"/>
<circle cx="336.0" cy="651.0" r="3.02" fill="#1A1A1A" opacity="0.59"/>
<circle cx="384.0" cy="651.0" r="1.53" fill="#1A1A1A" opacity="0.63"/>
<circle cx="432.0" cy="651.0" r="4.10" fill="#1A1A1A" opacity="0.60"/>
<circle cx="480.0" cy="651.0" r="3.59" fill="#1A1A1A" opacity="0.24"/>
<circle cx="528.0" cy="651.0" r="2.27" fill="#1A1A1A" opacity="0.43"/>
<circle cx="576.0" cy="651.0" r="2.90" fill="#1A1A1A" opacity="0.58"/>
<circle cx="624.0" cy="651.0" r="4.40" fill="#1A1A1A" opacity="0.28"/>
<circle cx="672.0" cy="651.0" r="3.23" fill="#1A1A1A" opacity="0.55"/>
<circle cx="720.0" cy="651.0" r="3.31" fill="#1A1A1A" opacity="0.27"/>
<circle cx="768.0" cy="651.0" r="3.96" fill="#1A1A1A" opacity="0.22"/>
<circle cx="816.0" cy="651.0" r="4.40" fill="#1A1A1A" opacity="0.64"/>
<circle cx="864.0" cy="651.0" r="1.74" fill="#1A1A1A" opacity="0.33"/>
<circle cx="912.0" cy="651.0" r="3.65" fill="#1A1A1A" opacity="0.54"/>
<circle cx="960.0" cy="651.0" r="2.58" fill="#1A1A1A" opacity="0.28"/>
<circle cx="1008.0" cy="651.0" r="1.66" fill="#1A1A1A" opacity="0.49"/>
<circle cx="1056.0" cy="651.0" r="3.41" fill="#1A1A1A" opacity="0.21"/>
<circle cx="1104.0" cy="651.0" r="4.01" fill="#1A1A1A" opacity="0.62"/>
<circle cx="1152.0" cy="651.0" r="1.97" fill="#1A1A1A" opacity="0.49"/>
<circle cx="1200.0" cy="651.0" r="4.22" fill="#1A1A1A" opacity="0.67"/>
<line x1="1056.0" y1="27.0" x2="1104.0" y2="27.0" stroke="#D1CFC9" stroke-width="0.5" opacity="0.25"/>
<line x1="384.0" y1="75.0" x2="432.0" y2="75.0" stroke="#D1CFC9" stroke-width="0.5" opacity="0.25"/>
<line x1="384.0" y1="171.0" x2="432.0" y2="171.0" stroke="#D1CFC9" stroke-width="0.5" opacity="0.25"/>
<line x1="624.0" y1="219.0" x2="672.0" y2="219.0" stroke="#D1CFC9" stroke-width="0.5" opacity="0.25"/>
<line x1="1008.0" y1="219.0" x2="1056.0" y2="219.0" stroke="#D1CFC9" stroke-width="0.5" opacity="0.25"/>
<line x1="1056.0" y1="219.0" x2="1104.0" y2="219.0" stroke="#D1CFC9" stroke-width="0.5" opacity="0.25"/>
<line x1="672.0" y1="267.0" x2="720.0" y2="267.0" stroke="#D1CFC9" stroke-width="0.5" opacity="0.25"/>
<line x1="288.0" y1="363.0" x2="336.0" y2="363.0" stroke="#D1CFC9" stroke-width="0.5" opacity="0.25"/>
<line x1="576.0" y1="459.0" x2="624.0" y2="459.0" stroke="#D1CFC9" stroke-width="0.5" opacity="0.25"/>
<line x1="864.0" y1="459.0" x2="912.0" y2="459.0" stroke="#D1CFC9" stroke-width="0.5" opacity="0.25"/>
<line x1="624.0" y1="507.0" x2="672.0" y2="507.0" stroke="#D1CFC9" stroke-width="0.5" opacity="0.25"/>
<line x1="240.0" y1="555.0" x2="288.0" y2="555.0" stroke="#D1CFC9" stroke-width="0.5" opacity="0.25"/>
<line x1="288.0" y1="603.0" x2="336.0" y2="603.0" stroke="#D1CFC9" stroke-width="0.5" opacity="0.25"/>
<line x1="624.0" y1="603.0" x2="672.0" y2="603.0" stroke="#D1CFC9" stroke-width="0.5" opacity="0.25"/>
</svg>