<svg xmlns="http://www.w3.org/2000/svg" width="1200" height="630" viewBox="0 0 1200 630">
<rect width="1200" height="630" fill="#FAFAF9"/>
<path d="M0,65.3 C269.9,101.7 827.5,119.2 1200,47.2" stroke="#D1CFC9" stroke-width="1.27" fill="none" opacity="0.56"/>
<path d="M0,89.6 C256.1,16.1 819.5,90.6 1200,103.9" stroke="#D1CFC9" stroke-width="1.25" fill="none" opacity="0.74"/>
<path d="M0,138.4 C205.4,159.4 945.7,78.6 1200,96.7" stroke="#D1CFC9" stroke-width="1.69" fill="none" opacity="0.52"/>
<path d="M0,192.0 C358.9,140.7 992.0,77.1 1200,151.2" stroke="#D1CFC9" stroke-width="1.20" fill="none" opacity="0.74"/>
<path d="M0,209.8 C263.8,132.2 801.0,144.9 1200,187.0" stroke="#E8E8E6" stroke-width="0.83" fill="none" opacity="0.71"/>
<path d="M0,239.7 C312.2,223.8 926.0,160.1 1200,256.4" stroke="#E8E8E6" stroke-width="1.42" fill="none" opacity="0.72"/>
<path d="M0,288.0 C303.8,291.2 912.4,193.9 1200,303.8" stroke="#D1CFC9" stroke-width="1.63" fill="none" opacity="0.56"/>
<path d="M0,332.2 C201.5,228.2 819.4,302.6 1200,288.4" stroke="#E8E8E6" stroke-width="1.42" fill="none" opacity="0.71"/>
<path d="M0,363.1 C371.4,392.6 976.7,392.1 1200,342.8" stroke="#D1CFC9" stroke-width="1.18" fill="none" opacity="0.53"/>
<path d="M0,363.1 C256.4,404.5 858.0,329.0 1200,371.0" stroke="#D1CFC9" stroke-width="0.95" fill="none" opacity="0.65"/>
<path d="M0,445.4 C394.3,435.9 937.0,496.0 1200,419.0" stroke="#E8E8E6" stroke-width="0.87" fill="none" opacity="0.61"/>
<path d="M0,474.7 C359.7,519.3 899.7,483.1 1200,440.4" stroke="#D1CFC9" stroke-width="1.47" fill="none" opacity="0.67"/>
<path d="M0,522.0 C282.8,483.1 801.7,594.3 1200,476.4" stroke="#D1CFC9" stroke-width="1.13" fill="none" opacity="0.69"/>
<path d="M0,517.8 C283.3,599.2 872.4,583.5 1200,513.1" stroke="#D1CFC9" stroke-width="1.76" fill="none" opacity="0.72"/>
<path d="M0,606.0 C384.4,591.3 802.9,585.3 1200,566.4" stroke="#D1CFC9" stroke-width="0.93" fill="none" opacity="0.65"/>
<line x1="0" y1="610" x2="0" y2="599.7" stroke="#D1CFC9" stroke-width="0.8" opacity="0.5"/>
<line x1="100" y1="610" x2="100" y2="598.7" stroke="#D1CFC9" stroke-width="0.8" opacity="0.5"/>
<line x1="200" y1="610" x2="200" y2="600.8" stroke="#D1CFC9" stroke-width="0.8" opacity="0.5"/>
<line x1="300" y1="610" x2="300" y2="599.2" stroke="#D1CFC9" stroke-width="0.8" opacity="0.5"/>
<line x1="400" y1="610" x2="400" y2="600.0" stroke="#D1CFC9" stroke-width="0.8" opacity="0.5"/>
<line x1="500" y1="610" x2="500" y2="602.2" stroke="#D1CFC9" stroke-width="0.8" opacity="0.5"/>
<line x1="600" y1="610" x2="600" y2="600.6" stroke="#D1CFC9" stroke-width="0.8" opacity="0.5"/>
<line x1="700" y1="610" x2="700" y2="602.0" stroke="#D1CFC9" stroke-width="0.8" opacity="0.5"/>
<line x1="800" y1="610" x2="800" y2="598.8" stroke="#D1CFC9" stroke-width="0.8" opacity="0.5"/>
<line x1="900" y1="610" x2="900" y2="598.5" stroke="#D1CFC9" stroke-width="0.8" opacity="0.5"/>
<line x1="1000" y1="610" x2="1000" y2="602.9" stroke="#D1CFC9" stroke-width="0.8" opacity="0.5"/>
<line x1="1100" y1="610" x2="1100" y2="599.3" stroke="#D1CFC9" stroke-width="0.8" opacity="0.5"/>
<line x1="1200" y1="610" x2="1200" y2="605.4" stroke="#D1CFC9" stroke-width="0.8" opacity="0.5"/>
<line x1="218.6" y1="162.3" x2="626.3" y2="439.3" stroke="#D1CFC9" stroke-width="1" opacity="0.3"/>
</svg>