<svg xmlns="http://www.w3.org/2000/svg" width="1200" height="630" viewBox="0 0 1200 630">
<rect width="1200" height="630" fill="#FAFAF9"/>
<path d="M0,52.3 C335.3,-20.7 936.2,-36.7 1200,22.1" stroke="#D1CFC9" stroke-width="0.85" fill="none" opacity="0.46"/>
<path d="M0,71.7 C230.7,92.5 968.7,68.6 1200,77.8" stroke="#E8E8E6" stroke-width="1.22" fill="none" opacity="0.53"/>
<path d="M0,131.0 C340.3,135.9 935.6,45.7 1200,113.1" stroke="#D1CFC9" stroke-width="1.58" fill="none" opacity="0.57"/>
<path d="M0,175.7 C274.6,224.4 1000.0,90.9 1200,178.0" stroke="#E8E8E6" stroke-width="1.50" fill="none" opacity="0.49"/>
<path d="M0,172.4 C280.4,202.8 994.5,210.6 1200,231.1" stroke="#D1CFC9" stroke-width="1.18" fill="none" opacity="0.69"/>
<path d="M0,237.1 C355.9,221.7 855.7,300.9 1200,263.8" stroke="#D1CFC9" stroke-width="1.72" fill="none" opacity="0.69"/>
<path d="M0,279.1 C383.9,237.0 976.5,334.7 1200,297.9" stroke="#D1CFC9" stroke-width="1.21" fill="none" opacity="0.47"/>
<path d="M0,334.2 C330.4,330.5 930.7,324.4 1200,307.6" stroke="#D1CFC9" stroke-width="1.03" fill="none" opacity="0.71"/>
<path d="M0,345.0 C337.7,313.5 891.8,336.2 1200,379.2" stroke="#D1CFC9" stroke-width="0.93" fill="none" opacity="0.73"/>
<path d="M0,415.6 C303.7,346.5 853.4,325.9 1200,403.6" stroke="#D1CFC9" stroke-width="1.06" fill="none" opacity="0.52"/>
<path d="M0,399.1 C244.2,447.5 992.7,454.8 1200,416.4" stroke="#D1CFC9" stroke-width="1.09" fill="none" opacity="0.57"/>
<path d="M0,471.5 C210.4,439.4 812.7,398.7 1200,493.1" stroke="#E8E8E6" stroke-width="1.60" fill="none" opacity="0.53"/>
<path d="M0,513.6 C325.7,553.4 869.2,479.6 1200,476.4" stroke="#D1CFC9" stroke-width="1.49" fill="none" opacity="0.51"/>
<path d="M0,555.4 C394.1,517.5 839.5,533.2 1200,549.1" stroke="#E8E8E6" stroke-width="0.88" fill="none" opacity="0.59"/>
<path d="M0,585.1 C343.2,599.1 912.0,611.0 1200,557.1" stroke="#E8E8E6" stroke-width="0.96" fill="none" opacity="0.57"/>
<line x1="0" y1="610" x2="0" y2="602.8" stroke="#D1CFC9" stroke-width="0.8" opacity="0.5"/>
<line x1="100" y1="610" x2="100" y2="600.0" stroke="#D1CFC9" stroke-width="0.8" opacity="0.5"/>
<line x1="200" y1="610" x2="200" y2="601.6" stroke="#D1CFC9" stroke-width="0.8" opacity="0.5"/>
<line x1="300" y1="610" x2="300" y2="604.3" stroke="#D1CFC9" stroke-width="0.8" opacity="0.5"/>
<line x1="400" y1="610" x2="400" y2="601.3" stroke="#D1CFC9" stroke-width="0.8" opacity="0.5"/>
<line x1="500" y1="610" x2="500" y2="598.7" stroke="#D1CFC9" stroke-width="0.8" opacity="0.5"/>
<line x1="600" y1="610" x2="600" y2="599.6" stroke="#D1CFC9" stroke-width="0.8" opacity="0.5"/>
<line x1="700" y1="610" x2="700" y2="598.5" stroke="#D1CFC9" stroke-width="0.8" opacity="0.5"/>
<line x1="800" y1="610" x2="800" y2="605.4" stroke="#D1CFC9" stroke-width="0.8" opacity="0.5"/>
<line x1="900" y1="610" x2="900" y2="601.9" stroke="#D1CFC9" stroke-width="0.8" opacity="0.5"/>
<line x1="1000" y1="610" x2="1000" y2="601.3" stroke="#D1CFC9" stroke-width="0.8" opacity="0.5"/>
<line x1="1100" y1="610" x2="1100" y2="603.6" stroke="#D1CFC9" stroke-width="0.8" opacity="0.5"/>
<line x1="1200" y1="610" x2="1200" y2="602.5" stroke="#D1CFC9" stroke-width="0.8" opacity="0.5"/>
<line x1="316.1" y1="128.8" x2="802.4" y2="416.6" stroke="#D1CFC9" stroke-width="1" opacity="0.3"/>
</svg>