<svg xmlns="http://www.w3.org/2000/svg" width="1200" height="630" viewBox="0 0 1200 630">
<rect width="1200" height="630" fill="#FAFAF9"/>
<path d="M0,56.8 C319.0,28.2 821.8,75.0 1200,39.7" stroke="#D1CFC9" stroke-width="1.41" fill="none" opacity="0.71"/>
<path d="M0,113.5 C284.3,125.3 903.6,137.1 1200,100.4" stroke="#D1CFC9" stroke-width="1.71" fill="none" opacity="0.57"/>
<path d="M0,113.2 C352.0,110.8 996.4,74.1 1200,100.4" stroke="#D1CFC9" stroke-width="1.26" fill="none" opacity="0.45"/>
<path d="M0,173.2 C241.8,89.0 980.3,145.1 1200,164.6" stroke="#D1CFC9" stroke-width="0.81" fill="none" opacity="0.43"/>
<path d="M0,225.0 C325.6,236.8 881.5,190.6 1200,202.2" stroke="#D1CFC9" stroke-width="1.54" fill="none" opacity="0.65"/>
<path d="M0,255.7 C295.2,258.3 876.2,172.8 1200,245.5" stroke="#E8E8E6" stroke-width="0.96" fill="none" opacity="0.64"/>
<path d="M0,271.8 C301.3,323.0 907.9,206.7 1200,249.9" stroke="#D1CFC9" stroke-width="1.01" fill="none" opacity="0.40"/>
<path d="M0,319.8 C203.4,391.5 837.5,378.7 1200,289.0" stroke="#D1CFC9" stroke-width="1.45" fill="none" opacity="0.71"/>
<path d="M0,374.0 C217.6,302.6 862.8,380.6 1200,323.3" stroke="#D1CFC9" stroke-width="1.03" fill="none" opacity="0.46"/>
<path d="M0,405.4 C334.9,336.8 971.7,450.2 1200,363.3" stroke="#D1CFC9" stroke-width="1.34" fill="none" opacity="0.56"/>
<path d="M0,449.7 C389.6,423.0 835.9,515.7 1200,457.0" stroke="#E8E8E6" stroke-width="1.74" fill="none" opacity="0.50"/>
<path d="M0,441.8 C348.9,464.3 908.7,501.9 1200,490.6" stroke="#D1CFC9" stroke-width="1.50" fill="none" opacity="0.40"/>
<path d="M0,528.7 C246.0,590.1 928.8,565.8 1200,530.7" stroke="#E8E8E6" stroke-width="1.16" fill="none" opacity="0.48"/>
<path d="M0,563.0 C200.7,619.6 922.1,583.3 1200,551.2" stroke="#E8E8E6" stroke-width="1.56" fill="none" opacity="0.58"/>
<path d="M0,568.4 C269.4,611.6 856.5,662.1 1200,596.7" stroke="#D1CFC9" stroke-width="1.76" fill="none" opacity="0.60"/>
<line x1="0" y1="610" x2="0" y2="603.2" stroke="#D1CFC9" stroke-width="0.8" opacity="0.5"/>
<line x1="100" y1="610" x2="100" y2="604.5" stroke="#D1CFC9" stroke-width="0.8" opacity="0.5"/>
<line x1="200" y1="610" x2="200" y2="600.3" stroke="#D1CFC9" stroke-width="0.8" opacity="0.5"/>
<line x1="300" y1="610" x2="300" y2="601.2" stroke="#D1CFC9" stroke-width="0.8" opacity="0.5"/>
<line x1="400" y1="610" x2="400" y2="604.7" stroke="#D1CFC9" stroke-width="0.8" opacity="0.5"/>
<line x1="500" y1="610" x2="500" y2="605.9" stroke="#D1CFC9" stroke-width="0.8" opacity="0.5"/>
<line x1="600" y1="610" x2="600" y2="601.9" stroke="#D1CFC9" stroke-width="0.8" opacity="0.5"/>
<line x1="700" y1="610" x2="700" y2="598.5" stroke="#D1CFC9" stroke-width="0.8" opacity="0.5"/>
<line x1="800" y1="610" x2="800" y2="598.1" stroke="#D1CFC9" stroke-width="0.8" opacity="0.5"/>
<line x1="900" y1="610" x2="900" y2="602.4" stroke="#D1CFC9" stroke-width="0.8" opacity="0.5"/>
<line x1="1000" y1="610" x2="1000" y2="600.2" stroke="#D1CFC9" stroke-width="0.8" opacity="0.5"/>
<line x1="1100" y1="610" x2="1100" y2="601.7" stroke="#D1CFC9" stroke-width="0.8" opacity="0.5"/>
<line x1="1200" y1="610" x2="1200" y2="605.9" stroke="#D1CFC9" stroke-width="0.8" opacity="0.5"/>
<line x1="288.8" y1="137.2" x2="633.6" y2="432.4" stroke="#D1CFC9" stroke-width="1" opacity="0.3"/>
</svg>