<svg xmlns="http://www.w3.org/2000/svg" width="1200" height="630" viewBox="0 0 1200 630">
<rect width="1200" height="630" fill="#FAFAF9"/>
<path d="M0,45.3 C380.1,106.7 814.9,-14.3 1200,76.2" stroke="#E8E8E6" stroke-width="1.64" fill="none" opacity="0.62"/>
<path d="M0,96.5 C373.3,78.7 966.1,144.5 1200,82.3" stroke="#E8E8E6" stroke-width="1.02" fill="none" opacity="0.47"/>
<path d="M0,128.0 C254.1,90.5 836.8,69.1 1200,137.2" stroke="#D1CFC9" stroke-width="1.28" fill="none" opacity="0.52"/>
<path d="M0,183.7 C229.5,224.6 827.2,186.1 1200,148.4" stroke="#D1CFC9" stroke-width="1.12" fill="none" opacity="0.73"/>
<path d="M0,185.4 C387.7,117.1 883.7,202.7 1200,207.8" stroke="#D1CFC9" stroke-width="1.69" fill="none" opacity="0.52"/>
<path d="M0,228.4 C375.4,202.7 848.8,164.6 1200,247.6" stroke="#E8E8E6" stroke-width="1.51" fill="none" opacity="0.57"/>
<path d="M0,304.6 C299.0,317.3 806.7,260.4 1200,292.7" stroke="#D1CFC9" stroke-width="1.37" fill="none" opacity="0.59"/>
<path d="M0,285.1 C369.3,280.0 895.1,278.5 1200,306.4" stroke="#D1CFC9" stroke-width="1.72" fill="none" opacity="0.65"/>
<path d="M0,335.5 C241.0,437.3 948.1,385.2 1200,353.3" stroke="#D1CFC9" stroke-width="1.78" fill="none" opacity="0.55"/>
<path d="M0,417.2 C380.6,315.3 884.1,437.0 1200,399.2" stroke="#E8E8E6" stroke-width="0.82" fill="none" opacity="0.56"/>
<path d="M0,414.7 C374.8,503.1 873.7,415.8 1200,414.2" stroke="#D1CFC9" stroke-width="1.13" fill="none" opacity="0.73"/>
<path d="M0,453.2 C280.9,556.3 936.6,546.3 1200,443.9" stroke="#E8E8E6" stroke-width="1.36" fill="none" opacity="0.51"/>
<path d="M0,520.7 C326.5,566.0 808.1,557.6 1200,488.6" stroke="#D1CFC9" stroke-width="1.72" fill="none" opacity="0.50"/>
<path d="M0,563.4 C338.9,523.3 997.4,529.4 1200,525.8" stroke="#D1CFC9" stroke-width="1.79" fill="none" opacity="0.52"/>
<path d="M0,571.7 C308.5,662.4 931.9,531.2 1200,576.1" stroke="#D1CFC9" stroke-width="1.06" fill="none" opacity="0.61"/>
<line x1="0" y1="610" x2="0" y2="600.0" stroke="#D1CFC9" stroke-width="0.8" opacity="0.5"/>
<line x1="100" y1="610" x2="100" y2="605.8" stroke="#D1CFC9" stroke-width="0.8" opacity="0.5"/>
<line x1="200" y1="610" x2="200" y2="598.6" stroke="#D1CFC9" stroke-width="0.8" opacity="0.5"/>
<line x1="300" y1="610" x2="300" y2="598.2" stroke="#D1CFC9" stroke-width="0.8" opacity="0.5"/>
<line x1="400" y1="610" x2="400" y2="600.0" stroke="#D1CFC9" stroke-width="0.8" opacity="0.5"/>
<line x1="500" y1="610" x2="500" y2="605.1" stroke="#D1CFC9" stroke-width="0.8" opacity="0.5"/>
<line x1="600" y1="610" x2="600" y2="605.6" stroke="#D1CFC9" stroke-width="0.8" opacity="0.5"/>
<line x1="700" y1="610" x2="700" y2="604.7" stroke="#D1CFC9" stroke-width="0.8" opacity="0.5"/>
<line x1="800" y1="610" x2="800" y2="605.4" stroke="#D1CFC9" stroke-width="0.8" opacity="0.5"/>
<line x1="900" y1="610" x2="900" y2="605.5" stroke="#D1CFC9" stroke-width="0.8" opacity="0.5"/>
<line x1="1000" y1="610" x2="1000" y2="604.4" stroke="#D1CFC9" stroke-width="0.8" opacity="0.5"/>
<line x1="1100" y1="610" x2="1100" y2="601.9" stroke="#D1CFC9" stroke-width="0.8" opacity="0.5"/>
<line x1="1200" y1="610" x2="1200" y2="602.6" stroke="#D1CFC9" stroke-width="0.8" opacity="0.5"/>
<line x1="266.4" y1="144.2" x2="621.0" y2="378.2" stroke="#D1CFC9" stroke-width="1" opacity="0.3"/>
</svg>