<svg xmlns="http://www.w3.org/2000/svg" width="1200" height="630" viewBox="0 0 1200 630">
<rect width="1200" height="630" fill="#FAFAF9"/>
<path d="M0,37.7 C317.6,-12.3 874.5,69.9 1200,37.9" stroke="#D1CFC9" stroke-width="1.18" fill="none" opacity="0.48"/>
<path d="M0,98.6 C263.6,84.9 948.2,81.7 1200,107.3" stroke="#D1CFC9" stroke-width="1.34" fill="none" opacity="0.75"/>
<path d="M0,153.0 C272.4,159.1 912.9,149.5 1200,111.7" stroke="#D1CFC9" stroke-width="0.93" fill="none" opacity="0.62"/>
<path d="M0,191.3 C305.2,244.1 994.3,109.3 1200,134.3" stroke="#E8E8E6" stroke-width="1.55" fill="none" opacity="0.70"/>
<path d="M0,191.6 C291.9,183.2 860.8,175.7 1200,184.8" stroke="#D1CFC9" stroke-width="0.96" fill="none" opacity="0.62"/>
<path d="M0,225.2 C288.4,167.2 956.8,231.5 1200,236.6" stroke="#D1CFC9" stroke-width="1.54" fill="none" opacity="0.68"/>
<path d="M0,261.9 C374.5,324.0 879.4,237.0 1200,264.2" stroke="#D1CFC9" stroke-width="0.95" fill="none" opacity="0.54"/>
<path d="M0,316.4 C335.6,402.0 878.6,228.3 1200,305.6" stroke="#D1CFC9" stroke-width="1.71" fill="none" opacity="0.46"/>
<path d="M0,377.3 C255.6,279.3 816.9,428.7 1200,349.7" stroke="#E8E8E6" stroke-width="0.85" fill="none" opacity="0.49"/>
<path d="M0,364.9 C356.1,426.4 876.6,461.7 1200,387.9" stroke="#E8E8E6" stroke-width="1.27" fill="none" opacity="0.44"/>
<path d="M0,437.8 C356.5,421.1 961.7,466.7 1200,458.0" stroke="#D1CFC9" stroke-width="1.46" fill="none" opacity="0.55"/>
<path d="M0,455.4 C399.8,439.5 801.8,550.5 1200,482.3" stroke="#E8E8E6" stroke-width="0.88" fill="none" opacity="0.72"/>
<path d="M0,513.1 C383.1,579.1 993.9,576.6 1200,498.6" stroke="#D1CFC9" stroke-width="0.83" fill="none" opacity="0.49"/>
<path d="M0,536.4 C207.7,567.4 938.0,614.2 1200,546.5" stroke="#E8E8E6" stroke-width="0.94" fill="none" opacity="0.69"/>
<path d="M0,591.9 C215.0,600.5 899.0,490.2 1200,576.3" stroke="#E8E8E6" stroke-width="1.64" fill="none" opacity="0.41"/>
<line x1="0" y1="610" x2="0" y2="599.8" stroke="#D1CFC9" stroke-width="0.8" opacity="0.5"/>
<line x1="100" y1="610" x2="100" y2="604.9" stroke="#D1CFC9" stroke-width="0.8" opacity="0.5"/>
<line x1="200" y1="610" x2="200" y2="602.4" stroke="#D1CFC9" stroke-width="0.8" opacity="0.5"/>
<line x1="300" y1="610" x2="300" y2="598.3" stroke="#D1CFC9" stroke-width="0.8" opacity="0.5"/>
<line x1="400" y1="610" x2="400" y2="603.3" stroke="#D1CFC9" stroke-width="0.8" opacity="0.5"/>
<line x1="500" y1="610" x2="500" y2="604.5" stroke="#D1CFC9" stroke-width="0.8" opacity="0.5"/>
<line x1="600" y1="610" x2="600" y2="602.0" stroke="#D1CFC9" stroke-width="0.8" opacity="0.5"/>
<line x1="700" y1="610" x2="700" y2="599.6" stroke="#D1CFC9" stroke-width="0.8" opacity="0.5"/>
<line x1="800" y1="610" x2="800" y2="601.2" stroke="#D1CFC9" stroke-width="0.8" opacity="0.5"/>
<line x1="900" y1="610" x2="900" y2="599.1" stroke="#D1CFC9" stroke-width="0.8" opacity="0.5"/>
<line x1="1000" y1="610" x2="1000" y2="604.9" stroke="#D1CFC9" stroke-width="0.8" opacity="0.5"/>
<line x1="1100" y1="610" x2="1100" y2="598.2" stroke="#D1CFC9" stroke-width="0.8" opacity="0.5"/>
<line x1="1200" y1="610" x2="1200" y2="601.3" stroke="#D1CFC9" stroke-width="0.8" opacity="0.5"/>
<line x1="327.5" y1="167.5" x2="715.3" y2="432.6" stroke="#D1CFC9" stroke-width="1" opacity="0.3"/>
</svg>