<svg xmlns="http://www.w3.org/2000/svg" width="1200" height="630" viewBox="0 0 1200 630">
<rect width="1200" height="630" fill="#FAFAF9"/>
<line x1="0" y1="80" x2="1200" y2="80" stroke="#E8E8E6" stroke-width="0.8" opacity="0.6"/>
<line x1="0" y1="160" x2="1200" y2="160" stroke="#E8E8E6" stroke-width="0.8" opacity="0.6"/>
<line x1="0" y1="240" x2="1200" y2="240" stroke="#E8E8E6" stroke-width="0.8" opacity="0.6"/>
<line x1="0" y1="320" x2="1200" y2="320" stroke="#E8E8E6" stroke-width="0.8" opacity="0.6"/>
<line x1="0" y1="400" x2="1200" y2="400" stroke="#E8E8E6" stroke-width="0.8" opacity="0.6"/>
<line x1="0" y1="480" x2="1200" y2="480" stroke="#E8E8E6" stroke-width="0.8" opacity="0.6"/>
<line x1="0" y1="560" x2="1200" y2="560" stroke="#E8E8E6" stroke-width="0.8" opacity="0.6"/>
<path d="M150,74.58087305505315 C210,66.5719267331464 240,58.5737388929291 300,91.0771710942679" stroke="#D1CFC9" stroke-width="0.8" fill="none" opacity="0.26"/>
<path d="M150,74.58087305505315 C210,69.8570731454196 240,237.32762286831337 300,221.5004391691183" stroke="#D1CFC9" stroke-width="0.8" fill="none" opacity="0.25"/>
<path d="M150,74.58087305505315 C210,88.89156339990244 240,432.24845800281 300,471.5378081397591" stroke="#D1CFC9" stroke-width="0.8" fill="none" opacity="0.33"/>
<path d="M150,166.49381696444325 C210,185.11783771848255 240,412.9077836966393 300,405.89944848648724" stroke="#D1CFC9" stroke-width="0.8" fill="none" opacity="0.27"/>
<path d="M150,166.49381696444325 C210,161.85898453087054 240,495.95304752984157 300,471.5378081397591" stroke="#D1CFC9" stroke-width="0.8" fill="none" opacity="0.44"/>
<path d="M150,266.7829607321841 C210,275.02212610166106 240,165.50999738479965 300,169.9066261698391" stroke="#D1CFC9" stroke-width="0.8" fill="none" opacity="0.25"/>
<path d="M150,266.7829607321841 C210,292.89998893181325 240,206.7242409256809 300,221.5004391691183" stroke="#D1CFC9" stroke-width="0.8" fill="none" opacity="0.42"/>
<path d="M150,266.7829607321841 C210,238.56017812307928 240,483.19626147845906 300,471.5378081397591" stroke="#D1CFC9" stroke-width="0.8" fill="none" opacity="0.26"/>
<path d="M150,346.1510856710726 C210,327.06249325840326 240,189.49826129543322 300,169.9066261698391" stroke="#D1CFC9" stroke-width="0.8" fill="none" opacity="0.31"/>
<path d="M150,346.1510856710726 C210,343.10447385280963 240,302.75229095539595 300,325.41796869252994" stroke="#D1CFC9" stroke-width="0.8" fill="none" opacity="0.43"/>
<path d="M150,346.1510856710726 C210,338.12227783354984 240,433.40674321665585 300,405.89944848648724" stroke="#D1CFC9" stroke-width="0.8" fill="none" opacity="0.45"/>
<path d="M150,346.1510856710726 C210,322.8228241691419 240,495.94028358631545 300,471.5378081397591" stroke="#D1CFC9" stroke-width="0.8" fill="none" opacity="0.32"/>
<path d="M150,346.1510856710726 C210,342.75117588898894 240,545.5773184239113 300,561.536087888767" stroke="#D1CFC9" stroke-width="0.8" fill="none" opacity="0.37"/>
<path d="M150,453.9613744565196 C210,430.189666951585 240,198.94493648280505 300,221.5004391691183" stroke="#D1CFC9" stroke-width="0.8" fill="none" opacity="0.30"/>
<path d="M150,453.9613744565196 C210,475.3171893859555 240,352.1250472617976 300,325.41796869252994" stroke="#D1CFC9" stroke-width="0.8" fill="none" opacity="0.30"/>
<path d="M150,453.9613744565196 C210,429.05812853785653 240,585.0029123456923 300,561.536087888767" stroke="#D1CFC9" stroke-width="0.8" fill="none" opacity="0.39"/>
<path d="M150,550.4572978672705 C210,537.0321780748275 240,62.42979353140801 300,91.0771710942679" stroke="#D1CFC9" stroke-width="0.8" fill="none" opacity="0.31"/>
<path d="M150,550.4572978672705 C210,590.3864784222997 240,188.02444710193072 300,169.9066261698391" stroke="#D1CFC9" stroke-width="0.8" fill="none" opacity="0.31"/>
<path d="M150,550.4572978672705 C210,512.3464915962766 240,354.4944481398548 300,325.41796869252994" stroke="#D1CFC9" stroke-width="0.8" fill="none" opacity="0.31"/>
<path d="M150,550.4572978672705 C210,524.9780221187924 240,478.95238296017106 300,471.5378081397591" stroke="#D1CFC9" stroke-width="0.8" fill="none" opacity="0.36"/>
<path d="M150,550.4572978672705 C210,563.931770547743 240,537.0392649018995 300,561.536087888767" stroke="#D1CFC9" stroke-width="0.8" fill="none" opacity="0.26"/>
<path d="M300,91.0771710942679 C420,78.5916055388729 480,81.10117743515903 600,118.23249674128195" stroke="#D1CFC9" stroke-width="0.8" fill="none" opacity="0.37"/>
<path d="M300,91.0771710942679 C420,108.1988259682429 480,322.97385420812617 600,321.53145075904473" stroke="#D1CFC9" stroke-width="0.8" fill="none" opacity="0.29"/>
<path d="M300,91.0771710942679 C420,67.73017408296703 480,473.3044301179015 600,434.625681771344" stroke="#D1CFC9" stroke-width="0.8" fill="none" opacity="0.36"/>
<path d="M300,169.9066261698391 C420,200.53129815584543 480,149.22807105333268 600,118.23249674128195" stroke="#D1CFC9" stroke-width="0.8" fill="none" opacity="0.27"/>
<path d="M300,169.9066261698391 C420,130.3898044241685 480,435.79472000962 600,434.625681771344" stroke="#D1CFC9" stroke-width="0.8" fill="none" opacity="0.33"/>
<path d="M300,169.9066261698391 C420,154.04183771398195 480,466.4263713277006 600,504.5547727780777" stroke="#D1CFC9" stroke-width="0.8" fill="none" opacity="0.40"/>
<path d="M300,221.5004391691183 C420,261.1225355138589 480,107.00530621619089 600,118.23249674128195" stroke="#D1CFC9" stroke-width="0.8" fill="none" opacity="0.35"/>
<path d="M300,221.5004391691183 C420,206.64451669579012 480,163.03023632523374 600,198.50945971708498" stroke="#D1CFC9" stroke-width="0.8" fill="none" opacity="0.26"/>
<path d="M300,221.5004391691183 C420,212.16972250297428 480,329.2462892674949 600,321.53145075904473" stroke="#D1CFC9" stroke-width="0.8" fill="none" opacity="0.25"/>
<path d="M300,221.5004391691183 C420,223.492919821989 480,497.28265596443845 600,504.5547727780777" stroke="#D1CFC9" stroke-width="0.8" fill="none" opacity="0.45"/>
<path d="M300,325.41796869252994 C420,361.6073516806023 480,313.1055822961744 600,321.53145075904473" stroke="#D1CFC9" stroke-width="0.8" fill="none" opacity="0.33"/>
<path d="M300,325.41796869252994 C420,332.3427785914607 480,412.68995155293726 600,434.625681771344" stroke="#D1CFC9" stroke-width="0.8" fill="none" opacity="0.37"/>
<path d="M300,325.41796869252994 C420,354.9915491823902 480,487.47813189064107 600,504.5547727780777" stroke="#D1CFC9" stroke-width="0.8" fill="none" opacity="0.36"/>
<path d="M300,405.89944848648724 C420,412.8134063167529 480,112.75717584014805 600,118.23249674128195" stroke="#D1CFC9" stroke-width="0.8" fill="none" opacity="0.28"/>
<path d="M300,405.89944848648724 C420,409.3097497050906 480,189.0139695121939 600,198.50945971708498" stroke="#D1CFC9" stroke-width="0.8" fill="none" opacity="0.30"/>
<path d="M300,405.89944848648724 C420,382.89474116891967 480,349.96252783433596 600,321.53145075904473" stroke="#D1CFC9" stroke-width="0.8" fill="none" opacity="0.39"/>
<path d="M300,405.89944848648724 C420,397.4510713725935 480,468.5124787610286 600,504.5547727780777" stroke="#D1CFC9" stroke-width="0.8" fill="none" opacity="0.35"/>
<path d="M300,471.5378081397591 C420,436.3258036395013 480,541.6475634369178 600,504.5547727780777" stroke="#D1CFC9" stroke-width="0.8" fill="none" opacity="0.29"/>
<path d="M300,561.536087888767 C420,529.8043200872615 480,452.7081143641165 600,434.625681771344" stroke="#D1CFC9" stroke-width="0.8" fill="none" opacity="0.45"/>
<path d="M600,198.50945971708498 C720,224.56372199057688 780,259.3476880056196 900,269.5770655776321" stroke="#D1CFC9" stroke-width="0.8" fill="none" opacity="0.36"/>
<path d="M600,321.53145075904473 C720,290.769582887825 780,323.96702474801964 900,363.2035091971987" stroke="#D1CFC9" stroke-width="0.8" fill="none" opacity="0.32"/>
<path d="M600,434.625681771344 C720,449.5917288736887 780,381.6206751234878 900,363.2035091971987" stroke="#D1CFC9" stroke-width="0.8" fill="none" opacity="0.38"/>
<path d="M600,434.625681771344 C720,450.7893752087349 780,501.89615258180913 900,491.21360804802123" stroke="#D1CFC9" stroke-width="0.8" fill="none" opacity="0.40"/>
<path d="M600,504.5547727780777 C720,502.6144703665316 780,147.1138276602872 900,130.11471866940025" stroke="#D1CFC9" stroke-width="0.8" fill="none" opacity="0.40"/>
<path d="M600,504.5547727780777 C720,480.81355722127796 780,281.63152023675656 900,269.5770655776321" stroke="#D1CFC9" stroke-width="0.8" fill="none" opacity="0.35"/>
<path d="M600,504.5547727780777 C720,500.26157716248684 780,330.64306744417246 900,363.2035091971987" stroke="#D1CFC9" stroke-width="0.8" fill="none" opacity="0.42"/>
<path d="M900,130.11471866940025 C960,114.20978557258141 990,159.9990494539959 1050,139.88593209904758" stroke="#D1CFC9" stroke-width="0.8" fill="none" opacity="0.36"/>
<path d="M900,130.11471866940025 C960,140.04051300306816 990,385.8884884272443 1050,394.209150873639" stroke="#D1CFC9" stroke-width="0.8" fill="none" opacity="0.32"/>
<path d="M900,269.5770655776321 C960,249.4824876141461 990,151.37898403857346 1050,139.88593209904758" stroke="#D1CFC9" stroke-width="0.8" fill="none" opacity="0.38"/>
<path d="M900,269.5770655776321 C960,231.6619204938556 990,270.78457917682465 1050,238.77052236198693" stroke="#D1CFC9" stroke-width="0.8" fill="none" opacity="0.29"/>
<path d="M900,269.5770655776321 C960,305.8033726000701 990,406.7615706191309 1050,394.209150873639" stroke="#D1CFC9" stroke-width="0.8" fill="none" opacity="0.34"/>
<path d="M900,269.5770655776321 C960,290.1709468262668 990,521.07516552803 1050,512.027827243234" stroke="#D1CFC9" stroke-width="0.8" fill="none" opacity="0.40"/>
<path d="M900,363.2035091971987 C960,338.9272234333044 990,154.20413005869003 1050,139.88593209904758" stroke="#D1CFC9" stroke-width="0.8" fill="none" opacity="0.29"/>
<path d="M900,363.2035091971987 C960,329.81955514313177 990,504.7888553059634 1050,512.027827243234" stroke="#D1CFC9" stroke-width="0.8" fill="none" opacity="0.37"/>
<path d="M900,491.21360804802123 C960,522.5985103817187 990,252.18529266467908 1050,238.77052236198693" stroke="#D1CFC9" stroke-width="0.8" fill="none" opacity="0.45"/>
<path d="M900,491.21360804802123 C960,476.79820484062617 990,414.0608840356723 1050,394.209150873639" stroke="#D1CFC9" stroke-width="0.8" fill="none" opacity="0.26"/>
<circle cx="150.0" cy="74.6" r="5.7" fill="#D1CFC9" opacity="0.8"/>
<circle cx="150.0" cy="166.5" r="6.9" fill="#D1CFC9" opacity="0.8"/>
<circle cx="150.0" cy="266.8" r="4.4" fill="#D1CFC9" opacity="0.8"/>
<circle cx="150.0" cy="346.2" r="4.5" fill="#D1CFC9" opacity="0.8"/>
<circle cx="150.0" cy="454.0" r="4.1" fill="#D1CFC9" opacity="0.8"/>
<circle cx="150.0" cy="550.5" r="6.4" fill="#D1CFC9" opacity="0.8"/>
<circle cx="300.0" cy="91.1" r="6.7" fill="#D1CFC9" opacity="0.8"/>
<circle cx="300.0" cy="169.9" r="5.4" fill="#D1CFC9" opacity="0.8"/>
<circle cx="300.0" cy="221.5" r="5.5" fill="#D1CFC9" opacity="0.8"/>
<circle cx="300.0" cy="325.4" r="6.1" fill="#D1CFC9" opacity="0.8"/>
<circle cx="300.0" cy="405.9" r="6.0" fill="#D1CFC9" opacity="0.8"/>
<circle cx="300.0" cy="471.5" r="5.6" fill="#D1CFC9" opacity="0.8"/>
<circle cx="300.0" cy="561.5" r="6.5" fill="#D1CFC9" opacity="0.8"/>
<circle cx="600.0" cy="118.2" r="4.2" fill="#D1CFC9" opacity="0.8"/>
<circle cx="600.0" cy="198.5" r="6.5" fill="#D1CFC9" opacity="0.8"/>
<circle cx="600.0" cy="321.5" r="4.7" fill="#D1CFC9" opacity="0.8"/>
<circle cx="600.0" cy="434.6" r="4.4" fill="#D1CFC9" opacity="0.8"/>
<circle cx="600.0" cy="504.6" r="6.2" fill="#D1CFC9" opacity="0.8"/>
<circle cx="900.0" cy="130.1" r="5.9" fill="#D1CFC9" opacity="0.8"/>
<circle cx="900.0" cy="269.6" r="7.0" fill="#D1CFC9" opacity="0.8"/>
<circle cx="900.0" cy="363.2" r="5.6" fill="#D1CFC9" opacity="0.8"/>
<circle cx="900.0" cy="491.2" r="6.0" fill="#D1CFC9" opacity="0.8"/>
<circle cx="1050.0" cy="139.9" r="5.7" fill="#D1CFC9" opacity="0.8"/>
<circle cx="1050.0" cy="238.8" r="4.5" fill="#D1CFC9" opacity="0.8"/>
<circle cx="1050.0" cy="394.2" r="6.5" fill="#D1CFC9" opacity="0.8"/>
<circle cx="1050.0" cy="512.0" r="4.3" fill="#D1CFC9" opacity="0.8"/>
<circle cx="902.1" cy="107.6" r="17.3" fill="none" stroke="#1A1A1A" stroke-width="1" opacity="0.15"/>
<circle cx="586.2" cy="388.5" r="13.2" fill="none" stroke="#1A1A1A" stroke-width="1" opacity="0.15"/>
<circle cx="156.4" cy="212.2" r="11.0" fill="none" stroke="#1A1A1A" stroke-width="1" opacity="0.15"/>
<circle cx="912.9" cy="304.4" r="12.7" fill="none" stroke="#1A1A1A" stroke-width="1" opacity="0.15"/>
</svg>