<svg xmlns="http://www.w3.org/2000/svg" width="1200" height="630" viewBox="0 0 1200 630">
<rect width="1200" height="630" fill="#FAFAF9"/>
<path d="M0,75.4 C336.6,-34.0 877.4,40.8 1200,76.5" stroke="#D1CFC9" stroke-width="1.29" fill="none" opacity="0.42"/>
<path d="M0,87.4 C337.3,100.5 948.9,95.1 1200,81.1" stroke="#D1CFC9" stroke-width="1.49" fill="none" opacity="0.58"/>
<path d="M0,128.8 C257.1,194.9 885.4,55.3 1200,110.2" stroke="#D1CFC9" stroke-width="1.60" fill="none" opacity="0.55"/>
<path d="M0,152.3 C236.4,228.1 921.3,180.8 1200,158.0" stroke="#D1CFC9" stroke-width="1.59" fill="none" opacity="0.53"/>
<path d="M0,173.5 C219.0,279.3 831.8,184.6 1200,189.0" stroke="#D1CFC9" stroke-width="1.63" fill="none" opacity="0.56"/>
<path d="M0,260.7 C382.8,315.4 899.5,157.6 1200,262.4" stroke="#E8E8E6" stroke-width="1.55" fill="none" opacity="0.69"/>
<path d="M0,250.3 C264.4,331.9 973.6,230.3 1200,276.7" stroke="#D1CFC9" stroke-width="1.65" fill="none" opacity="0.50"/>
<path d="M0,338.5 C387.2,405.0 992.9,324.1 1200,335.2" stroke="#D1CFC9" stroke-width="1.23" fill="none" opacity="0.50"/>
<path d="M0,367.4 C214.7,406.4 940.5,377.8 1200,341.0" stroke="#D1CFC9" stroke-width="1.75" fill="none" opacity="0.51"/>
<path d="M0,381.0 C232.2,459.1 809.5,304.9 1200,389.1" stroke="#E8E8E6" stroke-width="1.43" fill="none" opacity="0.41"/>
<path d="M0,412.8 C309.2,485.9 992.7,475.4 1200,408.7" stroke="#D1CFC9" stroke-width="1.30" fill="none" opacity="0.41"/>
<path d="M0,486.7 C393.5,534.7 958.4,485.7 1200,479.2" stroke="#D1CFC9" stroke-width="1.40" fill="none" opacity="0.61"/>
<path d="M0,489.1 C289.4,593.8 941.0,435.7 1200,515.5" stroke="#D1CFC9" stroke-width="1.17" fill="none" opacity="0.52"/>
<path d="M0,535.4 C239.4,550.9 982.1,488.0 1200,520.0" stroke="#D1CFC9" stroke-width="1.24" fill="none" opacity="0.49"/>
<path d="M0,598.5 C306.7,641.1 825.3,598.8 1200,563.8" stroke="#D1CFC9" stroke-width="1.39" fill="none" opacity="0.58"/>
<line x1="0" y1="610" x2="0" y2="599.1" stroke="#D1CFC9" stroke-width="0.8" opacity="0.5"/>
<line x1="100" y1="610" x2="100" y2="601.6" stroke="#D1CFC9" stroke-width="0.8" opacity="0.5"/>
<line x1="200" y1="610" x2="200" y2="602.7" stroke="#D1CFC9" stroke-width="0.8" opacity="0.5"/>
<line x1="300" y1="610" x2="300" y2="599.4" stroke="#D1CFC9" stroke-width="0.8" opacity="0.5"/>
<line x1="400" y1="610" x2="400" y2="604.9" stroke="#D1CFC9" stroke-width="0.8" opacity="0.5"/>
<line x1="500" y1="610" x2="500" y2="601.1" stroke="#D1CFC9" stroke-width="0.8" opacity="0.5"/>
<line x1="600" y1="610" x2="600" y2="604.2" stroke="#D1CFC9" stroke-width="0.8" opacity="0.5"/>
<line x1="700" y1="610" x2="700" y2="603.9" stroke="#D1CFC9" stroke-width="0.8" opacity="0.5"/>
<line x1="800" y1="610" x2="800" y2="605.6" stroke="#D1CFC9" stroke-width="0.8" opacity="0.5"/>
<line x1="900" y1="610" x2="900" y2="602.3" stroke="#D1CFC9" stroke-width="0.8" opacity="0.5"/>
<line x1="1000" y1="610" x2="1000" y2="605.0" stroke="#D1CFC9" stroke-width="0.8" opacity="0.5"/>
<line x1="1100" y1="610" x2="1100" y2="604.3" stroke="#D1CFC9" stroke-width="0.8" opacity="0.5"/>
<line x1="1200" y1="610" x2="1200" y2="604.8" stroke="#D1CFC9" stroke-width="0.8" opacity="0.5"/>
<line x1="315.2" y1="121.7" x2="626.2" y2="408.1" stroke="#D1CFC9" stroke-width="1" opacity="0.3"/>
</svg>