<svg xmlns="http://www.w3.org/2000/svg" width="1200" height="630" viewBox="0 0 1200 630">
<rect width="1200" height="630" fill="#FAFAF9"/>
<line x1="0" y1="80" x2="1200" y2="80" stroke="#E8E8E6" stroke-width="0.8" opacity="0.6"/>
<line x1="0" y1="160" x2="1200" y2="160" stroke="#E8E8E6" stroke-width="0.8" opacity="0.6"/>
<line x1="0" y1="240" x2="1200" y2="240" stroke="#E8E8E6" stroke-width="0.8" opacity="0.6"/>
<line x1="0" y1="320" x2="1200" y2="320" stroke="#E8E8E6" stroke-width="0.8" opacity="0.6"/>
<line x1="0" y1="400" x2="1200" y2="400" stroke="#E8E8E6" stroke-width="0.8" opacity="0.6"/>
<line x1="0" y1="480" x2="1200" y2="480" stroke="#E8E8E6" stroke-width="0.8" opacity="0.6"/>
<line x1="0" y1="560" x2="1200" y2="560" stroke="#E8E8E6" stroke-width="0.8" opacity="0.6"/>
<path d="M150,83.35198473077081 C210,62.9608846863175 240,186.36185013860506 300,223.2855054280454" stroke="#D1CFC9" stroke-width="0.8" fill="none" opacity="0.33"/>
<path d="M150,83.35198473077081 C210,74.90901817262848 240,331.93254975134795 300,321.9695337698724" stroke="#D1CFC9" stroke-width="0.8" fill="none" opacity="0.42"/>
<path d="M150,83.35198473077081 C210,114.73509754676724 240,502.13452726885083 300,507.41670768182183" stroke="#D1CFC9" stroke-width="0.8" fill="none" opacity="0.39"/>
<path d="M150,185.72962900617384 C210,146.48715119820253 240,119.58047027177655 300,106.06863943023343" stroke="#D1CFC9" stroke-width="0.8" fill="none" opacity="0.35"/>
<path d="M150,185.72962900617384 C210,168.6677293904749 240,203.70423227192467 300,223.2855054280454" stroke="#D1CFC9" stroke-width="0.8" fill="none" opacity="0.40"/>
<path d="M150,185.72962900617384 C210,204.13528399032896 240,479.1420110662333 300,507.41670768182183" stroke="#D1CFC9" stroke-width="0.8" fill="none" opacity="0.35"/>
<path d="M150,267.5706284156932 C210,301.6969870798515 240,142.08080760205183 300,106.06863943023343" stroke="#D1CFC9" stroke-width="0.8" fill="none" opacity="0.28"/>
<path d="M150,267.5706284156932 C210,248.3536946671907 240,215.5151626087062 300,223.2855054280454" stroke="#D1CFC9" stroke-width="0.8" fill="none" opacity="0.37"/>
<path d="M150,267.5706284156932 C210,227.61936214184837 240,389.27054299792985 300,411.8795955960824" stroke="#D1CFC9" stroke-width="0.8" fill="none" opacity="0.26"/>
<path d="M150,267.5706284156932 C210,247.6646638372132 240,470.60436361949064 300,507.41670768182183" stroke="#D1CFC9" stroke-width="0.8" fill="none" opacity="0.33"/>
<path d="M150,377.18231512866504 C210,354.1233472070013 240,352.2685986944168 300,321.9695337698724" stroke="#D1CFC9" stroke-width="0.8" fill="none" opacity="0.27"/>
<path d="M150,377.18231512866504 C210,406.1503775827937 240,414.8947631888778 300,411.8795955960824" stroke="#D1CFC9" stroke-width="0.8" fill="none" opacity="0.25"/>
<path d="M150,377.18231512866504 C210,415.6789683982914 240,528.0553487590643 300,507.41670768182183" stroke="#D1CFC9" stroke-width="0.8" fill="none" opacity="0.43"/>
<path d="M150,464.72831115516095 C210,436.8991929732494 240,102.00761407613932 300,106.06863943023343" stroke="#D1CFC9" stroke-width="0.8" fill="none" opacity="0.40"/>
<path d="M150,464.72831115516095 C210,458.5155413789944 240,211.54617523600956 300,223.2855054280454" stroke="#D1CFC9" stroke-width="0.8" fill="none" opacity="0.38"/>
<path d="M150,464.72831115516095 C210,463.57856055153036 240,312.21640684646934 300,321.9695337698724" stroke="#D1CFC9" stroke-width="0.8" fill="none" opacity="0.39"/>
<path d="M150,464.72831115516095 C210,473.6221593398652 240,383.3957293877368 300,411.8795955960824" stroke="#D1CFC9" stroke-width="0.8" fill="none" opacity="0.33"/>
<path d="M150,546.924092654354 C210,535.9968016701744 240,213.13423441586417 300,223.2855054280454" stroke="#D1CFC9" stroke-width="0.8" fill="none" opacity="0.39"/>
<path d="M150,546.924092654354 C210,564.3378897482385 240,361.4404188677297 300,321.9695337698724" stroke="#D1CFC9" stroke-width="0.8" fill="none" opacity="0.28"/>
<path d="M300,106.06863943023343 C420,118.95307014159698 480,102.11601637520735 600,106.22124162815075" stroke="#D1CFC9" stroke-width="0.8" fill="none" opacity="0.27"/>
<path d="M300,106.06863943023343 C420,93.39471088521991 480,300.5239094294896 600,272.5604504993559" stroke="#D1CFC9" stroke-width="0.8" fill="none" opacity="0.29"/>
<path d="M300,106.06863943023343 C420,76.09783792265176 480,389.2924504793464 600,398.7903068768769" stroke="#D1CFC9" stroke-width="0.8" fill="none" opacity="0.45"/>
<path d="M300,223.2855054280454 C420,250.74603025609304 480,301.5091498072048 600,272.5604504993559" stroke="#D1CFC9" stroke-width="0.8" fill="none" opacity="0.38"/>
<path d="M300,321.9695337698724 C420,308.50332313135806 480,247.1725320751715 600,272.5604504993559" stroke="#D1CFC9" stroke-width="0.8" fill="none" opacity="0.33"/>
<path d="M300,321.9695337698724 C420,291.50008142448496 480,372.50684513051687 600,398.7903068768769" stroke="#D1CFC9" stroke-width="0.8" fill="none" opacity="0.30"/>
<path d="M300,321.9695337698724 C420,335.3413862882511 480,442.03060236611185 600,480.35269458590835" stroke="#D1CFC9" stroke-width="0.8" fill="none" opacity="0.40"/>
<path d="M300,411.8795955960824 C420,411.6852378227481 480,298.05780223180955 600,272.5604504993559" stroke="#D1CFC9" stroke-width="0.8" fill="none" opacity="0.45"/>
<path d="M300,411.8795955960824 C420,431.8567213590389 480,362.91308555801237 600,398.7903068768769" stroke="#D1CFC9" stroke-width="0.8" fill="none" opacity="0.27"/>
<path d="M300,411.8795955960824 C420,403.5338718552454 480,513.4161480201911 600,480.35269458590835" stroke="#D1CFC9" stroke-width="0.8" fill="none" opacity="0.36"/>
<path d="M300,507.41670768182183 C420,540.457479555732 480,115.88179264755031 600,106.22124162815075" stroke="#D1CFC9" stroke-width="0.8" fill="none" opacity="0.37"/>
<path d="M300,507.41670768182183 C420,544.7806578443341 480,366.7900178036629 600,398.7903068768769" stroke="#D1CFC9" stroke-width="0.8" fill="none" opacity="0.39"/>
<path d="M300,507.41670768182183 C420,477.0991361297432 480,463.4466563293353 600,480.35269458590835" stroke="#D1CFC9" stroke-width="0.8" fill="none" opacity="0.29"/>
<path d="M600,106.22124162815075 C720,107.93322440589155 780,63.61135328831415 900,86.60896202796347" stroke="#D1CFC9" stroke-width="0.8" fill="none" opacity="0.36"/>
<path d="M600,106.22124162815075 C720,86.71351615197806 780,156.4225231610291 900,194.29325350846472" stroke="#D1CFC9" stroke-width="0.8" fill="none" opacity="0.25"/>
<path d="M600,106.22124162815075 C720,111.66244160823116 780,254.14677731835906 900,261.88210699099164" stroke="#D1CFC9" stroke-width="0.8" fill="none" opacity="0.27"/>
<path d="M600,106.22124162815075 C720,96.33882720105788 780,357.39062842619387 900,344.3911194741705" stroke="#D1CFC9" stroke-width="0.8" fill="none" opacity="0.42"/>
<path d="M600,272.5604504993559 C720,260.2999773029005 780,81.33631943849295 900,86.60896202796347" stroke="#D1CFC9" stroke-width="0.8" fill="none" opacity="0.28"/>
<path d="M600,272.5604504993559 C720,261.19939358588294 780,169.90869367213656 900,194.29325350846472" stroke="#D1CFC9" stroke-width="0.8" fill="none" opacity="0.42"/>
<path d="M600,272.5604504993559 C720,252.35249796359625 780,278.5652890500066 900,261.88210699099164" stroke="#D1CFC9" stroke-width="0.8" fill="none" opacity="0.33"/>
<path d="M600,398.7903068768769 C720,436.7727588480275 780,126.33145699518067 900,86.60896202796347" stroke="#D1CFC9" stroke-width="0.8" fill="none" opacity="0.31"/>
<path d="M600,398.7903068768769 C720,406.658774401494 780,261.65540654530173 900,261.88210699099164" stroke="#D1CFC9" stroke-width="0.8" fill="none" opacity="0.43"/>
<path d="M600,398.7903068768769 C720,408.72733459992503 780,314.32791076235657 900,344.3911194741705" stroke="#D1CFC9" stroke-width="0.8" fill="none" opacity="0.39"/>
<path d="M600,398.7903068768769 C720,362.8928999421403 780,489.7227072221512 900,522.1169018419731" stroke="#D1CFC9" stroke-width="0.8" fill="none" opacity="0.43"/>
<path d="M600,480.35269458590835 C720,441.82805416021216 780,78.38924613836902 900,86.60896202796347" stroke="#D1CFC9" stroke-width="0.8" fill="none" opacity="0.39"/>
<path d="M600,480.35269458590835 C720,459.7926769152732 780,189.75794337870505 900,194.29325350846472" stroke="#D1CFC9" stroke-width="0.8" fill="none" opacity="0.35"/>
<path d="M600,480.35269458590835 C720,499.4394401859118 780,328.47350385004506 900,344.3911194741705" stroke="#D1CFC9" stroke-width="0.8" fill="none" opacity="0.42"/>
<path d="M600,480.35269458590835 C720,520.0922130494594 780,446.8089682689889 900,445.98389152297375" stroke="#D1CFC9" stroke-width="0.8" fill="none" opacity="0.40"/>
<path d="M600,480.35269458590835 C720,473.14055975171283 780,482.2547433572483 900,522.1169018419731" stroke="#D1CFC9" stroke-width="0.8" fill="none" opacity="0.30"/>
<path d="M900,86.60896202796347 C960,70.16196434250148 990,59.91640153618446 1050,79.86248536777275" stroke="#D1CFC9" stroke-width="0.8" fill="none" opacity="0.31"/>
<path d="M900,86.60896202796347 C960,91.78196746292103 990,262.0630187303906 1050,286.3234650628463" stroke="#D1CFC9" stroke-width="0.8" fill="none" opacity="0.30"/>
<path d="M900,86.60896202796347 C960,53.450907416979526 990,364.05742090522716 1050,356.0259827333563" stroke="#D1CFC9" stroke-width="0.8" fill="none" opacity="0.32"/>
<path d="M900,86.60896202796347 C960,99.70995459326309 990,421.0395191956869 1050,432.5249054377258" stroke="#D1CFC9" stroke-width="0.8" fill="none" opacity="0.32"/>
<path d="M900,86.60896202796347 C960,121.25469993922269 990,548.2617837642929 1050,552.5085362974806" stroke="#D1CFC9" stroke-width="0.8" fill="none" opacity="0.33"/>
<path d="M900,194.29325350846472 C960,167.34789942981394 990,83.24509763979472 1050,79.86248536777275" stroke="#D1CFC9" stroke-width="0.8" fill="none" opacity="0.30"/>
<path d="M900,194.29325350846472 C960,211.82547225379977 990,219.87551759227077 1050,184.60529766385568" stroke="#D1CFC9" stroke-width="0.8" fill="none" opacity="0.40"/>
<path d="M900,194.29325350846472 C960,170.71103861292613 990,318.9535438164495 1050,286.3234650628463" stroke="#D1CFC9" stroke-width="0.8" fill="none" opacity="0.35"/>
<path d="M900,261.88210699099164 C960,282.3771491168014 990,48.718941612336536 1050,79.86248536777275" stroke="#D1CFC9" stroke-width="0.8" fill="none" opacity="0.38"/>
<path d="M900,261.88210699099164 C960,230.50029607082257 990,154.66550107688306 1050,184.60529766385568" stroke="#D1CFC9" stroke-width="0.8" fill="none" opacity="0.35"/>
<path d="M900,261.88210699099164 C960,265.7336012501581 990,253.6736471135341 1050,286.3234650628463" stroke="#D1CFC9" stroke-width="0.8" fill="none" opacity="0.30"/>
<path d="M900,261.88210699099164 C960,268.9585839447003 990,387.6945479115691 1050,356.0259827333563" stroke="#D1CFC9" stroke-width="0.8" fill="none" opacity="0.39"/>
<path d="M900,344.3911194741705 C960,346.9403180519446 990,208.23691478889364 1050,184.60529766385568" stroke="#D1CFC9" stroke-width="0.8" fill="none" opacity="0.34"/>
<path d="M900,344.3911194741705 C960,309.4193667870526 990,308.56542917540423 1050,286.3234650628463" stroke="#D1CFC9" stroke-width="0.8" fill="none" opacity="0.36"/>
<path d="M900,344.3911194741705 C960,355.71361467840933 990,391.22136601275326 1050,356.0259827333563" stroke="#D1CFC9" stroke-width="0.8" fill="none" opacity="0.39"/>
<path d="M900,344.3911194741705 C960,330.59351228191366 990,469.2884971288239 1050,432.5249054377258" stroke="#D1CFC9" stroke-width="0.8" fill="none" opacity="0.39"/>
<path d="M900,344.3911194741705 C960,337.3906064050716 990,522.3648431916639 1050,552.5085362974806" stroke="#D1CFC9" stroke-width="0.8" fill="none" opacity="0.27"/>
<path d="M900,445.98389152297375 C960,441.37253862558225 990,66.55267765246161 1050,79.86248536777275" stroke="#D1CFC9" stroke-width="0.8" fill="none" opacity="0.33"/>
<path d="M900,445.98389152297375 C960,475.54480870802536 990,209.14122498574233 1050,184.60529766385568" stroke="#D1CFC9" stroke-width="0.8" fill="none" opacity="0.26"/>
<path d="M900,445.98389152297375 C960,469.0208834169947 990,274.1168679460224 1050,286.3234650628463" stroke="#D1CFC9" stroke-width="0.8" fill="none" opacity="0.33"/>
<path d="M900,445.98389152297375 C960,442.35520993134827 990,343.67102436573964 1050,356.0259827333563" stroke="#D1CFC9" stroke-width="0.8" fill="none" opacity="0.35"/>
<path d="M900,445.98389152297375 C960,449.98071444173826 990,463.06214869745594 1050,432.5249054377258" stroke="#D1CFC9" stroke-width="0.8" fill="none" opacity="0.41"/>
<path d="M900,445.98389152297375 C960,436.4441536796382 990,559.2484910891503 1050,552.5085362974806" stroke="#D1CFC9" stroke-width="0.8" fill="none" opacity="0.26"/>
<path d="M900,522.1169018419731 C960,520.4151018472423 990,50.09685133632665 1050,79.86248536777275" stroke="#D1CFC9" stroke-width="0.8" fill="none" opacity="0.29"/>
<path d="M900,522.1169018419731 C960,523.2956313670835 990,249.95572834414332 1050,286.3234650628463" stroke="#D1CFC9" stroke-width="0.8" fill="none" opacity="0.28"/>
<path d="M900,522.1169018419731 C960,495.13884850617933 990,407.1765344159623 1050,432.5249054377258" stroke="#D1CFC9" stroke-width="0.8" fill="none" opacity="0.30"/>
<circle cx="150.0" cy="83.4" r="6.2" fill="#D1CFC9" opacity="0.8"/>
<circle cx="150.0" cy="185.7" r="5.4" fill="#D1CFC9" opacity="0.8"/>
<circle cx="150.0" cy="267.6" r="5.1" fill="#D1CFC9" opacity="0.8"/>
<circle cx="150.0" cy="377.2" r="4.3" fill="#D1CFC9" opacity="0.8"/>
<circle cx="150.0" cy="464.7" r="6.4" fill="#D1CFC9" opacity="0.8"/>
<circle cx="150.0" cy="546.9" r="6.0" fill="#D1CFC9" opacity="0.8"/>
<circle cx="300.0" cy="106.1" r="5.7" fill="#D1CFC9" opacity="0.8"/>
<circle cx="300.0" cy="223.3" r="6.6" fill="#D1CFC9" opacity="0.8"/>
<circle cx="300.0" cy="322.0" r="4.4" fill="#D1CFC9" opacity="0.8"/>
<circle cx="300.0" cy="411.9" r="5.6" fill="#D1CFC9" opacity="0.8"/>
<circle cx="300.0" cy="507.4" r="5.9" fill="#D1CFC9" opacity="0.8"/>
<circle cx="600.0" cy="106.2" r="6.2" fill="#D1CFC9" opacity="0.8"/>
<circle cx="600.0" cy="272.6" r="4.4" fill="#D1CFC9" opacity="0.8"/>
<circle cx="600.0" cy="398.8" r="5.3" fill="#D1CFC9" opacity="0.8"/>
<circle cx="600.0" cy="480.4" r="6.9" fill="#D1CFC9" opacity="0.8"/>
<circle cx="900.0" cy="86.6" r="6.9" fill="#D1CFC9" opacity="0.8"/>
<circle cx="900.0" cy="194.3" r="4.4" fill="#D1CFC9" opacity="0.8"/>
<circle cx="900.0" cy="261.9" r="4.9" fill="#D1CFC9" opacity="0.8"/>
<circle cx="900.0" cy="344.4" r="6.9" fill="#D1CFC9" opacity="0.8"/>
<circle cx="900.0" cy="446.0" r="6.1" fill="#D1CFC9" opacity="0.8"/>
<circle cx="900.0" cy="522.1" r="5.2" fill="#D1CFC9" opacity="0.8"/>
<circle cx="1050.0" cy="79.9" r="5.3" fill="#D1CFC9" opacity="0.8"/>
<circle cx="1050.0" cy="184.6" r="7.0" fill="#D1CFC9" opacity="0.8"/>
<circle cx="1050.0" cy="286.3" r="5.8" fill="#D1CFC9" opacity="0.8"/>
<circle cx="1050.0" cy="356.0" r="6.6" fill="#D1CFC9" opacity="0.8"/>
<circle cx="1050.0" cy="432.5" r="4.6" fill="#D1CFC9" opacity="0.8"/>
<circle cx="1050.0" cy="552.5" r="5.5" fill="#D1CFC9" opacity="0.8"/>
<circle cx="610.6" cy="271.7" r="16.2" fill="none" stroke="#1A1A1A" stroke-width="1" opacity="0.15"/>
<circle cx="139.9" cy="112.8" r="14.3" fill="none" stroke="#1A1A1A" stroke-width="1" opacity="0.15"/>
<circle cx="897.0" cy="524.6" r="17.0" fill="none" stroke="#1A1A1A" stroke-width="1" opacity="0.15"/>
<circle cx="1035.5" cy="445.5" r="11.3" fill="none" stroke="#1A1A1A" stroke-width="1" opacity="0.15"/>
</svg>