<svg xmlns="http://www.w3.org/2000/svg" width="1200" height="630" viewBox="0 0 1200 630">
<rect width="1200" height="630" fill="#FAFAF9"/>
<path d="M0,61.2 C356.2,84.6 803.7,78.9 1200,24.4" stroke="#D1CFC9" stroke-width="1.65" fill="none" opacity="0.54"/>
<path d="M0,101.8 C220.8,99.4 819.8,61.5 1200,67.3" stroke="#D1CFC9" stroke-width="1.10" fill="none" opacity="0.50"/>
<path d="M0,146.7 C243.6,76.8 965.6,75.6 1200,107.1" stroke="#D1CFC9" stroke-width="0.83" fill="none" opacity="0.55"/>
<path d="M0,167.5 C390.1,228.8 921.9,229.0 1200,139.1" stroke="#E8E8E6" stroke-width="0.82" fill="none" opacity="0.50"/>
<path d="M0,217.4 C336.2,282.9 828.5,187.6 1200,221.7" stroke="#E8E8E6" stroke-width="0.88" fill="none" opacity="0.56"/>
<path d="M0,242.6 C340.7,315.6 931.7,204.4 1200,261.8" stroke="#D1CFC9" stroke-width="0.86" fill="none" opacity="0.44"/>
<path d="M0,285.5 C273.7,308.4 993.0,275.0 1200,276.0" stroke="#D1CFC9" stroke-width="0.97" fill="none" opacity="0.60"/>
<path d="M0,323.3 C319.5,299.9 896.8,279.4 1200,293.1" stroke="#D1CFC9" stroke-width="1.38" fill="none" opacity="0.73"/>
<path d="M0,348.5 C260.9,396.4 912.3,421.5 1200,352.4" stroke="#E8E8E6" stroke-width="1.48" fill="none" opacity="0.73"/>
<path d="M0,390.0 C328.6,475.5 800.8,324.8 1200,369.1" stroke="#E8E8E6" stroke-width="0.92" fill="none" opacity="0.55"/>
<path d="M0,431.1 C293.6,388.3 936.3,381.6 1200,433.2" stroke="#D1CFC9" stroke-width="1.72" fill="none" opacity="0.60"/>
<path d="M0,483.9 C399.0,537.3 929.8,484.4 1200,492.7" stroke="#E8E8E6" stroke-width="1.79" fill="none" opacity="0.48"/>
<path d="M0,532.5 C376.8,586.8 852.2,531.3 1200,486.4" stroke="#D1CFC9" stroke-width="1.22" fill="none" opacity="0.64"/>
<path d="M0,535.8 C255.0,576.8 969.4,570.7 1200,518.6" stroke="#D1CFC9" stroke-width="1.57" fill="none" opacity="0.66"/>
<path d="M0,599.6 C251.8,638.4 818.7,570.6 1200,565.7" stroke="#E8E8E6" stroke-width="1.56" fill="none" opacity="0.70"/>
<line x1="0" y1="610" x2="0" y2="601.5" stroke="#D1CFC9" stroke-width="0.8" opacity="0.5"/>
<line x1="100" y1="610" x2="100" y2="600.9" stroke="#D1CFC9" stroke-width="0.8" opacity="0.5"/>
<line x1="200" y1="610" x2="200" y2="604.1" stroke="#D1CFC9" stroke-width="0.8" opacity="0.5"/>
<line x1="300" y1="610" x2="300" y2="605.9" stroke="#D1CFC9" stroke-width="0.8" opacity="0.5"/>
<line x1="400" y1="610" x2="400" y2="598.8" stroke="#D1CFC9" stroke-width="0.8" opacity="0.5"/>
<line x1="500" y1="610" x2="500" y2="605.7" stroke="#D1CFC9" stroke-width="0.8" opacity="0.5"/>
<line x1="600" y1="610" x2="600" y2="604.0" stroke="#D1CFC9" stroke-width="0.8" opacity="0.5"/>
<line x1="700" y1="610" x2="700" y2="603.6" stroke="#D1CFC9" stroke-width="0.8" opacity="0.5"/>
<line x1="800" y1="610" x2="800" y2="604.5" stroke="#D1CFC9" stroke-width="0.8" opacity="0.5"/>
<line x1="900" y1="610" x2="900" y2="601.8" stroke="#D1CFC9" stroke-width="0.8" opacity="0.5"/>
<line x1="1000" y1="610" x2="1000" y2="601.3" stroke="#D1CFC9" stroke-width="0.8" opacity="0.5"/>
<line x1="1100" y1="610" x2="1100" y2="602.5" stroke="#D1CFC9" stroke-width="0.8" opacity="0.5"/>
<line x1="1200" y1="610" x2="1200" y2="604.0" stroke="#D1CFC9" stroke-width="0.8" opacity="0.5"/>
<line x1="204.4" y1="113.1" x2="582.1" y2="378.0" stroke="#D1CFC9" stroke-width="1" opacity="0.3"/>
</svg>