<svg xmlns="http://www.w3.org/2000/svg" width="1200" height="630" viewBox="0 0 1200 630">
<rect width="1200" height="630" fill="#FAFAF9"/>
<path d="M0,54.2 C202.2,77.7 901.6,-3.1 1200,57.3" stroke="#D1CFC9" stroke-width="1.72" fill="none" opacity="0.56"/>
<path d="M0,104.0 C299.7,89.8 892.7,106.1 1200,92.7" stroke="#E8E8E6" stroke-width="1.74" fill="none" opacity="0.58"/>
<path d="M0,133.7 C374.9,53.9 972.2,163.4 1200,145.0" stroke="#D1CFC9" stroke-width="1.60" fill="none" opacity="0.52"/>
<path d="M0,145.8 C394.6,126.8 950.5,135.8 1200,183.7" stroke="#D1CFC9" stroke-width="1.72" fill="none" opacity="0.43"/>
<path d="M0,182.1 C308.0,236.3 876.0,288.7 1200,201.9" stroke="#D1CFC9" stroke-width="1.66" fill="none" opacity="0.43"/>
<path d="M0,252.8 C384.8,226.9 842.0,235.9 1200,238.8" stroke="#D1CFC9" stroke-width="1.79" fill="none" opacity="0.59"/>
<path d="M0,266.3 C238.2,352.3 932.3,224.7 1200,252.4" stroke="#D1CFC9" stroke-width="1.76" fill="none" opacity="0.68"/>
<path d="M0,327.6 C248.9,332.5 969.2,254.2 1200,330.0" stroke="#D1CFC9" stroke-width="1.32" fill="none" opacity="0.52"/>
<path d="M0,342.2 C379.4,267.7 956.5,426.7 1200,334.2" stroke="#D1CFC9" stroke-width="0.92" fill="none" opacity="0.62"/>
<path d="M0,383.6 C273.9,324.4 879.5,477.6 1200,372.2" stroke="#D1CFC9" stroke-width="1.58" fill="none" opacity="0.58"/>
<path d="M0,441.7 C305.2,421.9 934.2,455.7 1200,435.4" stroke="#D1CFC9" stroke-width="1.31" fill="none" opacity="0.50"/>
<path d="M0,485.6 C218.9,391.0 844.9,416.4 1200,485.8" stroke="#D1CFC9" stroke-width="1.77" fill="none" opacity="0.41"/>
<path d="M0,517.3 C299.6,443.0 915.5,533.4 1200,519.7" stroke="#D1CFC9" stroke-width="0.84" fill="none" opacity="0.51"/>
<path d="M0,513.0 C340.7,603.5 859.3,599.1 1200,525.2" stroke="#E8E8E6" stroke-width="1.78" fill="none" opacity="0.43"/>
<path d="M0,552.3 C280.1,607.4 924.8,604.3 1200,563.1" stroke="#E8E8E6" stroke-width="1.63" fill="none" opacity="0.54"/>
<line x1="0" y1="610" x2="0" y2="603.6" stroke="#D1CFC9" stroke-width="0.8" opacity="0.5"/>
<line x1="100" y1="610" x2="100" y2="604.0" stroke="#D1CFC9" stroke-width="0.8" opacity="0.5"/>
<line x1="200" y1="610" x2="200" y2="598.5" stroke="#D1CFC9" stroke-width="0.8" opacity="0.5"/>
<line x1="300" y1="610" x2="300" y2="599.6" stroke="#D1CFC9" stroke-width="0.8" opacity="0.5"/>
<line x1="400" y1="610" x2="400" y2="599.8" stroke="#D1CFC9" stroke-width="0.8" opacity="0.5"/>
<line x1="500" y1="610" x2="500" y2="605.3" stroke="#D1CFC9" stroke-width="0.8" opacity="0.5"/>
<line x1="600" y1="610" x2="600" y2="602.0" stroke="#D1CFC9" stroke-width="0.8" opacity="0.5"/>
<line x1="700" y1="610" x2="700" y2="603.1" stroke="#D1CFC9" stroke-width="0.8" opacity="0.5"/>
<line x1="800" y1="610" x2="800" y2="599.0" stroke="#D1CFC9" stroke-width="0.8" opacity="0.5"/>
<line x1="900" y1="610" x2="900" y2="603.4" stroke="#D1CFC9" stroke-width="0.8" opacity="0.5"/>
<line x1="1000" y1="610" x2="1000" y2="604.2" stroke="#D1CFC9" stroke-width="0.8" opacity="0.5"/>
<line x1="1100" y1="610" x2="1100" y2="601.3" stroke="#D1CFC9" stroke-width="0.8" opacity="0.5"/>
<line x1="1200" y1="610" x2="1200" y2="605.4" stroke="#D1CFC9" stroke-width="0.8" opacity="0.5"/>
<line x1="307.9" y1="159.0" x2="676.0" y2="450.5" stroke="#D1CFC9" stroke-width="1" opacity="0.3"/>
</svg>