<svg xmlns="http://www.w3.org/2000/svg" width="1200" height="630" viewBox="0 0 1200 630">
<rect width="1200" height="630" fill="#FAFAF9"/>
<line x1="0" y1="80" x2="1200" y2="80" stroke="#E8E8E6" stroke-width="0.8" opacity="0.6"/>
<line x1="0" y1="160" x2="1200" y2="160" stroke="#E8E8E6" stroke-width="0.8" opacity="0.6"/>
<line x1="0" y1="240" x2="1200" y2="240" stroke="#E8E8E6" stroke-width="0.8" opacity="0.6"/>
<line x1="0" y1="320" x2="1200" y2="320" stroke="#E8E8E6" stroke-width="0.8" opacity="0.6"/>
<line x1="0" y1="400" x2="1200" y2="400" stroke="#E8E8E6" stroke-width="0.8" opacity="0.6"/>
<line x1="0" y1="480" x2="1200" y2="480" stroke="#E8E8E6" stroke-width="0.8" opacity="0.6"/>
<line x1="0" y1="560" x2="1200" y2="560" stroke="#E8E8E6" stroke-width="0.8" opacity="0.6"/>
<path d="M150,93.3078541125422 C210,95.4721241806336 240,90.50729525380473 300,70.00310843437983" stroke="#D1CFC9" stroke-width="0.8" fill="none" opacity="0.33"/>
<path d="M150,93.3078541125422 C210,82.63614089755252 240,187.79669374001602 300,222.36180286502042" stroke="#D1CFC9" stroke-width="0.8" fill="none" opacity="0.38"/>
<path d="M150,174.9018079230799 C210,204.84326250637957 240,163.30260818953454 300,164.7540094254082" stroke="#D1CFC9" stroke-width="0.8" fill="none" opacity="0.26"/>
<path d="M150,174.9018079230799 C210,146.47131962992052 240,182.71658574818088 300,222.36180286502042" stroke="#D1CFC9" stroke-width="0.8" fill="none" opacity="0.26"/>
<path d="M150,174.9018079230799 C210,146.37964928810942 240,498.69034575436734 300,485.9112303967497" stroke="#D1CFC9" stroke-width="0.8" fill="none" opacity="0.29"/>
<path d="M150,174.9018079230799 C210,169.18929758369674 240,500.3281405902999 300,537.7286527075871" stroke="#D1CFC9" stroke-width="0.8" fill="none" opacity="0.38"/>
<path d="M150,361.4550051632 C210,354.7537297254321 240,289.1246268143586 300,310.7501446217066" stroke="#D1CFC9" stroke-width="0.8" fill="none" opacity="0.26"/>
<path d="M150,361.4550051632 C210,376.6503546681838 240,407.9661584633789 300,389.96732850022784" stroke="#D1CFC9" stroke-width="0.8" fill="none" opacity="0.35"/>
<path d="M150,450.4650548730197 C210,447.6450290502154 240,85.39143373244244 300,70.00310843437983" stroke="#D1CFC9" stroke-width="0.8" fill="none" opacity="0.43"/>
<path d="M150,450.4650548730197 C210,417.6988928107775 240,392.9433091496917 300,389.96732850022784" stroke="#D1CFC9" stroke-width="0.8" fill="none" opacity="0.38"/>
<path d="M150,450.4650548730197 C210,420.26399546309005 240,486.37855741978353 300,485.9112303967497" stroke="#D1CFC9" stroke-width="0.8" fill="none" opacity="0.29"/>
<path d="M150,450.4650548730197 C210,428.0176121108275 240,546.9435500238192 300,537.7286527075871" stroke="#D1CFC9" stroke-width="0.8" fill="none" opacity="0.26"/>
<path d="M150,542.0446566622808 C210,536.477046723123 240,102.94122516572038 300,70.00310843437983" stroke="#D1CFC9" stroke-width="0.8" fill="none" opacity="0.39"/>
<path d="M150,542.0446566622808 C210,571.177007063566 240,246.77214752167282 300,222.36180286502042" stroke="#D1CFC9" stroke-width="0.8" fill="none" opacity="0.27"/>
<path d="M150,542.0446566622808 C210,548.8332866371686 240,333.9263996204074 300,310.7501446217066" stroke="#D1CFC9" stroke-width="0.8" fill="none" opacity="0.44"/>
<path d="M150,542.0446566622808 C210,515.1255484645081 240,496.2187011548012 300,485.9112303967497" stroke="#D1CFC9" stroke-width="0.8" fill="none" opacity="0.40"/>
<path d="M150,542.0446566622808 C210,516.8273475744825 240,515.198993999208 300,537.7286527075871" stroke="#D1CFC9" stroke-width="0.8" fill="none" opacity="0.45"/>
<path d="M300,70.00310843437983 C420,52.268697062104174 480,109.79958779965517 600,102.01221617544354" stroke="#D1CFC9" stroke-width="0.8" fill="none" opacity="0.28"/>
<path d="M300,70.00310843437983 C420,82.74430948233798 480,244.89784202279935 600,258.35849162246063" stroke="#D1CFC9" stroke-width="0.8" fill="none" opacity="0.43"/>
<path d="M300,164.7540094254082 C420,147.01163790870032 480,564.9599694290571 600,527.0320058076252" stroke="#D1CFC9" stroke-width="0.8" fill="none" opacity="0.31"/>
<path d="M300,222.36180286502042 C420,233.46133566367473 480,223.86727119094394 600,195.16995706157059" stroke="#D1CFC9" stroke-width="0.8" fill="none" opacity="0.29"/>
<path d="M300,222.36180286502042 C420,255.42304619632733 480,263.27165802178706 600,258.35849162246063" stroke="#D1CFC9" stroke-width="0.8" fill="none" opacity="0.42"/>
<path d="M300,222.36180286502042 C420,220.83189955524446 480,385.62246209933016 600,369.0586382669999" stroke="#D1CFC9" stroke-width="0.8" fill="none" opacity="0.44"/>
<path d="M300,222.36180286502042 C420,242.64354228161824 480,428.11543421822495 600,466.95094624509824" stroke="#D1CFC9" stroke-width="0.8" fill="none" opacity="0.30"/>
<path d="M300,310.7501446217066 C420,334.37949187148587 480,80.10393307639843 600,102.01221617544354" stroke="#D1CFC9" stroke-width="0.8" fill="none" opacity="0.38"/>
<path d="M300,310.7501446217066 C420,338.9601980069909 480,233.1401002451638 600,195.16995706157059" stroke="#D1CFC9" stroke-width="0.8" fill="none" opacity="0.43"/>
<path d="M300,310.7501446217066 C420,334.07496771794393 480,228.38365221684415 600,258.35849162246063" stroke="#D1CFC9" stroke-width="0.8" fill="none" opacity="0.32"/>
<path d="M300,310.7501446217066 C420,347.83844801936965 480,554.1005629105728 600,527.0320058076252" stroke="#D1CFC9" stroke-width="0.8" fill="none" opacity="0.32"/>
<path d="M300,389.96732850022784 C420,352.06978239563057 480,67.96708439289756 600,102.01221617544354" stroke="#D1CFC9" stroke-width="0.8" fill="none" opacity="0.36"/>
<path d="M300,389.96732850022784 C420,383.7243254600848 480,179.40691816746417 600,195.16995706157059" stroke="#D1CFC9" stroke-width="0.8" fill="none" opacity="0.27"/>
<path d="M300,389.96732850022784 C420,371.17213127160727 480,450.1611964456181 600,466.95094624509824" stroke="#D1CFC9" stroke-width="0.8" fill="none" opacity="0.40"/>
<path d="M300,389.96732850022784 C420,404.00576686277185 480,517.5119145306554 600,527.0320058076252" stroke="#D1CFC9" stroke-width="0.8" fill="none" opacity="0.32"/>
<path d="M300,485.9112303967497 C420,519.0844844715517 480,71.60815530354347 600,102.01221617544354" stroke="#D1CFC9" stroke-width="0.8" fill="none" opacity="0.40"/>
<path d="M300,485.9112303967497 C420,462.59828352598663 480,254.3474054425832 600,258.35849162246063" stroke="#D1CFC9" stroke-width="0.8" fill="none" opacity="0.41"/>
<path d="M300,485.9112303967497 C420,487.8887913364774 480,505.44331585928876 600,466.95094624509824" stroke="#D1CFC9" stroke-width="0.8" fill="none" opacity="0.38"/>
<path d="M300,485.9112303967497 C420,446.4108325433127 480,506.1802578410554 600,527.0320058076252" stroke="#D1CFC9" stroke-width="0.8" fill="none" opacity="0.36"/>
<path d="M300,537.7286527075871 C420,539.2764613271636 480,87.02405256475882 600,102.01221617544354" stroke="#D1CFC9" stroke-width="0.8" fill="none" opacity="0.36"/>
<path d="M300,537.7286527075871 C420,558.6250306577713 480,371.42800581302214 600,369.0586382669999" stroke="#D1CFC9" stroke-width="0.8" fill="none" opacity="0.28"/>
<path d="M300,537.7286527075871 C420,513.5425304428308 480,480.66751175854995 600,466.95094624509824" stroke="#D1CFC9" stroke-width="0.8" fill="none" opacity="0.31"/>
<path d="M300,537.7286527075871 C420,569.356699877618 480,541.1053797004524 600,527.0320058076252" stroke="#D1CFC9" stroke-width="0.8" fill="none" opacity="0.30"/>
<path d="M600,102.01221617544354 C720,85.94217065021911 780,58.53897185775892 900,72.19068232089995" stroke="#D1CFC9" stroke-width="0.8" fill="none" opacity="0.36"/>
<path d="M600,102.01221617544354 C720,95.0998006339883 780,119.58641264304437 900,149.19293878074805" stroke="#D1CFC9" stroke-width="0.8" fill="none" opacity="0.39"/>
<path d="M600,102.01221617544354 C720,121.86840612577936 780,248.68815115028715 900,225.24882799707092" stroke="#D1CFC9" stroke-width="0.8" fill="none" opacity="0.35"/>
<path d="M600,102.01221617544354 C720,104.64148457828944 780,346.86594792446493 900,325.00878409709753" stroke="#D1CFC9" stroke-width="0.8" fill="none" opacity="0.29"/>
<path d="M600,102.01221617544354 C720,134.59237967119373 780,426.803488256364 900,391.3034154205358" stroke="#D1CFC9" stroke-width="0.8" fill="none" opacity="0.29"/>
<path d="M600,102.01221617544354 C720,127.88403908067477 780,550.7217174424375 900,555.8404783851794" stroke="#D1CFC9" stroke-width="0.8" fill="none" opacity="0.43"/>
<path d="M600,195.16995706157059 C720,234.54390995682775 780,59.988336486739186 900,72.19068232089995" stroke="#D1CFC9" stroke-width="0.8" fill="none" opacity="0.42"/>
<path d="M600,195.16995706157059 C720,202.0509201260402 780,183.1050940908853 900,149.19293878074805" stroke="#D1CFC9" stroke-width="0.8" fill="none" opacity="0.27"/>
<path d="M600,195.16995706157059 C720,212.5747875679691 780,319.3706375742612 900,325.00878409709753" stroke="#D1CFC9" stroke-width="0.8" fill="none" opacity="0.31"/>
<path d="M600,195.16995706157059 C720,189.49492653261285 780,419.9843371736315 900,391.3034154205358" stroke="#D1CFC9" stroke-width="0.8" fill="none" opacity="0.28"/>
<path d="M600,195.16995706157059 C720,174.03543469496896 780,504.22463534154804 900,466.1887764351998" stroke="#D1CFC9" stroke-width="0.8" fill="none" opacity="0.29"/>
<path d="M600,258.35849162246063 C720,222.17067366609598 780,83.39082483560564 900,72.19068232089995" stroke="#D1CFC9" stroke-width="0.8" fill="none" opacity="0.29"/>
<path d="M600,258.35849162246063 C720,290.45879497995105 780,165.49656069691912 900,149.19293878074805" stroke="#D1CFC9" stroke-width="0.8" fill="none" opacity="0.26"/>
<path d="M600,258.35849162246063 C720,258.23077938571356 780,223.90794180063713 900,225.24882799707092" stroke="#D1CFC9" stroke-width="0.8" fill="none" opacity="0.35"/>
<path d="M600,258.35849162246063 C720,270.69121470085605 780,376.0506376971143 900,391.3034154205358" stroke="#D1CFC9" stroke-width="0.8" fill="none" opacity="0.42"/>
<path d="M600,258.35849162246063 C720,234.69686117458548 780,469.6466329029986 900,466.1887764351998" stroke="#D1CFC9" stroke-width="0.8" fill="none" opacity="0.42"/>
<path d="M600,258.35849162246063 C720,219.4660061978423 780,580.4240741492072 900,555.8404783851794" stroke="#D1CFC9" stroke-width="0.8" fill="none" opacity="0.42"/>
<path d="M600,369.0586382669999 C720,400.3167950115904 780,151.40604990060817 900,149.19293878074805" stroke="#D1CFC9" stroke-width="0.8" fill="none" opacity="0.44"/>
<path d="M600,369.0586382669999 C720,345.1345719395053 780,363.6788500604869 900,391.3034154205358" stroke="#D1CFC9" stroke-width="0.8" fill="none" opacity="0.35"/>
<path d="M600,369.0586382669999 C720,403.03314590291893 780,462.36822339417836 900,466.1887764351998" stroke="#D1CFC9" stroke-width="0.8" fill="none" opacity="0.28"/>
<path d="M600,369.0586382669999 C720,373.6737921898425 780,533.7920451153284 900,555.8404783851794" stroke="#D1CFC9" stroke-width="0.8" fill="none" opacity="0.38"/>
<path d="M600,466.95094624509824 C720,443.8254858217727 780,64.05844446179887 900,72.19068232089995" stroke="#D1CFC9" stroke-width="0.8" fill="none" opacity="0.41"/>
<path d="M600,466.95094624509824 C720,476.6980750413374 780,263.67454624459486 900,225.24882799707092" stroke="#D1CFC9" stroke-width="0.8" fill="none" opacity="0.42"/>
<path d="M600,466.95094624509824 C720,432.597562541393 780,357.8826236079057 900,325.00878409709753" stroke="#D1CFC9" stroke-width="0.8" fill="none" opacity="0.32"/>
<path d="M600,466.95094624509824 C720,502.79732610909207 780,405.60257312343515 900,391.3034154205358" stroke="#D1CFC9" stroke-width="0.8" fill="none" opacity="0.26"/>
<path d="M600,466.95094624509824 C720,484.8398634923715 780,564.6844987259676 900,555.8404783851794" stroke="#D1CFC9" stroke-width="0.8" fill="none" opacity="0.33"/>
<path d="M600,527.0320058076252 C720,544.8788455843178 780,119.0352572471102 900,149.19293878074805" stroke="#D1CFC9" stroke-width="0.8" fill="none" opacity="0.26"/>
<path d="M600,527.0320058076252 C720,558.9718027415155 780,194.5977690906957 900,225.24882799707092" stroke="#D1CFC9" stroke-width="0.8" fill="none" opacity="0.36"/>
<path d="M600,527.0320058076252 C720,560.6595706200832 780,346.1851440814638 900,325.00878409709753" stroke="#D1CFC9" stroke-width="0.8" fill="none" opacity="0.45"/>
<path d="M900,72.19068232089995 C960,78.19350131093373 990,250.29716848565664 1050,229.1501731765806" stroke="#D1CFC9" stroke-width="0.8" fill="none" opacity="0.25"/>
<path d="M900,72.19068232089995 C960,58.48135946096884 990,466.27553795214635 1050,438.0337159617417" stroke="#D1CFC9" stroke-width="0.8" fill="none" opacity="0.44"/>
<path d="M900,149.19293878074805 C960,125.49423642310879 990,414.37098670223986 1050,438.0337159617417" stroke="#D1CFC9" stroke-width="0.8" fill="none" opacity="0.39"/>
<path d="M900,149.19293878074805 C960,186.7970653006451 990,493.9796977164176 1050,506.42880391153244" stroke="#D1CFC9" stroke-width="0.8" fill="none" opacity="0.38"/>
<path d="M900,225.24882799707092 C960,248.22891572786702 990,495.81993703307114 1050,506.42880391153244" stroke="#D1CFC9" stroke-width="0.8" fill="none" opacity="0.39"/>
<path d="M900,325.00878409709753 C960,345.28683480574676 990,100.4578770842538 1050,119.2399858034309" stroke="#D1CFC9" stroke-width="0.8" fill="none" opacity="0.37"/>
<path d="M900,325.00878409709753 C960,329.5585548165973 990,464.00876373681444 1050,438.0337159617417" stroke="#D1CFC9" stroke-width="0.8" fill="none" opacity="0.29"/>
<path d="M900,391.3034154205358 C960,421.7416474490291 990,136.26535285689528 1050,119.2399858034309" stroke="#D1CFC9" stroke-width="0.8" fill="none" opacity="0.27"/>
<path d="M900,391.3034154205358 C960,377.30460665894316 990,327.8789322208331 1050,316.1574612567568" stroke="#D1CFC9" stroke-width="0.8" fill="none" opacity="0.30"/>
<path d="M900,391.3034154205358 C960,377.7137377836541 990,418.74038781545596 1050,438.0337159617417" stroke="#D1CFC9" stroke-width="0.8" fill="none" opacity="0.43"/>
<path d="M900,466.1887764351998 C960,474.0829790661421 990,155.7411313144819 1050,119.2399858034309" stroke="#D1CFC9" stroke-width="0.8" fill="none" opacity="0.27"/>
<path d="M900,466.1887764351998 C960,471.30804852502376 990,291.4007271498909 1050,316.1574612567568" stroke="#D1CFC9" stroke-width="0.8" fill="none" opacity="0.29"/>
<path d="M900,555.8404783851794 C960,577.1999630608362 990,94.33139139235286 1050,119.2399858034309" stroke="#D1CFC9" stroke-width="0.8" fill="none" opacity="0.35"/>
<path d="M900,555.8404783851794 C960,570.9061631449513 990,465.8225721933 1050,438.0337159617417" stroke="#D1CFC9" stroke-width="0.8" fill="none" opacity="0.31"/>
<path d="M900,555.8404783851794 C960,573.3995310112134 990,487.36428387774254 1050,506.42880391153244" stroke="#D1CFC9" stroke-width="0.8" fill="none" opacity="0.37"/>
<circle cx="150.0" cy="93.3" r="5.0" fill="#D1CFC9" opacity="0.8"/>
<circle cx="150.0" cy="174.9" r="5.9" fill="#D1CFC9" opacity="0.8"/>
<circle cx="150.0" cy="267.4" r="5.1" fill="#D1CFC9" opacity="0.8"/>
<circle cx="150.0" cy="361.5" r="5.6" fill="#D1CFC9" opacity="0.8"/>
<circle cx="150.0" cy="450.5" r="5.2" fill="#D1CFC9" opacity="0.8"/>
<circle cx="150.0" cy="542.0" r="4.4" fill="#D1CFC9" opacity="0.8"/>
<circle cx="300.0" cy="70.0" r="6.8" fill="#D1CFC9" opacity="0.8"/>
<circle cx="300.0" cy="164.8" r="5.7" fill="#D1CFC9" opacity="0.8"/>
<circle cx="300.0" cy="222.4" r="6.2" fill="#D1CFC9" opacity="0.8"/>
<circle cx="300.0" cy="310.8" r="5.8" fill="#D1CFC9" opacity="0.8"/>
<circle cx="300.0" cy="390.0" r="5.7" fill="#D1CFC9" opacity="0.8"/>
<circle cx="300.0" cy="485.9" r="6.5" fill="#D1CFC9" opacity="0.8"/>
<circle cx="300.0" cy="537.7" r="6.5" fill="#D1CFC9" opacity="0.8"/>
<circle cx="600.0" cy="102.0" r="4.7" fill="#D1CFC9" opacity="0.8"/>
<circle cx="600.0" cy="195.2" r="4.3" fill="#D1CFC9" opacity="0.8"/>
<circle cx="600.0" cy="258.4" r="5.7" fill="#D1CFC9" opacity="0.8"/>
<circle cx="600.0" cy="369.1" r="4.7" fill="#D1CFC9" opacity="0.8"/>
<circle cx="600.0" cy="467.0" r="5.0" fill="#D1CFC9" opacity="0.8"/>
<circle cx="600.0" cy="527.0" r="4.3" fill="#D1CFC9" opacity="0.8"/>
<circle cx="900.0" cy="72.2" r="6.6" fill="#D1CFC9" opacity="0.8"/>
<circle cx="900.0" cy="149.2" r="5.4" fill="#D1CFC9" opacity="0.8"/>
<circle cx="900.0" cy="225.2" r="4.3" fill="#D1CFC9" opacity="0.8"/>
<circle cx="900.0" cy="325.0" r="5.6" fill="#D1CFC9" opacity="0.8"/>
<circle cx="900.0" cy="391.3" r="4.5" fill="#D1CFC9" opacity="0.8"/>
<circle cx="900.0" cy="466.2" r="6.0" fill="#D1CFC9" opacity="0.8"/>
<circle cx="900.0" cy="555.8" r="4.3" fill="#D1CFC9" opacity="0.8"/>
<circle cx="1050.0" cy="119.2" r="5.2" fill="#D1CFC9" opacity="0.8"/>
<circle cx="1050.0" cy="229.2" r="6.2" fill="#D1CFC9" opacity="0.8"/>
<circle cx="1050.0" cy="316.2" r="6.2" fill="#D1CFC9" opacity="0.8"/>
<circle cx="1050.0" cy="438.0" r="6.4" fill="#D1CFC9" opacity="0.8"/>
<circle cx="1050.0" cy="506.4" r="5.5" fill="#D1CFC9" opacity="0.8"/>
<circle cx="888.1" cy="170.3" r="13.7" fill="none" stroke="#1A1A1A" stroke-width="1" opacity="0.15"/>
<circle cx="912.4" cy="309.4" r="15.0" fill="none" stroke="#1A1A1A" stroke-width="1" opacity="0.15"/>
<circle cx="1034.9" cy="165.5" r="11.8" fill="none" stroke="#1A1A1A" stroke-width="1" opacity="0.15"/>
<circle cx="141.5" cy="314.7" r="12.3" fill="none" stroke="#1A1A1A" stroke-width="1" opacity="0.15"/>
</svg>