<svg xmlns="http://www.w3.org/2000/svg" width="1200" height="630" viewBox="0 0 1200 630">
<rect width="1200" height="630" fill="#FAFAF9"/>
<path d="M0,46.5 C301.2,110.9 814.8,85.5 1200,50.7" stroke="#D1CFC9" stroke-width="1.46" fill="none" opacity="0.47"/>
<path d="M0,108.1 C231.9,91.2 851.9,14.6 1200,100.8" stroke="#D1CFC9" stroke-width="1.76" fill="none" opacity="0.57"/>
<path d="M0,122.3 C387.7,135.4 923.7,102.5 1200,125.3" stroke="#D1CFC9" stroke-width="1.02" fill="none" opacity="0.50"/>
<path d="M0,192.9 C368.9,249.6 940.3,228.2 1200,181.6" stroke="#E8E8E6" stroke-width="1.56" fill="none" opacity="0.65"/>
<path d="M0,174.1 C245.2,286.5 911.8,196.4 1200,200.5" stroke="#D1CFC9" stroke-width="0.84" fill="none" opacity="0.53"/>
<path d="M0,219.6 C254.3,307.4 974.8,235.3 1200,257.0" stroke="#E8E8E6" stroke-width="1.71" fill="none" opacity="0.73"/>
<path d="M0,277.5 C323.8,296.4 860.2,284.9 1200,255.0" stroke="#D1CFC9" stroke-width="1.33" fill="none" opacity="0.44"/>
<path d="M0,287.3 C385.3,281.1 984.3,235.5 1200,325.7" stroke="#D1CFC9" stroke-width="1.42" fill="none" opacity="0.41"/>
<path d="M0,381.1 C379.8,300.9 818.8,397.1 1200,331.6" stroke="#D1CFC9" stroke-width="1.63" fill="none" opacity="0.69"/>
<path d="M0,387.2 C267.7,447.2 906.7,352.3 1200,410.9" stroke="#D1CFC9" stroke-width="0.94" fill="none" opacity="0.73"/>
<path d="M0,401.9 C213.4,362.4 804.0,416.8 1200,430.1" stroke="#E8E8E6" stroke-width="1.33" fill="none" opacity="0.42"/>
<path d="M0,471.5 C368.9,466.2 889.2,497.9 1200,447.0" stroke="#D1CFC9" stroke-width="1.59" fill="none" opacity="0.67"/>
<path d="M0,529.8 C268.4,431.1 898.9,488.2 1200,474.5" stroke="#D1CFC9" stroke-width="1.34" fill="none" opacity="0.51"/>
<path d="M0,519.7 C248.7,558.0 895.2,497.1 1200,556.2" stroke="#D1CFC9" stroke-width="1.65" fill="none" opacity="0.55"/>
<path d="M0,570.9 C211.1,592.3 835.6,608.3 1200,591.7" stroke="#D1CFC9" stroke-width="1.60" fill="none" opacity="0.66"/>
<line x1="0" y1="610" x2="0" y2="599.1" stroke="#D1CFC9" stroke-width="0.8" opacity="0.5"/>
<line x1="100" y1="610" x2="100" y2="601.6" stroke="#D1CFC9" stroke-width="0.8" opacity="0.5"/>
<line x1="200" y1="610" x2="200" y2="600.3" stroke="#D1CFC9" stroke-width="0.8" opacity="0.5"/>
<line x1="300" y1="610" x2="300" y2="601.0" stroke="#D1CFC9" stroke-width="0.8" opacity="0.5"/>
<line x1="400" y1="610" x2="400" y2="598.3" stroke="#D1CFC9" stroke-width="0.8" opacity="0.5"/>
<line x1="500" y1="610" x2="500" y2="599.2" stroke="#D1CFC9" stroke-width="0.8" opacity="0.5"/>
<line x1="600" y1="610" x2="600" y2="599.5" stroke="#D1CFC9" stroke-width="0.8" opacity="0.5"/>
<line x1="700" y1="610" x2="700" y2="601.7" stroke="#D1CFC9" stroke-width="0.8" opacity="0.5"/>
<line x1="800" y1="610" x2="800" y2="604.1" stroke="#D1CFC9" stroke-width="0.8" opacity="0.5"/>
<line x1="900" y1="610" x2="900" y2="600.7" stroke="#D1CFC9" stroke-width="0.8" opacity="0.5"/>
<line x1="1000" y1="610" x2="1000" y2="605.9" stroke="#D1CFC9" stroke-width="0.8" opacity="0.5"/>
<line x1="1100" y1="610" x2="1100" y2="600.7" stroke="#D1CFC9" stroke-width="0.8" opacity="0.5"/>
<line x1="1200" y1="610" x2="1200" y2="605.9" stroke="#D1CFC9" stroke-width="0.8" opacity="0.5"/>
<line x1="240.9" y1="124.3" x2="559.3" y2="419.4" stroke="#D1CFC9" stroke-width="1" opacity="0.3"/>
</svg>