<svg xmlns="http://www.w3.org/2000/svg" width="1200" height="630" viewBox="0 0 1200 630">
<rect width="1200" height="630" fill="#FAFAF9"/>
<path d="M0,21.2 C341.8,109.1 818.9,120.8 1200,60.9" stroke="#E8E8E6" stroke-width="1.73" fill="none" opacity="0.72"/>
<path d="M0,85.9 C244.4,100.7 960.1,151.5 1200,64.4" stroke="#D1CFC9" stroke-width="1.07" fill="none" opacity="0.51"/>
<path d="M0,136.0 C304.9,153.2 855.1,81.7 1200,120.0" stroke="#D1CFC9" stroke-width="1.40" fill="none" opacity="0.45"/>
<path d="M0,176.7 C381.2,108.7 933.6,99.7 1200,192.8" stroke="#D1CFC9" stroke-width="1.67" fill="none" opacity="0.56"/>
<path d="M0,202.7 C236.7,185.9 858.0,129.9 1200,184.8" stroke="#E8E8E6" stroke-width="1.51" fill="none" opacity="0.69"/>
<path d="M0,236.5 C269.0,177.9 930.8,297.0 1200,256.6" stroke="#D1CFC9" stroke-width="1.70" fill="none" opacity="0.66"/>
<path d="M0,248.6 C230.5,293.6 840.4,231.6 1200,301.6" stroke="#D1CFC9" stroke-width="1.38" fill="none" opacity="0.60"/>
<path d="M0,340.3 C249.5,348.2 952.1,244.2 1200,315.4" stroke="#E8E8E6" stroke-width="1.56" fill="none" opacity="0.50"/>
<path d="M0,356.2 C340.6,356.1 924.1,346.8 1200,354.5" stroke="#D1CFC9" stroke-width="1.73" fill="none" opacity="0.75"/>
<path d="M0,397.4 C335.4,422.4 809.8,436.8 1200,361.3" stroke="#D1CFC9" stroke-width="1.76" fill="none" opacity="0.60"/>
<path d="M0,448.2 C334.0,402.6 972.2,368.0 1200,456.1" stroke="#D1CFC9" stroke-width="1.59" fill="none" opacity="0.62"/>
<path d="M0,445.3 C210.1,380.2 826.7,399.7 1200,469.6" stroke="#E8E8E6" stroke-width="0.96" fill="none" opacity="0.71"/>
<path d="M0,513.1 C355.6,584.5 973.2,578.2 1200,497.4" stroke="#D1CFC9" stroke-width="0.99" fill="none" opacity="0.45"/>
<path d="M0,566.5 C218.5,489.3 961.5,487.4 1200,565.3" stroke="#D1CFC9" stroke-width="1.76" fill="none" opacity="0.44"/>
<path d="M0,601.8 C307.0,646.4 885.6,587.1 1200,570.3" stroke="#E8E8E6" stroke-width="1.70" fill="none" opacity="0.63"/>
<line x1="0" y1="610" x2="0" y2="601.2" stroke="#D1CFC9" stroke-width="0.8" opacity="0.5"/>
<line x1="100" y1="610" x2="100" y2="603.3" stroke="#D1CFC9" stroke-width="0.8" opacity="0.5"/>
<line x1="200" y1="610" x2="200" y2="598.3" stroke="#D1CFC9" stroke-width="0.8" opacity="0.5"/>
<line x1="300" y1="610" x2="300" y2="605.2" stroke="#D1CFC9" stroke-width="0.8" opacity="0.5"/>
<line x1="400" y1="610" x2="400" y2="599.0" stroke="#D1CFC9" stroke-width="0.8" opacity="0.5"/>
<line x1="500" y1="610" x2="500" y2="602.3" stroke="#D1CFC9" stroke-width="0.8" opacity="0.5"/>
<line x1="600" y1="610" x2="600" y2="598.6" stroke="#D1CFC9" stroke-width="0.8" opacity="0.5"/>
<line x1="700" y1="610" x2="700" y2="602.7" stroke="#D1CFC9" stroke-width="0.8" opacity="0.5"/>
<line x1="800" y1="610" x2="800" y2="605.7" stroke="#D1CFC9" stroke-width="0.8" opacity="0.5"/>
<line x1="900" y1="610" x2="900" y2="598.1" stroke="#D1CFC9" stroke-width="0.8" opacity="0.5"/>
<line x1="1000" y1="610" x2="1000" y2="601.1" stroke="#D1CFC9" stroke-width="0.8" opacity="0.5"/>
<line x1="1100" y1="610" x2="1100" y2="604.8" stroke="#D1CFC9" stroke-width="0.8" opacity="0.5"/>
<line x1="1200" y1="610" x2="1200" y2="605.0" stroke="#D1CFC9" stroke-width="0.8" opacity="0.5"/>
<line x1="204.8" y1="130.3" x2="509.1" y2="409.8" stroke="#D1CFC9" stroke-width="1" opacity="0.3"/>
</svg>