<svg xmlns="http://www.w3.org/2000/svg" width="1200" height="630" viewBox="0 0 1200 630">
<rect width="1200" height="630" fill="#FAFAF9"/>
<line x1="0" y1="80" x2="1200" y2="80" stroke="#E8E8E6" stroke-width="0.8" opacity="0.6"/>
<line x1="0" y1="160" x2="1200" y2="160" stroke="#E8E8E6" stroke-width="0.8" opacity="0.6"/>
<line x1="0" y1="240" x2="1200" y2="240" stroke="#E8E8E6" stroke-width="0.8" opacity="0.6"/>
<line x1="0" y1="320" x2="1200" y2="320" stroke="#E8E8E6" stroke-width="0.8" opacity="0.6"/>
<line x1="0" y1="400" x2="1200" y2="400" stroke="#E8E8E6" stroke-width="0.8" opacity="0.6"/>
<line x1="0" y1="480" x2="1200" y2="480" stroke="#E8E8E6" stroke-width="0.8" opacity="0.6"/>
<line x1="0" y1="560" x2="1200" y2="560" stroke="#E8E8E6" stroke-width="0.8" opacity="0.6"/>
<path d="M150,88.8566498050598 C210,51.165023387215335 240,77.34829810479383 300,72.92691744792435" stroke="#D1CFC9" stroke-width="0.8" fill="none" opacity="0.34"/>
<path d="M150,88.8566498050598 C210,114.76422908966528 240,184.9601834572293 300,192.6915803408929" stroke="#D1CFC9" stroke-width="0.8" fill="none" opacity="0.44"/>
<path d="M150,88.8566498050598 C210,90.21312086521952 240,412.6079948359653 300,433.7471724370837" stroke="#D1CFC9" stroke-width="0.8" fill="none" opacity="0.27"/>
<path d="M150,222.10475057389232 C210,190.826352986001 240,97.0639904544372 300,72.92691744792435" stroke="#D1CFC9" stroke-width="0.8" fill="none" opacity="0.30"/>
<path d="M150,222.10475057389232 C210,190.29040068604294 240,532.9039603860359 300,534.7687674054803" stroke="#D1CFC9" stroke-width="0.8" fill="none" opacity="0.35"/>
<path d="M150,311.86689687656866 C210,293.6559100848753 240,208.77913039056097 300,192.6915803408929" stroke="#D1CFC9" stroke-width="0.8" fill="none" opacity="0.32"/>
<path d="M150,311.86689687656866 C210,325.30918982888323 240,270.17119477087897 300,258.6300172402128" stroke="#D1CFC9" stroke-width="0.8" fill="none" opacity="0.44"/>
<path d="M150,311.86689687656866 C210,346.75918977352774 240,426.4378963742493 300,433.7471724370837" stroke="#D1CFC9" stroke-width="0.8" fill="none" opacity="0.42"/>
<path d="M150,311.86689687656866 C210,282.72987322898814 240,529.3630062796555 300,534.7687674054803" stroke="#D1CFC9" stroke-width="0.8" fill="none" opacity="0.34"/>
<path d="M150,412.5494854127871 C210,417.890870243984 240,80.38093122755663 300,72.92691744792435" stroke="#D1CFC9" stroke-width="0.8" fill="none" opacity="0.28"/>
<path d="M150,412.5494854127871 C210,422.95565132982 240,174.88053233383235 300,192.6915803408929" stroke="#D1CFC9" stroke-width="0.8" fill="none" opacity="0.26"/>
<path d="M150,412.5494854127871 C210,406.1080795021514 240,349.54067482881726 300,371.84164359090886" stroke="#D1CFC9" stroke-width="0.8" fill="none" opacity="0.30"/>
<path d="M150,521.6320792393834 C210,530.4567967090888 240,94.63969459259874 300,72.92691744792435" stroke="#D1CFC9" stroke-width="0.8" fill="none" opacity="0.45"/>
<path d="M150,521.6320792393834 C210,490.25988150533755 240,164.14041179002737 300,192.6915803408929" stroke="#D1CFC9" stroke-width="0.8" fill="none" opacity="0.26"/>
<path d="M300,72.92691744792435 C420,96.65852017250343 480,136.57589274471997 600,111.69002426222201" stroke="#D1CFC9" stroke-width="0.8" fill="none" opacity="0.27"/>
<path d="M300,72.92691744792435 C420,53.82145656687706 480,231.06920330274596 600,209.4648884321714" stroke="#D1CFC9" stroke-width="0.8" fill="none" opacity="0.30"/>
<path d="M300,72.92691744792435 C420,109.40883574853856 480,382.36430212840537 600,418.449175189121" stroke="#D1CFC9" stroke-width="0.8" fill="none" opacity="0.36"/>
<path d="M300,192.6915803408929 C420,184.41648342889187 480,104.87571848763054 600,111.69002426222201" stroke="#D1CFC9" stroke-width="0.8" fill="none" opacity="0.34"/>
<path d="M300,192.6915803408929 C420,207.20616685068376 480,200.43940866073578 600,209.4648884321714" stroke="#D1CFC9" stroke-width="0.8" fill="none" opacity="0.36"/>
<path d="M300,192.6915803408929 C420,201.45709985575104 480,296.45950144120945 600,331.22249355381877" stroke="#D1CFC9" stroke-width="0.8" fill="none" opacity="0.32"/>
<path d="M300,192.6915803408929 C420,228.87309791866528 480,437.8512302727558 600,418.449175189121" stroke="#D1CFC9" stroke-width="0.8" fill="none" opacity="0.41"/>
<path d="M300,258.6300172402128 C420,269.70517544581213 480,521.4326904540492 600,504.8548716932663" stroke="#D1CFC9" stroke-width="0.8" fill="none" opacity="0.28"/>
<path d="M300,371.84164359090886 C420,352.62719690208957 480,83.69269963067322 600,111.69002426222201" stroke="#D1CFC9" stroke-width="0.8" fill="none" opacity="0.38"/>
<path d="M300,371.84164359090886 C420,395.75615801330565 480,215.44449605104617 600,209.4648884321714" stroke="#D1CFC9" stroke-width="0.8" fill="none" opacity="0.41"/>
<path d="M300,371.84164359090886 C420,400.91111079391817 480,324.9772523778903 600,331.22249355381877" stroke="#D1CFC9" stroke-width="0.8" fill="none" opacity="0.40"/>
<path d="M300,371.84164359090886 C420,391.14436619289785 480,381.65070582149804 600,418.449175189121" stroke="#D1CFC9" stroke-width="0.8" fill="none" opacity="0.27"/>
<path d="M300,371.84164359090886 C420,356.75097196799493 480,523.5475250164857 600,504.8548716932663" stroke="#D1CFC9" stroke-width="0.8" fill="none" opacity="0.37"/>
<path d="M300,433.7471724370837 C420,395.0475534682738 480,225.0857640644735 600,209.4648884321714" stroke="#D1CFC9" stroke-width="0.8" fill="none" opacity="0.34"/>
<path d="M300,433.7471724370837 C420,401.93448615212327 480,385.6929662829947 600,418.449175189121" stroke="#D1CFC9" stroke-width="0.8" fill="none" opacity="0.38"/>
<path d="M300,534.7687674054803 C420,497.94548212828704 480,131.6482108728141 600,111.69002426222201" stroke="#D1CFC9" stroke-width="0.8" fill="none" opacity="0.45"/>
<path d="M300,534.7687674054803 C420,542.690176054996 480,292.82169442503283 600,331.22249355381877" stroke="#D1CFC9" stroke-width="0.8" fill="none" opacity="0.27"/>
<path d="M600,111.69002426222201 C720,124.13303720488517 780,58.05766970386208 900,93.07416988887688" stroke="#D1CFC9" stroke-width="0.8" fill="none" opacity="0.40"/>
<path d="M600,111.69002426222201 C720,100.73853517061532 780,232.10037256709776 900,200.60639917235972" stroke="#D1CFC9" stroke-width="0.8" fill="none" opacity="0.26"/>
<path d="M600,111.69002426222201 C720,115.32901233512187 780,526.4638054493032 900,520.9732363575541" stroke="#D1CFC9" stroke-width="0.8" fill="none" opacity="0.37"/>
<path d="M600,209.4648884321714 C720,195.12446039871415 780,538.8763393612757 900,520.9732363575541" stroke="#D1CFC9" stroke-width="0.8" fill="none" opacity="0.40"/>
<path d="M600,331.22249355381877 C720,360.6034812849489 780,168.06810754841848 900,200.60639917235972" stroke="#D1CFC9" stroke-width="0.8" fill="none" opacity="0.40"/>
<path d="M600,331.22249355381877 C720,355.3896061837183 780,314.34633366631954 900,332.3354804078898" stroke="#D1CFC9" stroke-width="0.8" fill="none" opacity="0.34"/>
<path d="M600,331.22249355381877 C720,334.16468490757154 780,438.6894521083891 900,428.7575512602361" stroke="#D1CFC9" stroke-width="0.8" fill="none" opacity="0.34"/>
<path d="M600,418.449175189121 C720,438.9569586086918 780,70.13261892649638 900,93.07416988887688" stroke="#D1CFC9" stroke-width="0.8" fill="none" opacity="0.43"/>
<path d="M600,418.449175189121 C720,449.9462554200893 780,216.93558069642998 900,200.60639917235972" stroke="#D1CFC9" stroke-width="0.8" fill="none" opacity="0.42"/>
<path d="M600,418.449175189121 C720,423.93573175206217 780,301.7662194887563 900,332.3354804078898" stroke="#D1CFC9" stroke-width="0.8" fill="none" opacity="0.35"/>
<path d="M600,418.449175189121 C720,423.2085030060747 780,467.7601574209426 900,428.7575512602361" stroke="#D1CFC9" stroke-width="0.8" fill="none" opacity="0.43"/>
<path d="M600,504.8548716932663 C720,532.4246978984272 780,56.89756630428544 900,93.07416988887688" stroke="#D1CFC9" stroke-width="0.8" fill="none" opacity="0.44"/>
<path d="M600,504.8548716932663 C720,468.39173015961234 780,396.980312975119 900,428.7575512602361" stroke="#D1CFC9" stroke-width="0.8" fill="none" opacity="0.38"/>
<path d="M900,93.07416988887688 C960,80.72178053733003 990,132.1114669675267 1050,94.12212754928557" stroke="#D1CFC9" stroke-width="0.8" fill="none" opacity="0.31"/>
<path d="M900,93.07416988887688 C960,118.82278123889648 990,303.57962342248754 1050,277.41227523084086" stroke="#D1CFC9" stroke-width="0.8" fill="none" opacity="0.31"/>
<path d="M900,93.07416988887688 C960,96.5787832575335 990,386.2169348365201 1050,370.7808941390321" stroke="#D1CFC9" stroke-width="0.8" fill="none" opacity="0.39"/>
<path d="M900,93.07416988887688 C960,120.56932741835931 990,442.7428743249604 1050,446.7968326729715" stroke="#D1CFC9" stroke-width="0.8" fill="none" opacity="0.41"/>
<path d="M900,200.60639917235972 C960,210.33433266527354 990,101.48558559396434 1050,94.12212754928557" stroke="#D1CFC9" stroke-width="0.8" fill="none" opacity="0.45"/>
<path d="M900,200.60639917235972 C960,222.49784036434673 990,267.4238190556466 1050,277.41227523084086" stroke="#D1CFC9" stroke-width="0.8" fill="none" opacity="0.31"/>
<path d="M900,200.60639917235972 C960,167.30280335533965 990,437.8523499699897 1050,446.7968326729715" stroke="#D1CFC9" stroke-width="0.8" fill="none" opacity="0.41"/>
<path d="M900,200.60639917235972 C960,198.8234946531764 990,555.755980041287 1050,546.0301469229232" stroke="#D1CFC9" stroke-width="0.8" fill="none" opacity="0.43"/>
<path d="M900,332.3354804078898 C960,304.2065813169364 990,132.49086673615753 1050,169.36939875766853" stroke="#D1CFC9" stroke-width="0.8" fill="none" opacity="0.30"/>
<path d="M900,332.3354804078898 C960,333.8084485972785 990,248.65708240230038 1050,277.41227523084086" stroke="#D1CFC9" stroke-width="0.8" fill="none" opacity="0.25"/>
<path d="M900,332.3354804078898 C960,319.5252880080429 990,460.1673778752255 1050,446.7968326729715" stroke="#D1CFC9" stroke-width="0.8" fill="none" opacity="0.41"/>
<path d="M900,428.7575512602361 C960,460.5017785000386 990,208.0733642648145 1050,169.36939875766853" stroke="#D1CFC9" stroke-width="0.8" fill="none" opacity="0.29"/>
<path d="M900,428.7575512602361 C960,394.30636479084063 990,315.13759214969764 1050,277.41227523084086" stroke="#D1CFC9" stroke-width="0.8" fill="none" opacity="0.43"/>
<path d="M900,428.7575512602361 C960,440.0879896215834 990,423.57579886530897 1050,446.7968326729715" stroke="#D1CFC9" stroke-width="0.8" fill="none" opacity="0.42"/>
<path d="M900,520.9732363575541 C960,502.14572296201845 990,201.5119271817412 1050,169.36939875766853" stroke="#D1CFC9" stroke-width="0.8" fill="none" opacity="0.30"/>
<path d="M900,520.9732363575541 C960,538.9144354464753 990,270.6887442382725 1050,277.41227523084086" stroke="#D1CFC9" stroke-width="0.8" fill="none" opacity="0.28"/>
<path d="M900,520.9732363575541 C960,497.24231547285854 990,474.5903674779903 1050,446.7968326729715" stroke="#D1CFC9" stroke-width="0.8" fill="none" opacity="0.38"/>
<path d="M900,520.9732363575541 C960,485.66333158213257 990,585.6674585080863 1050,546.0301469229232" stroke="#D1CFC9" stroke-width="0.8" fill="none" opacity="0.44"/>
<circle cx="150.0" cy="88.9" r="6.4" fill="#D1CFC9" opacity="0.8"/>
<circle cx="150.0" cy="222.1" r="6.2" fill="#D1CFC9" opacity="0.8"/>
<circle cx="150.0" cy="311.9" r="4.0" fill="#D1CFC9" opacity="0.8"/>
<circle cx="150.0" cy="412.5" r="4.9" fill="#D1CFC9" opacity="0.8"/>
<circle cx="150.0" cy="521.6" r="6.5" fill="#D1CFC9" opacity="0.8"/>
<circle cx="300.0" cy="72.9" r="6.8" fill="#D1CFC9" opacity="0.8"/>
<circle cx="300.0" cy="192.7" r="6.6" fill="#D1CFC9" opacity="0.8"/>
<circle cx="300.0" cy="258.6" r="4.2" fill="#D1CFC9" opacity="0.8"/>
<circle cx="300.0" cy="371.8" r="5.5" fill="#D1CFC9" opacity="0.8"/>
<circle cx="300.0" cy="433.7" r="6.7" fill="#D1CFC9" opacity="0.8"/>
<circle cx="300.0" cy="534.8" r="4.8" fill="#D1CFC9" opacity="0.8"/>
<circle cx="600.0" cy="111.7" r="6.3" fill="#D1CFC9" opacity="0.8"/>
<circle cx="600.0" cy="209.5" r="5.3" fill="#D1CFC9" opacity="0.8"/>
<circle cx="600.0" cy="331.2" r="4.8" fill="#D1CFC9" opacity="0.8"/>
<circle cx="600.0" cy="418.4" r="4.4" fill="#D1CFC9" opacity="0.8"/>
<circle cx="600.0" cy="504.9" r="4.4" fill="#D1CFC9" opacity="0.8"/>
<circle cx="900.0" cy="93.1" r="5.9" fill="#D1CFC9" opacity="0.8"/>
<circle cx="900.0" cy="200.6" r="6.4" fill="#D1CFC9" opacity="0.8"/>
<circle cx="900.0" cy="332.3" r="6.0" fill="#D1CFC9" opacity="0.8"/>
<circle cx="900.0" cy="428.8" r="4.1" fill="#D1CFC9" opacity="0.8"/>
<circle cx="900.0" cy="521.0" r="6.6" fill="#D1CFC9" opacity="0.8"/>
<circle cx="1050.0" cy="94.1" r="6.2" fill="#D1CFC9" opacity="0.8"/>
<circle cx="1050.0" cy="169.4" r="6.1" fill="#D1CFC9" opacity="0.8"/>
<circle cx="1050.0" cy="277.4" r="6.0" fill="#D1CFC9" opacity="0.8"/>
<circle cx="1050.0" cy="370.8" r="6.5" fill="#D1CFC9" opacity="0.8"/>
<circle cx="1050.0" cy="446.8" r="5.5" fill="#D1CFC9" opacity="0.8"/>
<circle cx="1050.0" cy="546.0" r="5.4" fill="#D1CFC9" opacity="0.8"/>
<circle cx="1056.2" cy="351.2" r="10.1" fill="none" stroke="#1A1A1A" stroke-width="1" opacity="0.15"/>
<circle cx="886.6" cy="514.3" r="15.3" fill="none" stroke="#1A1A1A" stroke-width="1" opacity="0.15"/>
<circle cx="619.5" cy="321.7" r="12.8" fill="none" stroke="#1A1A1A" stroke-width="1" opacity="0.15"/>
<circle cx="144.8" cy="172.0" r="16.6" fill="none" stroke="#1A1A1A" stroke-width="1" opacity="0.15"/>
</svg>