<svg xmlns="http://www.w3.org/2000/svg" width="1200" height="630" viewBox="0 0 1200 630">
<rect width="1200" height="630" fill="#FAFAF9"/>
<path d="M0,64.9 C257.8,105.9 804.1,53.5 1200,72.0" stroke="#D1CFC9" stroke-width="1.46" fill="none" opacity="0.60"/>
<path d="M0,64.3 C261.8,119.0 855.7,92.4 1200,101.7" stroke="#D1CFC9" stroke-width="0.89" fill="none" opacity="0.47"/>
<path d="M0,139.8 C350.9,110.9 876.1,122.9 1200,148.3" stroke="#D1CFC9" stroke-width="1.15" fill="none" opacity="0.64"/>
<path d="M0,158.6 C301.9,213.1 931.5,187.3 1200,190.3" stroke="#D1CFC9" stroke-width="1.09" fill="none" opacity="0.73"/>
<path d="M0,176.8 C399.7,185.0 989.6,177.1 1200,222.1" stroke="#D1CFC9" stroke-width="1.72" fill="none" opacity="0.66"/>
<path d="M0,251.2 C324.6,276.4 952.3,313.3 1200,217.3" stroke="#D1CFC9" stroke-width="1.72" fill="none" opacity="0.63"/>
<path d="M0,248.5 C299.6,340.8 952.4,229.3 1200,290.3" stroke="#D1CFC9" stroke-width="1.18" fill="none" opacity="0.71"/>
<path d="M0,322.4 C318.6,249.7 862.5,235.0 1200,321.4" stroke="#D1CFC9" stroke-width="1.22" fill="none" opacity="0.70"/>
<path d="M0,354.7 C344.3,382.4 836.2,375.6 1200,334.9" stroke="#E8E8E6" stroke-width="1.58" fill="none" opacity="0.45"/>
<path d="M0,375.7 C298.6,462.7 892.5,431.8 1200,393.1" stroke="#E8E8E6" stroke-width="1.78" fill="none" opacity="0.60"/>
<path d="M0,422.9 C221.3,417.9 872.3,439.0 1200,447.1" stroke="#D1CFC9" stroke-width="1.23" fill="none" opacity="0.69"/>
<path d="M0,466.2 C200.1,459.6 849.8,526.8 1200,438.9" stroke="#D1CFC9" stroke-width="1.21" fill="none" opacity="0.68"/>
<path d="M0,486.6 C260.5,529.8 992.3,547.6 1200,483.2" stroke="#D1CFC9" stroke-width="1.61" fill="none" opacity="0.69"/>
<path d="M0,565.7 C254.2,528.8 969.8,595.7 1200,565.6" stroke="#D1CFC9" stroke-width="0.87" fill="none" opacity="0.69"/>
<path d="M0,565.0 C316.7,612.6 865.2,490.5 1200,554.8" stroke="#D1CFC9" stroke-width="1.34" fill="none" opacity="0.55"/>
<line x1="0" y1="610" x2="0" y2="601.4" stroke="#D1CFC9" stroke-width="0.8" opacity="0.5"/>
<line x1="100" y1="610" x2="100" y2="599.5" stroke="#D1CFC9" stroke-width="0.8" opacity="0.5"/>
<line x1="200" y1="610" x2="200" y2="604.3" stroke="#D1CFC9" stroke-width="0.8" opacity="0.5"/>
<line x1="300" y1="610" x2="300" y2="604.5" stroke="#D1CFC9" stroke-width="0.8" opacity="0.5"/>
<line x1="400" y1="610" x2="400" y2="601.1" stroke="#D1CFC9" stroke-width="0.8" opacity="0.5"/>
<line x1="500" y1="610" x2="500" y2="600.0" stroke="#D1CFC9" stroke-width="0.8" opacity="0.5"/>
<line x1="600" y1="610" x2="600" y2="599.9" stroke="#D1CFC9" stroke-width="0.8" opacity="0.5"/>
<line x1="700" y1="610" x2="700" y2="599.7" stroke="#D1CFC9" stroke-width="0.8" opacity="0.5"/>
<line x1="800" y1="610" x2="800" y2="599.0" stroke="#D1CFC9" stroke-width="0.8" opacity="0.5"/>
<line x1="900" y1="610" x2="900" y2="605.9" stroke="#D1CFC9" stroke-width="0.8" opacity="0.5"/>
<line x1="1000" y1="610" x2="1000" y2="600.8" stroke="#D1CFC9" stroke-width="0.8" opacity="0.5"/>
<line x1="1100" y1="610" x2="1100" y2="598.7" stroke="#D1CFC9" stroke-width="0.8" opacity="0.5"/>
<line x1="1200" y1="610" x2="1200" y2="605.2" stroke="#D1CFC9" stroke-width="0.8" opacity="0.5"/>
<line x1="309.5" y1="101.3" x2="725.1" y2="384.2" stroke="#D1CFC9" stroke-width="1" opacity="0.3"/>
</svg>