<svg xmlns="http://www.w3.org/2000/svg" width="1200" height="630" viewBox="0 0 1200 630">
<rect width="1200" height="630" fill="#FAFAF9"/>
<path d="M0,37.6 C243.0,-12.0 946.7,15.6 1200,79.7" stroke="#D1CFC9" stroke-width="0.99" fill="none" opacity="0.49"/>
<path d="M0,83.3 C274.4,39.9 979.2,156.3 1200,97.0" stroke="#D1CFC9" stroke-width="1.79" fill="none" opacity="0.51"/>
<path d="M0,106.7 C354.2,36.7 845.0,200.3 1200,104.9" stroke="#D1CFC9" stroke-width="1.65" fill="none" opacity="0.42"/>
<path d="M0,181.5 C261.6,157.4 930.6,169.4 1200,190.0" stroke="#E8E8E6" stroke-width="0.81" fill="none" opacity="0.72"/>
<path d="M0,192.6 C337.6,284.1 985.7,222.3 1200,177.9" stroke="#E8E8E6" stroke-width="1.27" fill="none" opacity="0.54"/>
<path d="M0,218.7 C365.4,199.8 873.3,242.9 1200,261.8" stroke="#D1CFC9" stroke-width="1.28" fill="none" opacity="0.66"/>
<path d="M0,282.4 C249.1,225.2 866.2,329.5 1200,266.8" stroke="#D1CFC9" stroke-width="1.49" fill="none" opacity="0.54"/>
<path d="M0,297.0 C287.8,387.3 948.9,333.5 1200,342.8" stroke="#D1CFC9" stroke-width="0.93" fill="none" opacity="0.43"/>
<path d="M0,353.1 C271.1,391.1 977.8,406.8 1200,351.2" stroke="#D1CFC9" stroke-width="0.90" fill="none" opacity="0.42"/>
<path d="M0,388.6 C319.4,437.8 877.8,343.3 1200,405.0" stroke="#E8E8E6" stroke-width="1.62" fill="none" opacity="0.48"/>
<path d="M0,410.7 C260.5,455.2 802.9,431.1 1200,425.7" stroke="#E8E8E6" stroke-width="1.28" fill="none" opacity="0.58"/>
<path d="M0,479.0 C273.8,401.4 989.0,469.9 1200,454.9" stroke="#D1CFC9" stroke-width="1.41" fill="none" opacity="0.69"/>
<path d="M0,478.4 C257.1,467.2 816.3,548.7 1200,506.3" stroke="#D1CFC9" stroke-width="0.91" fill="none" opacity="0.45"/>
<path d="M0,536.1 C352.2,536.4 832.5,592.8 1200,519.9" stroke="#E8E8E6" stroke-width="1.74" fill="none" opacity="0.56"/>
<path d="M0,597.0 C225.0,510.6 895.7,652.5 1200,593.3" stroke="#D1CFC9" stroke-width="0.95" fill="none" opacity="0.51"/>
<line x1="0" y1="610" x2="0" y2="602.7" stroke="#D1CFC9" stroke-width="0.8" opacity="0.5"/>
<line x1="100" y1="610" x2="100" y2="598.9" stroke="#D1CFC9" stroke-width="0.8" opacity="0.5"/>
<line x1="200" y1="610" x2="200" y2="598.8" stroke="#D1CFC9" stroke-width="0.8" opacity="0.5"/>
<line x1="300" y1="610" x2="300" y2="602.2" stroke="#D1CFC9" stroke-width="0.8" opacity="0.5"/>
<line x1="400" y1="610" x2="400" y2="601.1" stroke="#D1CFC9" stroke-width="0.8" opacity="0.5"/>
<line x1="500" y1="610" x2="500" y2="599.9" stroke="#D1CFC9" stroke-width="0.8" opacity="0.5"/>
<line x1="600" y1="610" x2="600" y2="600.9" stroke="#D1CFC9" stroke-width="0.8" opacity="0.5"/>
<line x1="700" y1="610" x2="700" y2="603.8" stroke="#D1CFC9" stroke-width="0.8" opacity="0.5"/>
<line x1="800" y1="610" x2="800" y2="599.8" stroke="#D1CFC9" stroke-width="0.8" opacity="0.5"/>
<line x1="900" y1="610" x2="900" y2="605.4" stroke="#D1CFC9" stroke-width="0.8" opacity="0.5"/>
<line x1="1000" y1="610" x2="1000" y2="603.0" stroke="#D1CFC9" stroke-width="0.8" opacity="0.5"/>
<line x1="1100" y1="610" x2="1100" y2="600.5" stroke="#D1CFC9" stroke-width="0.8" opacity="0.5"/>
<line x1="1200" y1="610" x2="1200" y2="599.4" stroke="#D1CFC9" stroke-width="0.8" opacity="0.5"/>
<line x1="294.6" y1="115.2" x2="751.0" y2="406.9" stroke="#D1CFC9" stroke-width="1" opacity="0.3"/>
</svg>