<svg xmlns="http://www.w3.org/2000/svg" width="1200" height="630" viewBox="0 0 1200 630">
<rect width="1200" height="630" fill="#FAFAF9"/>
<path d="M0,73.4 C231.7,124.7 996.7,110.9 1200,24.8" stroke="#D1CFC9" stroke-width="0.86" fill="none" opacity="0.59"/>
<path d="M0,75.1 C295.8,85.6 804.4,159.2 1200,97.9" stroke="#D1CFC9" stroke-width="1.01" fill="none" opacity="0.49"/>
<path d="M0,131.6 C256.0,169.5 962.7,140.7 1200,115.5" stroke="#D1CFC9" stroke-width="1.54" fill="none" opacity="0.67"/>
<path d="M0,147.8 C245.2,124.3 980.5,166.4 1200,157.7" stroke="#D1CFC9" stroke-width="1.39" fill="none" opacity="0.64"/>
<path d="M0,182.0 C208.4,202.9 962.5,149.0 1200,213.8" stroke="#D1CFC9" stroke-width="0.99" fill="none" opacity="0.46"/>
<path d="M0,257.1 C226.0,287.0 890.7,217.0 1200,212.7" stroke="#D1CFC9" stroke-width="0.87" fill="none" opacity="0.50"/>
<path d="M0,289.6 C203.1,233.5 869.5,341.0 1200,286.4" stroke="#D1CFC9" stroke-width="1.80" fill="none" opacity="0.58"/>
<path d="M0,319.5 C200.7,287.5 941.7,274.3 1200,311.5" stroke="#D1CFC9" stroke-width="1.76" fill="none" opacity="0.45"/>
<path d="M0,323.7 C290.8,362.4 931.2,290.9 1200,327.0" stroke="#D1CFC9" stroke-width="1.56" fill="none" opacity="0.70"/>
<path d="M0,415.2 C327.4,439.0 962.4,407.2 1200,401.9" stroke="#E8E8E6" stroke-width="1.57" fill="none" opacity="0.68"/>
<path d="M0,414.4 C291.9,494.8 947.1,457.7 1200,415.2" stroke="#D1CFC9" stroke-width="1.55" fill="none" opacity="0.73"/>
<path d="M0,477.0 C232.4,422.3 861.7,432.7 1200,437.5" stroke="#D1CFC9" stroke-width="1.67" fill="none" opacity="0.55"/>
<path d="M0,502.9 C217.9,512.8 885.2,420.1 1200,494.0" stroke="#E8E8E6" stroke-width="0.94" fill="none" opacity="0.62"/>
<path d="M0,552.2 C206.1,621.5 965.7,497.8 1200,518.0" stroke="#E8E8E6" stroke-width="1.49" fill="none" opacity="0.65"/>
<path d="M0,606.6 C324.4,543.1 964.8,571.9 1200,557.3" stroke="#E8E8E6" stroke-width="1.47" fill="none" opacity="0.56"/>
<line x1="0" y1="610" x2="0" y2="598.4" stroke="#D1CFC9" stroke-width="0.8" opacity="0.5"/>
<line x1="100" y1="610" x2="100" y2="600.6" stroke="#D1CFC9" stroke-width="0.8" opacity="0.5"/>
<line x1="200" y1="610" x2="200" y2="599.3" stroke="#D1CFC9" stroke-width="0.8" opacity="0.5"/>
<line x1="300" y1="610" x2="300" y2="603.2" stroke="#D1CFC9" stroke-width="0.8" opacity="0.5"/>
<line x1="400" y1="610" x2="400" y2="600.4" stroke="#D1CFC9" stroke-width="0.8" opacity="0.5"/>
<line x1="500" y1="610" x2="500" y2="605.1" stroke="#D1CFC9" stroke-width="0.8" opacity="0.5"/>
<line x1="600" y1="610" x2="600" y2="598.6" stroke="#D1CFC9" stroke-width="0.8" opacity="0.5"/>
<line x1="700" y1="610" x2="700" y2="599.9" stroke="#D1CFC9" stroke-width="0.8" opacity="0.5"/>
<line x1="800" y1="610" x2="800" y2="604.2" stroke="#D1CFC9" stroke-width="0.8" opacity="0.5"/>
<line x1="900" y1="610" x2="900" y2="599.4" stroke="#D1CFC9" stroke-width="0.8" opacity="0.5"/>
<line x1="1000" y1="610" x2="1000" y2="601.2" stroke="#D1CFC9" stroke-width="0.8" opacity="0.5"/>
<line x1="1100" y1="610" x2="1100" y2="604.1" stroke="#D1CFC9" stroke-width="0.8" opacity="0.5"/>
<line x1="1200" y1="610" x2="1200" y2="602.1" stroke="#D1CFC9" stroke-width="0.8" opacity="0.5"/>
<line x1="236.8" y1="175.5" x2="603.9" y2="407.3" stroke="#D1CFC9" stroke-width="1" opacity="0.3"/>
</svg>