<svg xmlns="http://www.w3.org/2000/svg" width="1200" height="630" viewBox="0 0 1200 630">
<rect width="1200" height="630" fill="#FAFAF9"/>
<line x1="0" y1="80" x2="1200" y2="80" stroke="#E8E8E6" stroke-width="0.8" opacity="0.6"/>
<line x1="0" y1="160" x2="1200" y2="160" stroke="#E8E8E6" stroke-width="0.8" opacity="0.6"/>
<line x1="0" y1="240" x2="1200" y2="240" stroke="#E8E8E6" stroke-width="0.8" opacity="0.6"/>
<line x1="0" y1="320" x2="1200" y2="320" stroke="#E8E8E6" stroke-width="0.8" opacity="0.6"/>
<line x1="0" y1="400" x2="1200" y2="400" stroke="#E8E8E6" stroke-width="0.8" opacity="0.6"/>
<line x1="0" y1="480" x2="1200" y2="480" stroke="#E8E8E6" stroke-width="0.8" opacity="0.6"/>
<line x1="0" y1="560" x2="1200" y2="560" stroke="#E8E8E6" stroke-width="0.8" opacity="0.6"/>
<path d="M150,106.88004141442478 C210,140.5007614529926 240,209.9547667892079 300,222.07566371445444" stroke="#D1CFC9" stroke-width="0.8" fill="none" opacity="0.36"/>
<path d="M150,106.88004141442478 C210,100.72136141916768 240,454.9868702073551 300,432.933652975581" stroke="#D1CFC9" stroke-width="0.8" fill="none" opacity="0.33"/>
<path d="M150,106.88004141442478 C210,79.83767613839304 240,473.7107073105198 300,507.89137798778046" stroke="#D1CFC9" stroke-width="0.8" fill="none" opacity="0.35"/>
<path d="M150,268.4935364414224 C210,249.96702512371516 240,129.9353286204709 300,112.30931954512124" stroke="#D1CFC9" stroke-width="0.8" fill="none" opacity="0.33"/>
<path d="M150,268.4935364414224 C210,265.1462313346439 240,247.91403628813896 300,222.07566371445444" stroke="#D1CFC9" stroke-width="0.8" fill="none" opacity="0.34"/>
<path d="M150,268.4935364414224 C210,254.33835720390508 240,269.7740329163554 300,300.6189398552801" stroke="#D1CFC9" stroke-width="0.8" fill="none" opacity="0.30"/>
<path d="M150,268.4935364414224 C210,258.3685389517733 240,495.31877951820354 300,507.89137798778046" stroke="#D1CFC9" stroke-width="0.8" fill="none" opacity="0.29"/>
<path d="M150,367.74969546621423 C210,359.05401355881565 240,111.25571274227829 300,112.30931954512124" stroke="#D1CFC9" stroke-width="0.8" fill="none" opacity="0.41"/>
<path d="M150,367.74969546621423 C210,356.8547018176072 240,422.5048634450661 300,432.933652975581" stroke="#D1CFC9" stroke-width="0.8" fill="none" opacity="0.34"/>
<path d="M150,480.8967030682826 C210,453.78009961111934 240,106.82022976615006 300,112.30931954512124" stroke="#D1CFC9" stroke-width="0.8" fill="none" opacity="0.38"/>
<path d="M150,480.8967030682826 C210,493.370639627094 240,220.19132076976618 300,222.07566371445444" stroke="#D1CFC9" stroke-width="0.8" fill="none" opacity="0.26"/>
<path d="M150,480.8967030682826 C210,512.6386004929054 240,301.2872943462076 300,300.6189398552801" stroke="#D1CFC9" stroke-width="0.8" fill="none" opacity="0.43"/>
<path d="M150,480.8967030682826 C210,442.92036601214676 240,449.3799420363223 300,432.933652975581" stroke="#D1CFC9" stroke-width="0.8" fill="none" opacity="0.35"/>
<path d="M150,480.8967030682826 C210,447.63514474947823 240,471.4135964544056 300,507.89137798778046" stroke="#D1CFC9" stroke-width="0.8" fill="none" opacity="0.35"/>
<path d="M300,112.30931954512124 C420,123.54621921981365 480,126.0345005805219 600,86.73790235112838" stroke="#D1CFC9" stroke-width="0.8" fill="none" opacity="0.42"/>
<path d="M300,112.30931954512124 C420,118.72975263016525 480,263.0693316502891 600,232.8210012680667" stroke="#D1CFC9" stroke-width="0.8" fill="none" opacity="0.35"/>
<path d="M300,112.30931954512124 C420,130.74033835454387 480,431.63169432888543 600,401.1851473779383" stroke="#D1CFC9" stroke-width="0.8" fill="none" opacity="0.39"/>
<path d="M300,112.30931954512124 C420,129.75068173831113 480,544.1784532509461 600,541.9106575703273" stroke="#D1CFC9" stroke-width="0.8" fill="none" opacity="0.40"/>
<path d="M300,222.07566371445444 C420,249.4662997681802 480,329.0493145652114 600,311.7126662590221" stroke="#D1CFC9" stroke-width="0.8" fill="none" opacity="0.41"/>
<path d="M300,300.6189398552801 C420,301.1737655282891 480,106.81098836981948 600,86.73790235112838" stroke="#D1CFC9" stroke-width="0.8" fill="none" opacity="0.38"/>
<path d="M300,300.6189398552801 C420,322.28564108216335 480,136.8408466773319 600,152.1196300562866" stroke="#D1CFC9" stroke-width="0.8" fill="none" opacity="0.40"/>
<path d="M300,300.6189398552801 C420,298.8320153939612 480,350.14431775777933 600,311.7126662590221" stroke="#D1CFC9" stroke-width="0.8" fill="none" opacity="0.31"/>
<path d="M300,300.6189398552801 C420,265.9872264885314 480,484.5183941947223 600,458.3268242214287" stroke="#D1CFC9" stroke-width="0.8" fill="none" opacity="0.30"/>
<path d="M300,300.6189398552801 C420,270.78161944793106 480,555.0411142575417 600,541.9106575703273" stroke="#D1CFC9" stroke-width="0.8" fill="none" opacity="0.33"/>
<path d="M300,432.933652975581 C420,401.52189413004595 480,47.727647554764445 600,86.73790235112838" stroke="#D1CFC9" stroke-width="0.8" fill="none" opacity="0.34"/>
<path d="M300,432.933652975581 C420,417.95060515705273 480,194.0266079524361 600,232.8210012680667" stroke="#D1CFC9" stroke-width="0.8" fill="none" opacity="0.40"/>
<path d="M300,432.933652975581 C420,397.4291969073073 480,275.8593184816673 600,311.7126662590221" stroke="#D1CFC9" stroke-width="0.8" fill="none" opacity="0.41"/>
<path d="M300,432.933652975581 C420,446.77722231526326 480,427.3048526084294 600,401.1851473779383" stroke="#D1CFC9" stroke-width="0.8" fill="none" opacity="0.25"/>
<path d="M300,432.933652975581 C420,455.9760250083581 480,525.0795213602436 600,541.9106575703273" stroke="#D1CFC9" stroke-width="0.8" fill="none" opacity="0.38"/>
<path d="M300,507.89137798778046 C420,500.678287858767 480,56.763637459781876 600,86.73790235112838" stroke="#D1CFC9" stroke-width="0.8" fill="none" opacity="0.31"/>
<path d="M300,507.89137798778046 C420,503.80004845880904 480,290.29997644714314 600,311.7126662590221" stroke="#D1CFC9" stroke-width="0.8" fill="none" opacity="0.30"/>
<path d="M300,507.89137798778046 C420,534.7598373994138 480,362.4468191038926 600,401.1851473779383" stroke="#D1CFC9" stroke-width="0.8" fill="none" opacity="0.31"/>
<path d="M600,86.73790235112838 C720,93.94678694404355 780,92.16993056532692 900,64.67576653351443" stroke="#D1CFC9" stroke-width="0.8" fill="none" opacity="0.41"/>
<path d="M600,86.73790235112838 C720,98.28529053676996 780,295.3592904462966 900,320.17412486984955" stroke="#D1CFC9" stroke-width="0.8" fill="none" opacity="0.32"/>
<path d="M600,86.73790235112838 C720,76.9036421254053 780,415.6789432506028 900,408.8074179483362" stroke="#D1CFC9" stroke-width="0.8" fill="none" opacity="0.36"/>
<path d="M600,152.1196300562866 C720,159.74179567280035 780,88.76557581342422 900,64.67576653351443" stroke="#D1CFC9" stroke-width="0.8" fill="none" opacity="0.42"/>
<path d="M600,152.1196300562866 C720,159.55741682527758 780,164.3716564833004 900,163.48294855659663" stroke="#D1CFC9" stroke-width="0.8" fill="none" opacity="0.39"/>
<path d="M600,152.1196300562866 C720,137.03984661872727 780,302.52350136725545 900,320.17412486984955" stroke="#D1CFC9" stroke-width="0.8" fill="none" opacity="0.44"/>
<path d="M600,152.1196300562866 C720,133.127134952782 780,384.77255323582153 900,408.8074179483362" stroke="#D1CFC9" stroke-width="0.8" fill="none" opacity="0.41"/>
<path d="M600,152.1196300562866 C720,144.84367787001972 780,449.23545909835616 900,474.67554943087174" stroke="#D1CFC9" stroke-width="0.8" fill="none" opacity="0.43"/>
<path d="M600,232.8210012680667 C720,263.6394276328244 780,44.67855679923169 900,64.67576653351443" stroke="#D1CFC9" stroke-width="0.8" fill="none" opacity="0.36"/>
<path d="M600,232.8210012680667 C720,197.09608373059802 780,124.00267447921277 900,163.48294855659663" stroke="#D1CFC9" stroke-width="0.8" fill="none" opacity="0.44"/>
<path d="M600,232.8210012680667 C720,234.41011804852405 780,343.6524355143547 900,320.17412486984955" stroke="#D1CFC9" stroke-width="0.8" fill="none" opacity="0.38"/>
<path d="M600,232.8210012680667 C720,245.1497860440635 780,464.0199731303775 900,474.67554943087174" stroke="#D1CFC9" stroke-width="0.8" fill="none" opacity="0.41"/>
<path d="M600,232.8210012680667 C720,241.77196795057318 780,551.0802315308433 900,544.3965656520791" stroke="#D1CFC9" stroke-width="0.8" fill="none" opacity="0.42"/>
<path d="M600,311.7126662590221 C720,295.4099434230383 780,33.82345451841211 900,64.67576653351443" stroke="#D1CFC9" stroke-width="0.8" fill="none" opacity="0.29"/>
<path d="M600,311.7126662590221 C720,273.0569178547726 780,319.44645835568576 900,320.17412486984955" stroke="#D1CFC9" stroke-width="0.8" fill="none" opacity="0.35"/>
<path d="M600,311.7126662590221 C720,289.67543706051663 780,428.75425197888495 900,408.8074179483362" stroke="#D1CFC9" stroke-width="0.8" fill="none" opacity="0.41"/>
<path d="M600,311.7126662590221 C720,320.1293263444396 780,544.3919190322961 900,544.3965656520791" stroke="#D1CFC9" stroke-width="0.8" fill="none" opacity="0.26"/>
<path d="M600,401.1851473779383 C720,381.591770585997 780,98.04868961184954 900,64.67576653351443" stroke="#D1CFC9" stroke-width="0.8" fill="none" opacity="0.36"/>
<path d="M600,401.1851473779383 C720,410.90560080458073 780,200.08909914196448 900,163.48294855659663" stroke="#D1CFC9" stroke-width="0.8" fill="none" opacity="0.43"/>
<path d="M600,401.1851473779383 C720,381.54113679415104 780,312.33469525668414 900,320.17412486984955" stroke="#D1CFC9" stroke-width="0.8" fill="none" opacity="0.28"/>
<path d="M600,401.1851473779383 C720,364.0433085598152 780,428.4330118144706 900,408.8074179483362" stroke="#D1CFC9" stroke-width="0.8" fill="none" opacity="0.43"/>
<path d="M600,401.1851473779383 C720,417.2939963464844 780,545.0896275721233 900,544.3965656520791" stroke="#D1CFC9" stroke-width="0.8" fill="none" opacity="0.44"/>
<path d="M600,458.3268242214287 C720,482.68419888218267 780,201.4006360392437 900,163.48294855659663" stroke="#D1CFC9" stroke-width="0.8" fill="none" opacity="0.34"/>
<path d="M600,458.3268242214287 C720,486.94579260870717 780,287.3878039765725 900,320.17412486984955" stroke="#D1CFC9" stroke-width="0.8" fill="none" opacity="0.27"/>
<path d="M600,458.3268242214287 C720,477.16790748979383 780,577.3864749826924 900,544.3965656520791" stroke="#D1CFC9" stroke-width="0.8" fill="none" opacity="0.32"/>
<path d="M600,541.9106575703273 C720,581.6274350737518 780,52.60419761135807 900,64.67576653351443" stroke="#D1CFC9" stroke-width="0.8" fill="none" opacity="0.43"/>
<path d="M600,541.9106575703273 C720,524.0526032914763 780,124.56130070269836 900,163.48294855659663" stroke="#D1CFC9" stroke-width="0.8" fill="none" opacity="0.26"/>
<path d="M900,64.67576653351443 C960,61.0373464183736 990,418.0410995993393 1050,400.4119085672805" stroke="#D1CFC9" stroke-width="0.8" fill="none" opacity="0.37"/>
<path d="M900,64.67576653351443 C960,38.46156573830209 990,517.915621119066 1050,531.6141768283244" stroke="#D1CFC9" stroke-width="0.8" fill="none" opacity="0.43"/>
<path d="M900,163.48294855659663 C960,165.47497979044564 990,193.89963951448436 1050,229.24095327412732" stroke="#D1CFC9" stroke-width="0.8" fill="none" opacity="0.35"/>
<path d="M900,163.48294855659663 C960,190.3946891359856 990,319.8177810157225 1050,315.9703675513087" stroke="#D1CFC9" stroke-width="0.8" fill="none" opacity="0.29"/>
<path d="M900,163.48294855659663 C960,158.56003469305813 990,426.0850457593531 1050,400.4119085672805" stroke="#D1CFC9" stroke-width="0.8" fill="none" opacity="0.34"/>
<path d="M900,247.77712391707513 C960,261.6440795116695 990,83.66510694000523 1050,90.53945321835099" stroke="#D1CFC9" stroke-width="0.8" fill="none" opacity="0.29"/>
<path d="M900,247.77712391707513 C960,274.4417137995925 990,291.30416658551064 1050,315.9703675513087" stroke="#D1CFC9" stroke-width="0.8" fill="none" opacity="0.43"/>
<path d="M900,320.17412486984955 C960,281.8292979111614 990,106.33083916882305 1050,90.53945321835099" stroke="#D1CFC9" stroke-width="0.8" fill="none" opacity="0.29"/>
<path d="M900,320.17412486984955 C960,338.4111447724656 990,223.65722318428038 1050,229.24095327412732" stroke="#D1CFC9" stroke-width="0.8" fill="none" opacity="0.35"/>
<path d="M900,320.17412486984955 C960,335.44314897542193 990,411.6252546283941 1050,400.4119085672805" stroke="#D1CFC9" stroke-width="0.8" fill="none" opacity="0.43"/>
<path d="M900,408.8074179483362 C960,378.8021539664599 990,77.39158498993878 1050,90.53945321835099" stroke="#D1CFC9" stroke-width="0.8" fill="none" opacity="0.41"/>
<path d="M900,408.8074179483362 C960,422.54580347427304 990,214.27312464482924 1050,229.24095327412732" stroke="#D1CFC9" stroke-width="0.8" fill="none" opacity="0.38"/>
<path d="M900,408.8074179483362 C960,417.51233643363514 990,289.2786719350328 1050,315.9703675513087" stroke="#D1CFC9" stroke-width="0.8" fill="none" opacity="0.31"/>
<path d="M900,408.8074179483362 C960,403.8587869343717 990,550.4475112507231 1050,531.6141768283244" stroke="#D1CFC9" stroke-width="0.8" fill="none" opacity="0.39"/>
<path d="M900,474.67554943087174 C960,492.8441907546004 990,107.10172706914639 1050,90.53945321835099" stroke="#D1CFC9" stroke-width="0.8" fill="none" opacity="0.39"/>
<path d="M900,474.67554943087174 C960,469.8233302709584 990,248.0156148213464 1050,229.24095327412732" stroke="#D1CFC9" stroke-width="0.8" fill="none" opacity="0.43"/>
<path d="M900,474.67554943087174 C960,438.0999386822455 990,360.81466223714284 1050,400.4119085672805" stroke="#D1CFC9" stroke-width="0.8" fill="none" opacity="0.28"/>
<path d="M900,474.67554943087174 C960,506.0940842255587 990,527.1010625369616 1050,531.6141768283244" stroke="#D1CFC9" stroke-width="0.8" fill="none" opacity="0.32"/>
<path d="M900,544.3965656520791 C960,515.8820916576967 990,94.59494061176547 1050,90.53945321835099" stroke="#D1CFC9" stroke-width="0.8" fill="none" opacity="0.35"/>
<path d="M900,544.3965656520791 C960,532.4442303642734 990,333.9500006278861 1050,315.9703675513087" stroke="#D1CFC9" stroke-width="0.8" fill="none" opacity="0.27"/>
<path d="M900,544.3965656520791 C960,515.2520312045822 990,373.09191958934343 1050,400.4119085672805" stroke="#D1CFC9" stroke-width="0.8" fill="none" opacity="0.39"/>
<path d="M900,544.3965656520791 C960,532.1159531637364 990,523.9867134951024 1050,531.6141768283244" stroke="#D1CFC9" stroke-width="0.8" fill="none" opacity="0.34"/>
<circle cx="150.0" cy="106.9" r="5.3" fill="#D1CFC9" opacity="0.8"/>
<circle cx="150.0" cy="268.5" r="4.1" fill="#D1CFC9" opacity="0.8"/>
<circle cx="150.0" cy="367.7" r="4.6" fill="#D1CFC9" opacity="0.8"/>
<circle cx="150.0" cy="480.9" r="5.7" fill="#D1CFC9" opacity="0.8"/>
<circle cx="300.0" cy="112.3" r="5.1" fill="#D1CFC9" opacity="0.8"/>
<circle cx="300.0" cy="222.1" r="6.9" fill="#D1CFC9" opacity="0.8"/>
<circle cx="300.0" cy="300.6" r="4.2" fill="#D1CFC9" opacity="0.8"/>
<circle cx="300.0" cy="432.9" r="5.3" fill="#D1CFC9" opacity="0.8"/>
<circle cx="300.0" cy="507.9" r="5.7" fill="#D1CFC9" opacity="0.8"/>
<circle cx="600.0" cy="86.7" r="6.9" fill="#D1CFC9" opacity="0.8"/>
<circle cx="600.0" cy="152.1" r="6.7" fill="#D1CFC9" opacity="0.8"/>
<circle cx="600.0" cy="232.8" r="5.1" fill="#D1CFC9" opacity="0.8"/>
<circle cx="600.0" cy="311.7" r="4.7" fill="#D1CFC9" opacity="0.8"/>
<circle cx="600.0" cy="401.2" r="4.8" fill="#D1CFC9" opacity="0.8"/>
<circle cx="600.0" cy="458.3" r="6.6" fill="#D1CFC9" opacity="0.8"/>
<circle cx="600.0" cy="541.9" r="5.8" fill="#D1CFC9" opacity="0.8"/>
<circle cx="900.0" cy="64.7" r="4.6" fill="#D1CFC9" opacity="0.8"/>
<circle cx="900.0" cy="163.5" r="4.2" fill="#D1CFC9" opacity="0.8"/>
<circle cx="900.0" cy="247.8" r="6.2" fill="#D1CFC9" opacity="0.8"/>
<circle cx="900.0" cy="320.2" r="4.5" fill="#D1CFC9" opacity="0.8"/>
<circle cx="900.0" cy="408.8" r="6.3" fill="#D1CFC9" opacity="0.8"/>
<circle cx="900.0" cy="474.7" r="4.8" fill="#D1CFC9" opacity="0.8"/>
<circle cx="900.0" cy="544.4" r="4.4" fill="#D1CFC9" opacity="0.8"/>
<circle cx="1050.0" cy="90.5" r="6.7" fill="#D1CFC9" opacity="0.8"/>
<circle cx="1050.0" cy="229.2" r="5.5" fill="#D1CFC9" opacity="0.8"/>
<circle cx="1050.0" cy="316.0" r="6.7" fill="#D1CFC9" opacity="0.8"/>
<circle cx="1050.0" cy="400.4" r="5.1" fill="#D1CFC9" opacity="0.8"/>
<circle cx="1050.0" cy="531.6" r="6.4" fill="#D1CFC9" opacity="0.8"/>
<circle cx="900.9" cy="337.5" r="17.4" fill="none" stroke="#1A1A1A" stroke-width="1" opacity="0.15"/>
<circle cx="893.7" cy="424.0" r="17.6" fill="none" stroke="#1A1A1A" stroke-width="1" opacity="0.15"/>
<circle cx="280.4" cy="470.9" r="10.7" fill="none" stroke="#1A1A1A" stroke-width="1" opacity="0.15"/>
<circle cx="900.7" cy="508.9" r="17.1" fill="none" stroke="#1A1A1A" stroke-width="1" opacity="0.15"/>
</svg>