<svg xmlns="http://www.w3.org/2000/svg" width="1200" height="630" viewBox="0 0 1200 630">
<rect width="1200" height="630" fill="#FAFAF9"/>
<path d="M0,66.1 C323.1,-34.7 877.4,67.5 1200,35.7" stroke="#D1CFC9" stroke-width="1.17" fill="none" opacity="0.57"/>
<path d="M0,88.1 C276.7,-1.2 950.5,157.4 1200,104.2" stroke="#D1CFC9" stroke-width="1.58" fill="none" opacity="0.56"/>
<path d="M0,150.2 C301.0,173.7 809.0,85.4 1200,101.5" stroke="#D1CFC9" stroke-width="1.17" fill="none" opacity="0.46"/>
<path d="M0,136.1 C367.7,241.2 994.9,88.3 1200,160.6" stroke="#E8E8E6" stroke-width="1.56" fill="none" opacity="0.60"/>
<path d="M0,230.8 C284.4,291.1 956.2,244.6 1200,175.4" stroke="#E8E8E6" stroke-width="1.64" fill="none" opacity="0.64"/>
<path d="M0,236.3 C394.1,288.8 915.1,297.7 1200,259.0" stroke="#D1CFC9" stroke-width="1.13" fill="none" opacity="0.64"/>
<path d="M0,258.4 C340.9,211.8 832.7,290.7 1200,305.0" stroke="#E8E8E6" stroke-width="1.30" fill="none" opacity="0.41"/>
<path d="M0,291.4 C296.6,250.4 970.4,229.0 1200,315.1" stroke="#D1CFC9" stroke-width="1.02" fill="none" opacity="0.62"/>
<path d="M0,337.5 C385.1,352.8 920.7,314.7 1200,370.3" stroke="#D1CFC9" stroke-width="1.25" fill="none" opacity="0.64"/>
<path d="M0,403.4 C396.8,347.8 940.6,379.6 1200,407.7" stroke="#E8E8E6" stroke-width="1.51" fill="none" opacity="0.47"/>
<path d="M0,448.3 C246.7,364.8 881.2,476.4 1200,404.5" stroke="#D1CFC9" stroke-width="1.09" fill="none" opacity="0.70"/>
<path d="M0,485.4 C226.1,394.2 944.4,377.8 1200,473.2" stroke="#D1CFC9" stroke-width="1.39" fill="none" opacity="0.45"/>
<path d="M0,481.2 C303.7,517.4 914.0,527.1 1200,479.1" stroke="#D1CFC9" stroke-width="1.71" fill="none" opacity="0.52"/>
<path d="M0,513.3 C362.2,507.2 892.7,540.6 1200,547.8" stroke="#D1CFC9" stroke-width="1.76" fill="none" opacity="0.49"/>
<path d="M0,588.7 C274.3,548.0 812.3,651.9 1200,602.3" stroke="#D1CFC9" stroke-width="1.42" fill="none" opacity="0.51"/>
<line x1="0" y1="610" x2="0" y2="600.7" stroke="#D1CFC9" stroke-width="0.8" opacity="0.5"/>
<line x1="100" y1="610" x2="100" y2="605.4" stroke="#D1CFC9" stroke-width="0.8" opacity="0.5"/>
<line x1="200" y1="610" x2="200" y2="603.3" stroke="#D1CFC9" stroke-width="0.8" opacity="0.5"/>
<line x1="300" y1="610" x2="300" y2="604.1" stroke="#D1CFC9" stroke-width="0.8" opacity="0.5"/>
<line x1="400" y1="610" x2="400" y2="600.5" stroke="#D1CFC9" stroke-width="0.8" opacity="0.5"/>
<line x1="500" y1="610" x2="500" y2="602.1" stroke="#D1CFC9" stroke-width="0.8" opacity="0.5"/>
<line x1="600" y1="610" x2="600" y2="603.9" stroke="#D1CFC9" stroke-width="0.8" opacity="0.5"/>
<line x1="700" y1="610" x2="700" y2="601.1" stroke="#D1CFC9" stroke-width="0.8" opacity="0.5"/>
<line x1="800" y1="610" x2="800" y2="605.4" stroke="#D1CFC9" stroke-width="0.8" opacity="0.5"/>
<line x1="900" y1="610" x2="900" y2="602.0" stroke="#D1CFC9" stroke-width="0.8" opacity="0.5"/>
<line x1="1000" y1="610" x2="1000" y2="599.3" stroke="#D1CFC9" stroke-width="0.8" opacity="0.5"/>
<line x1="1100" y1="610" x2="1100" y2="604.3" stroke="#D1CFC9" stroke-width="0.8" opacity="0.5"/>
<line x1="1200" y1="610" x2="1200" y2="601.2" stroke="#D1CFC9" stroke-width="0.8" opacity="0.5"/>
<line x1="306.0" y1="126.4" x2="752.3" y2="326.5" stroke="#D1CFC9" stroke-width="1" opacity="0.3"/>
</svg>