<svg xmlns="http://www.w3.org/2000/svg" width="1200" height="630" viewBox="0 0 1200 630">
<rect width="1200" height="630" fill="#FAFAF9"/>
<line x1="0" y1="80" x2="1200" y2="80" stroke="#E8E8E6" stroke-width="0.8" opacity="0.6"/>
<line x1="0" y1="160" x2="1200" y2="160" stroke="#E8E8E6" stroke-width="0.8" opacity="0.6"/>
<line x1="0" y1="240" x2="1200" y2="240" stroke="#E8E8E6" stroke-width="0.8" opacity="0.6"/>
<line x1="0" y1="320" x2="1200" y2="320" stroke="#E8E8E6" stroke-width="0.8" opacity="0.6"/>
<line x1="0" y1="400" x2="1200" y2="400" stroke="#E8E8E6" stroke-width="0.8" opacity="0.6"/>
<line x1="0" y1="480" x2="1200" y2="480" stroke="#E8E8E6" stroke-width="0.8" opacity="0.6"/>
<line x1="0" y1="560" x2="1200" y2="560" stroke="#E8E8E6" stroke-width="0.8" opacity="0.6"/>
<path d="M150,77.84268482863966 C210,49.56255856518694 240,509.1141477426314 300,507.4019256149889" stroke="#D1CFC9" stroke-width="0.8" fill="none" opacity="0.29"/>
<path d="M150,169.27969639737384 C210,177.7162260077815 240,134.53326217777402 300,101.21683221413214" stroke="#D1CFC9" stroke-width="0.8" fill="none" opacity="0.27"/>
<path d="M150,169.27969639737384 C210,207.85605411559948 240,242.98183547206733 300,272.2959205470737" stroke="#D1CFC9" stroke-width="0.8" fill="none" opacity="0.33"/>
<path d="M150,169.27969639737384 C210,199.95979923154454 240,349.96814992343263 300,372.9400563393114" stroke="#D1CFC9" stroke-width="0.8" fill="none" opacity="0.32"/>
<path d="M150,231.04230314994751 C210,229.22873759170267 240,285.95572165156614 300,272.2959205470737" stroke="#D1CFC9" stroke-width="0.8" fill="none" opacity="0.30"/>
<path d="M150,231.04230314994751 C210,229.44732428992805 240,389.6236363152097 300,372.9400563393114" stroke="#D1CFC9" stroke-width="0.8" fill="none" opacity="0.39"/>
<path d="M150,231.04230314994751 C210,194.7754178255041 240,508.99124747267723 300,507.4019256149889" stroke="#D1CFC9" stroke-width="0.8" fill="none" opacity="0.26"/>
<path d="M150,330.71424997073234 C210,309.96638975215996 240,68.0644896093906 300,101.21683221413214" stroke="#D1CFC9" stroke-width="0.8" fill="none" opacity="0.34"/>
<path d="M150,330.71424997073234 C210,301.8781473945426 240,378.1805354242633 300,372.9400563393114" stroke="#D1CFC9" stroke-width="0.8" fill="none" opacity="0.27"/>
<path d="M150,330.71424997073234 C210,316.0331032170875 240,510.47744039606243 300,507.4019256149889" stroke="#D1CFC9" stroke-width="0.8" fill="none" opacity="0.38"/>
<path d="M150,382.0653782573215 C210,369.9031602258103 240,124.12258023100964 300,101.21683221413214" stroke="#D1CFC9" stroke-width="0.8" fill="none" opacity="0.37"/>
<path d="M150,382.0653782573215 C210,417.8028350846849 240,261.4775731072476 300,272.2959205470737" stroke="#D1CFC9" stroke-width="0.8" fill="none" opacity="0.27"/>
<path d="M150,382.0653782573215 C210,363.6667406956355 240,359.62975709057173 300,372.9400563393114" stroke="#D1CFC9" stroke-width="0.8" fill="none" opacity="0.28"/>
<path d="M150,462.07426908363686 C210,500.61979659736846 240,114.25662368011116 300,101.21683221413214" stroke="#D1CFC9" stroke-width="0.8" fill="none" opacity="0.44"/>
<path d="M150,462.07426908363686 C210,501.0269884849612 240,306.41224946314753 300,272.2959205470737" stroke="#D1CFC9" stroke-width="0.8" fill="none" opacity="0.30"/>
<path d="M150,462.07426908363686 C210,489.05149780779647 240,343.4416187173318 300,372.9400563393114" stroke="#D1CFC9" stroke-width="0.8" fill="none" opacity="0.38"/>
<path d="M150,462.07426908363686 C210,429.66168164389944 240,484.17629399815957 300,507.4019256149889" stroke="#D1CFC9" stroke-width="0.8" fill="none" opacity="0.29"/>
<path d="M150,563.5449642955896 C210,549.7546611682639 240,135.77910065627168 300,101.21683221413214" stroke="#D1CFC9" stroke-width="0.8" fill="none" opacity="0.40"/>
<path d="M150,563.5449642955896 C210,599.9119481144967 240,519.9989335090851 300,507.4019256149889" stroke="#D1CFC9" stroke-width="0.8" fill="none" opacity="0.28"/>
<path d="M300,101.21683221413214 C420,86.12204453659291 480,270.9465494588242 600,303.5297196922544" stroke="#D1CFC9" stroke-width="0.8" fill="none" opacity="0.44"/>
<path d="M300,101.21683221413214 C420,138.74319246084036 480,455.48509636771286 600,471.84005203915063" stroke="#D1CFC9" stroke-width="0.8" fill="none" opacity="0.32"/>
<path d="M300,101.21683221413214 C420,128.87428192237257 480,525.0675170143526 600,549.7326910666267" stroke="#D1CFC9" stroke-width="0.8" fill="none" opacity="0.30"/>
<path d="M300,272.2959205470737 C420,307.8891646255481 480,90.31888007659438 600,66.86301596389688" stroke="#D1CFC9" stroke-width="0.8" fill="none" opacity="0.38"/>
<path d="M300,272.2959205470737 C420,242.55203097922544 480,170.2386061093976 600,159.14006569082616" stroke="#D1CFC9" stroke-width="0.8" fill="none" opacity="0.29"/>
<path d="M300,272.2959205470737 C420,292.72172785464716 480,309.30037806929334 600,303.5297196922544" stroke="#D1CFC9" stroke-width="0.8" fill="none" opacity="0.31"/>
<path d="M300,272.2959205470737 C420,250.7567995978419 480,563.3129542616226 600,549.7326910666267" stroke="#D1CFC9" stroke-width="0.8" fill="none" opacity="0.32"/>
<path d="M300,372.9400563393114 C420,408.1806233853522 480,182.8586549333084 600,159.14006569082616" stroke="#D1CFC9" stroke-width="0.8" fill="none" opacity="0.26"/>
<path d="M300,372.9400563393114 C420,389.31795726579566 480,237.2065317238929 600,232.80328710267864" stroke="#D1CFC9" stroke-width="0.8" fill="none" opacity="0.27"/>
<path d="M300,372.9400563393114 C420,384.247706988139 480,354.44269124917747 600,388.3808980917979" stroke="#D1CFC9" stroke-width="0.8" fill="none" opacity="0.31"/>
<path d="M300,372.9400563393114 C420,391.1430924488099 480,459.3830960985816 600,471.84005203915063" stroke="#D1CFC9" stroke-width="0.8" fill="none" opacity="0.31"/>
<path d="M300,507.4019256149889 C420,467.5428742458911 480,98.26825167710619 600,66.86301596389688" stroke="#D1CFC9" stroke-width="0.8" fill="none" opacity="0.40"/>
<path d="M300,507.4019256149889 C420,536.6410773510675 480,270.70538735604043 600,232.80328710267864" stroke="#D1CFC9" stroke-width="0.8" fill="none" opacity="0.28"/>
<path d="M300,507.4019256149889 C420,477.9846798382664 480,509.6948894972319 600,471.84005203915063" stroke="#D1CFC9" stroke-width="0.8" fill="none" opacity="0.41"/>
<path d="M600,66.86301596389688 C720,100.75250701763494 780,249.87505495685036 900,245.9220298477267" stroke="#D1CFC9" stroke-width="0.8" fill="none" opacity="0.37"/>
<path d="M600,66.86301596389688 C720,28.293512388666514 780,341.9453917625815 900,305.99906863697083" stroke="#D1CFC9" stroke-width="0.8" fill="none" opacity="0.28"/>
<path d="M600,66.86301596389688 C720,31.956164278545458 780,515.9886830265142 900,544.4067786385787" stroke="#D1CFC9" stroke-width="0.8" fill="none" opacity="0.42"/>
<path d="M600,159.14006569082616 C720,197.48649176762822 780,124.48048446425946 900,160.7599210367794" stroke="#D1CFC9" stroke-width="0.8" fill="none" opacity="0.32"/>
<path d="M600,159.14006569082616 C720,159.12412825631304 780,216.53378882737218 900,245.9220298477267" stroke="#D1CFC9" stroke-width="0.8" fill="none" opacity="0.34"/>
<path d="M600,159.14006569082616 C720,161.86390518865406 780,464.70171551253924 900,466.8927134395677" stroke="#D1CFC9" stroke-width="0.8" fill="none" opacity="0.37"/>
<path d="M600,159.14006569082616 C720,130.34160441639636 780,564.5350550379453 900,544.4067786385787" stroke="#D1CFC9" stroke-width="0.8" fill="none" opacity="0.45"/>
<path d="M600,232.80328710267864 C720,265.88868853179474 780,46.5096927271247 900,69.8387798092651" stroke="#D1CFC9" stroke-width="0.8" fill="none" opacity="0.38"/>
<path d="M600,232.80328710267864 C720,264.25139610160875 780,183.24911312735617 900,160.7599210367794" stroke="#D1CFC9" stroke-width="0.8" fill="none" opacity="0.35"/>
<path d="M600,232.80328710267864 C720,245.61310023072016 780,421.1540998112537 900,388.09217521748326" stroke="#D1CFC9" stroke-width="0.8" fill="none" opacity="0.40"/>
<path d="M600,232.80328710267864 C720,252.221228854433 780,455.2494626380502 900,466.8927134395677" stroke="#D1CFC9" stroke-width="0.8" fill="none" opacity="0.39"/>
<path d="M600,232.80328710267864 C720,228.34740027385936 780,508.2547008752019 900,544.4067786385787" stroke="#D1CFC9" stroke-width="0.8" fill="none" opacity="0.30"/>
<path d="M600,303.5297196922544 C720,323.1235227132853 780,63.674703414359755 900,69.8387798092651" stroke="#D1CFC9" stroke-width="0.8" fill="none" opacity="0.35"/>
<path d="M600,303.5297196922544 C720,337.61146072213575 780,396.93666574578657 900,388.09217521748326" stroke="#D1CFC9" stroke-width="0.8" fill="none" opacity="0.29"/>
<path d="M600,303.5297196922544 C720,310.7325140688295 780,437.06952639245884 900,466.8927134395677" stroke="#D1CFC9" stroke-width="0.8" fill="none" opacity="0.40"/>
<path d="M600,303.5297196922544 C720,319.8035569811598 780,532.2837226095804 900,544.4067786385787" stroke="#D1CFC9" stroke-width="0.8" fill="none" opacity="0.37"/>
<path d="M600,388.3808980917979 C720,399.09655268911655 780,174.594305729108 900,160.7599210367794" stroke="#D1CFC9" stroke-width="0.8" fill="none" opacity="0.40"/>
<path d="M600,388.3808980917979 C720,378.40107145844985 780,273.86895957167 900,245.9220298477267" stroke="#D1CFC9" stroke-width="0.8" fill="none" opacity="0.31"/>
<path d="M600,388.3808980917979 C720,394.8568422677593 780,335.84598678911476 900,305.99906863697083" stroke="#D1CFC9" stroke-width="0.8" fill="none" opacity="0.35"/>
<path d="M600,388.3808980917979 C720,393.5124071269558 780,412.03686836560655 900,388.09217521748326" stroke="#D1CFC9" stroke-width="0.8" fill="none" opacity="0.35"/>
<path d="M600,388.3808980917979 C720,354.4246234049612 780,535.1667673522994 900,544.4067786385787" stroke="#D1CFC9" stroke-width="0.8" fill="none" opacity="0.42"/>
<path d="M600,471.84005203915063 C720,461.35205606012653 780,168.12693634253856 900,160.7599210367794" stroke="#D1CFC9" stroke-width="0.8" fill="none" opacity="0.25"/>
<path d="M600,471.84005203915063 C720,441.92013548248684 780,215.69708031874546 900,245.9220298477267" stroke="#D1CFC9" stroke-width="0.8" fill="none" opacity="0.34"/>
<path d="M600,471.84005203915063 C720,487.538398454615 780,294.9301212912379 900,305.99906863697083" stroke="#D1CFC9" stroke-width="0.8" fill="none" opacity="0.45"/>
<path d="M600,549.7326910666267 C720,573.6788741818581 780,69.14931566283323 900,69.8387798092651" stroke="#D1CFC9" stroke-width="0.8" fill="none" opacity="0.32"/>
<path d="M600,549.7326910666267 C720,516.8277658709158 780,149.03121839016237 900,160.7599210367794" stroke="#D1CFC9" stroke-width="0.8" fill="none" opacity="0.40"/>
<path d="M600,549.7326910666267 C720,510.2855586432353 780,246.71020790997665 900,245.9220298477267" stroke="#D1CFC9" stroke-width="0.8" fill="none" opacity="0.25"/>
<path d="M600,549.7326910666267 C720,586.7233988992459 780,282.8097590848477 900,305.99906863697083" stroke="#D1CFC9" stroke-width="0.8" fill="none" opacity="0.43"/>
<path d="M600,549.7326910666267 C720,574.3709526345765 780,448.08949227091847 900,466.8927134395677" stroke="#D1CFC9" stroke-width="0.8" fill="none" opacity="0.32"/>
<path d="M600,549.7326910666267 C720,533.5874943474978 780,559.7140634313025 900,544.4067786385787" stroke="#D1CFC9" stroke-width="0.8" fill="none" opacity="0.39"/>
<path d="M900,69.8387798092651 C960,86.59734151561216 990,249.9290206732529 1050,226.1413224155878" stroke="#D1CFC9" stroke-width="0.8" fill="none" opacity="0.44"/>
<path d="M900,69.8387798092651 C960,92.93251454281446 990,334.74972604232596 1050,297.0813790939472" stroke="#D1CFC9" stroke-width="0.8" fill="none" opacity="0.36"/>
<path d="M900,160.7599210367794 C960,161.0886414071635 990,86.66201060699811 1050,104.51768867217882" stroke="#D1CFC9" stroke-width="0.8" fill="none" opacity="0.34"/>
<path d="M900,160.7599210367794 C960,158.6879460975616 990,190.92635966230333 1050,226.1413224155878" stroke="#D1CFC9" stroke-width="0.8" fill="none" opacity="0.33"/>
<path d="M900,160.7599210367794 C960,123.23198521579195 990,392.55455008651 1050,401.04249941325804" stroke="#D1CFC9" stroke-width="0.8" fill="none" opacity="0.39"/>
<path d="M900,245.9220298477267 C960,274.8973179494257 990,134.8038755661817 1050,104.51768867217882" stroke="#D1CFC9" stroke-width="0.8" fill="none" opacity="0.29"/>
<path d="M900,245.9220298477267 C960,207.08693469946434 990,329.21470407657665 1050,297.0813790939472" stroke="#D1CFC9" stroke-width="0.8" fill="none" opacity="0.40"/>
<path d="M900,245.9220298477267 C960,238.51895475632486 990,504.70644730345964 1050,529.400158122508" stroke="#D1CFC9" stroke-width="0.8" fill="none" opacity="0.35"/>
<path d="M900,305.99906863697083 C960,308.24128965951763 990,116.33431016289032 1050,104.51768867217882" stroke="#D1CFC9" stroke-width="0.8" fill="none" opacity="0.25"/>
<path d="M900,305.99906863697083 C960,345.7359738838826 990,268.14203052551994 1050,297.0813790939472" stroke="#D1CFC9" stroke-width="0.8" fill="none" opacity="0.32"/>
<path d="M900,305.99906863697083 C960,278.9411976223791 990,397.17235817624544 1050,401.04249941325804" stroke="#D1CFC9" stroke-width="0.8" fill="none" opacity="0.33"/>
<path d="M900,305.99906863697083 C960,321.87794418496264 990,533.5854610236328 1050,529.400158122508" stroke="#D1CFC9" stroke-width="0.8" fill="none" opacity="0.35"/>
<path d="M900,466.8927134395677 C960,431.49140432668884 990,200.97386339306223 1050,226.1413224155878" stroke="#D1CFC9" stroke-width="0.8" fill="none" opacity="0.34"/>
<path d="M900,466.8927134395677 C960,472.9196949046268 990,529.5908855818192 1050,529.400158122508" stroke="#D1CFC9" stroke-width="0.8" fill="none" opacity="0.27"/>
<path d="M900,544.4067786385787 C960,545.5588327754658 990,66.29938009714228 1050,104.51768867217882" stroke="#D1CFC9" stroke-width="0.8" fill="none" opacity="0.27"/>
<path d="M900,544.4067786385787 C960,571.5935746116083 990,297.5077856843145 1050,297.0813790939472" stroke="#D1CFC9" stroke-width="0.8" fill="none" opacity="0.41"/>
<path d="M900,544.4067786385787 C960,528.4557373257018 990,392.87730065124975 1050,401.04249941325804" stroke="#D1CFC9" stroke-width="0.8" fill="none" opacity="0.25"/>
<circle cx="150.0" cy="77.8" r="5.0" fill="#D1CFC9" opacity="0.8"/>
<circle cx="150.0" cy="169.3" r="4.6" fill="#D1CFC9" opacity="0.8"/>
<circle cx="150.0" cy="231.0" r="4.9" fill="#D1CFC9" opacity="0.8"/>
<circle cx="150.0" cy="330.7" r="4.4" fill="#D1CFC9" opacity="0.8"/>
<circle cx="150.0" cy="382.1" r="4.6" fill="#D1CFC9" opacity="0.8"/>
<circle cx="150.0" cy="462.1" r="5.8" fill="#D1CFC9" opacity="0.8"/>
<circle cx="150.0" cy="563.5" r="4.1" fill="#D1CFC9" opacity="0.8"/>
<circle cx="300.0" cy="101.2" r="6.0" fill="#D1CFC9" opacity="0.8"/>
<circle cx="300.0" cy="272.3" r="6.1" fill="#D1CFC9" opacity="0.8"/>
<circle cx="300.0" cy="372.9" r="5.7" fill="#D1CFC9" opacity="0.8"/>
<circle cx="300.0" cy="507.4" r="6.2" fill="#D1CFC9" opacity="0.8"/>
<circle cx="600.0" cy="66.9" r="6.9" fill="#D1CFC9" opacity="0.8"/>
<circle cx="600.0" cy="159.1" r="4.6" fill="#D1CFC9" opacity="0.8"/>
<circle cx="600.0" cy="232.8" r="4.9" fill="#D1CFC9" opacity="0.8"/>
<circle cx="600.0" cy="303.5" r="5.4" fill="#D1CFC9" opacity="0.8"/>
<circle cx="600.0" cy="388.4" r="4.9" fill="#D1CFC9" opacity="0.8"/>
<circle cx="600.0" cy="471.8" r="6.2" fill="#D1CFC9" opacity="0.8"/>
<circle cx="600.0" cy="549.7" r="4.0" fill="#D1CFC9" opacity="0.8"/>
<circle cx="900.0" cy="69.8" r="5.4" fill="#D1CFC9" opacity="0.8"/>
<circle cx="900.0" cy="160.8" r="6.1" fill="#D1CFC9" opacity="0.8"/>
<circle cx="900.0" cy="245.9" r="6.3" fill="#D1CFC9" opacity="0.8"/>
<circle cx="900.0" cy="306.0" r="6.8" fill="#D1CFC9" opacity="0.8"/>
<circle cx="900.0" cy="388.1" r="5.8" fill="#D1CFC9" opacity="0.8"/>
<circle cx="900.0" cy="466.9" r="4.4" fill="#D1CFC9" opacity="0.8"/>
<circle cx="900.0" cy="544.4" r="6.4" fill="#D1CFC9" opacity="0.8"/>
<circle cx="1050.0" cy="104.5" r="7.0" fill="#D1CFC9" opacity="0.8"/>
<circle cx="1050.0" cy="226.1" r="5.0" fill="#D1CFC9" opacity="0.8"/>
<circle cx="1050.0" cy="297.1" r="4.2" fill="#D1CFC9" opacity="0.8"/>
<circle cx="1050.0" cy="401.0" r="5.9" fill="#D1CFC9" opacity="0.8"/>
<circle cx="1050.0" cy="529.4" r="6.4" fill="#D1CFC9" opacity="0.8"/>
<circle cx="895.4" cy="527.5" r="13.1" fill="none" stroke="#1A1A1A" stroke-width="1" opacity="0.15"/>
<circle cx="1057.7" cy="234.5" r="17.3" fill="none" stroke="#1A1A1A" stroke-width="1" opacity="0.15"/>
<circle cx="898.1" cy="293.3" r="13.1" fill="none" stroke="#1A1A1A" stroke-width="1" opacity="0.15"/>
<circle cx="907.0" cy="483.5" r="14.2" fill="none" stroke="#1A1A1A" stroke-width="1" opacity="0.15"/>
</svg>