<svg xmlns="http://www.w3.org/2000/svg" width="1200" height="630" viewBox="0 0 1200 630">
<rect width="1200" height="630" fill="#FAFAF9"/>
<path d="M0,36.4 C268.6,65.4 835.2,-1.1 1200,67.9" stroke="#D1CFC9" stroke-width="1.33" fill="none" opacity="0.67"/>
<path d="M0,70.3 C225.3,126.1 960.2,136.5 1200,60.7" stroke="#D1CFC9" stroke-width="1.32" fill="none" opacity="0.64"/>
<path d="M0,153.6 C221.9,90.5 983.8,47.0 1200,152.6" stroke="#D1CFC9" stroke-width="1.04" fill="none" opacity="0.47"/>
<path d="M0,173.1 C292.5,194.9 824.6,162.1 1200,185.4" stroke="#D1CFC9" stroke-width="1.35" fill="none" opacity="0.69"/>
<path d="M0,224.0 C268.0,165.4 962.9,124.0 1200,191.4" stroke="#D1CFC9" stroke-width="0.91" fill="none" opacity="0.57"/>
<path d="M0,267.2 C242.6,235.9 887.0,242.4 1200,226.6" stroke="#D1CFC9" stroke-width="1.67" fill="none" opacity="0.66"/>
<path d="M0,275.6 C266.6,242.8 886.8,232.7 1200,289.2" stroke="#D1CFC9" stroke-width="1.32" fill="none" opacity="0.60"/>
<path d="M0,315.5 C216.3,391.1 956.5,297.8 1200,310.4" stroke="#E8E8E6" stroke-width="1.73" fill="none" opacity="0.50"/>
<path d="M0,341.3 C223.0,311.3 998.8,303.4 1200,350.1" stroke="#E8E8E6" stroke-width="0.93" fill="none" opacity="0.72"/>
<path d="M0,366.4 C385.1,341.3 848.8,449.8 1200,391.0" stroke="#D1CFC9" stroke-width="1.27" fill="none" opacity="0.65"/>
<path d="M0,415.9 C212.6,442.2 835.0,344.4 1200,433.8" stroke="#D1CFC9" stroke-width="0.93" fill="none" opacity="0.61"/>
<path d="M0,474.1 C367.7,501.2 873.7,524.6 1200,438.3" stroke="#D1CFC9" stroke-width="0.80" fill="none" opacity="0.56"/>
<path d="M0,511.3 C391.3,549.5 812.1,591.4 1200,476.9" stroke="#D1CFC9" stroke-width="1.06" fill="none" opacity="0.50"/>
<path d="M0,521.5 C257.7,514.3 938.9,466.7 1200,540.8" stroke="#D1CFC9" stroke-width="1.12" fill="none" opacity="0.41"/>
<path d="M0,607.8 C348.5,659.4 980.5,545.0 1200,595.6" stroke="#D1CFC9" stroke-width="1.21" fill="none" opacity="0.74"/>
<line x1="0" y1="610" x2="0" y2="602.1" stroke="#D1CFC9" stroke-width="0.8" opacity="0.5"/>
<line x1="100" y1="610" x2="100" y2="604.0" stroke="#D1CFC9" stroke-width="0.8" opacity="0.5"/>
<line x1="200" y1="610" x2="200" y2="602.4" stroke="#D1CFC9" stroke-width="0.8" opacity="0.5"/>
<line x1="300" y1="610" x2="300" y2="599.1" stroke="#D1CFC9" stroke-width="0.8" opacity="0.5"/>
<line x1="400" y1="610" x2="400" y2="601.9" stroke="#D1CFC9" stroke-width="0.8" opacity="0.5"/>
<line x1="500" y1="610" x2="500" y2="604.1" stroke="#D1CFC9" stroke-width="0.8" opacity="0.5"/>
<line x1="600" y1="610" x2="600" y2="602.8" stroke="#D1CFC9" stroke-width="0.8" opacity="0.5"/>
<line x1="700" y1="610" x2="700" y2="604.7" stroke="#D1CFC9" stroke-width="0.8" opacity="0.5"/>
<line x1="800" y1="610" x2="800" y2="599.1" stroke="#D1CFC9" stroke-width="0.8" opacity="0.5"/>
<line x1="900" y1="610" x2="900" y2="602.3" stroke="#D1CFC9" stroke-width="0.8" opacity="0.5"/>
<line x1="1000" y1="610" x2="1000" y2="601.7" stroke="#D1CFC9" stroke-width="0.8" opacity="0.5"/>
<line x1="1100" y1="610" x2="1100" y2="600.5" stroke="#D1CFC9" stroke-width="0.8" opacity="0.5"/>
<line x1="1200" y1="610" x2="1200" y2="602.5" stroke="#D1CFC9" stroke-width="0.8" opacity="0.5"/>
<line x1="215.2" y1="188.3" x2="640.7" y2="409.7" stroke="#D1CFC9" stroke-width="1" opacity="0.3"/>
</svg>