<svg xmlns="http://www.w3.org/2000/svg" width="1200" height="630" viewBox="0 0 1200 630">
<rect width="1200" height="630" fill="#FAFAF9"/>
<path d="M0,22.5 C293.9,24.5 897.9,83.2 1200,76.3" stroke="#E8E8E6" stroke-width="1.48" fill="none" opacity="0.59"/>
<path d="M0,109.7 C385.7,14.1 960.0,30.1 1200,115.7" stroke="#D1CFC9" stroke-width="1.67" fill="none" opacity="0.71"/>
<path d="M0,131.0 C375.9,200.3 928.4,143.3 1200,134.8" stroke="#E8E8E6" stroke-width="0.93" fill="none" opacity="0.66"/>
<path d="M0,143.8 C221.1,157.1 997.0,109.9 1200,151.7" stroke="#E8E8E6" stroke-width="1.09" fill="none" opacity="0.68"/>
<path d="M0,179.8 C291.1,223.7 888.2,172.7 1200,176.3" stroke="#E8E8E6" stroke-width="1.78" fill="none" opacity="0.72"/>
<path d="M0,228.1 C218.0,315.9 819.6,273.9 1200,242.3" stroke="#E8E8E6" stroke-width="1.69" fill="none" opacity="0.53"/>
<path d="M0,275.1 C290.1,361.1 962.5,318.8 1200,282.4" stroke="#D1CFC9" stroke-width="1.02" fill="none" opacity="0.59"/>
<path d="M0,341.9 C387.4,324.2 949.0,238.1 1200,307.2" stroke="#E8E8E6" stroke-width="1.06" fill="none" opacity="0.43"/>
<path d="M0,326.0 C317.0,308.9 954.6,294.5 1200,341.4" stroke="#E8E8E6" stroke-width="1.65" fill="none" opacity="0.40"/>
<path d="M0,404.3 C288.2,370.6 940.5,417.7 1200,404.5" stroke="#E8E8E6" stroke-width="1.27" fill="none" opacity="0.46"/>
<path d="M0,442.4 C379.7,507.2 980.0,462.2 1200,433.4" stroke="#D1CFC9" stroke-width="1.51" fill="none" opacity="0.44"/>
<path d="M0,469.6 C347.0,416.2 991.7,455.4 1200,466.9" stroke="#D1CFC9" stroke-width="1.39" fill="none" opacity="0.53"/>
<path d="M0,504.5 C325.9,514.5 949.6,553.0 1200,483.1" stroke="#D1CFC9" stroke-width="1.41" fill="none" opacity="0.65"/>
<path d="M0,542.3 C227.6,624.9 836.2,587.8 1200,517.1" stroke="#D1CFC9" stroke-width="1.58" fill="none" opacity="0.44"/>
<path d="M0,582.3 C271.0,623.4 958.7,593.0 1200,571.0" stroke="#D1CFC9" stroke-width="1.54" fill="none" opacity="0.50"/>
<line x1="0" y1="610" x2="0" y2="604.9" stroke="#D1CFC9" stroke-width="0.8" opacity="0.5"/>
<line x1="100" y1="610" x2="100" y2="604.4" stroke="#D1CFC9" stroke-width="0.8" opacity="0.5"/>
<line x1="200" y1="610" x2="200" y2="601.9" stroke="#D1CFC9" stroke-width="0.8" opacity="0.5"/>
<line x1="300" y1="610" x2="300" y2="601.8" stroke="#D1CFC9" stroke-width="0.8" opacity="0.5"/>
<line x1="400" y1="610" x2="400" y2="602.5" stroke="#D1CFC9" stroke-width="0.8" opacity="0.5"/>
<line x1="500" y1="610" x2="500" y2="600.9" stroke="#D1CFC9" stroke-width="0.8" opacity="0.5"/>
<line x1="600" y1="610" x2="600" y2="601.2" stroke="#D1CFC9" stroke-width="0.8" opacity="0.5"/>
<line x1="700" y1="610" x2="700" y2="599.5" stroke="#D1CFC9" stroke-width="0.8" opacity="0.5"/>
<line x1="800" y1="610" x2="800" y2="601.6" stroke="#D1CFC9" stroke-width="0.8" opacity="0.5"/>
<line x1="900" y1="610" x2="900" y2="604.2" stroke="#D1CFC9" stroke-width="0.8" opacity="0.5"/>
<line x1="1000" y1="610" x2="1000" y2="600.5" stroke="#D1CFC9" stroke-width="0.8" opacity="0.5"/>
<line x1="1100" y1="610" x2="1100" y2="601.8" stroke="#D1CFC9" stroke-width="0.8" opacity="0.5"/>
<line x1="1200" y1="610" x2="1200" y2="604.6" stroke="#D1CFC9" stroke-width="0.8" opacity="0.5"/>
<line x1="361.8" y1="113.0" x2="834.3" y2="364.3" stroke="#D1CFC9" stroke-width="1" opacity="0.3"/>
</svg>