<svg xmlns="http://www.w3.org/2000/svg" width="1200" height="630" viewBox="0 0 1200 630">
<rect width="1200" height="630" fill="#FAFAF9"/>
<path d="M0,70.5 C332.3,80.9 818.1,52.5 1200,59.0" stroke="#D1CFC9" stroke-width="1.35" fill="none" opacity="0.71"/>
<path d="M0,90.0 C236.5,175.6 851.0,152.8 1200,90.0" stroke="#D1CFC9" stroke-width="1.72" fill="none" opacity="0.69"/>
<path d="M0,118.3 C254.5,160.0 977.2,202.9 1200,151.5" stroke="#D1CFC9" stroke-width="0.96" fill="none" opacity="0.48"/>
<path d="M0,154.7 C339.1,241.5 992.0,129.9 1200,156.2" stroke="#D1CFC9" stroke-width="0.81" fill="none" opacity="0.66"/>
<path d="M0,173.2 C215.8,172.7 837.8,149.6 1200,184.7" stroke="#E8E8E6" stroke-width="1.66" fill="none" opacity="0.69"/>
<path d="M0,257.9 C358.5,308.2 832.9,203.1 1200,254.9" stroke="#E8E8E6" stroke-width="1.36" fill="none" opacity="0.52"/>
<path d="M0,281.3 C374.7,202.7 865.7,367.1 1200,281.7" stroke="#D1CFC9" stroke-width="1.51" fill="none" opacity="0.51"/>
<path d="M0,291.2 C304.2,287.7 817.4,330.8 1200,313.4" stroke="#D1CFC9" stroke-width="1.70" fill="none" opacity="0.50"/>
<path d="M0,328.4 C266.6,264.9 984.1,414.7 1200,365.3" stroke="#E8E8E6" stroke-width="1.43" fill="none" opacity="0.59"/>
<path d="M0,413.0 C243.4,360.7 814.3,412.0 1200,420.2" stroke="#D1CFC9" stroke-width="0.83" fill="none" opacity="0.48"/>
<path d="M0,402.8 C287.9,382.2 970.2,364.6 1200,418.5" stroke="#D1CFC9" stroke-width="1.25" fill="none" opacity="0.70"/>
<path d="M0,453.8 C336.6,501.0 866.6,453.1 1200,479.2" stroke="#D1CFC9" stroke-width="1.04" fill="none" opacity="0.44"/>
<path d="M0,501.1 C213.4,528.9 909.2,558.7 1200,510.4" stroke="#E8E8E6" stroke-width="0.93" fill="none" opacity="0.67"/>
<path d="M0,541.9 C337.2,513.5 837.3,491.7 1200,555.6" stroke="#D1CFC9" stroke-width="1.07" fill="none" opacity="0.42"/>
<path d="M0,601.1 C350.4,500.6 865.2,508.6 1200,595.6" stroke="#D1CFC9" stroke-width="1.14" fill="none" opacity="0.74"/>
<line x1="0" y1="610" x2="0" y2="602.5" stroke="#D1CFC9" stroke-width="0.8" opacity="0.5"/>
<line x1="100" y1="610" x2="100" y2="605.7" stroke="#D1CFC9" stroke-width="0.8" opacity="0.5"/>
<line x1="200" y1="610" x2="200" y2="605.9" stroke="#D1CFC9" stroke-width="0.8" opacity="0.5"/>
<line x1="300" y1="610" x2="300" y2="598.7" stroke="#D1CFC9" stroke-width="0.8" opacity="0.5"/>
<line x1="400" y1="610" x2="400" y2="603.9" stroke="#D1CFC9" stroke-width="0.8" opacity="0.5"/>
<line x1="500" y1="610" x2="500" y2="603.3" stroke="#D1CFC9" stroke-width="0.8" opacity="0.5"/>
<line x1="600" y1="610" x2="600" y2="598.3" stroke="#D1CFC9" stroke-width="0.8" opacity="0.5"/>
<line x1="700" y1="610" x2="700" y2="599.0" stroke="#D1CFC9" stroke-width="0.8" opacity="0.5"/>
<line x1="800" y1="610" x2="800" y2="599.7" stroke="#D1CFC9" stroke-width="0.8" opacity="0.5"/>
<line x1="900" y1="610" x2="900" y2="600.9" stroke="#D1CFC9" stroke-width="0.8" opacity="0.5"/>
<line x1="1000" y1="610" x2="1000" y2="601.5" stroke="#D1CFC9" stroke-width="0.8" opacity="0.5"/>
<line x1="1100" y1="610" x2="1100" y2="598.4" stroke="#D1CFC9" stroke-width="0.8" opacity="0.5"/>
<line x1="1200" y1="610" x2="1200" y2="600.6" stroke="#D1CFC9" stroke-width="0.8" opacity="0.5"/>
<line x1="306.7" y1="158.8" x2="642.2" y2="458.7" stroke="#D1CFC9" stroke-width="1" opacity="0.3"/>
</svg>