<svg xmlns="http://www.w3.org/2000/svg" width="1200" height="630" viewBox="0 0 1200 630">
<rect width="1200" height="630" fill="#FAFAF9"/>
<line x1="0" y1="80" x2="1200" y2="80" stroke="#E8E8E6" stroke-width="0.8" opacity="0.6"/>
<line x1="0" y1="160" x2="1200" y2="160" stroke="#E8E8E6" stroke-width="0.8" opacity="0.6"/>
<line x1="0" y1="240" x2="1200" y2="240" stroke="#E8E8E6" stroke-width="0.8" opacity="0.6"/>
<line x1="0" y1="320" x2="1200" y2="320" stroke="#E8E8E6" stroke-width="0.8" opacity="0.6"/>
<line x1="0" y1="400" x2="1200" y2="400" stroke="#E8E8E6" stroke-width="0.8" opacity="0.6"/>
<line x1="0" y1="480" x2="1200" y2="480" stroke="#E8E8E6" stroke-width="0.8" opacity="0.6"/>
<line x1="0" y1="560" x2="1200" y2="560" stroke="#E8E8E6" stroke-width="0.8" opacity="0.6"/>
<path d="M150,88.38242481250373 C210,51.634876549740994 240,379.1046710827166 300,372.99256887635977" stroke="#D1CFC9" stroke-width="0.8" fill="none" opacity="0.36"/>
<path d="M150,88.38242481250373 C210,52.36058990351404 240,523.6652426406893 300,549.533232613358" stroke="#D1CFC9" stroke-width="0.8" fill="none" opacity="0.41"/>
<path d="M150,147.11433204213725 C210,121.45698289112352 240,75.68001838486643 300,75.89573021137522" stroke="#D1CFC9" stroke-width="0.8" fill="none" opacity="0.35"/>
<path d="M150,147.11433204213725 C210,172.57268147527304 240,277.3286870367193 300,279.37842739452105" stroke="#D1CFC9" stroke-width="0.8" fill="none" opacity="0.39"/>
<path d="M150,147.11433204213725 C210,166.52461791254456 240,337.94342183041005 300,372.99256887635977" stroke="#D1CFC9" stroke-width="0.8" fill="none" opacity="0.34"/>
<path d="M150,147.11433204213725 C210,179.39852209904896 240,477.88481794620975 300,457.5729130472925" stroke="#D1CFC9" stroke-width="0.8" fill="none" opacity="0.38"/>
<path d="M150,226.96574396499565 C210,258.9995792773551 240,215.46090888172876 300,196.88008279420438" stroke="#D1CFC9" stroke-width="0.8" fill="none" opacity="0.42"/>
<path d="M150,226.96574396499565 C210,225.76948205027017 240,290.38521832748904 300,279.37842739452105" stroke="#D1CFC9" stroke-width="0.8" fill="none" opacity="0.29"/>
<path d="M150,226.96574396499565 C210,237.81079219952477 240,405.77088115917775 300,372.99256887635977" stroke="#D1CFC9" stroke-width="0.8" fill="none" opacity="0.40"/>
<path d="M150,226.96574396499565 C210,212.71593525719734 240,525.5693428953107 300,549.533232613358" stroke="#D1CFC9" stroke-width="0.8" fill="none" opacity="0.36"/>
<path d="M150,308.98728129645747 C210,335.4678905091057 240,347.9019253398064 300,372.99256887635977" stroke="#D1CFC9" stroke-width="0.8" fill="none" opacity="0.39"/>
<path d="M150,308.98728129645747 C210,319.94878061562747 240,486.0928421146453 300,457.5729130472925" stroke="#D1CFC9" stroke-width="0.8" fill="none" opacity="0.33"/>
<path d="M150,308.98728129645747 C210,336.17059484948885 240,513.3844929336068 300,549.533232613358" stroke="#D1CFC9" stroke-width="0.8" fill="none" opacity="0.39"/>
<path d="M150,393.55460068608045 C210,373.2446614365896 240,296.6269755653634 300,279.37842739452105" stroke="#D1CFC9" stroke-width="0.8" fill="none" opacity="0.40"/>
<path d="M150,393.55460068608045 C210,379.5089672233465 240,363.8283907728802 300,372.99256887635977" stroke="#D1CFC9" stroke-width="0.8" fill="none" opacity="0.39"/>
<path d="M150,466.7831467163128 C210,473.8313966425093 240,203.9556891475701 300,196.88008279420438" stroke="#D1CFC9" stroke-width="0.8" fill="none" opacity="0.41"/>
<path d="M150,466.7831467163128 C210,455.6456068296441 240,304.672822331235 300,279.37842739452105" stroke="#D1CFC9" stroke-width="0.8" fill="none" opacity="0.28"/>
<path d="M150,466.7831467163128 C210,495.6612504505113 240,397.4694796277838 300,372.99256887635977" stroke="#D1CFC9" stroke-width="0.8" fill="none" opacity="0.27"/>
<path d="M150,554.3604988312256 C210,532.4954702641105 240,209.08281514586017 300,196.88008279420438" stroke="#D1CFC9" stroke-width="0.8" fill="none" opacity="0.38"/>
<path d="M150,554.3604988312256 C210,574.3370214138033 240,279.49238626926495 300,279.37842739452105" stroke="#D1CFC9" stroke-width="0.8" fill="none" opacity="0.42"/>
<path d="M150,554.3604988312256 C210,569.9365941458234 240,391.9099988587923 300,372.99256887635977" stroke="#D1CFC9" stroke-width="0.8" fill="none" opacity="0.34"/>
<path d="M150,554.3604988312256 C210,586.2478182339686 240,528.7196610864996 300,549.533232613358" stroke="#D1CFC9" stroke-width="0.8" fill="none" opacity="0.42"/>
<path d="M300,75.89573021137522 C420,57.462635074151365 480,110.82485282300618 600,119.63106083395682" stroke="#D1CFC9" stroke-width="0.8" fill="none" opacity="0.41"/>
<path d="M300,75.89573021137522 C420,78.14964991206062 480,209.61218498004885 600,245.05333938818737" stroke="#D1CFC9" stroke-width="0.8" fill="none" opacity="0.28"/>
<path d="M300,75.89573021137522 C420,45.99932954972595 480,472.1670786832848 600,479.5968882832669" stroke="#D1CFC9" stroke-width="0.8" fill="none" opacity="0.44"/>
<path d="M300,196.88008279420438 C420,233.74938119942078 480,328.0887437787113 600,360.3051540412719" stroke="#D1CFC9" stroke-width="0.8" fill="none" opacity="0.45"/>
<path d="M300,279.37842739452105 C420,273.8074985011032 480,148.0868393406474 600,119.63106083395682" stroke="#D1CFC9" stroke-width="0.8" fill="none" opacity="0.38"/>
<path d="M300,279.37842739452105 C420,281.0969639451003 480,250.97446203552525 600,245.05333938818737" stroke="#D1CFC9" stroke-width="0.8" fill="none" opacity="0.44"/>
<path d="M300,372.99256887635977 C420,359.3829730249436 480,145.97169256163102 600,119.63106083395682" stroke="#D1CFC9" stroke-width="0.8" fill="none" opacity="0.40"/>
<path d="M300,372.99256887635977 C420,376.2262363122372 480,224.21072575892572 600,245.05333938818737" stroke="#D1CFC9" stroke-width="0.8" fill="none" opacity="0.37"/>
<path d="M300,372.99256887635977 C420,390.37416444913816 480,399.5391324690401 600,360.3051540412719" stroke="#D1CFC9" stroke-width="0.8" fill="none" opacity="0.44"/>
<path d="M300,372.99256887635977 C420,382.7497043611365 480,454.40584059218077 600,479.5968882832669" stroke="#D1CFC9" stroke-width="0.8" fill="none" opacity="0.38"/>
<path d="M300,457.5729130472925 C420,447.40015349895697 480,125.91774588309175 600,119.63106083395682" stroke="#D1CFC9" stroke-width="0.8" fill="none" opacity="0.26"/>
<path d="M300,457.5729130472925 C420,481.8720722240098 480,261.8424833250797 600,245.05333938818737" stroke="#D1CFC9" stroke-width="0.8" fill="none" opacity="0.27"/>
<path d="M300,549.533232613358 C420,509.54925162241545 480,363.23163700067244 600,360.3051540412719" stroke="#D1CFC9" stroke-width="0.8" fill="none" opacity="0.41"/>
<path d="M300,549.533232613358 C420,530.3955187463191 480,495.2997079900698 600,479.5968882832669" stroke="#D1CFC9" stroke-width="0.8" fill="none" opacity="0.34"/>
<path d="M600,119.63106083395682 C720,80.69603292939627 780,160.08188324200034 900,148.51969680630594" stroke="#D1CFC9" stroke-width="0.8" fill="none" opacity="0.27"/>
<path d="M600,119.63106083395682 C720,142.90507443503128 780,271.5837109670005 900,235.23346664692124" stroke="#D1CFC9" stroke-width="0.8" fill="none" opacity="0.32"/>
<path d="M600,119.63106083395682 C720,154.2665629140722 780,391.3996848877984 900,393.4432681789257" stroke="#D1CFC9" stroke-width="0.8" fill="none" opacity="0.41"/>
<path d="M600,245.05333938818737 C720,205.59086139509242 780,126.22346996623638 900,148.51969680630594" stroke="#D1CFC9" stroke-width="0.8" fill="none" opacity="0.43"/>
<path d="M600,245.05333938818737 C720,260.7478708456149 780,274.07149452997174 900,235.23346664692124" stroke="#D1CFC9" stroke-width="0.8" fill="none" opacity="0.37"/>
<path d="M600,245.05333938818737 C720,236.90579127513473 780,374.7934825907446 900,393.4432681789257" stroke="#D1CFC9" stroke-width="0.8" fill="none" opacity="0.41"/>
<path d="M600,245.05333938818737 C720,248.14667303370004 780,480.308272637778 900,490.2532387681895" stroke="#D1CFC9" stroke-width="0.8" fill="none" opacity="0.29"/>
<path d="M600,360.3051540412719 C720,391.8023828740703 780,258.9141092628506 900,235.23346664692124" stroke="#D1CFC9" stroke-width="0.8" fill="none" opacity="0.35"/>
<path d="M600,479.5968882832669 C720,498.4310597783958 780,116.69026278962619 900,148.51969680630594" stroke="#D1CFC9" stroke-width="0.8" fill="none" opacity="0.38"/>
<path d="M600,479.5968882832669 C720,457.3978815734847 780,252.46840549410985 900,235.23346664692124" stroke="#D1CFC9" stroke-width="0.8" fill="none" opacity="0.36"/>
<path d="M600,479.5968882832669 C720,491.4997591664781 780,398.4654681069929 900,393.4432681789257" stroke="#D1CFC9" stroke-width="0.8" fill="none" opacity="0.34"/>
<path d="M600,479.5968882832669 C720,479.73398027944705 780,462.178063131724 900,490.2532387681895" stroke="#D1CFC9" stroke-width="0.8" fill="none" opacity="0.42"/>
<path d="M900,148.51969680630594 C960,125.48847566635544 990,77.36787756517712 1050,101.85699212547787" stroke="#D1CFC9" stroke-width="0.8" fill="none" opacity="0.34"/>
<path d="M900,148.51969680630594 C960,188.50175919823855 990,281.14011725437365 1050,319.88274505359186" stroke="#D1CFC9" stroke-width="0.8" fill="none" opacity="0.42"/>
<path d="M900,148.51969680630594 C960,165.71874708219403 990,539.2186627074188 1050,511.19491990031554" stroke="#D1CFC9" stroke-width="0.8" fill="none" opacity="0.35"/>
<path d="M900,235.23346664692124 C960,242.51249895908697 990,183.71637401467103 1050,193.58985163797388" stroke="#D1CFC9" stroke-width="0.8" fill="none" opacity="0.37"/>
<path d="M900,235.23346664692124 C960,201.33277891653887 990,474.10879164866844 1050,437.47013229887705" stroke="#D1CFC9" stroke-width="0.8" fill="none" opacity="0.31"/>
<path d="M900,235.23346664692124 C960,204.354229332496 990,547.586029313874 1050,511.19491990031554" stroke="#D1CFC9" stroke-width="0.8" fill="none" opacity="0.38"/>
<circle cx="150.0" cy="88.4" r="6.8" fill="#D1CFC9" opacity="0.8"/>
<circle cx="150.0" cy="147.1" r="5.8" fill="#D1CFC9" opacity="0.8"/>
<circle cx="150.0" cy="227.0" r="5.5" fill="#D1CFC9" opacity="0.8"/>
<circle cx="150.0" cy="309.0" r="4.8" fill="#D1CFC9" opacity="0.8"/>
<circle cx="150.0" cy="393.6" r="5.3" fill="#D1CFC9" opacity="0.8"/>
<circle cx="150.0" cy="466.8" r="5.2" fill="#D1CFC9" opacity="0.8"/>
<circle cx="150.0" cy="554.4" r="6.7" fill="#D1CFC9" opacity="0.8"/>
<circle cx="300.0" cy="75.9" r="5.1" fill="#D1CFC9" opacity="0.8"/>
<circle cx="300.0" cy="196.9" r="6.5" fill="#D1CFC9" opacity="0.8"/>
<circle cx="300.0" cy="279.4" r="4.8" fill="#D1CFC9" opacity="0.8"/>
<circle cx="300.0" cy="373.0" r="5.8" fill="#D1CFC9" opacity="0.8"/>
<circle cx="300.0" cy="457.6" r="4.1" fill="#D1CFC9" opacity="0.8"/>
<circle cx="300.0" cy="549.5" r="6.9" fill="#D1CFC9" opacity="0.8"/>
<circle cx="600.0" cy="119.6" r="4.9" fill="#D1CFC9" opacity="0.8"/>
<circle cx="600.0" cy="245.1" r="4.9" fill="#D1CFC9" opacity="0.8"/>
<circle cx="600.0" cy="360.3" r="5.9" fill="#D1CFC9" opacity="0.8"/>
<circle cx="600.0" cy="479.6" r="5.5" fill="#D1CFC9" opacity="0.8"/>
<circle cx="900.0" cy="148.5" r="6.3" fill="#D1CFC9" opacity="0.8"/>
<circle cx="900.0" cy="235.2" r="5.0" fill="#D1CFC9" opacity="0.8"/>
<circle cx="900.0" cy="393.4" r="5.8" fill="#D1CFC9" opacity="0.8"/>
<circle cx="900.0" cy="490.3" r="4.7" fill="#D1CFC9" opacity="0.8"/>
<circle cx="1050.0" cy="101.9" r="5.4" fill="#D1CFC9" opacity="0.8"/>
<circle cx="1050.0" cy="193.6" r="4.5" fill="#D1CFC9" opacity="0.8"/>
<circle cx="1050.0" cy="319.9" r="5.4" fill="#D1CFC9" opacity="0.8"/>
<circle cx="1050.0" cy="437.5" r="4.3" fill="#D1CFC9" opacity="0.8"/>
<circle cx="1050.0" cy="511.2" r="4.1" fill="#D1CFC9" opacity="0.8"/>
<circle cx="288.3" cy="514.0" r="12.4" fill="none" stroke="#1A1A1A" stroke-width="1" opacity="0.15"/>
<circle cx="903.3" cy="171.9" r="15.2" fill="none" stroke="#1A1A1A" stroke-width="1" opacity="0.15"/>
<circle cx="898.5" cy="137.2" r="17.9" fill="none" stroke="#1A1A1A" stroke-width="1" opacity="0.15"/>
<circle cx="581.7" cy="319.8" r="16.3" fill="none" stroke="#1A1A1A" stroke-width="1" opacity="0.15"/>
</svg>